<svg width="674" height="620" viewBox="0 0 674 620" fill="none" xmlns="http://www.w3.org/2000/svg">
<path d="M354.4 293.1H330.2C329 293.1 328.1 292.1 328.1 291V240C328.1 238.8 329.1 237.9 330.2 237.9H354.4C355.6 237.9 356.5 238.9 356.5 240V291C356.5 292.1 355.6 293.1 354.4 293.1Z" fill="#4E5A7D"/>
<path d="M354.4 293.1H330.2C329 293.1 328.1 292.1 328.1 291V240C328.1 238.8 329.1 237.9 330.2 237.9H354.4C355.6 237.9 356.5 238.9 356.5 240V291C356.5 292.1 355.6 293.1 354.4 293.1Z" stroke="#4E5A7D" stroke-width="6" stroke-miterlimit="10" stroke-linecap="round" stroke-linejoin="round"/>
<path d="M386 260.1H298.6C289.2 260.1 281.5 252.5 281.5 243V232.7C281.5 223.3 289.1 215.6 298.6 215.6H386C395.4 215.6 403.1 223.2 403.1 232.7V243C403 252.4 395.4 260.1 386 260.1Z" fill="#BCAFAA"/>
<path d="M386 250.8H298.6C289.2 250.8 281.5 243.2 281.5 233.7V243C281.5 252.4 289.1 260.1 298.6 260.1H386C395.4 260.1 403.1 252.5 403.1 243V233.7C403 243.2 395.4 250.8 386 250.8Z" fill="#A09592"/>
<path d="M386 215.7H298.6C289.2 215.7 281.5 223.3 281.5 232.8V243C281.5 243.2 281.5 243.3 281.5 243.5C281.8 234.3 289.3 227 298.5 227H386C395.2 227 402.7 234.4 403 243.5C403 243.3 403 243.2 403 243V232.7C403 223.3 395.4 215.7 386 215.7Z" fill="#D1CAC7"/>
<path d="M386 260.1H298.6C289.2 260.1 281.5 252.5 281.5 243V232.7C281.5 223.3 289.1 215.6 298.6 215.6H386C395.4 215.6 403.1 223.2 403.1 232.7V243C403 252.4 395.4 260.1 386 260.1Z" stroke="#4E5A7D" stroke-width="6" stroke-miterlimit="10" stroke-linecap="round" stroke-linejoin="round"/>
<path d="M439.298 294.738L423.71 285.738L407.71 313.45L423.298 322.45L439.298 294.738Z" fill="#4E5A7D"/>
<path d="M439.298 294.738L423.71 285.738L407.71 313.45L423.298 322.45L439.298 294.738Z" stroke="#4E5A7D" stroke-width="6" stroke-miterlimit="10" stroke-linecap="round" stroke-linejoin="round"/>
<path d="M443 296.9L420 283.6C415.2 280.8 413.6 274.8 416.4 270L417.2 268.6C420 263.8 426 262.2 430.8 265L453.8 278.3C458.6 281.1 460.2 287.1 457.4 291.9L456.6 293.3C453.9 298 447.8 299.7 443 296.9Z" fill="#E08484"/>
<path d="M443 296.9L420 283.6C415.2 280.8 413.6 274.8 416.4 270L417.2 268.6C420 263.8 426 262.2 430.8 265L453.8 278.3C458.6 281.1 460.2 287.1 457.4 291.9L456.6 293.3C453.9 298 447.8 299.7 443 296.9Z" fill="#E08484"/>
<path d="M415.3 275.3L416.1 273.9C418.9 269.1 424.9 267.5 429.7 270.3L452.7 283.6C455.4 285.2 457.1 287.8 457.6 290.6C460.1 285.9 458.5 279.9 453.8 277.2L430.8 263.9C426 261.1 419.9 262.8 417.2 267.5L416.4 268.9C415.2 271 414.8 273.3 415.2 275.5C415.2 275.5 415.2 275.4 415.3 275.3Z" fill="#E99697"/>
<path d="M443 296.9L420 283.6C415.2 280.8 413.6 274.8 416.4 270L417.2 268.6C420 263.8 426 262.2 430.8 265L453.8 278.3C458.6 281.1 460.2 287.1 457.4 291.9L456.6 293.3C453.9 298 447.8 299.7 443 296.9Z" stroke="#4E5A7D" stroke-width="6" stroke-miterlimit="10" stroke-linecap="round" stroke-linejoin="round"/>
<path d="M262.737 322.538L278.325 313.538L262.325 285.826L246.737 294.826L262.737 322.538Z" fill="#4E5A7D"/>
<path d="M262.737 322.538L278.325 313.538L262.325 285.826L246.737 294.826L262.737 322.538Z" stroke="#4E5A7D" stroke-width="6" stroke-miterlimit="10" stroke-linecap="round" stroke-linejoin="round"/>
<path d="M243 296.9L266 283.6C270.8 280.8 272.4 274.8 269.6 270L268.8 268.6C266 263.8 260 262.2 255.2 265L232.2 278.3C227.4 281.1 225.8 287.1 228.6 291.9L229.4 293.3C232.1 298 238.2 299.7 243 296.9Z" fill="#E08484"/>
<path d="M243 296.9L266 283.6C270.8 280.8 272.4 274.8 269.6 270L268.8 268.6C266 263.8 260 262.2 255.2 265L232.2 278.3C227.4 281.1 225.8 287.1 228.6 291.9L229.4 293.3C232.1 298 238.2 299.7 243 296.9Z" fill="#E08484"/>
<path d="M232.6 284.6L255.6 271.3C260.4 268.5 266.5 270.2 269.2 274.9L270 276.3C270.2 276.7 270.4 277.2 270.6 277.6C271.3 275.1 271 272.4 269.6 270L268.8 268.6C266 263.8 260 262.2 255.2 265L232.2 278.3C227.9 280.8 226.1 286.1 227.9 290.6C228.6 288.2 230.2 286 232.6 284.6Z" fill="#E99697"/>
<path d="M243 296.9L266 283.6C270.8 280.8 272.4 274.8 269.6 270L268.8 268.6C266 263.8 260 262.2 255.2 265L232.2 278.3C227.4 281.1 225.8 287.1 228.6 291.9L229.4 293.3C232.1 298 238.2 299.7 243 296.9Z" stroke="#4E5A7D" stroke-width="6" stroke-miterlimit="10" stroke-linecap="round" stroke-linejoin="round"/>
<path d="M387.1 216V260.1" stroke="#4E5A7D" stroke-width="6" stroke-miterlimit="10" stroke-linecap="round" stroke-linejoin="round"/>
<path d="M369.1 216V260.1" stroke="#4E5A7D" stroke-width="6" stroke-miterlimit="10" stroke-linecap="round" stroke-linejoin="round"/>
<path d="M351.1 216V260.1" stroke="#4E5A7D" stroke-width="6" stroke-miterlimit="10" stroke-linecap="round" stroke-linejoin="round"/>
<path d="M333.1 216V260.1" stroke="#4E5A7D" stroke-width="6" stroke-miterlimit="10" stroke-linecap="round" stroke-linejoin="round"/>
<path d="M315.1 216V260.1" stroke="#4E5A7D" stroke-width="6" stroke-miterlimit="10" stroke-linecap="round" stroke-linejoin="round"/>
<path d="M297.1 216V260.1" stroke="#4E5A7D" stroke-width="6" stroke-miterlimit="10" stroke-linecap="round" stroke-linejoin="round"/>
<path d="M342.3 616.5C434.366 616.5 509 541.866 509 449.8C509 357.734 434.366 283.1 342.3 283.1C250.234 283.1 175.6 357.734 175.6 449.8C175.6 541.866 250.234 616.5 342.3 616.5Z" fill="#E08484"/>
<path d="M342.3 603.2C252.5 603.2 179.3 532.2 175.8 443.2C175.7 445.4 175.7 447.6 175.7 449.9C175.7 542 250.3 616.6 342.4 616.6C434.5 616.6 509.1 542 509.1 449.9C509.1 447.7 509 445.4 509 443.2C505.3 532.1 432.1 603.2 342.3 603.2Z" fill="#D87171"/>
<path d="M342.3 294C432.5 294 506 365.7 508.9 455.3C509 453.5 509 451.7 509 449.9C509 357.8 434.4 283.2 342.3 283.2C250.2 283.2 175.6 357.8 175.6 449.9C175.6 451.7 175.6 453.5 175.7 455.3C178.6 365.7 252 294 342.3 294Z" fill="#E99697"/>
<path d="M342.3 581.6C415.091 581.6 474.1 522.591 474.1 449.8C474.1 377.009 415.091 318 342.3 318C269.509 318 210.5 377.009 210.5 449.8C210.5 522.591 269.509 581.6 342.3 581.6Z" fill="#FBE3D5"/>
<path d="M342.3 565.3C272.3 565.3 215 510.7 210.8 441.7C210.6 444.4 210.5 447.1 210.5 449.8C210.5 522.6 269.5 581.6 342.3 581.6C415.1 581.6 474.1 522.6 474.1 449.8C474.1 447.1 474 444.4 473.8 441.7C469.6 510.7 412.3 565.3 342.3 565.3Z" fill="#FFF4EE"/>
<path d="M342.3 334.9C412.2 334.9 469.4 389.4 473.8 458.2C474 455.4 474.1 452.6 474.1 449.8C474.1 377 415.1 318 342.3 318C269.5 318 210.5 377 210.5 449.8C210.5 452.6 210.6 455.4 210.8 458.2C215.2 389.4 272.4 334.9 342.3 334.9Z" fill="#F9D1BD"/>
<path d="M343 447.1V496.7" stroke="#4E5A7D" stroke-width="13" stroke-miterlimit="10" stroke-linecap="round" stroke-linejoin="round"/>
<path d="M343 447.1V373.5" stroke="#4E5A7D" stroke-width="13" stroke-miterlimit="10" stroke-linecap="round" stroke-linejoin="round"/>
<path d="M342.3 581.6C415.091 581.6 474.1 522.591 474.1 449.8C474.1 377.009 415.091 318 342.3 318C269.509 318 210.5 377.009 210.5 449.8C210.5 522.591 269.509 581.6 342.3 581.6Z" stroke="#4E5A7D" stroke-width="6" stroke-miterlimit="10" stroke-linecap="round" stroke-linejoin="round"/>
<path d="M343 321.9V348" stroke="#4E5A7D" stroke-width="10" stroke-miterlimit="10" stroke-linecap="round" stroke-linejoin="round"/>
<path d="M343 551.7V577.8" stroke="#4E5A7D" stroke-width="10" stroke-miterlimit="10" stroke-linecap="round" stroke-linejoin="round"/>
<path d="M470.9 449.8H444.9" stroke="#4E5A7D" stroke-width="10" stroke-miterlimit="10" stroke-linecap="round" stroke-linejoin="round"/>
<path d="M241.1 449.8H215.1" stroke="#4E5A7D" stroke-width="10" stroke-miterlimit="10" stroke-linecap="round" stroke-linejoin="round"/>
<path d="M435.8 357L426.1 366.8" stroke="#4E5A7D" stroke-width="6" stroke-miterlimit="10" stroke-linecap="round" stroke-linejoin="round"/>
<path d="M259.9 532.9L249.5 543.4" stroke="#4E5A7D" stroke-width="6" stroke-miterlimit="10" stroke-linecap="round" stroke-linejoin="round"/>
<path d="M435.8 542.6L426.1 532.9" stroke="#4E5A7D" stroke-width="6" stroke-miterlimit="10" stroke-linecap="round" stroke-linejoin="round"/>
<path d="M259.9 366.8L249.5 356.3" stroke="#4E5A7D" stroke-width="6" stroke-miterlimit="10" stroke-linecap="round" stroke-linejoin="round"/>
<path d="M343 460.6C350.456 460.6 356.5 454.556 356.5 447.1C356.5 439.644 350.456 433.6 343 433.6C335.544 433.6 329.5 439.644 329.5 447.1C329.5 454.556 335.544 460.6 343 460.6Z" fill="#FBE3D5"/>
<path d="M343 460.6C350.456 460.6 356.5 454.556 356.5 447.1C356.5 439.644 350.456 433.6 343 433.6C335.544 433.6 329.5 439.644 329.5 447.1C329.5 454.556 335.544 460.6 343 460.6Z" stroke="#4E5A7D" stroke-width="9" stroke-miterlimit="10" stroke-linecap="round" stroke-linejoin="round"/>
<path d="M343 506C348.136 506 352.3 501.836 352.3 496.7C352.3 491.564 348.136 487.4 343 487.4C337.864 487.4 333.7 491.564 333.7 496.7C333.7 501.836 337.864 506 343 506Z" fill="#FBE3D5"/>
<path d="M343 506C348.136 506 352.3 501.836 352.3 496.7C352.3 491.564 348.136 487.4 343 487.4C337.864 487.4 333.7 491.564 333.7 496.7C333.7 501.836 337.864 506 343 506Z" stroke="#4E5A7D" stroke-width="6" stroke-miterlimit="10" stroke-linecap="round" stroke-linejoin="round"/>
<path d="M342.3 616.5C434.366 616.5 509 541.866 509 449.8C509 357.734 434.366 283.1 342.3 283.1C250.234 283.1 175.6 357.734 175.6 449.8C175.6 541.866 250.234 616.5 342.3 616.5Z" stroke="#4E5A7D" stroke-width="6" stroke-miterlimit="10" stroke-linecap="round" stroke-linejoin="round"/>
<path d="M385.8 32.6001L394.4 29.1001" stroke="white" stroke-width="2" stroke-miterlimit="10" stroke-linecap="round" stroke-linejoin="round"/>
<path d="M378 27.2999L380.9 17.3999" stroke="white" stroke-width="2" stroke-miterlimit="10" stroke-linecap="round" stroke-linejoin="round"/>
<path d="M381.9 29.0998L390.6 19.2998" stroke="white" stroke-width="2" stroke-miterlimit="10" stroke-linecap="round" stroke-linejoin="round"/>
<path d="M645.3 206.1L653.8 202.7" stroke="white" stroke-width="2" stroke-miterlimit="10" stroke-linecap="round" stroke-linejoin="round"/>
<path d="M637.4 200.9L640.4 190.9" stroke="white" stroke-width="2" stroke-miterlimit="10" stroke-linecap="round" stroke-linejoin="round"/>
<path d="M641.4 202.7L650.1 192.8" stroke="white" stroke-width="2" stroke-miterlimit="10" stroke-linecap="round" stroke-linejoin="round"/>
<path d="M17.0001 241.9L15.1001 234" stroke="white" stroke-width="2" stroke-miterlimit="10" stroke-linecap="round" stroke-linejoin="round"/>
<path d="M11.3 248.2L1 246.2" stroke="white" stroke-width="2" stroke-miterlimit="10" stroke-linecap="round" stroke-linejoin="round"/>
<path d="M13.3999 244.9L5.8999 236" stroke="white" stroke-width="2" stroke-miterlimit="10" stroke-linecap="round" stroke-linejoin="round"/>
<path d="M623.6 309.6C597.5 310.8 571.3 310.8 545.1 309.6C536 309.2 528.7 301.7 528.7 292.6V234C528.7 224.8 535.9 217.4 545.1 217C571.2 215.8 597.4 215.8 623.6 217C632.7 217.4 640 224.9 640 234V292.6C640 301.7 632.7 309.2 623.6 309.6Z" fill="white"/>
<path d="M623.6 309.6C597.5 310.8 571.3 310.8 545.1 309.6C536 309.2 528.7 301.7 528.7 292.6V234C528.7 224.8 535.9 217.4 545.1 217C571.2 215.8 597.4 215.8 623.6 217C632.7 217.4 640 224.9 640 234V292.6C640 301.7 632.7 309.2 623.6 309.6Z" stroke="#4E5A7D" stroke-width="6" stroke-miterlimit="10" stroke-linecap="round" stroke-linejoin="round"/>
<path d="M543.9 281.3L567.7 250.6L595.9 270.9L624.2 244" stroke="#4E5A7D" stroke-width="6" stroke-miterlimit="10" stroke-linecap="round" stroke-linejoin="round"/>
<path d="M543.9 287.9C547.159 287.9 549.8 285.259 549.8 282C549.8 278.742 547.159 276.1 543.9 276.1C540.642 276.1 538 278.742 538 282C538 285.259 540.642 287.9 543.9 287.9Z" fill="white"/>
<path d="M543.9 287.9C547.159 287.9 549.8 285.259 549.8 282C549.8 278.742 547.159 276.1 543.9 276.1C540.642 276.1 538 278.742 538 282C538 285.259 540.642 287.9 543.9 287.9Z" stroke="#4E5A7D" stroke-width="6" stroke-miterlimit="10" stroke-linecap="round" stroke-linejoin="round"/>
<path d="M568.2 257.4C571.9 257.4 574.9 254.4 574.9 250.7C574.9 247 571.9 244 568.2 244C564.5 244 561.5 247 561.5 250.7C561.5 254.4 564.5 257.4 568.2 257.4Z" fill="white"/>
<path d="M568.2 257.4C571.9 257.4 574.9 254.4 574.9 250.7C574.9 247 571.9 244 568.2 244C564.5 244 561.5 247 561.5 250.7C561.5 254.4 564.5 257.4 568.2 257.4Z" stroke="#4E5A7D" stroke-width="6" stroke-miterlimit="10" stroke-linecap="round" stroke-linejoin="round"/>
<path d="M595.8 276.1C599.832 276.1 603.1 272.832 603.1 268.8C603.1 264.768 599.832 261.5 595.8 261.5C591.768 261.5 588.5 264.768 588.5 268.8C588.5 272.832 591.768 276.1 595.8 276.1Z" fill="white"/>
<path d="M595.8 276.1C599.832 276.1 603.1 272.832 603.1 268.8C603.1 264.768 599.832 261.5 595.8 261.5C591.768 261.5 588.5 264.768 588.5 268.8C588.5 272.832 591.768 276.1 595.8 276.1Z" stroke="#4E5A7D" stroke-width="6" stroke-miterlimit="10" stroke-linecap="round" stroke-linejoin="round"/>
<path d="M625.4 249.7C629.432 249.7 632.7 246.432 632.7 242.4C632.7 238.368 629.432 235.1 625.4 235.1C621.368 235.1 618.1 238.368 618.1 242.4C618.1 246.432 621.368 249.7 625.4 249.7Z" fill="white"/>
<path d="M625.4 249.7C629.432 249.7 632.7 246.432 632.7 242.4C632.7 238.368 629.432 235.1 625.4 235.1C621.368 235.1 618.1 238.368 618.1 242.4C618.1 246.432 621.368 249.7 625.4 249.7Z" stroke="#4E5A7D" stroke-width="6" stroke-miterlimit="10" stroke-linecap="round" stroke-linejoin="round"/>
<path d="M637.2 335C655.481 335 670.3 320.18 670.3 301.9C670.3 283.619 655.481 268.8 637.2 268.8C618.92 268.8 604.1 283.619 604.1 301.9C604.1 320.18 618.92 335 637.2 335Z" fill="white"/>
<path d="M637.2 335C655.481 335 670.3 320.18 670.3 301.9C670.3 283.619 655.481 268.8 637.2 268.8C618.92 268.8 604.1 283.619 604.1 301.9C604.1 320.18 618.92 335 637.2 335Z" fill="white"/>
<path d="M637.2 335C655.481 335 670.3 320.18 670.3 301.9C670.3 283.619 655.481 268.8 637.2 268.8C618.92 268.8 604.1 283.619 604.1 301.9C604.1 320.18 618.92 335 637.2 335Z" stroke="#4E5A7D" stroke-width="6" stroke-miterlimit="10" stroke-linecap="round" stroke-linejoin="round"/>
<path d="M650.9 283.1C656.7 287.3 660.4 294.1 660.4 301.8C660.4 314.6 650 325 637.2 325C624.4 325 614 314.7 614 301.9C614 299.9 614.3 297.9 614.8 296" stroke="#4E5A7D" stroke-width="5" stroke-miterlimit="10" stroke-linecap="round" stroke-linejoin="round"/>
<path d="M646.8 292.1C647.7 293 648.5 294 649.1 295.2C652.8 301.8 650.4 310.2 643.8 313.8C640.5 315.6 636.7 316 633.4 315" stroke="#4E5A7D" stroke-width="5" stroke-miterlimit="10" stroke-linecap="round" stroke-linejoin="round"/>
<path d="M147.5 482.1C120.2 453.8 99.9001 419.8 89.1001 382.3" stroke="white" stroke-width="3" stroke-miterlimit="10" stroke-linecap="round" stroke-linejoin="round" stroke-dasharray="18 18"/>
<path d="M592.3 361.9C585.9 400.4 569.7 435.9 546.1 466.3" stroke="white" stroke-width="3" stroke-miterlimit="10" stroke-linecap="round" stroke-linejoin="round" stroke-dasharray="18 18"/>
<path d="M426.1 84.5C488.6 101.4 541.6 138.5 576.1 187.5" stroke="white" stroke-width="3" stroke-miterlimit="10" stroke-linecap="round" stroke-linejoin="round" stroke-dasharray="18 18"/>
<path d="M116.4 206.1C141 158.2 183.5 119.4 236.1 97.1001" stroke="white" stroke-width="3" stroke-miterlimit="10" stroke-linecap="round" stroke-linejoin="round" stroke-dasharray="18 18"/>
<path d="M358.781 120.762H291.785C284.753 120.762 279 115.606 279 109.305V34.4873C279 28.1857 284.753 23.0298 291.785 23.0298H358.781C365.813 23.0298 371.566 28.1857 371.566 34.4873V109.305C371.566 115.606 365.813 120.762 358.781 120.762Z" fill="white"/>
<path d="M358.781 120.762H291.785C284.753 120.762 279 115.606 279 109.305V34.4873C279 28.1857 284.753 23.0298 291.785 23.0298H358.781C365.813 23.0298 371.566 28.1857 371.566 34.4873V109.305C371.566 115.606 365.813 120.762 358.781 120.762Z" stroke="#4E5A7D" stroke-width="3" stroke-miterlimit="10" stroke-linecap="round" stroke-linejoin="round"/>
<path d="M365.301 141.5C379.494 141.5 391 131.189 391 118.47C391 105.752 379.494 95.4409 365.301 95.4409C351.108 95.4409 339.603 105.752 339.603 118.47C339.603 131.189 351.108 141.5 365.301 141.5Z" fill="white"/>
<path d="M365.301 141.5C379.494 141.5 391 131.189 391 118.47C391 105.752 379.494 95.4409 365.301 95.4409C351.108 95.4409 339.603 105.752 339.603 118.47C339.603 131.189 351.108 141.5 365.301 141.5Z" stroke="#4E5A7D" stroke-width="3" stroke-miterlimit="10" stroke-linecap="round" stroke-linejoin="round"/>
<path d="M353.539 118.241L361.594 125.46L377.064 111.481" stroke="#4E5A7D" stroke-width="4" stroke-miterlimit="10" stroke-linecap="round" stroke-linejoin="round"/>
<path d="M333.466 16.9571V7.44737C333.466 3.32267 329.758 0 325.155 0C320.552 0 316.845 3.32267 316.845 7.44737V16.9571H307.767V19.936V29.904H342.543V19.936V16.9571H333.466Z" fill="white"/>
<path d="M333.466 17.8735V9.05125C333.466 5.27028 329.758 2.17676 325.155 2.17676C320.552 2.17676 316.845 5.27028 316.845 9.05125V17.8735H307.767V20.6233V29.9039H342.543V20.6233V17.8735H333.466Z" stroke="#4E5A7D" stroke-width="3" stroke-miterlimit="10" stroke-linecap="round" stroke-linejoin="round"/>
<path d="M303.676 57.6309H351.238" stroke="#4E5A7D" stroke-width="3" stroke-miterlimit="10" stroke-linecap="round" stroke-linejoin="round"/>
<path d="M303.676 71.8384H351.238" stroke="#4E5A7D" stroke-width="3" stroke-miterlimit="10" stroke-linecap="round" stroke-linejoin="round"/>
<path d="M312.37 85.5874H342.543" stroke="#4E5A7D" stroke-width="3" stroke-miterlimit="10" stroke-linecap="round" stroke-linejoin="round"/>
<path d="M83.2242 270.125L73.3446 258.154C63.7679 246.535 47.1309 245.668 36.8925 256.752C26.9833 267.508 23.1472 287.703 35.1322 310.779C47.2225 333.859 80.0304 350.462 80.0304 350.462C80.0304 350.462 114.122 336.43 127.843 314.343C141.669 292.259 139.395 271.83 130.235 260.341C120.878 248.503 104.223 248.09 93.7831 258.939L83.2242 270.125Z" fill="white"/>
<path d="M83.2242 270.125L73.3446 258.154C63.7679 246.535 47.1309 245.668 36.8925 256.752C26.9833 267.508 23.1472 287.703 35.1322 310.779C47.2225 333.859 80.0304 350.462 80.0304 350.462C80.0304 350.462 114.122 336.43 127.843 314.343C141.669 292.259 139.395 271.83 130.235 260.341C120.878 248.503 104.223 248.09 93.7831 258.939L83.2242 270.125Z" stroke="#4E5A7D" stroke-width="3" stroke-miterlimit="10" stroke-linecap="round" stroke-linejoin="round"/>
<path d="M46.1005 305.405L62.7463 306.045L71.7396 283.435L81.1477 324.14L89.6505 306.056L95.2674 316.386L104.504 284.694L111.103 305.176L120.268 305.529" stroke="#4E5A7D" stroke-width="3" stroke-miterlimit="10" stroke-linecap="round" stroke-linejoin="round"/>
<path d="M147 252.3H154.3" stroke="white" stroke-width="2" stroke-miterlimit="10" stroke-linecap="round" stroke-linejoin="round"/>
<path d="M142 244.8L147 238" stroke="white" stroke-width="2" stroke-miterlimit="10" stroke-linecap="round" stroke-linejoin="round"/>
<path d="M145.5 247.9L153 243.2" stroke="white" stroke-width="2" stroke-miterlimit="10" stroke-linecap="round" stroke-linejoin="round"/>
</svg>
