<svg width="708" height="696" viewBox="0 0 708 696" fill="none" xmlns="http://www.w3.org/2000/svg">
<path style="mix-blend-mode:overlay" opacity="0.43" d="M612.289 689.638H0.463745L229.154 198.248H383.599L612.289 689.638Z" fill="url(#paint0_linear)"/>
<path d="M113.988 428.446H448.431C452.924 428.446 457.234 430.218 460.412 433.373C463.589 436.528 465.374 440.806 465.374 445.268V664.367H97.0485V445.267C97.0487 440.806 98.8335 436.528 102.01 433.374C105.187 430.219 109.496 428.447 113.988 428.446V428.446Z" fill="#D2DCE6"/>
<path d="M113.988 428.446H448.431C452.924 428.446 457.234 430.218 460.412 433.373C463.589 436.528 465.374 440.806 465.374 445.268V664.367H97.0485V445.267C97.0487 440.806 98.8335 436.528 102.01 433.374C105.187 430.219 109.496 428.447 113.988 428.446V428.446Z" stroke="#283035" stroke-width="6" stroke-linecap="round" stroke-linejoin="round"/>
<path d="M437.651 637.121V456.248H124.772V637.121H437.651Z" fill="#FF5C5C"/>
<path opacity="0.3" d="M306.376 608.265H357.863" stroke="white" stroke-width="6" stroke-linecap="round" stroke-linejoin="round"/>
<g opacity="0.3">
<path opacity="0.3" d="M431.897 552.041C432.888 551.979 433.871 552.25 434.688 552.811C435.505 553.371 436.108 554.189 436.399 555.131V543.87C435.312 543.555 434.186 543.392 433.053 543.387H431.897C429.406 543.387 428.161 544.623 428.162 547.096V548.419C428.162 550.804 429.406 552.041 431.897 552.041Z" fill="white"/>
<path opacity="0.3" d="M436.399 606.017C436.102 606.954 435.497 607.765 434.681 608.321C433.865 608.877 432.885 609.145 431.897 609.084C429.406 609.084 428.161 610.32 428.162 612.791V614.117C428.162 616.588 429.407 617.825 431.897 617.825H433.053C434.186 617.82 435.312 617.657 436.399 617.342V606.017Z" fill="white"/>
</g>
<path d="M437.651 637.121V456.248H124.772V637.121H437.651Z" stroke="#283035" stroke-width="6" stroke-linecap="round" stroke-linejoin="round"/>
<path d="M280.432 449.842C284.807 449.842 288.353 446.321 288.353 441.978C288.353 437.635 284.807 434.114 280.432 434.114C276.057 434.114 272.511 437.635 272.511 441.978C272.511 446.321 276.057 449.842 280.432 449.842Z" fill="#686B6D"/>
<path d="M280.432 449.842C284.807 449.842 288.353 446.321 288.353 441.978C288.353 437.635 284.807 434.114 280.432 434.114C276.057 434.114 272.511 437.635 272.511 441.978C272.511 446.321 276.057 449.842 280.432 449.842Z" stroke="#283035" stroke-width="4" stroke-linecap="round" stroke-linejoin="round"/>
<g style="mix-blend-mode:multiply" opacity="0.14">
<path d="M328.151 491.287H177.668C173.289 491.287 169.739 494.811 169.739 499.159V615.138C169.739 619.485 173.289 623.01 177.668 623.01H328.151C332.53 623.01 336.08 619.485 336.08 615.138V499.159C336.08 494.811 332.53 491.287 328.151 491.287Z" fill="black"/>
</g>
<path d="M320.396 484.406H169.913C165.534 484.406 161.984 487.931 161.984 492.278V608.257C161.984 612.605 165.534 616.129 169.913 616.129H320.396C324.775 616.129 328.324 612.605 328.324 608.257V492.278C328.324 487.931 324.775 484.406 320.396 484.406Z" fill="#353F49"/>
<path d="M320.396 484.406H169.913C165.534 484.406 161.984 487.931 161.984 492.278V608.257C161.984 612.605 165.534 616.129 169.913 616.129H320.396C324.775 616.129 328.324 612.605 328.324 608.257V492.278C328.324 487.931 324.775 484.406 320.396 484.406Z" stroke="#283035" stroke-width="4" stroke-linecap="round" stroke-linejoin="round"/>
<path d="M169.912 484.406H320.396C322.498 484.406 324.515 485.236 326.002 486.712C327.489 488.188 328.324 490.19 328.324 492.278V504.066H161.984V492.278C161.984 490.191 162.819 488.188 164.306 486.712C165.792 485.236 167.809 484.407 169.912 484.406Z" fill="#EAEEEF"/>
<path d="M169.912 484.406H320.396C322.498 484.406 324.515 485.236 326.002 486.712C327.489 488.188 328.324 490.19 328.324 492.278V504.066H161.984V492.278C161.984 490.191 162.819 488.188 164.306 486.712C165.792 485.236 167.809 484.407 169.912 484.406Z" stroke="#283035" stroke-width="4" stroke-linecap="round" stroke-linejoin="round"/>
<path opacity="0.35" d="M176.175 497.308C177.884 497.308 179.269 495.933 179.269 494.236C179.269 492.54 177.884 491.165 176.175 491.165C174.466 491.165 173.081 492.54 173.081 494.236C173.081 495.933 174.466 497.308 176.175 497.308Z" fill="#283035"/>
<path opacity="0.35" d="M185.911 497.308C187.62 497.308 189.005 495.933 189.005 494.236C189.005 492.54 187.62 491.165 185.911 491.165C184.202 491.165 182.817 492.54 182.817 494.236C182.817 495.933 184.202 497.308 185.911 497.308Z" fill="#283035"/>
<path opacity="0.35" d="M195.153 497.308C196.862 497.308 198.247 495.933 198.247 494.236C198.247 492.54 196.862 491.165 195.153 491.165C193.444 491.165 192.059 492.54 192.059 494.236C192.059 495.933 193.444 497.308 195.153 497.308Z" fill="#283035"/>
<path d="M169.739 510.947H180.631" stroke="#46BB86" stroke-width="3" stroke-miterlimit="10"/>
<path d="M184.591 510.947H214.295" stroke="#46BB86" stroke-width="3" stroke-miterlimit="10"/>
<path d="M169.739 518.812H214.295" stroke="#389ABE" stroke-width="3" stroke-miterlimit="10"/>
<path d="M178.65 526.676H200.433" stroke="#E5C689" stroke-width="3" stroke-miterlimit="10"/>
<path d="M204.394 526.676H228.157" stroke="#F2F3F4" stroke-width="3" stroke-miterlimit="10"/>
<path d="M190.532 534.54H236.078" stroke="#F2F3F4" stroke-width="3" stroke-miterlimit="10"/>
<path d="M190.532 542.404H224.196" stroke="#FFA49F" stroke-width="3" stroke-miterlimit="10"/>
<path d="M178.65 550.268H228.157" stroke="#F2F3F4" stroke-width="3" stroke-miterlimit="10"/>
<path d="M169.739 557.148H196.473" stroke="#389ABE" stroke-width="3" stroke-miterlimit="10"/>
<g opacity="0.3">
<path opacity="0.3" d="M400.078 595.231C400.078 591.346 398.565 588.61 395.541 586.932C393.406 585.784 392.517 584.9 392.517 582.87V579.429C392.517 577.046 393.585 576.516 395.452 575.279C398.565 573.955 400.078 571.13 400.078 566.891V559.385C400.078 553.381 402.301 548.965 405.503 547.111C407.897 545.415 410.745 544.463 413.685 544.374H414.842C417.331 544.374 418.577 545.61 418.577 548.082V549.402C418.577 551.785 417.332 553.022 414.842 553.022C411.376 553.022 409.683 555.494 409.683 560.527V569.799C409.771 572.05 409.206 574.278 408.055 576.22C406.904 578.161 405.216 579.733 403.191 580.749L402.39 581.013V581.19C403.302 581.458 404.15 581.909 404.88 582.515C407.104 583.838 409.683 586.93 409.683 592.316V602.647C409.683 607.592 411.373 610.065 414.842 610.065C417.331 610.065 418.577 611.301 418.577 613.773V615.098C418.577 617.57 417.332 618.806 414.842 618.807H413.685C410.745 618.718 407.897 617.765 405.503 616.069C402.301 614.215 400.078 609.712 400.078 603.795V595.231Z" fill="white"/>
</g>
<path d="M678.3 565.115H601.269C596.293 565.115 592.259 569.12 592.259 574.061V683.961C592.259 688.901 596.293 692.906 601.269 692.906H678.3C683.277 692.906 687.311 688.901 687.311 683.961V574.061C687.311 569.12 683.277 565.115 678.3 565.115Z" fill="#E5E5E5"/>
<path d="M678.3 565.115H677.159C677.323 565.791 677.407 566.484 677.409 567.18V677.079C677.409 679.452 676.46 681.727 674.77 683.405C673.081 685.082 670.789 686.025 668.399 686.025H592.515C592.983 687.983 594.102 689.727 595.691 690.976C597.281 692.224 599.248 692.904 601.275 692.906H678.306C680.696 692.906 682.988 691.963 684.677 690.286C686.367 688.608 687.317 686.333 687.317 683.961V574.061C687.317 572.885 687.083 571.722 686.63 570.636C686.177 569.55 685.513 568.564 684.675 567.733C683.838 566.902 682.844 566.244 681.75 565.794C680.656 565.345 679.484 565.114 678.3 565.115V565.115Z" fill="#CFD1D0"/>
<path d="M678.3 565.115H601.269C596.293 565.115 592.259 569.12 592.259 574.061V683.961C592.259 688.901 596.293 692.906 601.269 692.906H678.3C683.277 692.906 687.311 688.901 687.311 683.961V574.061C687.311 569.12 683.277 565.115 678.3 565.115Z" stroke="#283035" stroke-width="6" stroke-linecap="round" stroke-linejoin="round"/>
<path d="M655.627 557.7H647.706V554.751C647.706 552.665 646.871 550.665 645.386 549.19C643.9 547.715 641.885 546.887 639.785 546.887C637.684 546.887 635.669 547.715 634.184 549.19C632.698 550.665 631.864 552.665 631.864 554.751V557.7H623.943C621.842 557.7 619.827 558.528 618.342 560.003C616.856 561.478 616.022 563.478 616.022 565.564C616.022 567.649 616.856 569.65 618.342 571.125C619.827 572.599 621.842 573.428 623.943 573.428H655.627C657.727 573.428 659.742 572.599 661.228 571.125C662.713 569.65 663.548 567.649 663.548 565.564C663.548 563.478 662.713 561.478 661.228 560.003C659.742 558.528 657.727 557.7 655.627 557.7Z" fill="#F7B66F"/>
<path d="M659.307 558.604C659.628 559.77 659.674 560.993 659.44 562.179C659.207 563.364 658.701 564.48 657.961 565.44C657.221 566.399 656.268 567.175 655.176 567.709C654.084 568.242 652.883 568.517 651.666 568.513H619.982C618.7 568.514 617.436 568.204 616.302 567.61C616.755 569.278 617.748 570.752 619.129 571.804C620.51 572.856 622.202 573.427 623.943 573.428H655.627C657.396 573.426 659.114 572.836 660.507 571.752C661.899 570.668 662.886 569.152 663.31 567.446C663.733 565.74 663.569 563.943 662.844 562.34C662.118 560.738 660.873 559.423 659.307 558.604Z" fill="#EDA762"/>
<path d="M643.745 549.836V552.785H647.446C647.17 551.723 646.673 550.73 645.988 549.87C645.302 549.01 644.443 548.302 643.465 547.792C643.649 548.458 643.743 549.145 643.745 549.836V549.836Z" fill="#EDA762"/>
<path d="M655.627 557.7H647.706V554.751C647.706 552.665 646.871 550.665 645.386 549.19C643.9 547.715 641.885 546.887 639.785 546.887C637.684 546.887 635.669 547.715 634.184 549.19C632.698 550.665 631.864 552.665 631.864 554.751V557.7H623.943C621.842 557.7 619.827 558.528 618.342 560.003C616.856 561.478 616.022 563.478 616.022 565.564C616.022 567.649 616.856 569.65 618.342 571.125C619.827 572.599 621.842 573.428 623.943 573.428H655.627C657.727 573.428 659.742 572.599 661.228 571.125C662.713 569.65 663.548 567.649 663.548 565.564C663.548 563.478 662.713 561.478 661.228 560.003C659.742 558.528 657.727 557.7 655.627 557.7Z" stroke="#283035" stroke-width="6" stroke-linecap="round" stroke-linejoin="round"/>
<path d="M639.785 601.935C644.341 601.935 648.035 598.268 648.035 593.744C648.035 589.22 644.341 585.552 639.785 585.552C635.228 585.552 631.534 589.22 631.534 593.744C631.534 598.268 635.228 601.935 639.785 601.935Z" fill="#8EAFBF"/>
<path d="M639.785 601.935C644.341 601.935 648.035 598.268 648.035 593.744C648.035 589.22 644.341 585.552 639.785 585.552C635.228 585.552 631.534 589.22 631.534 593.744C631.534 598.268 635.228 601.935 639.785 601.935Z" stroke="#283035" stroke-width="6" stroke-linecap="round" stroke-linejoin="round"/>
<path d="M608.322 618.974H628.124" stroke="#283035" stroke-width="6" stroke-linecap="round" stroke-linejoin="round"/>
<path d="M608.322 645.679H628.124" stroke="#283035" stroke-width="6" stroke-linecap="round" stroke-linejoin="round"/>
<path d="M641.208 617.923L646.37 624.74L661.82 613.209" stroke="#8BAFC1" stroke-width="4" stroke-linecap="round" stroke-linejoin="round"/>
<path d="M641.208 644.627L646.37 651.445L661.82 639.914" stroke="#8BAFC1" stroke-width="4" stroke-linecap="round" stroke-linejoin="round"/>
<path d="M697.116 619.816L687.309 621.171L696.043 683.483L705.85 682.128L697.116 619.816Z" fill="#3BBC88"/>
<path d="M697.116 619.816L687.309 621.171L696.043 683.483L705.85 682.128L697.116 619.816Z" stroke="#283035" stroke-width="4" stroke-linecap="round" stroke-linejoin="round"/>
<path d="M693.494 609.918L687.612 610.731L688.979 620.463L694.86 619.649L693.494 609.918Z" fill="#E5E5E5"/>
<path d="M693.494 609.918L687.612 610.731L688.979 620.463L694.86 619.649L693.494 609.918Z" stroke="#283035" stroke-width="3.99829" stroke-linecap="round" stroke-linejoin="round"/>
<path d="M705.983 644.404C704.874 642.59 704.088 640.6 703.66 638.522C702.565 633.181 705.267 630.128 703.806 627.088C703.224 625.876 702.942 624.221 698.568 623.594" stroke="#283035" stroke-width="4" stroke-linecap="round" stroke-linejoin="round"/>
<path d="M306.376 223.714C319.5 223.714 330.139 213.151 330.139 200.122C330.139 187.092 319.5 176.53 306.376 176.53C293.252 176.53 282.613 187.092 282.613 200.122C282.613 213.151 293.252 223.714 306.376 223.714Z" fill="white"/>
<path d="M238.161 205.448C236.952 205.444 235.758 205.186 234.658 204.69C233.557 204.194 232.575 203.472 231.776 202.572C230.977 201.671 230.38 200.613 230.023 199.467C229.666 198.32 229.559 197.112 229.707 195.921C234.326 156.986 266.89 126.808 306.376 126.808C345.863 126.808 378.427 156.986 383.045 195.921C383.193 197.112 383.086 198.32 382.729 199.467C382.372 200.614 381.775 201.672 380.975 202.573C380.176 203.473 379.194 204.195 378.093 204.691C376.992 205.186 375.798 205.444 374.589 205.448H238.161Z" fill="#F7B66F"/>
<path d="M318.258 127.736C318.002 127.695 317.744 127.667 317.488 127.629C316.588 127.498 315.683 127.379 314.773 127.278C314.359 127.232 313.944 127.195 313.528 127.156C312.774 127.085 312.018 127.021 311.262 126.978C310.822 126.952 310.385 126.92 309.945 126.899C308.762 126.844 307.568 126.808 306.38 126.808C305.192 126.808 304.004 126.843 302.828 126.899C302.284 126.925 301.745 126.967 301.204 127.003C300.62 127.044 300.036 127.085 299.454 127.139C298.742 127.203 298.033 127.279 297.326 127.364C296.98 127.405 296.633 127.451 296.292 127.498C260.624 132.239 232.6 161.742 229.447 198.519C229.368 199.398 229.475 200.284 229.76 201.12C230.044 201.956 230.501 202.724 231.1 203.375C231.7 204.027 232.429 204.547 233.242 204.904C234.055 205.261 234.934 205.446 235.823 205.448H376.934C377.815 205.451 378.687 205.272 379.496 204.923C380.304 204.575 381.031 204.064 381.631 203.423C382.231 202.781 382.691 202.024 382.981 201.198C383.271 200.371 383.386 199.495 383.319 198.622C380.261 162.412 353.103 133.215 318.258 127.736ZM255.904 183.752C259.272 171.601 265.557 160.443 274.22 151.232C282.884 142.021 293.668 135.033 305.648 130.866C317.638 135.025 328.433 142.009 337.107 151.221C345.78 160.432 352.073 171.595 355.445 183.752C355.873 185.323 355.93 186.971 355.611 188.568C355.293 190.165 354.608 191.667 353.609 192.958C352.61 194.249 351.325 195.293 349.854 196.01C348.382 196.727 346.763 197.098 345.124 197.092H266.226C264.586 197.098 262.968 196.728 261.496 196.011C260.024 195.294 258.738 194.249 257.739 192.958C256.741 191.668 256.055 190.165 255.737 188.568C255.419 186.972 255.476 185.323 255.904 183.752V183.752Z" fill="#EFAA65"/>
<path d="M238.227 205.448C237.01 205.445 235.807 205.185 234.699 204.686C233.59 204.187 232.6 203.46 231.796 202.553C230.991 201.647 230.389 200.581 230.03 199.426C229.671 198.271 229.562 197.054 229.712 195.855C234.363 156.948 266.913 126.808 306.376 126.808C345.84 126.808 378.39 156.948 383.037 195.855C383.187 197.054 383.078 198.272 382.719 199.426C382.36 200.581 381.758 201.647 380.954 202.554C380.149 203.461 379.159 204.187 378.05 204.686C376.942 205.185 375.739 205.445 374.522 205.448H238.227Z" stroke="#283035" stroke-width="6" stroke-linecap="round" stroke-linejoin="round"/>
<path d="M306.376 0V126.808" stroke="#283035" stroke-width="6" stroke-linejoin="round"/>
<defs>
<linearGradient id="paint0_linear" x1="306.376" y1="191.415" x2="306.376" y2="706.982" gradientUnits="userSpaceOnUse">
<stop stop-color="white"/>
<stop offset="0.093" stop-color="white" stop-opacity="0.864"/>
<stop offset="0.284" stop-color="white" stop-opacity="0.605"/>
<stop offset="0.466" stop-color="white" stop-opacity="0.389"/>
<stop offset="0.633" stop-color="white" stop-opacity="0.221"/>
<stop offset="0.784" stop-color="white" stop-opacity="0.1"/>
<stop offset="0.911" stop-color="white" stop-opacity="0.026"/>
<stop offset="1" stop-color="white" stop-opacity="0"/>
</linearGradient>
</defs>
</svg>
