<svg width="739" height="848" viewBox="0 0 739 848" fill="none" xmlns="http://www.w3.org/2000/svg">
<path d="M369.1 741C572.948 741 738.2 575.748 738.2 371.9C738.2 168.052 572.948 2.80005 369.1 2.80005C165.252 2.80005 0 168.052 0 371.9C0 575.748 165.252 741 369.1 741Z" fill="#515362"/>
<path opacity="0.86" d="M369.1 653.7C524.734 653.7 650.9 527.534 650.9 371.9C650.9 216.266 524.734 90.1 369.1 90.1C213.466 90.1 87.3003 216.266 87.3003 371.9C87.3003 527.534 213.466 653.7 369.1 653.7Z" fill="#4C6166"/>
<path opacity="0.61" d="M369.1 582.9C485.632 582.9 580.1 488.432 580.1 371.9C580.1 255.368 485.632 160.9 369.1 160.9C252.568 160.9 158.1 255.368 158.1 371.9C158.1 488.432 252.568 582.9 369.1 582.9Z" fill="url(#paint0_radial)"/>
<path opacity="0.89" d="M369.1 521.2C451.556 521.2 518.4 454.356 518.4 371.9C518.4 289.444 451.556 222.6 369.1 222.6C286.644 222.6 219.8 289.444 219.8 371.9C219.8 454.356 286.644 521.2 369.1 521.2Z" fill="url(#paint1_radial)"/>
<path d="M487 415.9L454.8 213.6C451.8 195.1 430.6 180.9 407.2 180.9H333.1C309.7 180.9 288.5 195 285.5 213.6L253.3 415.9C247.2 454.5 272.3 488.9 310.2 488.9H430.1C467.9 488.9 493.1 454.5 487 415.9ZM456.3 456.3C451.7 461.7 443.4 468.9 430.1 468.9H310.1C296.8 468.9 288.5 461.4 283.9 456C276.1 446.8 272.8 433.3 275 419.9L307.2 218.3C308.1 212.5 318.6 204.9 333 204.9H407.1C421.5 204.9 432 212.3 432.9 218.1L465.1 419.9C467.4 433.4 464.1 447.1 456.3 456.3Z" stroke="#323345" stroke-width="6" stroke-miterlimit="10" stroke-linecap="round" stroke-linejoin="round"/>
<path d="M487 415.9L454.8 213.6C451.8 195.1 430.6 180.9 407.2 180.9H333.1C309.7 180.9 288.5 195 285.5 213.6L253.3 415.9C247.2 454.5 272.3 488.9 310.2 488.9H430.1C467.9 488.9 493.1 454.5 487 415.9ZM456.3 456.3C451.7 461.7 443.4 468.9 430.1 468.9H310.1C296.8 468.9 288.5 461.4 283.9 456C276.1 446.8 272.8 433.3 275 419.9L307.2 218.3C308.1 212.5 318.6 204.9 333 204.9H407.1C421.5 204.9 432 212.3 432.9 218.1L465.1 419.9C467.4 433.4 464.1 447.1 456.3 456.3Z" fill="#1C6F45"/>
<path d="M487 415.9L454.8 213.6C451.8 195.1 430.6 180.9 407.2 180.9H333.1C309.7 180.9 288.5 195 285.5 213.6L253.3 415.9C247.2 454.5 272.3 488.9 310.2 488.9H430.1C467.9 488.9 493.1 454.5 487 415.9ZM456.3 456.3C451.7 461.7 443.4 468.9 430.1 468.9H310.1C296.8 468.9 288.5 461.4 283.9 456C276.1 446.8 272.8 433.3 275 419.9L307.2 218.3C308.1 212.5 318.6 204.9 333 204.9H407.1C421.5 204.9 432 212.3 432.9 218.1L465.1 419.9C467.4 433.4 464.1 447.1 456.3 456.3Z" fill="#1C6F45"/>
<path opacity="0.59" d="M275 419.9L298.9 270.6C292.6 265.7 285.8 261.5 278.4 258.3L253.3 416C251.8 425.5 252.2 434.8 254.2 443.4C261.6 442.4 268.6 440.5 275.3 437.9C274.1 432.1 274 426 275 419.9Z" fill="#C8A82F"/>
<path opacity="0.59" d="M465.2 419.9C466 425.1 466 430.4 465.3 435.4C471.9 438.5 478.9 440.9 486.2 442.4C488 434.1 488.4 425.2 486.9 416L462.2 261C454.9 264.8 448.1 269.6 442 275.1L465.2 419.9Z" fill="#C8A82F"/>
<path d="M430.1 488.9H310.1C272.3 488.9 247.1 454.5 253.2 415.9L285.4 213.6C288.4 195.1 309.6 180.9 333 180.9H407.1C430.5 180.9 451.7 195 454.7 213.6L486.9 415.9C493.1 454.5 467.9 488.9 430.1 488.9Z" stroke="#323345" stroke-width="6" stroke-miterlimit="10" stroke-linecap="round" stroke-linejoin="round"/>
<path d="M487 415.9L454.8 213.6C451.8 195.1 430.6 180.9 407.2 180.9H333.1C309.7 180.9 288.5 195 285.5 213.6L253.3 415.9C247.2 454.5 272.3 488.9 310.2 488.9H430.1C467.9 488.9 493.1 454.5 487 415.9ZM465.4 462.8C456.5 473.2 444 478.9 430 478.9H310.1C296.1 478.9 283.6 473.2 274.7 462.8C264.6 451 260.4 434.4 263.1 417.5L295.3 215.2C297.4 201.8 314.3 190.9 333 190.9H407.1C425.7 190.9 442.6 201.8 444.8 215.2L477.1 417.5C479.8 434.5 475.5 451 465.4 462.8Z" fill="#145B34"/>
<path d="M487 415.9L454.8 213.6C451.8 195.1 430.6 180.9 407.2 180.9H333.1C309.7 180.9 288.5 195 285.5 213.6L253.3 415.9C247.2 454.5 272.3 488.9 310.2 488.9H430.1C467.9 488.9 493.1 454.5 487 415.9Z" stroke="#323345" stroke-width="6" stroke-miterlimit="10" stroke-linecap="round" stroke-linejoin="round"/>
<path d="M398.8 270.6C378.6 270.6 358.4 270.6 338.3 270.6C322.4 288.9 308.4 313.1 302.2 342C294.9 374.8 299.8 411.5 315.1 439.8C320.8 450.4 332.9 457.3 344.9 457.3C361.2 457.3 377.6 457.3 393.9 457.3C406.1 457.3 418.5 450.2 424 439.4C438 411.9 443.1 375.6 433.6 337.5C426.7 308.7 413.4 286 398.8 270.6Z" fill="#DFC19F"/>
<path d="M369.5 428.9C400.98 428.9 426.5 403.38 426.5 371.9C426.5 340.42 400.98 314.9 369.5 314.9C338.02 314.9 312.5 340.42 312.5 371.9C312.5 403.38 338.02 428.9 369.5 428.9Z" fill="url(#paint2_radial)"/>
<path d="M355.5 308.586C360.11 292.385 358.035 277.597 350.864 275.557C343.693 273.516 334.142 284.995 329.531 301.196C324.921 317.398 326.997 332.186 334.168 334.226C341.339 336.267 350.89 324.788 355.5 308.586Z" fill="#ECDBC9"/>
<path d="M398.8 271.6C378.6 271.6 358.4 271.6 338.3 271.6C322.4 289.9 308.4 313.7 302.2 342.5C294.9 375.3 299.8 412.3 315.1 440.6C320.8 451.2 332.9 458.3 344.9 458.3C361.2 458.3 377.6 458.3 393.9 458.3C406.1 458.3 418.5 450.7 424 439.9C438 412.4 443.1 376.3 433.6 338.3C426.7 309.4 413.4 287 398.8 271.6Z" stroke="#323345" stroke-width="4" stroke-miterlimit="10" stroke-linecap="round" stroke-linejoin="round"/>
<path d="M430.1 503.9H308.1V484.4C308.1 477.8 313.5 472.4 320.1 472.4H418.1C424.7 472.4 430.1 477.8 430.1 484.4V503.9Z" fill="#145B34"/>
<path d="M412.4 497.1H325.7V490.9C325.7 484.3 331.1 478.9 337.7 478.9H400.4C407 478.9 412.4 484.3 412.4 490.9V497.1Z" fill="#1B6E44"/>
<path opacity="0.59" d="M418.1 472.4H320.1C313.5 472.4 308.1 476.6 308.1 481.7V488.2C308.1 483.1 313.5 478.9 320.1 478.9H418.1C424.7 478.9 430.1 483.1 430.1 488.2V481.7C430.1 476.6 424.7 472.4 418.1 472.4Z" fill="#C8A82F"/>
<path d="M430.1 503.9H308.1V484.4C308.1 477.8 313.5 472.4 320.1 472.4H418.1C424.7 472.4 430.1 477.8 430.1 484.4V503.9Z" stroke="#323345" stroke-width="6" stroke-miterlimit="10" stroke-linecap="round" stroke-linejoin="round"/>
<path d="M459.9 531.9H277.9V527.9C277.9 514.6 288.7 503.9 301.9 503.9H435.8C449.1 503.9 459.8 514.7 459.8 527.9V531.9H459.9Z" fill="#1B6E44"/>
<path d="M278.5 522.4C278.1 524.2 277.9 526 277.9 527.9V531.9H459.9V527.9C459.9 526 459.7 524.1 459.3 522.4H278.5Z" fill="#145B34"/>
<path opacity="0.59" d="M435.9 503.9H301.9C288.6 503.9 277.9 514.7 277.9 527.9V531.9H278.1C279.4 519.9 289.6 510.6 302 510.6H435.9C448.3 510.6 458.4 519.9 459.8 531.9H460V527.9C459.9 514.7 449.1 503.9 435.9 503.9Z" fill="#C8A82F"/>
<path opacity="0.3" d="M622.1 847.4H115.7L277.9 531.9H459.9L622.1 847.4Z" fill="url(#paint3_linear)"/>
<path opacity="0.3" d="M564.1 847.4H173.7L277.9 531.9H459.9L564.1 847.4Z" fill="url(#paint4_linear)"/>
<path opacity="0.3" d="M496.7 847.4H241.1L277.9 531.9H459.9L496.7 847.4Z" fill="url(#paint5_linear)"/>
<path d="M459.9 531.9H277.9V527.9C277.9 514.6 288.7 503.9 301.9 503.9H435.8C449.1 503.9 459.8 514.7 459.8 527.9V531.9H459.9Z" stroke="#323345" stroke-width="6" stroke-miterlimit="10" stroke-linecap="round" stroke-linejoin="round"/>
<path d="M413.4 280.7C383.4 280.7 353.4 280.7 323.4 280.7C324.3 274.2 328.5 267.2 334.1 260.7C357 260.7 379.9 260.7 402.8 260.7C408.4 267.2 412.5 274.2 413.4 280.7Z" fill="#145B34"/>
<path d="M378.4 280.7H358.4C350.6 280.7 345.3 272.9 348 265.6C348.6 264 349.3 262.3 350 260.7C367.3 260.7 369.3 260.7 386.6 260.7C387.3 262.3 388 263.9 388.6 265.6C391.6 272.8 386.2 280.7 378.4 280.7Z" fill="#1B6E44"/>
<path d="M418.6 226.9H317.6L326.7 218.2H409.5L418.6 226.9Z" fill="#145B34"/>
<path d="M413.4 280.7C383.4 280.7 353.4 280.7 323.4 280.7C324.3 274.2 328.5 267.2 334.1 260.7C357 260.7 379.9 260.7 402.8 260.7C408.4 267.2 412.5 274.2 413.4 280.7Z" stroke="#323345" stroke-width="6" stroke-miterlimit="10" stroke-linecap="round" stroke-linejoin="round"/>
<path d="M398.8 227.9H338L334.8 235.9C334.3 237.1 334.1 238.3 334.1 239.5V260.9H403.1V239.7C403.1 238.3 402.8 237 402.3 235.8L398.8 227.9Z" fill="#145B34"/>
<path d="M374.8 227.9H362.3C357.6 227.9 353.5 231.3 352.6 235.9C352.4 237.1 352.3 238.3 352.3 239.5V248.2C352.3 255.2 358 260.8 364.9 260.8H372.1C379.1 260.8 384.7 255.1 384.7 248.2V239.6C384.7 238.2 384.6 236.9 384.3 235.7C383.5 231.2 379.5 227.9 374.8 227.9Z" fill="#1B6E44"/>
<path d="M398.8 227.9H338L334.8 235.9C334.3 237.1 334.1 238.3 334.1 239.5V260.9H403.1V239.7C403.1 238.3 402.8 237 402.3 235.8L398.8 227.9Z" stroke="#323345" stroke-width="6" stroke-miterlimit="10" stroke-linecap="round" stroke-linejoin="round"/>
<path d="M418.6 226.9H317.6L326.7 218.2H409.5L418.6 226.9Z" stroke="#323345" stroke-width="6" stroke-miterlimit="10" stroke-linecap="round" stroke-linejoin="round"/>
<path d="M403 165.6H332.3L326.7 218.2H408.6L403 165.6Z" fill="#145B34"/>
<path d="M389 165.6H346.3L344.2 198.6C343.5 209.2 351.9 218.2 362.5 218.2H372.8C383.4 218.2 391.8 209.2 391.1 198.6L389 165.6Z" fill="#1B6E44"/>
<path d="M403 165.6H332.3L326.7 218.2H408.6L403 165.6Z" stroke="#323345" stroke-width="6" stroke-miterlimit="10" stroke-linecap="round" stroke-linejoin="round"/>
<path d="M399.9 157.9C394 157.9 388.3 155.4 384.3 151C380.3 146.6 374.5 143.9 368.1 143.9C361.7 143.9 355.9 146.6 351.9 151C347.9 155.4 342.2 157.9 336.3 157.9H322.1V165.9H414.1V157.9H399.9Z" fill="#145B34"/>
<path d="M399.9 157.9C394 157.9 388.3 155.4 384.3 151C380.3 146.6 374.5 143.9 368.1 143.9C361.7 143.9 355.9 146.6 351.9 151C347.9 155.4 342.2 157.9 336.3 157.9H322.1V165.9H414.1V157.9H399.9Z" stroke="#323345" stroke-width="6" stroke-miterlimit="10" stroke-linecap="round" stroke-linejoin="round"/>
<path d="M351.8 248.5C354.451 248.5 356.6 246.351 356.6 243.7C356.6 241.049 354.451 238.9 351.8 238.9C349.149 238.9 347 241.049 347 243.7C347 246.351 349.149 248.5 351.8 248.5Z" fill="#323345"/>
<path d="M368.3 248.5C370.951 248.5 373.1 246.351 373.1 243.7C373.1 241.049 370.951 238.9 368.3 238.9C365.649 238.9 363.5 241.049 363.5 243.7C363.5 246.351 365.649 248.5 368.3 248.5Z" fill="#323345"/>
<path d="M384.8 248.5C387.451 248.5 389.6 246.351 389.6 243.7C389.6 241.049 387.451 238.9 384.8 238.9C382.149 238.9 380 241.049 380 243.7C380 246.351 382.149 248.5 384.8 248.5Z" fill="#323345"/>
<path d="M372.6 359.4C371 363.8 368.2 370.2 363.1 376.9C354.5 388.2 348.5 388.5 345.1 396.4C341.2 405.5 343 419.9 353 428.2C363.3 436.7 377.3 434.7 386.1 429.9C402.3 420.9 402.6 400.9 402.6 398.9C402.6 382.3 390.7 366.6 372.6 359.4Z" fill="#FBAF41"/>
<path d="M375.6 371.4C373.5 375.3 370.1 380.9 364.6 386.4C356.1 394.9 351 394.7 347.6 400.9C343.4 408.5 344.2 421.2 352.2 428.7C361.3 437.1 374.7 434.5 382.4 430.2C397.7 421.7 397.5 402.7 397.5 401.9C397.1 388.9 388.5 377 375.6 371.4Z" fill="#CC8127"/>
<path d="M372.6 359.4C371 363.8 368.2 370.2 363.1 376.9C354.5 388.2 348.5 388.5 345.1 396.4C341.2 405.5 343 419.9 353 428.2C363.3 436.7 377.3 434.7 386.1 429.9C402.3 420.9 402.6 400.9 402.6 398.9C402.6 382.3 390.7 366.6 372.6 359.4Z" stroke="#323345" stroke-width="4" stroke-miterlimit="10" stroke-linecap="round" stroke-linejoin="round"/>
<path d="M394.9 456.9C391 435.9 380.7 421.3 368.7 421.3C356.6 421.3 346.4 435.9 342.5 456.9H394.9Z" fill="#1B6E44"/>
<path d="M368.7 429.9C378.7 429.9 387.6 437.4 393.2 449.3C388.4 432.5 379.3 421.4 368.7 421.4C358.2 421.4 349 432.5 344.2 449.3C349.8 437.4 358.7 429.9 368.7 429.9Z" fill="#C8A82F"/>
<path d="M394.9 456.9C391 435.9 380.7 421.3 368.7 421.3C356.6 421.3 346.4 435.9 342.5 456.9H394.9Z" stroke="#323345" stroke-width="4" stroke-miterlimit="10" stroke-linecap="round" stroke-linejoin="round"/>
<path d="M401.1 448.1H337.1V457.3H401.1V448.1Z" fill="#145B34"/>
<path d="M401.1 448.1H337.1V457.3H401.1V448.1Z" stroke="#323345" stroke-width="4" stroke-miterlimit="10" stroke-linecap="round" stroke-linejoin="round"/>
<path d="M453.6 210.9C459.123 210.9 463.6 206.423 463.6 200.9C463.6 195.377 459.123 190.9 453.6 190.9C448.077 190.9 443.6 195.377 443.6 200.9C443.6 206.423 448.077 210.9 453.6 210.9Z" fill="#323345"/>
<path d="M286.6 210.9C292.123 210.9 296.6 206.423 296.6 200.9C296.6 195.377 292.123 190.9 286.6 190.9C281.077 190.9 276.6 195.377 276.6 200.9C276.6 206.423 281.077 210.9 286.6 210.9Z" fill="#323345"/>
<path d="M446.4 215.2L448.8 199.3C448.9 199.3 449 199.3 449.2 199.3C458.7 199.3 466.4 191.7 466.4 182.3C466.4 174.5 461.1 168 454 166L468.9 68C473.6 37.3 449.6 9.59998 418.2 9.59998H368.1H318C286.6 9.59998 262.6 37.2 267.3 68L282.2 166C275.3 167.4 269.8 174.6 269.8 182.3C269.8 191.7 277.5 199.3 287 199.3C287.1 199.3 287.2 199.3 287.4 199.3L289.8 215.2" stroke="#323345" stroke-width="8" stroke-miterlimit="10" stroke-linecap="round" stroke-linejoin="round"/>
<path d="M381.8 17.4H353.5C350.7 17.4 348.4 15.1 348.4 12.3V5.09999C348.4 2.29999 350.7 0 353.5 0H381.8C384.6 0 386.9 2.29999 386.9 5.09999V12.3C386.9 15.1 384.6 17.4 381.8 17.4Z" fill="#323345"/>
<path d="M414.9 472.4H323.3L337.2 455.4H401.1L414.9 472.4Z" fill="#1B6E44"/>
<path opacity="0.59" d="M333.7 459.7C342.1 464.4 354.9 467.4 369.2 467.4C383.5 467.4 396.3 464.4 404.7 459.7L401.1 455.4H337.2L333.7 459.7Z" fill="#C8A82F"/>
<path d="M414.9 472.4H323.3L337.2 455.4H401.1L414.9 472.4Z" stroke="#323345" stroke-width="4" stroke-miterlimit="10" stroke-linecap="round" stroke-linejoin="round"/>
<path d="M465.4 462.8C456.5 473.2 444 478.9 430 478.9H310.1C296.1 478.9 283.6 473.2 274.7 462.8C264.6 451 260.4 434.4 263.1 417.5L295.3 215.2C297.4 201.8 314.3 190.9 333 190.9H407.1C425.7 190.9 442.6 201.8 444.8 215.2L477.1 417.5C479.8 434.5 475.5 451 465.4 462.8Z" stroke="#323345" stroke-width="4" stroke-miterlimit="10" stroke-linecap="round" stroke-linejoin="round"/>
<path d="M381.2 164.9H352.7C352.2 164.9 351.7 164.5 351.7 163.9C351.7 158.9 355.7 154.9 360.7 154.9H373.2C378.2 154.9 382.2 158.9 382.2 163.9C382.2 164.5 381.8 164.9 381.2 164.9Z" fill="#323345"/>
<path d="M372.5 388.9C372.8 390.8 373 393.3 372.7 396.1C372.5 399.2 371.8 401.9 371.1 403.9C370.1 399.6 367.3 395.8 366.9 396C366.9 396 366.9 396 366.9 396.1C366.7 397 362 402.9 361.1 404.2C358.7 407.8 358.2 415.5 362.4 419.5C366 422.9 372 422.7 376 420.7C382.7 417.3 384 408.4 382.9 402.5C381.2 393.9 373.8 389.6 372.5 388.9Z" fill="#FBAF41"/>
<path d="M372.5 388.9C372.8 390.8 373 393.3 372.7 396.1C372.5 399.2 371.8 401.9 371.1 403.9C370.1 399.6 367.3 395.8 366.9 396C366.9 396 366.9 396 366.9 396.1C366.7 397 362 402.9 361.1 404.2C358.7 407.8 358.2 415.5 362.4 419.5C366 422.9 372 422.7 376 420.7C382.7 417.3 384 408.4 382.9 402.5C381.2 393.9 373.8 389.6 372.5 388.9Z" stroke="#323345" stroke-width="4" stroke-miterlimit="10" stroke-linecap="round" stroke-linejoin="round"/>
<defs>
<radialGradient id="paint0_radial" cx="0" cy="0" r="1" gradientUnits="userSpaceOnUse" gradientTransform="translate(369.1 371.9) scale(534.307)">
<stop stop-color="#F29543"/>
<stop offset="0.1095" stop-color="#F09543" stop-opacity="0.8014"/>
<stop offset="0.1711" stop-color="#E79645" stop-opacity="0.6898"/>
<stop offset="0.2208" stop-color="#DA9747" stop-opacity="0.5997"/>
<stop offset="0.2641" stop-color="#C6994A" stop-opacity="0.5211"/>
<stop offset="0.3033" stop-color="#AC9B4E" stop-opacity="0.45"/>
<stop offset="0.3396" stop-color="#8D9E53" stop-opacity="0.3844"/>
<stop offset="0.3735" stop-color="#68A259" stop-opacity="0.3228"/>
<stop offset="0.4057" stop-color="#3CA661" stop-opacity="0.2645"/>
<stop offset="0.4353" stop-color="#0DAA68" stop-opacity="0.2108"/>
<stop offset="0.4413" stop-color="#02AB6A" stop-opacity="0.2"/>
</radialGradient>
<radialGradient id="paint1_radial" cx="0" cy="0" r="1" gradientUnits="userSpaceOnUse" gradientTransform="translate(369.1 371.9) scale(149.3)">
<stop stop-color="#F29543"/>
<stop offset="0.1302" stop-color="#EB9847" stop-opacity="0.8637"/>
<stop offset="0.3179" stop-color="#D8A151" stop-opacity="0.667"/>
<stop offset="0.5405" stop-color="#B9AF61" stop-opacity="0.4339"/>
<stop offset="0.7638" stop-color="#92C176" stop-opacity="0.2"/>
</radialGradient>
<radialGradient id="paint2_radial" cx="0" cy="0" r="1" gradientUnits="userSpaceOnUse" gradientTransform="translate(369.5 371.9) scale(57)">
<stop offset="0.1237" stop-color="#F2CA91"/>
<stop offset="1" stop-color="#F2CA91" stop-opacity="0.3"/>
</radialGradient>
<linearGradient id="paint3_linear" x1="368.9" y1="531.9" x2="368.9" y2="847.4" gradientUnits="userSpaceOnUse">
<stop stop-color="#292E42" stop-opacity="0.7"/>
<stop offset="1" stop-color="#151721" stop-opacity="0"/>
</linearGradient>
<linearGradient id="paint4_linear" x1="368.9" y1="531.9" x2="368.9" y2="847.4" gradientUnits="userSpaceOnUse">
<stop stop-color="#292E42" stop-opacity="0.7"/>
<stop offset="1" stop-color="#151721" stop-opacity="0"/>
</linearGradient>
<linearGradient id="paint5_linear" x1="368.9" y1="531.9" x2="368.9" y2="847.4" gradientUnits="userSpaceOnUse">
<stop stop-color="#292E42" stop-opacity="0.7"/>
<stop offset="1" stop-color="#151721" stop-opacity="0"/>
</linearGradient>
</defs>
</svg>
