<svg width="100%" height="100%" viewBox="0 0 747 696" fill="none" xmlns="http://www.w3.org/2000/svg">
<path d="M55.9419 664.511H505.557C506.608 664.511 507.615 664.925 508.358 665.663C509.1 666.4 509.518 667.4 509.518 668.443V673.153C509.518 678.367 507.431 683.368 503.718 687.055C500.004 690.742 494.967 692.813 489.715 692.813H71.7839C66.532 692.813 61.4951 690.742 57.7815 687.055C54.0678 683.368 51.9814 678.367 51.9814 673.153V668.443C51.9814 667.4 52.3987 666.4 53.1414 665.663C53.8842 664.925 54.8916 664.511 55.9419 664.511Z" fill="#E5E5E5"/>
<path d="M489.711 683.962H71.78C67.0314 683.959 62.4422 682.261 58.8502 679.177C55.2583 676.093 52.9029 671.83 52.2141 667.166C52.065 667.576 51.9863 668.008 51.9814 668.443V673.153C51.9814 678.367 54.0678 683.368 57.7815 687.055C61.4951 690.742 66.532 692.813 71.7839 692.813H489.715C494.967 692.813 500.004 690.742 503.718 687.055C507.431 683.368 509.518 678.367 509.518 673.153V668.443C509.513 668.008 509.434 667.576 509.285 667.166C508.596 671.831 506.239 676.096 502.646 679.179C499.052 682.263 494.461 683.961 489.711 683.962Z" fill="#CFD1D0"/>
<path d="M55.9419 664.511H505.557C506.608 664.511 507.615 664.925 508.358 665.663C509.1 666.4 509.518 667.4 509.518 668.443V673.153C509.518 678.367 507.431 683.368 503.718 687.055C500.004 690.742 494.967 692.813 489.715 692.813H71.7839C66.532 692.813 61.4951 690.742 57.7815 687.055C54.0678 683.368 51.9814 678.367 51.9814 673.153V668.443C51.9814 667.4 52.3987 666.4 53.1414 665.663C53.8842 664.925 54.8916 664.511 55.9419 664.511Z" stroke="#283035" stroke-width="6" stroke-linecap="round" stroke-linejoin="round"/>
<path d="M239.163 664.367H322.333C322.333 666.452 321.498 668.453 320.013 669.927C318.528 671.402 316.513 672.231 314.412 672.231H247.084C244.983 672.231 242.968 671.402 241.483 669.927C239.997 668.453 239.163 666.452 239.163 664.367Z" fill="#686B6D"/>
<path d="M239.163 664.367H322.333C322.333 666.452 321.498 668.453 320.013 669.927C318.528 671.402 316.513 672.231 314.412 672.231H247.084C244.983 672.231 242.968 671.402 241.483 669.927C239.997 668.453 239.163 666.452 239.163 664.367Z" stroke="#283035" stroke-width="4" stroke-linecap="round" stroke-linejoin="round"/>
<path d="M519.905 692.907C519.95 685.378 522.994 678.172 528.372 672.864C533.75 667.556 541.025 664.577 548.608 664.577C556.192 664.577 563.467 667.556 568.845 672.864C574.223 678.172 577.267 685.378 577.312 692.907H519.905Z" fill="#E5E5E5"/>
<path d="M548.609 683.905C552.713 683.944 556.779 683.11 560.532 681.459C564.285 679.808 567.639 677.379 570.368 674.334C567.675 671.221 564.337 668.723 560.581 667.01C556.825 665.297 552.741 664.41 548.608 664.41C544.475 664.41 540.391 665.297 536.635 667.01C532.88 668.723 529.541 671.221 526.849 674.334C529.578 677.379 532.931 679.808 536.685 681.459C540.438 683.11 544.504 683.944 548.609 683.905Z" fill="#CFD1D0"/>
<path d="M519.905 692.907C519.95 685.378 522.994 678.172 528.372 672.864C533.75 667.556 541.025 664.577 548.608 664.577C556.192 664.577 563.467 667.556 568.845 672.864C574.223 678.172 577.267 685.378 577.312 692.907H519.905Z" stroke="#283035" stroke-width="6" stroke-linecap="round" stroke-linejoin="round"/>
<path d="M607.858 672.384H627.66" stroke="#283035" stroke-width="6" stroke-linecap="round" stroke-linejoin="round"/>
<path d="M705.388 682.126L695.581 683.481L701.849 692.539L705.388 682.126Z" fill="#E5E5E5"/>
<path d="M705.388 682.126L695.581 683.481L701.849 692.539L705.388 682.126Z" stroke="#283035" stroke-width="4" stroke-linecap="round" stroke-linejoin="round"/>
<path d="M717.55 692.906H743.045" stroke="#283035" stroke-width="6" stroke-linecap="round" stroke-linejoin="round"/>
<path d="M37.9121 692.906H706.411" stroke="#283035" stroke-width="6" stroke-linecap="round" stroke-linejoin="round"/>
<path style="mix-blend-mode:overlay" opacity="0.43" d="M611.825 689.638H0L228.69 198.248H383.135L611.825 689.638Z" fill="url(#paint0_linear)"/>
<path d="M113.525 428.446H447.967C452.461 428.446 456.771 430.218 459.948 433.373C463.126 436.528 464.911 440.806 464.911 445.268V664.367H96.585V445.267C96.5852 440.806 98.37 436.528 101.547 433.374C104.723 430.219 109.032 428.447 113.525 428.446Z" fill="#D2DCE6"/>
<path d="M113.525 428.446H447.967C452.461 428.446 456.771 430.218 459.948 433.373C463.126 436.528 464.911 440.806 464.911 445.268V664.367H96.585V445.267C96.5852 440.806 98.37 436.528 101.547 433.374C104.723 430.219 109.032 428.447 113.525 428.446V428.446Z" stroke="#283035" stroke-width="6" stroke-linecap="round" stroke-linejoin="round"/>
<path d="M437.187 637.121V456.248H124.308V637.121H437.187Z" fill="#FF5C5C"/>
<path opacity="0.3" d="M305.913 608.265H357.399" stroke="white" stroke-width="6" stroke-linecap="round" stroke-linejoin="round"/>
<g opacity="0.3">
<path opacity="0.3" d="M431.434 552.041C432.424 551.979 433.407 552.25 434.224 552.811C435.041 553.371 435.644 554.189 435.936 555.131V543.87C434.848 543.555 433.722 543.392 432.589 543.387H431.434C428.942 543.387 427.697 544.623 427.698 547.096V548.419C427.698 550.804 428.942 552.041 431.434 552.041Z" fill="white"/>
<path opacity="0.3" d="M435.936 606.017C435.638 606.954 435.033 607.765 434.217 608.321C433.401 608.877 432.421 609.146 431.434 609.084C428.942 609.084 427.697 610.32 427.698 612.792V614.117C427.698 616.589 428.943 617.825 431.434 617.826H432.589C433.722 617.82 434.848 617.658 435.936 617.342V606.017Z" fill="white"/>
</g>
<path d="M437.187 637.121V456.248H124.308V637.121H437.187Z" stroke="#283035" stroke-width="6" stroke-linecap="round" stroke-linejoin="round"/>
<path d="M279.968 449.842C284.343 449.842 287.889 446.321 287.889 441.978C287.889 437.635 284.343 434.114 279.968 434.114C275.594 434.114 272.047 437.635 272.047 441.978C272.047 446.321 275.594 449.842 279.968 449.842Z" fill="#686B6D"/>
<path d="M279.968 449.842C284.343 449.842 287.889 446.321 287.889 441.978C287.889 437.635 284.343 434.114 279.968 434.114C275.594 434.114 272.047 437.635 272.047 441.978C272.047 446.321 275.594 449.842 279.968 449.842Z" stroke="#283035" stroke-width="4" stroke-linecap="round" stroke-linejoin="round"/>
<g style="mix-blend-mode:multiply" opacity="0.14">
<path d="M327.687 491.287H177.204C172.825 491.287 169.275 494.811 169.275 499.159V615.138C169.275 619.485 172.825 623.01 177.204 623.01H327.687C332.066 623.01 335.616 619.485 335.616 615.138V499.159C335.616 494.811 332.066 491.287 327.687 491.287Z" fill="black"/>
</g>
<path d="M319.932 484.406H169.449C165.07 484.406 161.52 487.931 161.52 492.278V608.257C161.52 612.605 165.07 616.129 169.449 616.129H319.932C324.311 616.129 327.861 612.605 327.861 608.257V492.278C327.861 487.931 324.311 484.406 319.932 484.406Z" fill="#353F49"/>
<path d="M319.932 484.406H169.449C165.07 484.406 161.52 487.931 161.52 492.278V608.257C161.52 612.605 165.07 616.129 169.449 616.129H319.932C324.311 616.129 327.861 612.605 327.861 608.257V492.278C327.861 487.931 324.311 484.406 319.932 484.406Z" stroke="#283035" stroke-width="4" stroke-linecap="round" stroke-linejoin="round"/>
<path d="M169.448 484.406H319.932C322.035 484.406 324.051 485.236 325.538 486.712C327.025 488.188 327.861 490.19 327.861 492.278V504.066H161.52V492.278C161.52 490.191 162.355 488.188 163.842 486.712C165.329 485.236 167.345 484.407 169.448 484.406Z" fill="#EAEEEF"/>
<path d="M169.448 484.406H319.932C322.035 484.406 324.051 485.236 325.538 486.712C327.025 488.188 327.861 490.19 327.861 492.278V504.066H161.52V492.278C161.52 490.191 162.355 488.188 163.842 486.712C165.329 485.236 167.345 484.407 169.448 484.406Z" stroke="#283035" stroke-width="4" stroke-linecap="round" stroke-linejoin="round"/>
<path opacity="0.35" d="M175.711 497.308C177.42 497.308 178.805 495.933 178.805 494.236C178.805 492.54 177.42 491.165 175.711 491.165C174.002 491.165 172.617 492.54 172.617 494.236C172.617 495.933 174.002 497.308 175.711 497.308Z" fill="#283035"/>
<path opacity="0.35" d="M185.447 497.308C187.156 497.308 188.541 495.933 188.541 494.236C188.541 492.54 187.156 491.165 185.447 491.165C183.738 491.165 182.353 492.54 182.353 494.236C182.353 495.933 183.738 497.308 185.447 497.308Z" fill="#283035"/>
<path opacity="0.35" d="M194.689 497.308C196.398 497.308 197.783 495.933 197.783 494.236C197.783 492.54 196.398 491.165 194.689 491.165C192.98 491.165 191.595 492.54 191.595 494.236C191.595 495.933 192.98 497.308 194.689 497.308Z" fill="#283035"/>
<path d="M169.275 510.947H180.167" stroke="#46BB86" stroke-width="3" stroke-miterlimit="10"/>
<path d="M184.127 510.947H213.831" stroke="#46BB86" stroke-width="3" stroke-miterlimit="10"/>
<path d="M169.275 518.812H213.831" stroke="#389ABE" stroke-width="3" stroke-miterlimit="10"/>
<path d="M178.187 526.676H199.969" stroke="#E5C689" stroke-width="3" stroke-miterlimit="10"/>
<path d="M203.93 526.676H227.693" stroke="#F2F3F4" stroke-width="3" stroke-miterlimit="10"/>
<path d="M190.068 534.54H235.614" stroke="#F2F3F4" stroke-width="3" stroke-miterlimit="10"/>
<path d="M190.068 542.404H223.733" stroke="#FFA49F" stroke-width="3" stroke-miterlimit="10"/>
<path d="M178.187 550.268H227.693" stroke="#F2F3F4" stroke-width="3" stroke-miterlimit="10"/>
<path d="M169.275 557.148H196.009" stroke="#389ABE" stroke-width="3" stroke-miterlimit="10"/>
<g opacity="0.3">
<path opacity="0.3" d="M399.614 595.231C399.614 591.346 398.101 588.61 395.078 586.932C392.943 585.784 392.054 584.9 392.054 582.87V579.429C392.054 577.046 393.121 576.516 394.988 575.279C398.101 573.955 399.614 571.13 399.614 566.891V559.385C399.614 553.381 401.837 548.965 405.039 547.111C407.434 545.415 410.281 544.463 413.222 544.374H414.378C416.868 544.374 418.113 545.61 418.114 548.082V549.402C418.114 551.785 416.868 553.022 414.378 553.022C410.913 553.022 409.219 555.494 409.219 560.527V569.799C409.308 572.05 408.743 574.278 407.592 576.22C406.441 578.161 404.752 579.733 402.727 580.749L401.926 581.013V581.19C402.839 581.458 403.686 581.909 404.416 582.515C406.64 583.838 409.219 586.93 409.219 592.316V602.647C409.219 607.592 410.91 610.065 414.378 610.065C416.868 610.065 418.113 611.301 418.114 613.773V615.098C418.114 617.57 416.869 618.806 414.378 618.807H413.222C410.281 618.718 407.434 617.765 405.039 616.069C401.837 614.215 399.614 609.712 399.614 603.795V595.231Z" fill="white"/>
</g>
<path d="M677.837 565.115H600.805C595.829 565.115 591.795 569.12 591.795 574.061V683.961C591.795 688.901 595.829 692.906 600.805 692.906H677.837C682.813 692.906 686.847 688.901 686.847 683.961V574.061C686.847 569.12 682.813 565.115 677.837 565.115Z" fill="#E5E5E5"/>
<path d="M677.837 565.115H676.695C676.859 565.791 676.943 566.484 676.945 567.18V677.079C676.945 679.452 675.996 681.727 674.306 683.405C672.617 685.082 670.325 686.025 667.935 686.025H592.051C592.519 687.983 593.638 689.727 595.227 690.976C596.817 692.224 598.784 692.904 600.811 692.906H677.842C680.232 692.906 682.524 691.963 684.214 690.286C685.903 688.608 686.853 686.333 686.853 683.961V574.061C686.853 572.885 686.619 571.722 686.166 570.636C685.713 569.55 685.049 568.564 684.212 567.733C683.374 566.902 682.38 566.244 681.286 565.794C680.193 565.345 679.02 565.114 677.837 565.115Z" fill="#CFD1D0"/>
<path d="M677.837 565.115H600.805C595.829 565.115 591.795 569.12 591.795 574.061V683.961C591.795 688.901 595.829 692.906 600.805 692.906H677.837C682.813 692.906 686.847 688.901 686.847 683.961V574.061C686.847 569.12 682.813 565.115 677.837 565.115Z" stroke="#283035" stroke-width="6" stroke-linecap="round" stroke-linejoin="round"/>
<path d="M655.163 557.7H647.242V554.751C647.242 552.665 646.407 550.665 644.922 549.19C643.437 547.715 641.422 546.887 639.321 546.887C637.22 546.887 635.206 547.715 633.72 549.19C632.235 550.665 631.4 552.665 631.4 554.751V557.7H623.479C621.378 557.7 619.364 558.528 617.878 560.003C616.393 561.478 615.558 563.478 615.558 565.564C615.558 567.649 616.393 569.65 617.878 571.125C619.364 572.599 621.378 573.428 623.479 573.428H655.163C657.264 573.428 659.279 572.599 660.764 571.125C662.249 569.65 663.084 567.649 663.084 565.564C663.084 563.478 662.249 561.478 660.764 560.003C659.279 558.528 657.264 557.7 655.163 557.7Z" fill="#F7B66F"/>
<path d="M658.843 558.604C659.164 559.77 659.21 560.993 658.977 562.179C658.743 563.364 658.237 564.48 657.497 565.44C656.757 566.399 655.804 567.175 654.712 567.709C653.62 568.242 652.419 568.517 651.202 568.513H619.518C618.236 568.514 616.972 568.204 615.838 567.61C616.291 569.278 617.284 570.752 618.665 571.804C620.047 572.856 621.738 573.427 623.479 573.428H655.163C656.932 573.426 658.65 572.836 660.043 571.752C661.436 570.668 662.422 569.152 662.846 567.446C663.269 565.74 663.105 563.943 662.38 562.34C661.654 560.738 660.409 559.423 658.843 558.604Z" fill="#EDA762"/>
<path d="M643.281 549.836V552.785H646.982C646.706 551.723 646.209 550.73 645.524 549.87C644.838 549.01 643.979 548.302 643.001 547.792C643.185 548.458 643.279 549.145 643.281 549.836Z" fill="#EDA762"/>
<path d="M655.163 557.7H647.242V554.751C647.242 552.665 646.407 550.665 644.922 549.19C643.437 547.715 641.422 546.887 639.321 546.887C637.22 546.887 635.206 547.715 633.72 549.19C632.235 550.665 631.4 552.665 631.4 554.751V557.7H623.479C621.378 557.7 619.364 558.528 617.878 560.003C616.393 561.478 615.558 563.478 615.558 565.564C615.558 567.649 616.393 569.65 617.878 571.125C619.364 572.599 621.378 573.428 623.479 573.428H655.163C657.264 573.428 659.279 572.599 660.764 571.125C662.249 569.65 663.084 567.649 663.084 565.564C663.084 563.478 662.249 561.478 660.764 560.003C659.279 558.528 657.264 557.7 655.163 557.7Z" stroke="#283035" stroke-width="6" stroke-linecap="round" stroke-linejoin="round"/>
<path d="M639.321 601.935C643.878 601.935 647.572 598.268 647.572 593.744C647.572 589.22 643.878 585.552 639.321 585.552C634.764 585.552 631.07 589.22 631.07 593.744C631.07 598.268 634.764 601.935 639.321 601.935Z" fill="#8EAFBF"/>
<path d="M639.321 601.935C643.878 601.935 647.572 598.268 647.572 593.744C647.572 589.22 643.878 585.552 639.321 585.552C634.764 585.552 631.07 589.22 631.07 593.744C631.07 598.268 634.764 601.935 639.321 601.935Z" stroke="#283035" stroke-width="6" stroke-linecap="round" stroke-linejoin="round"/>
<path d="M607.858 618.974H627.66" stroke="#283035" stroke-width="6" stroke-linecap="round" stroke-linejoin="round"/>
<path d="M607.858 645.679H627.66" stroke="#283035" stroke-width="6" stroke-linecap="round" stroke-linejoin="round"/>
<path d="M640.744 617.923L645.906 624.74L661.356 613.209" stroke="#8BAFC1" stroke-width="4" stroke-linecap="round" stroke-linejoin="round"/>
<path d="M640.744 644.627L645.906 651.445L661.356 639.914" stroke="#8BAFC1" stroke-width="4" stroke-linecap="round" stroke-linejoin="round"/>
<path d="M696.652 619.816L686.846 621.171L695.579 683.483L705.386 682.128L696.652 619.816Z" fill="#3BBC88"/>
<path d="M696.652 619.816L686.846 621.171L695.579 683.483L705.386 682.128L696.652 619.816Z" stroke="#283035" stroke-width="4" stroke-linecap="round" stroke-linejoin="round"/>
<path d="M693.03 609.918L687.148 610.731L688.515 620.463L694.396 619.649L693.03 609.918Z" fill="#E5E5E5"/>
<path d="M693.03 609.918L687.148 610.731L688.515 620.463L694.396 619.649L693.03 609.918Z" stroke="#283035" stroke-width="3.99829" stroke-linecap="round" stroke-linejoin="round"/>
<path d="M705.519 644.404C704.41 642.59 703.624 640.6 703.196 638.522C702.102 633.181 704.803 630.128 703.342 627.088C702.76 625.876 702.478 624.221 698.104 623.594" stroke="#283035" stroke-width="4" stroke-linecap="round" stroke-linejoin="round"/>
<path d="M305.912 223.714C319.036 223.714 329.675 213.151 329.675 200.122C329.675 187.092 319.036 176.53 305.912 176.53C292.788 176.53 282.149 187.092 282.149 200.122C282.149 213.151 292.788 223.714 305.912 223.714Z" fill="white"/>
<path d="M237.697 205.448C236.488 205.444 235.295 205.186 234.194 204.69C233.093 204.194 232.111 203.472 231.312 202.572C230.513 201.671 229.916 200.613 229.559 199.467C229.203 198.32 229.095 197.112 229.243 195.921C233.862 156.986 266.426 126.808 305.913 126.808C345.399 126.808 377.963 156.986 382.581 195.921C382.729 197.112 382.622 198.32 382.265 199.467C381.909 200.614 381.311 201.672 380.512 202.573C379.713 203.473 378.73 204.195 377.629 204.691C376.528 205.186 375.334 205.444 374.125 205.448H237.697Z" fill="#F7B66F"/>
<path d="M317.794 127.736C317.539 127.695 317.28 127.667 317.024 127.629C316.124 127.498 315.219 127.379 314.309 127.278C313.895 127.232 313.48 127.195 313.064 127.156C312.31 127.085 311.554 127.021 310.798 126.978C310.358 126.952 309.922 126.92 309.481 126.899C308.298 126.844 307.105 126.808 305.917 126.808C304.728 126.808 303.54 126.843 302.364 126.899C301.82 126.925 301.281 126.967 300.74 127.003C300.156 127.044 299.572 127.085 298.991 127.139C298.278 127.203 297.569 127.279 296.862 127.364C296.516 127.405 296.169 127.451 295.828 127.498C260.16 132.239 232.137 161.742 228.983 198.519C228.905 199.398 229.011 200.284 229.296 201.12C229.581 201.956 230.037 202.724 230.637 203.375C231.236 204.027 231.966 204.547 232.779 204.904C233.592 205.261 234.47 205.446 235.359 205.448H376.47C377.351 205.451 378.224 205.272 379.032 204.923C379.841 204.575 380.568 204.064 381.167 203.423C381.767 202.781 382.227 202.024 382.517 201.198C382.808 200.371 382.923 199.495 382.855 198.622C379.798 162.412 352.64 133.215 317.794 127.736ZM255.44 183.752C258.808 171.601 265.093 160.443 273.757 151.232C282.42 142.021 293.204 135.033 305.184 130.866C317.174 135.025 327.969 142.009 336.643 151.221C345.316 160.432 351.609 171.595 354.981 183.752C355.409 185.323 355.466 186.971 355.148 188.568C354.829 190.165 354.144 191.667 353.145 192.958C352.147 194.249 350.861 195.293 349.39 196.01C347.918 196.727 346.3 197.098 344.66 197.092H265.762C264.123 197.098 262.504 196.728 261.032 196.011C259.56 195.294 258.274 194.249 257.276 192.958C256.277 191.668 255.592 190.165 255.273 188.568C254.955 186.972 255.012 185.323 255.44 183.752Z" fill="#EFAA65"/>
<path d="M237.764 205.448C236.546 205.445 235.344 205.185 234.235 204.686C233.126 204.187 232.137 203.46 231.332 202.553C230.527 201.647 229.925 200.581 229.566 199.426C229.207 198.271 229.099 197.054 229.248 195.855C233.899 156.948 266.449 126.808 305.913 126.808C345.376 126.808 377.926 156.948 382.573 195.855C382.723 197.054 382.615 198.272 382.256 199.426C381.897 200.581 381.295 201.647 380.49 202.554C379.685 203.461 378.696 204.187 377.587 204.686C376.478 205.185 375.275 205.445 374.058 205.448H237.764Z" stroke="#283035" stroke-width="6" stroke-linecap="round" stroke-linejoin="round"/>
<path d="M305.913 0V126.808" stroke="#283035" stroke-width="6" stroke-linejoin="round"/>
<defs>
<linearGradient id="paint0_linear" x1="305.913" y1="191.415" x2="305.913" y2="706.982" gradientUnits="userSpaceOnUse">
<stop stop-color="white"/>
<stop offset="0.093" stop-color="white" stop-opacity="0.864"/>
<stop offset="0.284" stop-color="white" stop-opacity="0.605"/>
<stop offset="0.466" stop-color="white" stop-opacity="0.389"/>
<stop offset="0.633" stop-color="white" stop-opacity="0.221"/>
<stop offset="0.784" stop-color="white" stop-opacity="0.1"/>
<stop offset="0.911" stop-color="white" stop-opacity="0.026"/>
<stop offset="1" stop-color="white" stop-opacity="0"/>
</linearGradient>
</defs>
</svg>
