<svg width="933" height="753" viewBox="0 0 933 753" fill="none" xmlns="http://www.w3.org/2000/svg">
<path opacity="0.34" d="M433.3 752.1C640.793 752.1 809 583.894 809 376.4C809 168.907 640.793 0.700195 433.3 0.700195C225.807 0.700195 57.6 168.907 57.6 376.4C57.6 583.894 225.807 752.1 433.3 752.1Z" fill="#1259C4"/>
<path opacity="0.51" d="M433.3 666.5C593.518 666.5 723.4 536.618 723.4 376.4C723.4 216.183 593.518 86.3003 433.3 86.3003C273.082 86.3003 143.2 216.183 143.2 376.4C143.2 536.618 273.082 666.5 433.3 666.5Z" fill="#1259C4"/>
<path d="M433.3 576.1C543.591 576.1 633 486.691 633 376.4C633 266.109 543.591 176.7 433.3 176.7C323.009 176.7 233.6 266.109 233.6 376.4C233.6 486.691 323.009 576.1 433.3 576.1Z" fill="#1259C4"/>
<path opacity="0.32" d="M191 557.5C191 551.4 186.1 546.5 180 546.5H73.5C67.4 546.5 62.5 551.4 62.5 557.5C62.5 563.6 67.4 568.5 73.5 568.5H94.3C100.4 568.5 105.3 573.4 105.3 579.5C105.3 585.6 100.4 590.5 94.3 590.5H68.6C62.5 590.5 57.6 595.4 57.6 601.5C57.6 607.6 62.5 612.5 68.6 612.5H157.2C163.3 612.5 168.2 607.6 168.2 601.5C168.2 595.4 163.3 590.5 157.2 590.5H150C143.9 590.5 139 585.6 139 579.5C139 573.4 143.9 568.5 150 568.5H180C186.1 568.4 191 563.5 191 557.5Z" fill="white"/>
<path opacity="0.16" d="M105.1 634.2H103.3C97.1999 634.2 92.2999 639.1 92.2999 645.2C92.2999 651.3 97.1999 656.2 103.3 656.2H105.1C111.2 656.2 116.1 651.3 116.1 645.2C116 639.1 111.1 634.2 105.1 634.2Z" fill="white"/>
<path opacity="0.16" d="M248.7 612.3H234.4C228.3 612.3 223.4 617.2 223.4 623.3C223.4 629.4 228.3 634.3 234.4 634.3H248.7C254.8 634.3 259.7 629.4 259.7 623.3C259.6 617.2 254.7 612.3 248.7 612.3Z" fill="white"/>
<path opacity="0.44" d="M223.9 546.5H222.9C216.8 546.5 211.9 551.4 211.9 557.5C211.9 563.6 216.8 568.5 222.9 568.5H223.9C230 568.5 234.9 563.6 234.9 557.5C234.9 551.4 230 546.5 223.9 546.5Z" fill="white"/>
<g opacity="0.39">
<path opacity="0.39" d="M334.9 568.4H422.3C428.4 568.4 433.3 573.3 433.3 579.4C433.3 585.5 428.4 590.4 422.3 590.4H380C373.9 590.4 369 595.3 369 601.4C369 607.5 373.9 612.4 380 612.4H385.7C391.8 612.4 396.7 617.3 396.7 623.4C396.7 629.5 391.8 634.4 385.7 634.4H348.5C342.4 634.4 337.5 639.3 337.5 645.4C337.5 651.5 342.4 656.4 348.5 656.4H625C631.1 656.4 636 651.5 636 645.4C636 639.3 631.1 634.4 625 634.4H559.7C553.6 634.4 548.7 629.5 548.7 623.4C548.7 617.3 553.6 612.4 559.7 612.4H625C631.1 612.4 636 607.5 636 601.4C636 595.3 631.1 590.4 625 590.4H616.8C610.7 590.4 605.8 585.5 605.8 579.4C605.8 573.3 610.7 568.4 616.8 568.4H684.2C690.3 568.4 695.2 563.5 695.2 557.4C695.2 551.3 690.3 546.4 684.2 546.4H334.9C328.8 546.4 323.9 551.3 323.9 557.4C324 563.5 328.9 568.4 334.9 568.4ZM479.6 634.2H444.3C438.2 634.2 433.3 629.3 433.3 623.2C433.3 617.1 438.2 612.2 444.3 612.2H479.6C485.7 612.2 490.6 617.1 490.6 623.2C490.5 629.3 485.6 634.2 479.6 634.2ZM545.8 579.4C545.8 585.5 540.9 590.4 534.8 590.4H519.3C513.2 590.4 508.3 585.5 508.3 579.4C508.3 573.3 513.2 568.4 519.3 568.4H534.8C540.9 568.4 545.8 573.3 545.8 579.4Z" fill="white"/>
<path opacity="0.39" d="M724.3 557.5C724.3 563.6 729.2 568.5 735.3 568.5H743.7C749.8 568.5 754.7 563.6 754.7 557.5C754.7 551.4 749.8 546.5 743.7 546.5H735.3C729.2 546.5 724.3 551.4 724.3 557.5Z" fill="white"/>
<path opacity="0.39" d="M328.4 590.3H320C313.9 590.3 309 595.2 309 601.3C309 607.4 313.9 612.3 320 612.3H328.4C334.5 612.3 339.4 607.4 339.4 601.3C339.3 595.2 334.4 590.3 328.4 590.3Z" fill="white"/>
<path opacity="0.39" d="M666.5 612.3H682.9C689 612.3 693.9 607.4 693.9 601.3C693.9 595.2 689 590.3 682.9 590.3H666.5C660.4 590.3 655.5 595.2 655.5 601.3C655.6 607.4 660.5 612.3 666.5 612.3Z" fill="white"/>
</g>
<g opacity="0.11">
<path opacity="0.11" d="M906.4 557.2C906.4 563.3 911.3 568.2 917.4 568.2H925.8C931.9 568.2 936.8 563.3 936.8 557.2C936.8 551.1 931.9 546.2 925.8 546.2H917.4C911.3 546.2 906.4 551.1 906.4 557.2Z" fill="white"/>
<path opacity="0.11" d="M803.6 655.8H817.3C823.4 655.8 828.3 650.9 828.3 644.8C828.3 638.7 823.4 633.8 817.3 633.8H803.6C797.5 633.8 792.6 638.7 792.6 644.8C792.6 650.9 797.5 655.8 803.6 655.8Z" fill="white"/>
<path opacity="0.11" d="M728.8 699.6H732C738.1 699.6 743 694.7 743 688.6C743 682.5 738.1 677.6 732 677.6H728.8C722.7 677.6 717.8 682.5 717.8 688.6C717.8 694.7 722.8 699.6 728.8 699.6Z" fill="white"/>
<path opacity="0.11" d="M706.2 612H713.6C719.7 612 724.6 607.1 724.6 601C724.6 594.9 719.7 590 713.6 590H697.8C691.7 590 686.8 585.1 686.8 579C686.8 572.9 691.7 568 697.8 568H866.3C872.4 568 877.3 563.1 877.3 557C877.3 550.9 872.4 546 866.3 546H517C510.9 546 506 550.9 506 557C506 563.1 510.9 568 517 568H592.7C598.8 568 603.7 572.9 603.7 579C603.7 585.1 598.8 590 592.7 590H562.7C556.6 590 551.7 594.9 551.7 601C551.7 607.1 556.6 612 562.7 612H594.3C600.4 612 605.3 616.9 605.3 623C605.3 629.1 600.4 634 594.3 634H548.6C542.5 634 537.6 638.9 537.6 645C537.6 651.1 542.5 656 548.6 656H583.7C589.8 656 594.7 660.9 594.7 667C594.7 673.1 589.8 678 583.7 678H558.8C552.7 678 547.8 682.9 547.8 689C547.8 695.1 552.7 700 558.8 700H686.5C692.6 700 697.5 695.1 697.5 689C697.5 682.9 692.6 678 686.5 678H673.8C667.7 678 662.8 673.1 662.8 667C662.8 660.9 667.7 656 673.8 656H751.7C757.8 656 762.7 651.1 762.7 645C762.7 638.9 757.8 634 751.7 634H706.2C700.1 634 695.2 629.1 695.2 623C695.2 616.9 700.1 612 706.2 612ZM643 568.1H647.4C653.5 568.1 658.4 573 658.4 579.1C658.4 585.2 653.5 590.1 647.4 590.1H643C636.9 590.1 632 585.2 632 579.1C632.1 573 637 568.1 643 568.1ZM632.7 622.9C632.7 616.8 637.6 611.9 643.7 611.9H646.7C652.8 611.9 657.7 616.8 657.7 622.9C657.7 629 652.8 633.9 646.7 633.9H643.7C637.6 633.9 632.7 629 632.7 622.9Z" fill="white"/>
<path opacity="0.11" d="M821.4 612H839.7C845.8 612 850.7 607.1 850.7 601C850.7 594.9 845.8 590 839.7 590H821.4C815.3 590 810.4 594.9 810.4 601C810.4 607.1 815.3 612 821.4 612Z" fill="white"/>
<path opacity="0.11" d="M879.6 612H882.7C888.8 612 893.7 607.1 893.7 601C893.7 594.9 888.8 590 882.7 590H879.6C873.5 590 868.6 594.9 868.6 601C868.6 607.1 873.6 612 879.6 612Z" fill="white"/>
</g>
<path d="M122.9 546.5H109.1V99.9C109.1 96.1 112.2 93 116 93C119.8 93 122.9 96.1 122.9 99.9V546.5Z" fill="#414042"/>
<path d="M122.9 546.5H109.1V99.9C109.1 96.1 112.2 93 116 93C119.8 93 122.9 96.1 122.9 99.9V546.5Z" stroke="#2A2A2A" stroke-width="6" stroke-miterlimit="10" stroke-linecap="round" stroke-linejoin="round"/>
<path d="M151.2 546.5H80.7" stroke="#2A2A2A" stroke-width="6" stroke-miterlimit="10" stroke-linecap="round" stroke-linejoin="round"/>
<path d="M168.1 546.5H163.6" stroke="#2A2A2A" stroke-width="6" stroke-miterlimit="10" stroke-linecap="round" stroke-linejoin="round"/>
<path d="M228.3 169.7C218.2 170.1 208.2 170.9 198.2 172.1C198.2 162.1 198.2 152 198.2 142C208.2 140.8 218.2 140 228.3 139.6C228.3 149.6 228.3 159.7 228.3 169.7Z" fill="#2A2A2A"/>
<path d="M228.3 229.9C218.2 230.3 208.2 231.1 198.2 232.3C198.2 222.3 198.2 212.2 198.2 202.2C208.2 201 218.2 200.2 228.3 199.8C228.3 209.8 228.3 219.9 228.3 229.9Z" fill="#2A2A2A"/>
<path d="M258.5 169.7C248.4 169.3 238.4 169.3 228.3 169.7C228.3 159.7 228.3 149.6 228.3 139.6C238.4 139.2 248.4 139.2 258.5 139.6C258.5 149.6 258.5 159.7 258.5 169.7Z" fill="white"/>
<path d="M258.5 199.8C248.4 199.4 238.4 199.4 228.3 199.8C228.3 189.8 228.3 179.7 228.3 169.7C238.4 169.3 248.4 169.3 258.5 169.7C258.5 179.7 258.5 189.8 258.5 199.8Z" fill="#2A2A2A"/>
<path d="M258.5 229.9C248.4 229.5 238.4 229.5 228.3 229.9C228.3 219.9 228.3 209.8 228.3 199.8C238.4 199.4 248.4 199.4 258.5 199.8C258.5 209.8 258.5 219.9 258.5 229.9Z" fill="white"/>
<path d="M288.6 172.1C278.6 170.9 268.6 170.1 258.5 169.7C258.5 159.7 258.5 149.6 258.5 139.6C268.6 140 278.6 140.8 288.6 142C288.6 152 288.6 162 288.6 172.1Z" fill="#2A2A2A"/>
<path d="M288.6 202.2C278.6 201 268.6 200.2 258.5 199.8C258.5 189.8 258.5 179.7 258.5 169.7C268.6 170.1 278.6 170.9 288.6 172.1C288.6 182.1 288.6 192.1 288.6 202.2Z" fill="white"/>
<path d="M288.6 232.3C278.6 231.1 268.6 230.3 258.5 229.9C258.5 219.9 258.5 209.8 258.5 199.8C268.6 200.2 278.6 201 288.6 202.2C288.6 212.2 288.6 222.3 288.6 232.3Z" fill="#2A2A2A"/>
<path d="M228.3 199.8C218.2 200.2 208.2 201 198.2 202.2C198.2 192.2 198.2 182.1 198.2 172.1C208.2 170.9 218.2 170.1 228.3 169.7C228.3 179.7 228.3 189.8 228.3 199.8Z" fill="white"/>
<path d="M288.6 232.3C258.6 228.7 228.3 228.7 198.2 232.3C198.2 202.2 198.2 172.1 198.2 142C228.2 138.4 258.5 138.4 288.6 142C288.6 172.1 288.6 202.2 288.6 232.3Z" stroke="#2A2A2A" stroke-width="6" stroke-miterlimit="10" stroke-linecap="round" stroke-linejoin="round"/>
<path opacity="0.41" d="M198.2 141.9C207.3 140.8 216.5 140.1 225.6 139.6C225.6 169.7 225.6 199.8 225.6 229.9C216.4 230.3 207.3 231.1 198.2 232.2C198.2 202.2 198.2 172.1 198.2 141.9Z" fill="#2A2A2A"/>
<path d="M153 143.9C142.9 144.3 132.9 145.1 122.9 146.3C122.9 136.3 122.9 126.2 122.9 116.2C132.9 115 142.9 114.2 153 113.8C153 123.8 153 133.8 153 143.9Z" fill="#2A2A2A"/>
<path d="M153 204.1C142.9 204.5 132.9 205.3 122.9 206.5C122.9 196.5 122.9 186.4 122.9 176.4C132.9 175.2 142.9 174.4 153 174C153 184 153 194.1 153 204.1Z" fill="#2A2A2A"/>
<path d="M183.2 143.9C173.1 143.5 163.1 143.5 153 143.9C153 133.9 153 123.8 153 113.8C163.1 113.4 173.1 113.4 183.2 113.8C183.2 123.8 183.2 133.8 183.2 143.9Z" fill="white"/>
<path d="M183.2 174C173.1 173.6 163.1 173.6 153 174C153 164 153 153.9 153 143.9C163.1 143.5 173.1 143.5 183.2 143.9C183.2 153.9 183.2 164 183.2 174Z" fill="#2A2A2A"/>
<path d="M183.2 204.1C173.1 203.7 163.1 203.7 153 204.1C153 194.1 153 184 153 174C163.1 173.6 173.1 173.6 183.2 174C183.2 184 183.2 194.1 183.2 204.1Z" fill="white"/>
<path d="M213.3 146.2C203.3 145 193.3 144.2 183.2 143.8C183.2 133.8 183.2 123.7 183.2 113.7C193.3 114.1 203.3 114.9 213.3 116.1C213.3 126.2 213.3 136.2 213.3 146.2Z" fill="#2A2A2A"/>
<path d="M213.3 176.4C203.3 175.2 193.3 174.4 183.2 174C183.2 164 183.2 153.9 183.2 143.9C193.3 144.3 203.3 145.1 213.3 146.3C213.3 156.3 213.3 166.3 213.3 176.4Z" fill="white"/>
<path d="M213.3 206.5C203.3 205.3 193.3 204.5 183.2 204.1C183.2 194.1 183.2 184 183.2 174C193.3 174.4 203.3 175.2 213.3 176.4C213.3 186.4 213.3 196.4 213.3 206.5Z" fill="#2A2A2A"/>
<path d="M153 174C142.9 174.4 132.9 175.2 122.9 176.4C122.9 166.4 122.9 156.3 122.9 146.3C132.9 145.1 142.9 144.3 153 143.9C153 153.9 153 164 153 174Z" fill="white"/>
<path d="M213.3 206.5C183.3 202.9 153 202.9 122.9 206.5C122.9 176.4 122.9 146.3 122.9 116.2C152.9 112.6 183.2 112.6 213.3 116.2C213.3 146.2 213.3 176.4 213.3 206.5Z" stroke="#2A2A2A" stroke-width="6" stroke-miterlimit="10" stroke-linecap="round" stroke-linejoin="round"/>
<path d="M373.7 412.6C368.6 412.2 363.5 411.8 358.4 411.4C361 391.8 359.8 372.1 355.2 353.3C358.8 352.3 362.4 351.2 366 350.1C372.4 369.9 375.1 391.1 373.7 412.6Z" fill="#AAD543"/>
<g opacity="0.49">
<path opacity="0.49" d="M373.7 412.6C368.6 412.2 363.5 411.8 358.4 411.4C361 391.8 359.8 372.1 355.2 353.3C358.8 352.3 362.4 351.2 366 350.1C372.4 369.9 375.1 391.1 373.7 412.6Z" fill="#AAD543"/>
</g>
<path d="M373.7 412.6C368.6 412.2 363.5 411.8 358.4 411.4C361 391.8 359.8 372.1 355.2 353.3C358.8 352.3 362.4 351.2 366 350.1C372.4 369.9 375.1 391.1 373.7 412.6Z" stroke="#2A2A2A" stroke-width="6" stroke-miterlimit="10" stroke-linecap="round" stroke-linejoin="round"/>
<path d="M609.2 506.7L465.6 491.5C443.1 489.3 426 470.4 426 447.8L423.7 429.4C420.5 402.3 400.3 393.4 380 393.4C351 393.4 346.5 413.1 345.9 450.3C348 451.2 350.2 451.3 353.7 451.5C354.6 462.8 349.9 473 346 479.6C348.5 517.5 372 545.3 405.8 545.3H622.6C628 545.3 636.8 544.5 644.3 543.7C651.8 542.9 655.6 534.2 651 528.2C643.2 518.1 635.2 511.3 609.2 506.7Z" fill="white"/>
<path d="M609.2 506.7L465.6 491.5C443.1 489.3 426 470.4 426 447.8L423.7 429.4C420.5 402.3 400.3 393.4 380 393.4C351 393.4 346.5 413.1 345.9 450.3C348 451.2 350.2 451.3 353.7 451.5C354.6 462.8 349.9 473 346 479.6C348.5 517.5 372 545.3 405.8 545.3H622.6C628 545.3 636.8 544.5 644.3 543.7C651.8 542.9 655.6 534.2 651 528.2C643.2 518.1 635.2 511.3 609.2 506.7Z" fill="#AAD543"/>
<path d="M649.5 526.3C649.5 535.6 630.5 536.7 625.4 536.7L410.8 533.1C389.5 533.1 374.8 527.5 360.9 510.5C357.1 505.8 349.3 490.9 347 482.4C350.8 524.7 379.2 545.5 405.7 545.5H622.5C627.9 545.5 634.5 544.7 642 543.9C648.7 543.1 655.9 534.7 649.5 526.3Z" fill="#8EC42B"/>
<path d="M651.8 525.4C644.1 515.3 635.3 511.3 609.5 506.8C609.4 506.8 609.3 506.8 609.1 506.7L465.7 491.5C443.3 489.4 426.2 470.6 426.1 448.1C426.1 447.9 426.1 447.8 426.1 447.6L423.8 429.4C420.6 402.3 400.4 393.4 380.1 393.4C376.8 393.4 373.8 393.7 371.1 394.2C365.4 395.3 365.7 395.9 360 398.7C353.3 402.1 347.7 424.3 347.7 424.4C348.5 442.8 348.5 407.1 367.4 402.1C389.2 396.3 409.3 403.9 413 429.9C413 429.9 415.5 454.2 416.4 460.3C419.7 482.5 437.9 498.2 460.3 500.4L601.4 517C601.5 517 597.6 513 597.7 513C623.5 517.6 650.2 520.5 651.8 533.1C651.8 533.3 649 537.5 649.1 537.7C650.3 538.9 650.2 539.2 651.8 536.1C653.5 532.9 654.2 528.6 651.8 525.4Z" fill="#C6E65B"/>
<path d="M609.2 506.7L465.6 491.5C443.1 489.3 426 470.4 426 447.8L423.7 429.4C420.5 402.3 400.3 393.4 380 393.4C351 393.4 346.5 413.1 345.9 450.3C348 451.2 350.2 451.3 353.7 451.5C354.6 462.8 349.9 473 346 479.6C348.5 517.5 372 545.3 405.8 545.3H622.6C628 545.3 640.1 544.2 646.3 540C653.9 534.8 654.1 527.2 648.8 521.9C641.3 514.4 635.2 511.3 609.2 506.7Z" stroke="#2A2A2A" stroke-width="6" stroke-miterlimit="10" stroke-linecap="round" stroke-linejoin="round"/>
<path d="M345.9 450.4C345.9 450.4 352.8 454.3 376.1 448C376.3 456.6 363.3 477.6 346.1 479.7C347.1 477.9 353.2 466.2 353.7 458C353.7 456.5 354.3 452.6 353.8 451.6C348.6 451.6 345.9 450.4 345.9 450.4Z" fill="#2A2A2A"/>
<path d="M345.9 450.4C345.9 450.4 352.8 454.3 376.1 448C376.3 456.6 363.3 477.6 346.1 479.7C347.1 477.9 353.2 466.2 353.7 458C353.7 456.5 354.3 452.6 353.8 451.6C348.6 451.6 345.9 450.4 345.9 450.4Z" stroke="#2A2A2A" stroke-width="6" stroke-miterlimit="10" stroke-linecap="round" stroke-linejoin="round"/>
<path d="M373.3 442.8C373.6 443.1 378.4 447.7 379.7 452.5" stroke="#2A2A2A" stroke-width="6" stroke-miterlimit="10" stroke-linecap="round" stroke-linejoin="round"/>
<path d="M405.2 413.2C399.8 412.8 394.5 412.3 389.1 411.9C392.5 384.5 390.6 357 383.9 330.9C387.7 329.8 391.5 328.7 395.3 327.6C403.7 354.7 407.3 383.7 405.2 413.2Z" fill="#AAD543"/>
<path d="M395.3 327.6C392.8 328.3 390.4 329 387.9 329.8C391.3 338.9 390.3 362.3 392 362.1C393.7 361.9 397.2 360.8 397.6 362.4C400.7 376.9 402.4 392.5 402.4 410.8C404.8 411 402.8 413.1 405.2 413.3C407.3 383.7 403.7 354.7 395.3 327.6Z" fill="#8EC42B"/>
<path d="M390 403.2C392 378.7 389.9 354.3 383.9 331C387.7 329.9 391.5 328.8 395.3 327.7C403.8 354.8 407.3 383.8 405.2 413.3" stroke="#2A2A2A" stroke-width="6" stroke-miterlimit="10" stroke-linecap="round" stroke-linejoin="round"/>
<path d="M355.5 361.8C368.92 361.8 379.8 350.92 379.8 337.5C379.8 324.079 368.92 313.2 355.5 313.2C342.079 313.2 331.2 324.079 331.2 337.5C331.2 350.92 342.079 361.8 355.5 361.8Z" fill="#AAD543"/>
<path d="M355.5 361.8C368.92 361.8 379.8 350.92 379.8 337.5C379.8 324.079 368.92 313.2 355.5 313.2C342.079 313.2 331.2 324.079 331.2 337.5C331.2 350.92 342.079 361.8 355.5 361.8Z" stroke="#2A2A2A" stroke-width="6" stroke-miterlimit="10" stroke-linecap="round" stroke-linejoin="round"/>
<path d="M352.9 361.299C363.89 361.299 372.8 352.39 372.8 341.4C372.8 330.409 363.89 321.5 352.9 321.5C341.91 321.5 333 330.409 333 341.4C333 352.39 341.91 361.299 352.9 361.299Z" fill="white"/>
<path d="M347.6 351.699C351.687 351.699 355 348.386 355 344.299C355 340.213 351.687 336.899 347.6 336.899C343.513 336.899 340.2 340.213 340.2 344.299C340.2 348.386 343.513 351.699 347.6 351.699Z" fill="#2A2A2A"/>
<path d="M352.9 361.299C363.89 361.299 372.8 352.39 372.8 341.4C372.8 330.409 363.89 321.5 352.9 321.5C341.91 321.5 333 330.409 333 341.4C333 352.39 341.91 361.299 352.9 361.299Z" stroke="#2A2A2A" stroke-width="6" stroke-miterlimit="10" stroke-linecap="round" stroke-linejoin="round"/>
<path d="M394.5 353.4C412.615 353.4 427.3 338.715 427.3 320.6C427.3 302.485 412.615 287.8 394.5 287.8C376.385 287.8 361.7 302.485 361.7 320.6C361.7 338.715 376.385 353.4 394.5 353.4Z" fill="#AAD543"/>
<path d="M394.5 353.4C412.615 353.4 427.3 338.715 427.3 320.6C427.3 302.485 412.615 287.8 394.5 287.8C376.385 287.8 361.7 302.485 361.7 320.6C361.7 338.715 376.385 353.4 394.5 353.4Z" stroke="#2A2A2A" stroke-width="6" stroke-miterlimit="10" stroke-linecap="round" stroke-linejoin="round"/>
<path d="M390.9 352.7C405.756 352.7 417.8 340.656 417.8 325.8C417.8 310.943 405.756 298.9 390.9 298.9C376.044 298.9 364 310.943 364 325.8C364 340.656 376.044 352.7 390.9 352.7Z" fill="white"/>
<path d="M383.7 339.6C389.168 339.6 393.6 335.167 393.6 329.7C393.6 324.232 389.168 319.8 383.7 319.8C378.232 319.8 373.8 324.232 373.8 329.7C373.8 335.167 378.232 339.6 383.7 339.6Z" fill="#2A2A2A"/>
<path d="M390.9 352.7C405.756 352.7 417.8 340.656 417.8 325.8C417.8 310.943 405.756 298.9 390.9 298.9C376.044 298.9 364 310.943 364 325.8C364 340.656 376.044 352.7 390.9 352.7Z" stroke="#2A2A2A" stroke-width="6" stroke-miterlimit="10" stroke-linecap="round" stroke-linejoin="round"/>
<path d="M476.8 510.4C460.9 508.2 445.4 482.3 445.4 447.9C445.4 393.1 488.1 352.6 540.7 352.6C593.3 352.6 636 395.3 636 448C636 500.7 593.3 543.3 540.7 543.3C514.4 543.3 476.9 531.2 470.7 491.9C464.5 452.6 489 415.3 532 412.8C559.9 411.2 585.2 434 585.2 461.9C585.2 489.8 561.9 510.6 540.7 510.6C519.7 510.6 508.5 497.6 508.5 482C508.5 466.4 519.1 455.8 534.7 455.8C545.1 455.8 550.5 465.7 550.1 473.3" fill="#EE368C"/>
<path d="M519.7 505.3C519.7 505.3 561.3 517.3 584.9 467.6C578.5 486.6 576.3 496.7 558.4 506.1C537.5 510.5 539.3 512.7 519.7 505.3Z" fill="#E41B64"/>
<path d="M612.2 385.7C623.9 401.5 631.7 417 633.1 433.5C638.3 496.8 576.7 540.3 526.2 535C504.7 532.8 492.2 524.5 476.9 510.4L460.3 499.1C455.3 498.4 458.5 493.6 454 488.8C460 501.2 468.4 509.2 476.9 510.3C490 535 519.2 543.2 540.8 543.2C593.4 543.2 636.1 500.5 636.1 447.9C636 425.8 628.8 402.3 612.2 385.7Z" fill="#E41B64"/>
<path opacity="0.39" d="M450.8 456.6C450.8 401.8 493.5 361.3 546.1 361.3C578.2 361.3 606.7 377.2 623.9 401.6C607.6 372.4 576.4 352.7 540.6 352.7C488 352.7 445.3 393.2 445.3 448C445.3 469.8 451.5 488.1 460.1 499.2C454.5 488.2 450.8 473.4 450.8 456.6Z" fill="#FFFFFB"/>
<path opacity="0.39" d="M478.2 513C477.7 512.2 477.2 511.3 476.7 510.4L477.2 510.2C476.3 507.3 475.6 504.3 475.1 501.1C468.9 461.8 493.4 424.5 536.4 422C555.3 420.9 573 431 582.4 446.3C575.2 426 554.4 411.5 531.9 412.8C488.9 415.2 464.4 452.6 470.6 491.9C471.7 498.9 473.8 505.1 476.7 510.5" fill="#FFFFFB"/>
<path opacity="0.39" d="M510.6 493.3C509.1 489.8 508.4 486 508.4 482C508.4 466.4 519 455.8 534.6 455.8C541.9 455.8 546.7 458.7 548.8 464.2C546.4 462.2 541.8 460.6 538 460.6C518 460.6 511.6 475.2 511.6 490.9C511.6 491.9 511.8 492.4 511.9 493.3H510.6V493.3Z" fill="#FFFFFB"/>
<path d="M476.8 510.4C460.9 508.2 445.4 482.3 445.4 447.9C445.4 393.1 488.1 352.6 540.7 352.6C593.3 352.6 636 395.3 636 448C636 500.7 593.3 543.3 540.7 543.3C514.4 543.3 476.9 531.2 470.7 491.9C464.5 452.6 489 415.3 532 412.8C559.9 411.2 585.2 434 585.2 461.9C585.2 489.8 561.9 510.6 540.7 510.6C519.7 510.6 508.5 497.6 508.5 482C508.5 466.4 519.1 454.7 534.7 455.8C548.9 456.8 553.6 469.4 550.1 474.9" stroke="#2A2A2A" stroke-width="6" stroke-miterlimit="10" stroke-linecap="round" stroke-linejoin="round"/>
<path opacity="0.49" d="M395.876 424.436C397.401 423.945 397.978 421.502 397.166 418.978C396.354 416.455 394.46 414.807 392.935 415.297C391.411 415.788 390.833 418.231 391.645 420.755C392.457 423.278 394.351 424.926 395.876 424.436Z" fill="#AAD543"/>
<path opacity="0.49" d="M401.749 442.634C403.274 442.143 403.852 439.7 403.04 437.176C402.228 434.653 400.333 433.005 398.809 433.496C397.284 433.986 396.707 436.429 397.519 438.953C398.331 441.476 400.225 443.124 401.749 442.634Z" fill="#AAD543"/>
<path opacity="0.49" d="M395.365 434.646C396.89 434.155 397.467 431.712 396.655 429.188C395.843 426.665 393.949 425.017 392.425 425.507C390.9 425.998 390.322 428.441 391.134 430.965C391.946 433.488 393.84 435.136 395.365 434.646Z" fill="#AAD543"/>
<path opacity="0.49" d="M402.26 432.423C403.785 431.933 404.362 429.489 403.55 426.966C402.739 424.443 400.844 422.794 399.32 423.285C397.795 423.776 397.217 426.219 398.029 428.743C398.841 431.266 400.736 432.914 402.26 432.423Z" fill="#AAD543"/>
<path d="M723.6 546.5H725.1" stroke="#2A2A2A" stroke-width="6" stroke-miterlimit="10" stroke-linecap="round" stroke-linejoin="round"/>
<path d="M687.2 546.5H713" stroke="#2A2A2A" stroke-width="6" stroke-miterlimit="10" stroke-linecap="round" stroke-linejoin="round"/>
<path d="M671.4 546.5H678.1" stroke="#2A2A2A" stroke-width="6" stroke-miterlimit="10" stroke-linecap="round" stroke-linejoin="round"/>
<path d="M355.1 546.5H662.4" stroke="#2A2A2A" stroke-width="6" stroke-miterlimit="10" stroke-linecap="round" stroke-linejoin="round"/>
<path d="M333.7 546.5H341.6" stroke="#2A2A2A" stroke-width="6" stroke-miterlimit="10" stroke-linecap="round" stroke-linejoin="round"/>
<path d="M298 546.5H319.9" stroke="#2A2A2A" stroke-width="6" stroke-miterlimit="10" stroke-linecap="round" stroke-linejoin="round"/>
<path opacity="0.29" d="M575.2 454.2C579.453 454.2 582.9 450.752 582.9 446.5C582.9 442.247 579.453 438.8 575.2 438.8C570.947 438.8 567.5 442.247 567.5 446.5C567.5 450.752 570.947 454.2 575.2 454.2Z" fill="#E41B64"/>
<path opacity="0.29" d="M605.9 398.3C610.595 398.3 614.4 394.494 614.4 389.8C614.4 385.105 610.595 381.3 605.9 381.3C601.206 381.3 597.4 385.105 597.4 389.8C597.4 394.494 601.206 398.3 605.9 398.3Z" fill="#E41B64"/>
<path opacity="0.29" d="M479.8 509.7C482.23 509.7 484.2 507.73 484.2 505.3C484.2 502.87 482.23 500.9 479.8 500.9C477.37 500.9 475.4 502.87 475.4 505.3C475.4 507.73 477.37 509.7 479.8 509.7Z" fill="#E41B64"/>
<path opacity="0.29" d="M500.4 487.9C502.167 487.9 503.6 486.467 503.6 484.7C503.6 482.933 502.167 481.5 500.4 481.5C498.633 481.5 497.2 482.933 497.2 484.7C497.2 486.467 498.633 487.9 500.4 487.9Z" fill="#E41B64"/>
<path opacity="0.29" d="M458.5 454.3C459.715 454.3 460.7 453.315 460.7 452.1C460.7 450.885 459.715 449.9 458.5 449.9C457.285 449.9 456.3 450.885 456.3 452.1C456.3 453.315 457.285 454.3 458.5 454.3Z" fill="#E41B64"/>
<path opacity="0.29" d="M470.7 430.1C471.252 430.1 471.7 429.652 471.7 429.1C471.7 428.548 471.252 428.1 470.7 428.1C470.148 428.1 469.7 428.548 469.7 429.1C469.7 429.652 470.148 430.1 470.7 430.1Z" fill="#E41B64"/>
<path opacity="0.29" d="M516.4 438.1C518.167 438.1 519.6 436.668 519.6 434.9C519.6 433.133 518.167 431.7 516.4 431.7C514.633 431.7 513.2 433.133 513.2 434.9C513.2 436.668 514.633 438.1 516.4 438.1Z" fill="#E41B64"/>
<path opacity="0.29" d="M489.7 398C491.965 398 493.8 396.164 493.8 393.9C493.8 391.635 491.965 389.8 489.7 389.8C487.436 389.8 485.6 391.635 485.6 393.9C485.6 396.164 487.436 398 489.7 398Z" fill="#E41B64"/>
<path opacity="0.29" d="M565.4 415.2C567.664 415.2 569.5 413.364 569.5 411.1C569.5 408.836 567.664 407 565.4 407C563.136 407 561.3 408.836 561.3 411.1C561.3 413.364 563.136 415.2 565.4 415.2Z" fill="#E41B64"/>
<path opacity="0.29" d="M540.7 376.3C543.959 376.3 546.6 373.659 546.6 370.4C546.6 367.142 543.959 364.5 540.7 364.5C537.442 364.5 534.8 367.142 534.8 370.4C534.8 373.659 537.442 376.3 540.7 376.3Z" fill="#E41B64"/>
<path opacity="0.29" d="M597.4 467.6C600.659 467.6 603.3 464.958 603.3 461.7C603.3 458.441 600.659 455.8 597.4 455.8C594.142 455.8 591.5 458.441 591.5 461.7C591.5 464.958 594.142 467.6 597.4 467.6Z" fill="#E41B64"/>
<path opacity="0.29" d="M619 432.7C621.651 432.7 623.8 430.551 623.8 427.9C623.8 425.249 621.651 423.1 619 423.1C616.349 423.1 614.2 425.249 614.2 427.9C614.2 430.551 616.349 432.7 619 432.7Z" fill="#E41B64"/>
<path opacity="0.29" d="M535.2 526.9C537.188 526.9 538.8 525.288 538.8 523.3C538.8 521.312 537.188 519.7 535.2 519.7C533.212 519.7 531.6 521.312 531.6 523.3C531.6 525.288 533.212 526.9 535.2 526.9Z" fill="#E41B64"/>
<path opacity="0.29" d="M580.7 512.5C581.694 512.5 582.5 511.694 582.5 510.7C582.5 509.706 581.694 508.9 580.7 508.9C579.706 508.9 578.9 509.706 578.9 510.7C578.9 511.694 579.706 512.5 580.7 512.5Z" fill="#E41B64"/>
<path d="M678.1 406.1C679.923 406.1 681.4 404.623 681.4 402.8C681.4 400.977 679.923 399.5 678.1 399.5C676.277 399.5 674.8 400.977 674.8 402.8C674.8 404.623 676.277 406.1 678.1 406.1Z" stroke="#F4CD39" stroke-width="2" stroke-miterlimit="10" stroke-linecap="round" stroke-linejoin="round"/>
<path opacity="0.46" d="M880.3 354.9C882.123 354.9 883.6 353.423 883.6 351.6C883.6 349.778 882.123 348.3 880.3 348.3C878.477 348.3 877 349.778 877 351.6C877 353.423 878.477 354.9 880.3 354.9Z" stroke="#F4CD39" stroke-width="2" stroke-miterlimit="10" stroke-linecap="round" stroke-linejoin="round"/>
<path opacity="0.46" d="M282.2 19.7001C284.023 19.7001 285.5 18.2226 285.5 16.4001C285.5 14.5775 284.023 13.1001 282.2 13.1001C280.378 13.1001 278.9 14.5775 278.9 16.4001C278.9 18.2226 280.378 19.7001 282.2 19.7001Z" stroke="#F4CD39" stroke-width="2" stroke-miterlimit="10" stroke-linecap="round" stroke-linejoin="round"/>
<path d="M598.3 219.8C601.061 219.8 603.3 217.562 603.3 214.8C603.3 212.039 601.061 209.8 598.3 209.8C595.539 209.8 593.3 212.039 593.3 214.8C593.3 217.562 595.539 219.8 598.3 219.8Z" stroke="#FDB130" stroke-width="2" stroke-miterlimit="10" stroke-linecap="round" stroke-linejoin="round"/>
<path d="M48.7 454.7C50.4121 454.7 51.8 453.312 51.8 451.6C51.8 449.888 50.4121 448.5 48.7 448.5C46.9879 448.5 45.6 449.888 45.6 451.6C45.6 453.312 46.9879 454.7 48.7 454.7Z" stroke="#E03F8D" stroke-width="2" stroke-miterlimit="10" stroke-linecap="round" stroke-linejoin="round"/>
<path d="M489.7 323.7C491.909 323.7 493.7 321.909 493.7 319.7C493.7 317.491 491.909 315.7 489.7 315.7C487.491 315.7 485.7 317.491 485.7 319.7C485.7 321.909 487.491 323.7 489.7 323.7Z" stroke="#1DB7C2" stroke-width="2" stroke-miterlimit="10" stroke-linecap="round" stroke-linejoin="round"/>
<path d="M373.8 237C375.623 237 377.1 235.522 377.1 233.7C377.1 231.877 375.623 230.4 373.8 230.4C371.977 230.4 370.5 231.877 370.5 233.7C370.5 235.522 371.977 237 373.8 237Z" stroke="#FDB130" stroke-width="2" stroke-miterlimit="10" stroke-linecap="round" stroke-linejoin="round"/>
<path d="M844.1 465.7C846.309 465.7 848.1 463.909 848.1 461.7C848.1 459.491 846.309 457.7 844.1 457.7C841.891 457.7 840.1 459.491 840.1 461.7C840.1 463.909 841.891 465.7 844.1 465.7Z" stroke="#1DB7C2" stroke-width="2" stroke-miterlimit="10" stroke-linecap="round" stroke-linejoin="round"/>
<path d="M151 266.6C152.16 266.6 153.1 265.66 153.1 264.5C153.1 263.34 152.16 262.4 151 262.4C149.84 262.4 148.9 263.34 148.9 264.5C148.9 265.66 149.84 266.6 151 266.6Z" stroke="#FDB130" stroke-width="2" stroke-miterlimit="10" stroke-linecap="round" stroke-linejoin="round"/>
<path d="M3.6 327.9C4.7598 327.9 5.7 326.96 5.7 325.8C5.7 324.64 4.7598 323.7 3.6 323.7C2.4402 323.7 1.5 324.64 1.5 325.8C1.5 326.96 2.4402 327.9 3.6 327.9Z" stroke="#29D6FC" stroke-width="2" stroke-miterlimit="10" stroke-linecap="round" stroke-linejoin="round"/>
<path d="M768.2 378.7H775.5" stroke="#29D6FC" stroke-width="2" stroke-miterlimit="10" stroke-linecap="round" stroke-linejoin="round"/>
<path d="M771.8 375.1V382.4" stroke="#29D6FC" stroke-width="2" stroke-miterlimit="10" stroke-linecap="round" stroke-linejoin="round"/>
<g opacity="0.6">
<path opacity="0.6" d="M696.4 52.5005H703.8" stroke="#29D6FC" stroke-width="2" stroke-miterlimit="10" stroke-linecap="round" stroke-linejoin="round"/>
<path opacity="0.6" d="M700.1 48.8003V56.2003" stroke="#29D6FC" stroke-width="2" stroke-miterlimit="10" stroke-linecap="round" stroke-linejoin="round"/>
</g>
<path d="M630.3 296.1H636" stroke="#E03F8D" stroke-width="2" stroke-miterlimit="10" stroke-linecap="round" stroke-linejoin="round"/>
<path d="M633.2 293.2V298.9" stroke="#E03F8D" stroke-width="2" stroke-miterlimit="10" stroke-linecap="round" stroke-linejoin="round"/>
<path d="M414.9 116.5H420.6" stroke="#E03F8D" stroke-width="2" stroke-miterlimit="10" stroke-linecap="round" stroke-linejoin="round"/>
<path d="M417.8 113.7V119.3" stroke="#E03F8D" stroke-width="2" stroke-miterlimit="10" stroke-linecap="round" stroke-linejoin="round"/>
<path d="M203.7 302.8H211.5" stroke="#E03F8D" stroke-width="2" stroke-miterlimit="10" stroke-linecap="round" stroke-linejoin="round"/>
<path d="M207.6 298.9V306.6" stroke="#E03F8D" stroke-width="2" stroke-miterlimit="10" stroke-linecap="round" stroke-linejoin="round"/>
<path d="M165.9 414.7H176.2" stroke="#1DB7C2" stroke-width="2" stroke-miterlimit="10" stroke-linecap="round" stroke-linejoin="round"/>
<path d="M171 409.5V419.9" stroke="#1DB7C2" stroke-width="2" stroke-miterlimit="10" stroke-linecap="round" stroke-linejoin="round"/>
<path d="M252.1 358.8C253.2 357.3 254.8 358.4 255.9 356.9C257 355.4 255.4 354.2 256.5 352.7C257.6 351.2 259.2 352.3 260.3 350.8C261.4 349.3 259.8 348.1 260.9 346.5C262 345 263.6 346.1 264.7 344.6" stroke="white" stroke-width="2" stroke-miterlimit="10" stroke-linecap="round" stroke-linejoin="round"/>
<g opacity="0.4">
<path opacity="0.4" d="M36.3 403.2C35.7 401.4 37.5 400.7 36.9 399C36.3 397.2 34.4 397.9 33.7 396.1C33.1 394.3 34.9 393.6 34.3 391.9C33.7 390.1 31.8 390.8 31.1 389C30.5 387.2 32.3 386.5 31.7 384.8" stroke="white" stroke-width="2" stroke-miterlimit="10" stroke-linecap="round" stroke-linejoin="round"/>
</g>
<path d="M732.3 304.1C730.6 303.2 731.5 301.5 729.8 300.6C728.1 299.7 727.2 301.5 725.5 300.7C723.8 299.8 724.7 298.1 723 297.2C721.3 296.3 720.4 298.1 718.7 297.3C717 296.4 717.9 294.7 716.2 293.8" stroke="white" stroke-width="2" stroke-miterlimit="10" stroke-linecap="round" stroke-linejoin="round"/>
<g opacity="0.53">
<path opacity="0.53" d="M282.7 451.7C281.5 452.4 280.5 450.7 279.3 451.4C278.1 452.1 279.1 453.8 278 454.5C276.8 455.2 275.8 453.5 274.6 454.2C273.4 454.9 274.4 456.6 273.3 457.3C272.2 458 271.1 456.3 269.9 457" stroke="#1DB7C2" stroke-width="2" stroke-miterlimit="10" stroke-linecap="round" stroke-linejoin="round"/>
</g>
<path d="M819.6 265.6C821.4 265 822 267 823.8 266.4C825.6 265.8 825 263.9 826.8 263.4C828.6 262.8 829.2 264.8 831 264.2C832.8 263.6 832.2 261.7 834 261.2C835.8 260.7 836.4 262.6 838.2 262" stroke="#29D6FC" stroke-width="2" stroke-miterlimit="10" stroke-linecap="round" stroke-linejoin="round"/>
<path d="M487.9 219.4C489.7 218.8 490.3 220.8 492.1 220.2C493.9 219.6 493.3 217.7 495.1 217.2C496.9 216.6 497.5 218.6 499.3 218C501.1 217.4 500.5 215.5 502.3 215C504.1 214.5 504.7 216.4 506.5 215.8" stroke="#29D6FC" stroke-width="2" stroke-miterlimit="10" stroke-linecap="round" stroke-linejoin="round"/>
</svg>
