<svg width="100%" height="100%" viewBox="0 0 789 679" fill="none" xmlns="http://www.w3.org/2000/svg">
<path d="M611.535 678.441C709.068 678.441 788.135 665.726 788.135 650.041C788.135 634.357 709.068 621.641 611.535 621.641C514.001 621.641 434.935 634.357 434.935 650.041C434.935 665.726 514.001 678.441 611.535 678.441Z" fill="#26A8A1"/>
<path d="M176.6 664.8C274.133 664.8 353.2 652.085 353.2 636.4C353.2 620.715 274.133 608 176.6 608C79.0665 608 0 620.715 0 636.4C0 652.085 79.0665 664.8 176.6 664.8Z" fill="#26A8A1"/>
<path d="M618.567 637.041H600.967L602.167 623.441H619.667L618.567 637.041Z" fill="#FFAB91"/>
<path d="M672.667 641.241H656.067L658.067 624.241L672.667 626.341V641.241Z" fill="#FFAB91"/>
<path d="M618.567 637.041H600.967L602.167 623.441H619.667L618.567 637.041Z" stroke="#46133C" stroke-width="3" stroke-miterlimit="10" stroke-linecap="round" stroke-linejoin="round"/>
<path d="M672.667 641.241H656.067L658.067 624.241L672.667 626.341V641.241Z" stroke="#46133C" stroke-width="3" stroke-miterlimit="10" stroke-linecap="round" stroke-linejoin="round"/>
<path d="M592.967 455.741C596.267 456.641 582.667 535.341 597.267 623.741C605.067 625.041 617.667 626.441 623.967 623.841C630.067 617.741 630.567 499.741 630.567 491.841C635.867 492.841 638.967 494.141 642.267 497.441C646.467 501.641 651.767 616.641 651.767 625.341C658.667 628.641 673.867 629.141 678.267 627.241C682.267 623.241 689.267 468.941 681.367 450.441C672.867 455.141 638.467 460.941 592.967 455.741Z" fill="#5F235A"/>
<g opacity="0.15">
<path opacity="0.15" d="M593.367 456.441C604.667 457.441 615.167 457.841 624.667 457.741C614.967 457.641 604.267 457.041 592.967 455.741C593.167 455.741 593.267 456.041 593.367 456.441Z" fill="#5F235A"/>
<path opacity="0.15" d="M623.567 491.841C623.567 499.741 622.967 617.741 616.967 623.841C615.167 624.541 612.767 624.941 610.167 625.141C615.467 625.441 620.667 625.241 624.067 623.841C629.867 618.041 630.667 511.941 630.667 494.041C628.667 492.941 626.467 492.341 623.567 491.841Z" fill="#5F235A"/>
<path opacity="0.15" d="M681.467 450.341C680.067 451.141 677.867 451.941 675.167 452.741C675.467 453.841 600.467 455.941 600.967 457.441C604.467 466.641 676.367 460.041 676.567 461.941C680.767 502.841 674.867 623.641 671.267 627.241C670.067 627.741 668.167 628.041 665.867 628.241C671.167 628.541 676.067 628.241 678.267 627.241C682.367 623.141 689.367 468.841 681.467 450.341Z" fill="#5F235A"/>
</g>
<path d="M682.067 452.241C681.867 451.541 681.667 450.841 681.467 450.341C675.467 453.741 656.867 457.541 630.767 457.741C654.667 458.041 672.867 455.241 682.067 452.241Z" fill="#5F235A"/>
<path d="M600.967 623.441C587.067 538.941 596.667 464.341 600.967 456.341C599.167 456.141 594.867 455.941 592.967 455.741C596.267 456.641 582.667 535.341 597.267 623.741C602.567 624.641 610.067 625.541 616.367 625.241C611.467 625.041 604.867 624.041 600.967 623.441Z" fill="white"/>
<path d="M653.967 626.041C656.067 602.441 652.867 500.341 644.567 495.841C640.467 493.641 638.867 492.141 633.567 491.141C633.567 491.441 635.967 492.441 635.967 493.041C638.467 493.941 640.467 495.241 642.467 497.241C646.667 501.441 651.967 616.441 651.967 625.141C656.867 627.441 665.867 628.441 672.267 628.041C666.667 627.941 657.567 627.841 653.967 626.041Z" fill="white"/>
<path d="M592.967 455.741C596.267 456.641 582.667 535.341 597.267 623.741C605.067 625.041 617.667 626.441 623.967 623.841C630.067 617.741 630.567 499.741 630.567 491.841C635.867 492.841 638.967 494.141 642.267 497.441C646.467 501.641 651.767 616.641 651.767 625.341C658.667 628.641 673.867 629.141 678.267 627.241C682.267 623.241 689.267 468.941 681.367 450.441C672.867 455.141 638.467 460.941 592.967 455.741Z" stroke="#46133C" stroke-width="3" stroke-miterlimit="10" stroke-linecap="round" stroke-linejoin="round"/>
<path d="M630.667 491.841L624.867 491.241" stroke="#46133C" stroke-width="3" stroke-miterlimit="10" stroke-linecap="round" stroke-linejoin="round"/>
<path d="M577.567 654.241C577.567 654.241 599.067 655.541 616.967 652.341C625.267 652.341 623.767 634.141 623.767 634.141C623.767 634.141 613.467 637.441 604.867 635.741C596.267 634.041 597.967 632.941 597.967 632.941C597.967 632.941 564.267 638.541 559.767 643.041C555.367 647.441 558.267 654.241 577.567 654.241Z" fill="#9F3C6C"/>
<path d="M564.967 644.441C569.267 640.141 592.467 636.241 600.467 634.841C596.867 633.741 597.967 633.041 597.967 633.041C597.967 633.041 564.267 638.641 559.767 643.141C556.167 646.741 557.467 651.941 568.467 653.641C562.367 651.241 560.167 649.241 564.967 644.441Z" fill="white"/>
<path d="M639.167 659.041C639.567 662.341 642.867 669.641 659.767 665.641C671.667 662.841 672.967 655.141 675.367 649.941C677.767 644.741 674.667 635.941 674.667 635.941C674.667 635.941 672.967 639.541 667.667 639.541C660.167 639.541 653.467 635.041 653.467 635.041C653.067 634.341 638.467 652.841 639.167 659.041Z" fill="#9F3C6C"/>
<path d="M661.867 664.041C645.067 668.041 643.467 659.041 643.067 655.641C642.567 651.341 649.667 640.841 654.067 635.241C653.767 635.041 653.567 634.941 653.567 634.941C653.167 634.241 638.467 652.741 639.167 658.941C639.567 662.241 642.867 669.541 659.767 665.541C664.967 664.341 668.167 662.141 670.267 659.641C668.467 660.741 664.567 663.441 661.867 664.041Z" fill="white"/>
<path d="M577.567 654.241C577.567 654.241 599.067 655.541 616.967 652.341C625.267 652.341 623.767 634.141 623.767 634.141C623.767 634.141 613.567 636.741 604.867 635.741C601.167 635.341 599.367 634.141 598.467 633.441C598.067 633.141 597.567 632.941 597.067 633.041C591.767 633.941 563.767 638.941 559.767 642.941C555.367 647.441 558.267 654.241 577.567 654.241Z" stroke="#46133C" stroke-width="3" stroke-miterlimit="10" stroke-linecap="round" stroke-linejoin="round"/>
<path d="M639.167 659.041C639.867 662.341 642.867 669.641 659.767 665.641C671.667 662.841 673.967 655.441 675.367 649.941C676.767 644.541 674.667 635.941 674.667 635.941C674.667 635.941 672.967 639.541 667.667 639.541C660.167 639.541 654.467 635.641 654.467 635.641C650.867 637.241 637.167 649.841 639.167 659.041Z" stroke="#46133C" stroke-width="3" stroke-miterlimit="10" stroke-linecap="round" stroke-linejoin="round"/>
<path d="M579.267 635.041C579.267 635.041 583.867 635.641 584.467 640.341" stroke="#46133C" stroke-width="3" stroke-miterlimit="10" stroke-linecap="round" stroke-linejoin="round"/>
<path d="M584.467 633.141C584.467 633.141 589.067 633.741 589.667 638.441" stroke="#46133C" stroke-width="3" stroke-miterlimit="10" stroke-linecap="round" stroke-linejoin="round"/>
<path d="M589.767 631.741C589.767 631.741 594.367 632.341 594.967 637.041" stroke="#46133C" stroke-width="3" stroke-miterlimit="10" stroke-linecap="round" stroke-linejoin="round"/>
<path d="M650.867 649.441C650.867 649.441 654.967 647.341 658.167 650.941" stroke="#46133C" stroke-width="3" stroke-miterlimit="10" stroke-linecap="round" stroke-linejoin="round"/>
<path d="M653.067 645.641C653.067 645.641 657.167 643.541 660.367 647.141" stroke="#46133C" stroke-width="3" stroke-miterlimit="10" stroke-linecap="round" stroke-linejoin="round"/>
<path d="M654.467 641.841C654.467 641.841 658.567 639.741 661.767 643.341" stroke="#46133C" stroke-width="3" stroke-miterlimit="10" stroke-linecap="round" stroke-linejoin="round"/>
<path d="M663.267 455.741C663.267 455.741 670.867 487.841 685.067 487.841" stroke="#46133C" stroke-width="3" stroke-miterlimit="10" stroke-linecap="round" stroke-linejoin="round"/>
<path d="M600.967 457.441C600.967 457.441 598.867 478.441 592.267 480.841" stroke="#46133C" stroke-width="3" stroke-miterlimit="10" stroke-linecap="round" stroke-linejoin="round"/>
<path d="M666.367 409.241H698.967C698.967 409.241 719.467 327.241 660.967 283.341C657.267 279.641 643.367 279.441 643.367 279.441C614.967 288.341 605.867 307.341 605.867 307.341L592.867 284.341C592.867 284.341 577.667 289.541 576.067 314.541C557.967 340.241 527.167 342.441 509.267 324.641C503.367 330.241 487.467 346.941 487.467 346.941C487.467 346.941 503.867 366.341 532.067 369.241C561.567 372.241 582.267 353.341 588.067 346.941C592.867 351.741 601.267 418.941 589.167 451.141C588.567 452.841 589.367 454.741 591.067 455.341C596.167 457.041 608.167 459.741 631.767 459.541C648.567 459.441 678.467 454.141 678.467 454.141L666.367 409.241Z" fill="#EE406D"/>
<path d="M509.267 326.741L492.167 351.441L485.567 345.641L509.267 326.741Z" fill="#EE406D"/>
<path opacity="0.15" d="M630.767 409.241C630.767 409.241 614.867 458.941 624.667 469.141C629.867 474.541 668.267 478.941 671.167 479.941C674.167 480.941 684.767 480.841 684.767 480.841L683.567 461.441L630.767 409.241Z" fill="#5F235A"/>
<path d="M653.467 320.341C653.467 320.341 662.467 339.241 663.267 373.641C663.667 392.741 658.967 409.241 658.967 409.241L664.967 412.541C664.967 412.541 669.667 405.741 669.767 379.041C669.867 355.041 663.867 335.241 653.467 320.341Z" fill="#EE406D"/>
<path d="M599.867 306.441C599.867 306.441 600.767 304.641 602.767 301.841L592.867 284.341C592.867 284.341 591.067 284.941 588.667 286.741L599.867 306.441Z" fill="#EE406D"/>
<path d="M660.967 283.341C658.667 281.041 652.567 280.141 648.267 279.741C651.067 280.341 653.667 281.241 654.967 282.541C713.467 326.441 692.967 408.441 692.967 408.441H660.367L672.467 453.041C672.467 453.041 642.567 458.341 625.767 458.441C615.067 458.541 606.767 458.041 600.367 457.241C607.167 458.441 617.267 459.341 631.767 459.241C648.567 459.141 678.467 453.841 678.467 453.841L666.367 409.241H698.967C698.967 409.241 719.467 327.241 660.967 283.341Z" fill="#EE406D"/>
<path d="M585.767 342.241C579.967 348.641 555.667 371.141 526.367 368.341C528.167 368.641 530.067 368.941 532.067 369.141C556.667 371.641 579.267 354.841 588.067 346.841C587.367 344.341 586.467 342.841 585.767 342.241Z" fill="#EE406D"/>
<path d="M609.467 309.641C609.467 309.641 618.867 290.041 648.067 280.941C648.067 280.941 653.767 281.041 658.967 282.041C653.767 279.641 643.367 279.441 643.367 279.441C620.567 286.541 610.167 300.241 607.067 305.341L609.467 309.641Z" fill="#EE406D"/>
<path d="M509.267 326.741C527.667 345.141 560.167 343.441 578.767 317.041C580.067 296.641 589.567 288.041 593.667 285.741L592.867 284.341C592.867 284.341 577.667 289.541 576.067 314.541C557.967 340.241 527.167 342.441 509.267 324.641C503.367 330.241 487.467 346.941 487.467 346.941C487.467 346.941 487.467 345.841 488.567 346.941C492.967 342.241 504.367 331.341 509.267 326.741Z" fill="white"/>
<path d="M591.067 350.441C590.767 350.741 590.367 351.141 590.067 351.541C594.767 368.241 599.767 422.941 589.167 451.041C588.567 452.741 589.367 454.641 591.067 455.241C591.567 455.441 592.267 455.641 592.867 455.841C604.367 421.841 595.967 355.241 591.067 350.441Z" fill="white"/>
<path d="M666.367 409.241H698.967C698.967 409.241 719.467 327.241 660.967 283.341C657.267 279.641 643.367 279.441 643.367 279.441C614.967 288.341 605.867 307.341 605.867 307.341L592.867 284.341C592.867 284.341 577.667 289.541 576.067 314.541C557.967 340.241 527.167 342.441 509.267 324.641C503.367 330.241 487.467 346.941 487.467 346.941C487.467 346.941 503.867 366.341 532.067 369.241C561.567 372.241 582.267 353.341 588.067 346.941C592.867 351.741 601.267 418.941 589.167 451.141C588.567 452.841 589.367 454.741 591.067 455.341C596.167 457.041 608.167 459.741 631.767 459.541C648.567 459.441 678.467 454.141 678.467 454.141L666.367 409.241Z" stroke="#46133C" stroke-width="3" stroke-miterlimit="10" stroke-linecap="round" stroke-linejoin="round"/>
<path d="M704.867 472.541C682.367 472.041 660.067 470.441 637.667 467.941C630.967 467.141 625.967 461.241 626.267 454.541C626.967 441.441 628.267 428.341 629.967 415.241C630.867 408.541 636.767 403.641 643.567 404.141C665.567 405.641 687.567 408.241 709.667 411.641C716.067 412.641 720.767 418.241 720.567 424.741C720.167 436.941 719.267 449.041 717.967 461.141C717.167 467.741 711.467 472.741 704.867 472.541Z" fill="#FFA45A"/>
<path d="M704.867 472.541C682.367 472.041 660.067 470.441 637.667 467.941C630.967 467.141 625.967 461.241 626.267 454.541C626.967 441.441 628.267 428.341 629.967 415.241C630.867 408.541 636.767 403.641 643.567 404.141C665.567 405.641 687.567 408.241 709.667 411.641C716.067 412.641 720.767 418.241 720.567 424.741C720.167 436.941 719.267 449.041 717.967 461.141C717.167 467.741 711.467 472.741 704.867 472.541Z" fill="#FFA45A"/>
<path d="M630.667 455.941C631.367 442.841 632.667 429.741 634.367 416.641C635.267 409.941 641.167 405.041 647.967 405.541C669.967 407.041 691.967 409.641 714.067 413.041C714.767 413.141 715.467 413.341 716.067 413.541C714.267 412.041 712.067 410.941 709.567 410.541C687.467 407.141 665.467 404.541 643.467 403.041C636.767 402.541 630.767 407.441 629.867 414.141C628.167 427.241 626.967 440.341 626.167 453.441C625.867 459.341 629.567 464.541 635.067 466.341C632.167 463.841 630.467 460.041 630.667 455.941Z" fill="white"/>
<path d="M704.867 472.541C682.367 472.041 660.067 470.441 637.667 467.941C630.967 467.141 625.967 461.241 626.267 454.541C626.967 441.441 628.267 428.341 629.967 415.241C630.867 408.541 636.767 403.641 643.567 404.141C665.567 405.641 687.567 408.241 709.667 411.641C716.067 412.641 720.767 418.241 720.567 424.741C720.167 436.941 719.267 449.041 717.967 461.141C717.167 467.741 711.467 472.741 704.867 472.541Z" stroke="#46133C" stroke-width="3" stroke-miterlimit="10" stroke-linecap="round" stroke-linejoin="round"/>
<path d="M666.367 409.241C679.067 349.541 651.867 318.141 651.867 318.141" stroke="#46133C" stroke-width="3" stroke-miterlimit="10" stroke-linecap="round" stroke-linejoin="round"/>
<path d="M583.667 340.041C583.667 340.041 586.167 341.341 588.067 346.841" stroke="#46133C" stroke-width="4" stroke-miterlimit="10" stroke-linecap="round" stroke-linejoin="round"/>
<path d="M620.567 376.141C620.567 376.141 621.767 382.441 618.667 393.941" stroke="#46133C" stroke-width="3" stroke-miterlimit="10" stroke-linecap="round" stroke-linejoin="round"/>
<path d="M614.467 249.141C614.467 249.141 614.767 262.141 614.767 267.741C614.767 273.341 596.267 291.441 596.267 291.441C596.267 291.441 588.967 280.641 591.567 265.741C594.167 250.841 608.567 249.141 608.567 249.141H614.467Z" fill="#CC1F49"/>
<path d="M598.167 294.041C598.167 287.241 605.167 264.741 595.067 243.541C588.067 228.941 563.767 224.441 549.867 213.241C509.467 180.641 529.567 91.0414 529.567 91.0414C529.567 91.0414 545.667 65.4414 598.267 65.4414C615.767 65.4414 631.267 72.9414 645.467 116.141C659.567 159.341 646.667 183.341 646.667 183.341C639.267 198.441 631.967 234.941 651.967 269.741L656.167 276.041C656.167 276.041 615.867 292.641 610.667 309.141C605.467 325.541 598.167 294.041 598.167 294.041Z" fill="#FFAB91"/>
<path opacity="0.43" d="M651.867 269.641C631.867 234.841 639.167 198.341 646.567 183.241C646.567 183.241 659.567 159.241 645.367 116.041C631.267 72.8414 615.667 65.3414 598.167 65.3414C577.167 65.3414 561.967 69.4414 551.267 74.3414C561.267 70.8414 574.167 68.3414 590.767 68.3414C594.667 68.3414 598.467 68.7414 602.267 69.8414C589.267 71.0414 533.867 81.8414 529.567 91.0414C529.567 91.0414 535.567 109.541 558.467 116.941C574.167 122.041 591.267 120.441 605.867 119.041C611.067 120.641 611.867 136.641 641.867 145.441C652.967 148.741 637.667 193.141 635.267 206.441C632.967 219.041 634.567 244.441 640.267 257.841C643.967 266.641 640.067 264.941 632.267 270.341C629.867 271.941 619.467 278.641 618.867 279.541C611.267 289.741 619.367 286.441 603.767 310.541C605.967 314.541 608.467 316.041 610.567 309.141C615.667 292.641 656.067 276.041 656.067 276.041L651.867 269.641Z" fill="#FFAB91"/>
<path d="M600.867 296.641C600.867 289.341 610.267 266.341 599.467 243.641C591.967 228.041 568.167 222.441 553.367 210.441C517.967 181.941 527.667 112.741 531.667 88.3414C530.267 89.9414 529.667 90.9414 529.667 90.9414C529.667 90.9414 509.567 180.641 549.967 213.141C563.867 224.341 588.167 228.841 595.167 243.441C605.267 264.741 598.267 287.141 598.267 293.941C598.267 293.941 600.267 303.441 602.167 306.841C599.967 301.041 600.867 296.641 600.867 296.641Z" fill="white"/>
<path d="M598.167 294.041C598.167 287.241 605.167 264.741 595.067 243.541C588.067 228.941 563.767 224.441 549.867 213.241C509.467 180.641 529.567 91.0414 529.567 91.0414C529.567 91.0414 545.667 65.4414 598.267 65.4414C615.767 65.4414 631.267 72.9414 645.467 116.141C659.567 159.341 646.667 183.341 646.667 183.341C639.267 198.441 631.967 234.941 651.967 269.741L656.167 276.041C656.167 276.041 615.867 292.641 610.667 309.141C605.467 325.541 598.167 294.041 598.167 294.041Z" stroke="#46133C" stroke-width="3" stroke-miterlimit="10" stroke-linecap="round" stroke-linejoin="round"/>
<path d="M554.467 151.041C554.467 151.041 554.867 160.841 547.967 169.641C549.767 174.141 558.367 173.441 558.367 173.441" stroke="#46133C" stroke-width="3" stroke-miterlimit="10" stroke-linecap="round" stroke-linejoin="round"/>
<path d="M550.667 185.241C550.567 185.941 564.267 189.941 571.867 181.241C567.867 190.841 562.367 195.041 549.967 195.041" fill="#FF5757"/>
<path d="M544.867 183.641C544.767 184.341 564.267 189.941 571.767 181.241C567.767 190.841 562.267 195.041 549.867 195.041" stroke="#46133C" stroke-width="3" stroke-miterlimit="10" stroke-linecap="round" stroke-linejoin="round"/>
<path d="M549.867 195.041C549.867 195.041 553.367 189.841 549.867 185.241" stroke="#46133C" stroke-width="3" stroke-miterlimit="10" stroke-linecap="round" stroke-linejoin="round"/>
<path opacity="0.71" d="M588.667 163.741L572.267 161.541C566.067 160.741 561.767 154.241 562.567 147.141L563.567 138.841C564.367 131.741 570.067 126.441 576.267 127.041L592.667 128.641C599.167 129.241 603.867 135.841 602.967 143.241L601.967 151.941C601.167 159.341 595.167 164.641 588.667 163.741Z" fill="white"/>
<path opacity="0.71" d="M541.067 160.741L522.567 159.541C515.567 159.141 510.267 152.641 510.567 145.241L510.967 136.541C511.367 129.041 517.267 123.241 524.267 123.441L542.767 124.041C550.067 124.241 555.867 130.741 555.467 138.541L555.067 147.641C554.667 155.341 548.367 161.241 541.067 160.741Z" fill="white"/>
<path d="M575.167 151.041C576.879 151.041 578.267 148.534 578.267 145.441C578.267 142.349 576.879 139.841 575.167 139.841C573.454 139.841 572.067 142.349 572.067 145.441C572.067 148.534 573.454 151.041 575.167 151.041Z" fill="#46133C"/>
<path d="M544.867 147.741C546.579 147.741 547.967 145.234 547.967 142.141C547.967 139.049 546.579 136.541 544.867 136.541C543.154 136.541 541.767 139.049 541.767 142.141C541.767 145.234 543.154 147.741 544.867 147.741Z" fill="#46133C"/>
<path d="M598.167 251.641C598.167 251.641 585.867 267.441 592.867 284.341C597.867 296.341 600.367 305.941 605.867 313.841C612.467 305.641 618.467 288.041 637.167 280.341C655.767 272.741 653.367 268.241 653.367 265.641C653.367 263.241 650.167 256.541 645.967 256.541" stroke="#46133C" stroke-width="3" stroke-miterlimit="10" stroke-linecap="round" stroke-linejoin="round"/>
<path d="M623.967 301.441C623.967 301.441 614.767 312.241 614.767 346.841" stroke="#46133C" stroke-width="3" stroke-miterlimit="10" stroke-linecap="round" stroke-linejoin="round"/>
<path d="M598.167 294.041C598.167 294.041 593.867 319.941 598.167 324.241" stroke="#46133C" stroke-width="3" stroke-miterlimit="10" stroke-linecap="round" stroke-linejoin="round"/>
<path d="M617.867 110.641C620.167 112.941 611.467 118.041 624.167 130.741C636.967 143.541 642.567 143.841 642.567 153.941C642.567 164.041 643.867 187.941 653.367 192.241C662.867 196.541 684.567 163.141 681.567 129.241C679.567 107.841 670.567 90.3414 660.267 83.3414C655.767 59.0414 629.867 44.0414 610.267 40.7414C580.767 35.8414 564.067 52.6414 562.667 51.2414C551.867 54.5414 543.167 55.0414 536.567 54.3414C526.467 53.3414 518.267 62.4414 520.267 72.3414V72.4414C524.367 92.1414 540.367 102.441 545.167 105.541C554.967 111.841 564.067 113.641 566.567 114.141C576.367 115.841 584.967 114.541 592.567 113.441C606.867 111.341 615.267 107.941 617.867 110.641Z" fill="#6D524E"/>
<path d="M617.867 110.641C620.167 112.941 611.467 118.041 624.167 130.741C636.967 143.541 642.567 143.841 642.567 153.941C642.567 164.041 643.867 187.941 653.367 192.241C662.867 196.541 684.567 163.141 681.567 129.241C679.567 107.841 670.567 90.3414 660.267 83.3414C655.767 59.0414 629.867 44.0414 610.267 40.7414C580.767 35.8414 564.067 52.6414 562.667 51.2414C551.867 54.5414 543.167 55.0414 536.567 54.3414C526.467 53.3414 518.267 62.4414 520.267 72.3414V72.4414C524.367 92.1414 540.367 102.441 545.167 105.541C554.967 111.841 564.067 113.641 566.567 114.141C576.367 115.841 584.967 114.541 592.567 113.441C606.867 111.341 615.267 107.941 617.867 110.641Z" fill="#5F2E50"/>
<g opacity="0.34">
<path opacity="0.34" d="M659.667 81.0414C657.867 73.6414 654.067 67.2414 649.067 61.7414C652.367 66.5414 654.867 72.0414 655.967 78.0414C657.167 78.8414 658.467 79.8414 659.667 81.0414Z" fill="#5F2E50"/>
<path opacity="0.34" d="M619.267 105.241C616.667 102.641 602.567 106.041 588.267 108.241C580.667 109.441 572.167 110.741 562.267 108.941C559.767 108.541 550.667 106.741 540.867 100.341C538.367 98.7414 532.667 95.0414 527.367 89.1414C533.667 98.3414 541.867 103.641 545.167 105.741C554.967 112.041 564.067 113.841 566.567 114.341C576.367 116.041 584.967 114.741 592.567 113.641C601.967 112.241 608.867 110.241 613.167 109.841C621.567 109.441 620.167 106.141 619.267 105.241Z" fill="#5F2E50"/>
<path opacity="0.34" d="M619.967 125.341C619.767 125.141 619.567 124.841 619.267 124.641C620.367 126.441 621.967 128.441 624.167 130.641C629.867 136.341 634.167 139.641 637.167 142.341C634.967 137.541 629.467 134.941 619.967 125.341Z" fill="#5F2E50"/>
<path opacity="0.34" d="M681.467 129.241C679.867 111.541 673.367 96.4414 665.367 87.8414C671.367 96.7414 675.967 109.341 677.267 123.841C680.367 157.641 658.567 191.041 649.067 186.841C648.567 186.641 648.167 186.341 647.767 186.041C649.167 188.941 651.067 191.141 653.367 192.141C662.867 196.441 684.567 163.041 681.467 129.241Z" fill="#5F2E50"/>
</g>
<path d="M524.867 77.0414V76.9414C522.867 67.0414 531.067 57.8414 541.167 58.9414C547.767 59.6414 555.167 57.8414 565.967 54.5414C569.467 52.4414 584.567 40.0414 614.067 45.0414C624.967 46.8414 638.667 52.7414 648.667 61.3414C638.167 50.0414 622.867 42.9414 610.167 40.8414C580.667 35.9414 563.967 52.7414 562.567 51.3414C551.767 54.6414 543.067 55.1414 536.467 54.4414C526.367 53.4414 518.167 62.5414 520.167 72.4414V72.5414C522.767 85.2414 530.367 94.0414 536.767 99.5414C531.767 94.1414 526.867 86.7414 524.867 77.0414Z" fill="white"/>
<path d="M664.867 87.9414C665.367 88.3414 665.867 88.6414 666.467 89.0414C665.867 88.3414 665.367 87.7414 664.767 87.1414C664.767 87.4414 664.767 87.6414 664.867 87.9414Z" fill="#5F2E50"/>
<path d="M557.667 52.9414C550.767 55.1414 542.167 54.9414 536.467 54.3414C526.367 53.3414 518.167 62.4414 520.167 72.3414V72.4414C524.267 92.1414 540.267 102.441 545.067 105.541C554.867 111.841 563.967 113.641 566.467 114.141C576.267 115.841 584.867 114.541 592.467 113.441C606.867 111.241 615.167 107.841 617.867 110.441C620.167 112.741 611.467 117.841 624.167 130.541C636.967 143.341 642.567 143.641 642.567 153.741C642.567 163.841 643.867 187.741 653.367 192.041C662.867 196.341 684.567 162.941 681.567 129.041C679.567 107.641 670.567 90.1414 660.267 83.1414C655.767 58.8414 629.867 43.8414 610.267 40.5414C580.767 35.6414 569.867 47.5414 563.367 50.5414" stroke="#46133C" stroke-width="3" stroke-miterlimit="10" stroke-linecap="round" stroke-linejoin="round"/>
<path d="M635.367 101.041C634.267 101.341 622.567 97.8414 618.867 110.841" stroke="#46133C" stroke-width="3" stroke-miterlimit="10" stroke-linecap="round" stroke-linejoin="round"/>
<path d="M642.367 246.941C642.367 246.941 649.367 238.141 660.267 249.141C671.267 260.141 678.467 260.341 686.667 271.941C696.067 285.241 696.067 303.641 686.567 305.941C684.267 306.541 678.067 296.941 672.167 290.741C666.267 284.541 657.367 280.541 653.467 284.341C649.567 288.141 634.467 301.441 622.067 289.041C611.467 278.441 653.367 273.541 653.367 265.741C653.367 257.841 644.667 257.641 642.367 246.941Z" fill="#FF3B61"/>
<path d="M649.467 281.041C643.867 288.241 631.367 290.341 621.167 288.041C621.367 288.341 621.667 288.741 622.067 289.041C634.467 301.441 651.467 286.341 655.367 282.441C657.267 280.541 667.167 284.341 672.167 290.741C668.467 280.741 652.567 277.041 649.467 281.041Z" fill="#FF3B61"/>
<path d="M686.667 271.941C678.467 260.341 671.267 260.141 660.267 249.141C656.967 245.841 654.167 244.341 651.667 243.841C662.367 254.241 669.467 254.641 677.467 266.041C686.067 278.241 686.767 294.941 679.367 299.241C682.567 303.141 685.167 306.241 686.567 305.941C696.067 303.541 696.067 285.141 686.667 271.941Z" fill="#FF3B61"/>
<path d="M642.367 246.941C642.367 246.941 649.367 238.141 660.267 249.141C671.267 260.141 678.467 260.341 686.667 271.941C696.067 285.241 696.067 303.641 686.567 305.941C684.267 306.541 678.067 296.941 672.167 290.741C666.267 284.541 657.367 280.541 653.467 284.341C649.567 288.141 634.467 301.441 622.067 289.041C611.467 278.441 653.367 273.541 653.367 265.741C653.367 257.841 644.667 257.641 642.367 246.941Z" stroke="#46133C" stroke-width="3" stroke-miterlimit="10" stroke-linecap="round" stroke-linejoin="round"/>
<path d="M654.467 472.541C648.967 469.541 654.667 458.241 654.667 458.241C652.567 460.341 648.767 461.041 643.867 461.041C638.967 461.041 640.167 457.041 646.267 451.041C652.367 444.941 656.167 443.141 659.467 441.441C669.267 436.541 667.467 427.941 667.467 427.941L691.367 427.241C691.367 427.241 687.867 437.441 689.067 439.841C695.967 454.141 684.367 469.041 683.567 470.741C682.267 473.441 676.467 475.041 673.367 473.441C668.467 476.141 661.767 473.541 661.467 472.941C659.167 474.241 655.967 473.441 654.467 472.541Z" fill="#FFAB91"/>
<path d="M654.467 472.541C648.967 469.541 654.667 458.241 654.667 458.241C652.567 460.341 648.767 461.041 643.867 461.041C638.967 461.041 640.167 457.041 646.267 451.041C652.367 444.941 656.167 443.141 659.467 441.441C669.267 436.541 667.467 427.941 667.467 427.941L691.367 427.241C691.367 427.241 687.867 437.441 689.067 439.841C695.967 454.141 684.367 469.041 683.567 470.741C682.267 473.441 676.467 475.041 673.367 473.441C668.467 476.141 661.767 473.541 661.467 472.941C659.167 474.241 655.967 473.441 654.467 472.541Z" fill="#FFAB91"/>
<path d="M645.367 454.041C651.967 447.441 656.867 445.741 663.267 442.341C672.067 437.641 670.867 429.541 670.667 427.341L667.567 428.041C667.567 428.041 669.367 436.641 659.567 441.541C656.267 443.241 652.467 445.041 646.367 451.141C640.267 457.241 639.067 461.141 643.967 461.141C642.767 459.341 641.367 457.941 645.367 454.041Z" fill="white"/>
<g opacity="0.43">
<path opacity="0.43" d="M647.367 458.941C646.367 459.941 644.967 460.641 643.267 461.141C643.467 461.141 643.667 461.141 643.867 461.141C644.767 461.141 645.567 461.141 646.367 461.041C646.967 459.741 647.367 458.941 647.367 458.941Z" fill="#FFAB91"/>
<path opacity="0.43" d="M691.367 427.341L685.667 427.541C684.767 430.441 682.567 438.741 683.567 440.841C690.867 455.941 681.367 476.041 675.867 474.241C678.867 474.441 682.467 472.941 683.467 470.941C684.267 469.241 695.867 454.341 688.967 440.041C687.867 437.541 691.367 427.341 691.367 427.341Z" fill="#FFAB91"/>
</g>
<path d="M654.467 472.541C648.967 469.541 654.667 458.241 654.667 458.241C652.567 460.341 648.567 462.541 643.867 461.041C641.167 460.141 640.167 457.041 646.267 451.041C652.367 444.941 656.167 443.141 659.467 441.441C669.267 436.541 667.467 427.941 667.467 427.941L691.367 427.241C691.367 427.241 687.867 437.441 689.067 439.841C695.967 454.141 684.367 469.041 683.567 470.741C682.267 473.441 676.467 475.041 673.367 473.441C668.467 476.141 661.767 473.541 661.467 472.941C659.167 474.241 655.967 473.441 654.467 472.541Z" stroke="#46133C" stroke-width="3" stroke-miterlimit="10" stroke-linecap="round" stroke-linejoin="round"/>
<path d="M663.267 468.741C663.267 468.741 662.967 470.741 661.467 473.041" stroke="#46133C" stroke-width="3" stroke-miterlimit="10" stroke-linecap="round" stroke-linejoin="round"/>
<path d="M674.267 468.241C674.267 468.241 673.367 470.941 673.367 473.541" stroke="#46133C" stroke-width="3" stroke-miterlimit="10" stroke-linecap="round" stroke-linejoin="round"/>
<path d="M661.567 409.241C661.567 409.241 670.967 404.941 684.967 407.041C698.967 409.241 702.467 409.241 702.467 409.241L698.367 427.341C698.367 427.341 663.967 427.341 661.567 427.341C659.167 427.341 661.567 424.341 661.567 424.341V409.241Z" fill="#FF3B61"/>
<path d="M665.867 424.341V409.241C665.867 409.241 670.967 406.941 679.267 406.541C668.467 406.041 661.567 409.241 661.567 409.241V424.341C661.567 424.341 659.167 427.341 661.567 427.341C662.067 427.341 663.567 427.341 665.867 427.341C663.467 427.341 665.867 424.341 665.867 424.341Z" fill="white"/>
<path d="M661.567 409.241C661.567 409.241 670.967 404.941 684.967 407.041C698.967 409.241 702.467 409.241 702.467 409.241L698.367 427.341C698.367 427.341 663.967 427.341 661.567 427.341C659.167 427.341 661.567 424.341 661.567 424.341V409.241Z" stroke="#46133C" stroke-width="3" stroke-miterlimit="10" stroke-linecap="round" stroke-linejoin="round"/>
<path d="M523.067 138.841L510.967 137.341" stroke="#46133C" stroke-width="3" stroke-miterlimit="10" stroke-linecap="round" stroke-linejoin="round"/>
<path d="M541.067 160.741L522.567 159.541C515.567 159.141 510.267 152.641 510.567 145.241L510.967 136.541C511.367 129.041 517.267 123.241 524.267 123.441L542.767 124.041C550.067 124.241 555.867 130.741 555.467 138.541L555.067 147.641C554.667 155.341 548.367 161.241 541.067 160.741Z" stroke="#46133C" stroke-width="3" stroke-miterlimit="10" stroke-linecap="round" stroke-linejoin="round"/>
<path d="M588.667 163.741L572.267 161.541C566.067 160.741 561.767 154.241 562.567 147.141L563.567 138.841C564.367 131.741 570.067 126.441 576.267 127.041L592.667 128.641C599.167 129.241 603.867 135.841 602.967 143.241L601.967 151.941C601.167 159.341 595.167 164.641 588.667 163.741Z" stroke="#46133C" stroke-width="3" stroke-miterlimit="10" stroke-linecap="round" stroke-linejoin="round"/>
<path d="M637.667 142.141L602.867 138.541" stroke="#46133C" stroke-width="3" stroke-miterlimit="10" stroke-linecap="round" stroke-linejoin="round"/>
<path d="M555.967 138.641C555.967 138.641 559.967 136.341 563.067 138.841" stroke="#46133C" stroke-width="4" stroke-miterlimit="10" stroke-linecap="round" stroke-linejoin="round"/>
<path d="M632.567 148.441C632.567 148.441 638.067 138.541 643.067 143.541C648.067 148.541 647.467 160.341 641.367 170.941C637.067 178.241 630.567 175.041 632.667 170.941" fill="#FFAB91"/>
<path d="M632.567 148.441C632.567 148.441 638.067 138.541 643.067 143.541C648.067 148.541 647.467 160.341 641.367 170.941C637.067 178.241 630.567 175.041 632.667 170.941" fill="#FFAB91"/>
<path opacity="0.43" d="M642.967 143.541C640.367 140.941 637.767 142.341 635.767 144.141C636.867 144.041 637.967 144.441 639.067 145.541C644.067 150.541 643.467 162.341 637.367 172.941C636.867 173.841 636.267 174.641 635.667 175.241C637.467 175.141 639.567 173.841 641.267 170.841C647.367 160.341 647.967 148.541 642.967 143.541Z" fill="#FFAB91"/>
<path d="M632.867 146.841C632.867 146.841 637.967 138.541 642.967 143.541C647.967 148.541 647.367 160.341 641.267 170.941C636.967 178.241 629.667 175.941 629.667 169.741" stroke="#46133C" stroke-width="3" stroke-miterlimit="10" stroke-linecap="round" stroke-linejoin="round"/>
<path d="M614.767 354.741C616.92 354.741 618.667 352.727 618.667 350.241C618.667 347.756 616.92 345.741 614.767 345.741C612.613 345.741 610.867 347.756 610.867 350.241C610.867 352.727 612.613 354.741 614.767 354.741Z" fill="#46133C"/>
<path d="M614.767 354.741C616.92 354.741 618.667 352.727 618.667 350.241C618.667 347.756 616.92 345.741 614.767 345.741C612.613 345.741 610.867 347.756 610.867 350.241C610.867 352.727 612.613 354.741 614.767 354.741Z" stroke="#46133C" stroke-width="4" stroke-miterlimit="10" stroke-linecap="round" stroke-linejoin="round"/>
<path d="M598.167 331.541C600.32 331.541 602.067 329.527 602.067 327.041C602.067 324.556 600.32 322.541 598.167 322.541C596.013 322.541 594.267 324.556 594.267 327.041C594.267 329.527 596.013 331.541 598.167 331.541Z" fill="#46133C"/>
<path d="M598.167 331.541C600.32 331.541 602.067 329.527 602.067 327.041C602.067 324.556 600.32 322.541 598.167 322.541C596.013 322.541 594.267 324.556 594.267 327.041C594.267 329.527 596.013 331.541 598.167 331.541Z" stroke="#46133C" stroke-width="4" stroke-miterlimit="10" stroke-linecap="round" stroke-linejoin="round"/>
<path d="M622.067 297.741C622.067 297.741 625.967 298.441 627.567 302.441" stroke="#46133C" stroke-width="3" stroke-miterlimit="10" stroke-linecap="round" stroke-linejoin="round"/>
<path d="M635.267 159.741C635.267 159.741 636.167 154.241 640.167 153.041" stroke="#46133C" stroke-width="3" stroke-miterlimit="10" stroke-linecap="round" stroke-linejoin="round"/>
<path d="M571.867 82.9414C571.867 82.9414 570.867 82.9414 569.267 82.3414C568.467 82.0414 567.567 81.6414 566.467 81.0414C565.467 80.4414 564.267 79.8414 563.067 79.0414C562.467 78.6414 561.767 78.2414 561.167 77.8414C560.567 77.4414 559.867 76.9414 559.167 76.5414C557.767 75.6414 556.367 74.5414 554.967 73.4414C554.267 72.8414 553.567 72.3414 552.767 71.7414C552.067 71.1414 551.367 70.5414 550.667 69.9414C549.267 68.7414 547.867 67.3414 546.467 66.0414C545.767 65.3414 545.067 64.6414 544.467 64.0414C543.767 63.3414 543.167 62.6414 542.467 61.9414C541.167 60.5414 539.967 59.1414 538.767 57.7414C537.667 56.3414 536.567 54.9414 535.567 53.6414C534.567 52.3414 533.667 51.0414 532.867 49.9414C532.067 48.7414 531.367 47.6414 530.767 46.6414C530.167 45.6414 529.667 44.7414 529.267 44.0414C528.467 42.5414 528.067 41.6414 528.067 41.6414C527.967 41.4414 528.067 41.2414 528.267 41.2414C528.367 41.1414 528.567 41.2414 528.667 41.3414C528.667 41.3414 529.367 42.0414 530.467 43.3414C530.967 43.9414 531.667 44.7414 532.367 45.6414C533.067 46.5414 533.967 47.5414 534.767 48.6414C535.667 49.7414 536.567 50.9414 537.567 52.2414C538.567 53.4414 539.667 54.8414 540.867 56.1414C542.067 57.4414 543.267 58.8414 544.567 60.1414C545.167 60.8414 545.867 61.4414 546.467 62.1414C547.167 62.8414 547.767 63.4414 548.467 64.1414C549.167 64.8414 549.867 65.4414 550.467 66.0414C551.167 66.6414 551.767 67.3414 552.567 67.9414C553.267 68.5414 553.967 69.1414 554.667 69.7414C555.367 70.3414 556.067 70.8414 556.767 71.4414C557.467 72.0414 558.167 72.5414 558.767 73.0414C559.467 73.5414 560.067 74.0414 560.767 74.5414C561.467 75.0414 562.067 75.4414 562.667 75.9414C563.267 76.3414 563.867 76.7414 564.467 77.1414C565.667 77.9414 566.767 78.5414 567.667 79.1414C568.667 79.7414 569.467 80.2414 570.167 80.7414C571.567 81.7414 572.167 82.5414 572.167 82.5414C572.267 82.6414 572.267 82.8414 572.067 83.0414C571.967 82.9414 571.967 82.9414 571.867 82.9414Z" fill="#46133C"/>
<path d="M600.867 89.6414C600.867 89.6414 600.567 90.1414 599.867 90.4414C599.567 90.6414 599.167 90.6414 598.667 90.6414C598.167 90.6414 597.667 90.7414 597.067 90.7414C594.767 90.8414 591.767 90.8414 588.667 90.4414C587.167 90.2414 585.667 89.9414 584.267 89.6414C583.567 89.4414 582.867 89.2414 582.267 89.1414C581.667 88.9414 581.067 88.7414 580.467 88.5414C579.967 88.3414 579.467 88.1414 578.967 88.0414C578.567 87.8414 578.167 87.5414 577.967 87.3414C577.767 87.0414 577.567 86.7414 577.467 86.5414C577.367 86.3414 577.367 86.1414 577.367 86.1414C577.367 86.1414 577.467 86.0414 577.767 85.9414C577.967 85.8414 578.267 85.7414 578.667 85.6414C579.067 85.5414 579.467 85.5414 579.867 85.6414C580.267 85.7414 580.767 85.8414 581.267 86.0414C581.767 86.1414 582.367 86.3414 582.967 86.4414C583.567 86.5414 584.167 86.7414 584.867 86.8414C585.567 86.9414 586.267 87.1414 586.967 87.2414C587.667 87.3414 588.367 87.4414 589.067 87.5414C590.467 87.7414 591.967 87.9414 593.267 88.0414C594.667 88.1414 595.867 88.2414 596.967 88.3414C597.467 88.3414 597.967 88.3414 598.467 88.3414C598.867 88.3414 599.267 88.3414 599.667 88.5414C599.967 88.6414 600.267 88.8414 600.467 88.9414C600.667 89.0414 600.767 89.1414 600.767 89.1414C600.967 89.2414 600.967 89.5414 600.867 89.6414Z" fill="#46133C"/>
<path d="M621.567 77.8414C621.567 77.8414 620.167 78.5414 617.667 78.9414C616.367 79.1414 614.867 79.2414 613.067 79.1414C611.267 79.0414 609.267 78.9414 607.167 78.7414C604.967 78.5414 602.667 78.1414 600.167 77.6414C597.767 77.1414 595.167 76.5414 592.567 75.7414C591.267 75.3414 589.967 74.8414 588.667 74.4414C587.367 73.9414 586.067 73.4414 584.667 72.8414C583.367 72.2414 582.067 71.7414 580.767 71.0414C580.167 70.7414 579.467 70.4414 578.867 70.0414L576.967 68.9414C574.467 67.5414 571.967 65.9414 569.667 64.2414C568.467 63.4414 567.367 62.5414 566.267 61.7414C565.167 60.8414 564.167 59.9414 563.067 59.1414C561.067 57.3414 559.067 55.5414 557.367 53.7414C556.467 52.8414 555.667 51.9414 554.867 51.1414C554.067 50.2414 553.267 49.4414 552.667 48.6414C551.267 46.9414 549.967 45.4414 549.067 43.9414C548.067 42.5414 547.167 41.2414 546.567 40.1414C545.267 37.9414 544.667 36.6414 544.667 36.6414C544.567 36.4414 544.667 36.1414 544.867 36.0414C545.067 35.9414 545.267 36.0414 545.367 36.1414C545.367 36.1414 546.367 37.2414 547.967 39.1414C548.767 40.1414 549.767 41.2414 550.867 42.6414C551.967 44.0414 553.267 45.4414 554.567 47.0414C555.267 47.8414 556.067 48.6414 556.767 49.4414C557.567 50.2414 558.367 51.1414 559.267 51.9414C560.967 53.6414 562.867 55.3414 564.867 57.1414C565.867 57.9414 566.967 58.8414 567.967 59.6414C569.067 60.4414 570.167 61.2414 571.267 62.0414C573.567 63.6414 575.967 65.1414 578.367 66.4414C579.567 67.1414 580.867 67.7414 582.067 68.4414C583.267 69.0414 584.567 69.6414 585.867 70.2414C587.167 70.8414 588.367 71.2414 589.667 71.7414C590.967 72.1414 592.167 72.6414 593.467 73.0414C595.967 73.8414 598.467 74.5414 600.767 75.0414C603.167 75.5414 605.367 75.9414 607.467 76.2414C609.567 76.5414 611.467 76.7414 613.167 76.8414C614.867 76.9414 616.367 77.0414 617.567 77.1414C620.067 77.4414 621.467 77.7414 621.467 77.7414C621.567 77.6414 621.567 77.7414 621.567 77.8414C621.567 77.8414 621.567 77.7414 621.567 77.8414Z" fill="#46133C"/>
<path d="M464.367 285.741C466.867 269.841 446.067 263.541 437.867 270.241C433.767 291.941 416.767 305.441 437.167 313.841C449.367 318.841 450.167 310.941 456.567 317.441C465.067 325.941 471.167 329.341 471.167 329.341L488.667 313.841C484.467 310.741 461.967 300.941 464.367 285.741Z" fill="#FFAB91"/>
<path opacity="0.43" d="M460.367 315.541C452.967 306.841 451.167 310.841 442.367 307.941C421.967 301.041 434.367 289.641 439.467 269.141C438.867 269.441 438.367 269.841 437.867 270.141C433.767 291.841 416.767 305.341 437.167 313.741C449.367 318.741 450.167 310.841 456.567 317.341C465.067 325.841 471.167 329.241 471.167 329.241L474.167 326.541C473.067 326.041 467.567 324.041 460.367 315.541Z" fill="#FFAB91"/>
<path d="M462.067 284.741C460.867 300.841 480.867 311.541 490.667 315.541L488.667 313.841C484.567 310.741 461.967 300.941 464.367 285.741C466.767 270.841 447.067 264.341 437.867 270.241C445.767 265.441 462.967 271.141 462.067 284.741Z" fill="white"/>
<path d="M464.367 285.741C466.867 269.841 446.067 263.541 437.867 270.241C431.267 275.141 416.767 305.441 437.167 313.841C449.367 318.841 450.167 310.941 456.567 317.441C465.067 325.941 471.167 329.341 471.167 329.341L488.667 313.841C484.467 310.741 461.967 300.941 464.367 285.741Z" stroke="#46133C" stroke-width="3" stroke-miterlimit="10" stroke-linecap="round" stroke-linejoin="round"/>
<path d="M431.067 307.241C438.567 306.341 441.967 301.041 437.767 297.641C435.767 295.941 427.067 296.641 424.167 298.441C421.067 300.441 424.467 308.041 431.067 307.241Z" fill="#FFAB91"/>
<path d="M431.067 307.241C438.567 306.341 441.967 301.041 437.767 297.641C435.767 295.941 427.067 296.641 424.167 298.441C421.067 300.441 424.467 308.041 431.067 307.241Z" stroke="#46133C" stroke-width="3" stroke-miterlimit="10" stroke-linecap="round" stroke-linejoin="round"/>
<path d="M424.667 291.441C430.567 290.941 435.467 288.741 434.267 284.841C433.367 281.941 425.367 278.441 421.467 281.541C418.767 283.741 419.167 291.841 424.667 291.441Z" fill="#FFAB91"/>
<path d="M424.667 291.441C430.567 290.941 435.467 288.741 434.267 284.841C433.367 281.941 425.367 278.441 421.467 281.541C418.767 283.741 419.167 291.841 424.667 291.441Z" stroke="#46133C" stroke-width="3" stroke-miterlimit="10" stroke-linecap="round" stroke-linejoin="round"/>
<path d="M425.467 279.941C435.967 281.241 441.967 274.641 433.667 269.941C429.967 267.841 423.267 266.641 420.567 269.741C417.867 272.941 420.867 279.441 425.467 279.941Z" fill="#FFAB91"/>
<path d="M425.467 279.941C435.967 281.241 441.967 274.641 433.667 269.941C429.967 267.841 423.267 266.641 420.567 269.741C417.867 272.941 420.867 279.441 425.467 279.941Z" stroke="#46133C" stroke-width="3" stroke-miterlimit="10" stroke-linecap="round" stroke-linejoin="round"/>
<path d="M445.367 301.741C445.367 301.741 439.967 296.541 441.867 289.441C443.767 282.341 445.367 280.141 445.367 280.141C445.367 280.141 434.167 282.241 434.167 277.741C434.167 273.241 437.067 266.041 450.867 268.141" fill="#FFAB91"/>
<path d="M445.367 301.741C445.367 301.741 441.167 296.741 441.867 289.441C442.567 282.341 446.567 279.741 446.567 279.741C446.567 279.741 433.767 283.241 432.767 278.841C431.767 274.441 437.467 264.641 452.867 268.741" stroke="#46133C" stroke-width="3" stroke-miterlimit="10" stroke-linecap="round" stroke-linejoin="round"/>
<path d="M560.867 208.641C560.867 208.641 565.067 209.541 567.467 207.141" stroke="#46133C" stroke-width="3" stroke-miterlimit="10" stroke-linecap="round" stroke-linejoin="round"/>
<path d="M468.367 334.341C468.367 334.341 477.167 343.541 481.267 347.641C486.767 346.641 483.367 350.041 486.767 346.641C490.167 343.241 514.967 322.141 514.967 322.141L495.967 308.041C495.967 307.941 468.367 328.841 468.367 334.341Z" fill="#FF3B61"/>
<path d="M485.667 343.741C482.767 342.241 472.767 330.441 472.767 330.441C472.767 328.441 476.467 324.341 481.167 319.941C474.567 325.641 468.367 331.741 468.367 334.341C468.367 334.341 477.167 343.541 481.267 347.641C486.767 346.641 483.367 350.041 486.767 346.641C487.267 346.141 488.167 345.341 489.367 344.241C489.067 344.141 488.567 345.141 485.667 343.741Z" fill="#EE406D"/>
<path d="M492.067 341.841C500.367 334.541 515.067 322.041 515.067 322.041L514.967 321.941C508.267 327.741 495.967 338.241 492.067 341.841Z" fill="#EE406D"/>
<path d="M495.967 307.941C495.967 307.941 494.767 308.841 492.967 310.241L511.867 324.341C511.867 324.341 490.367 342.641 484.667 347.941C485.067 348.341 484.867 348.541 486.767 346.641C490.167 343.241 514.967 322.141 514.967 322.141L495.967 307.941Z" fill="white"/>
<path d="M468.367 334.341C468.367 334.341 481.767 351.641 486.767 346.641C490.167 343.241 514.967 322.141 514.967 322.141L495.967 308.041C495.967 307.941 468.367 328.841 468.367 334.341Z" stroke="#46133C" stroke-width="3" stroke-miterlimit="10" stroke-linecap="round" stroke-linejoin="round"/>
<path d="M208.381 597.196H118.419V618.823H208.381V597.196Z" fill="#26A8A1"/>
<path d="M183.938 573.495H160.23V608.19H183.938V573.495Z" fill="#FBC3AA"/>
<path d="M208.84 624.861H139.462C139.462 609.632 152.051 597.196 167.673 597.196H208.84V624.861Z" fill="#DD3142"/>
<path d="M186.051 624.861C186.051 606.478 201.305 591.518 220.051 591.518C238.797 591.518 254.05 606.478 254.05 624.861H186.051Z" fill="#DD3142"/>
<path d="M254.05 629.637H139.462C138.084 629.637 136.981 628.556 136.981 627.204C136.981 625.852 138.084 624.771 139.462 624.771H254.05C255.429 624.771 256.532 625.852 256.532 627.204C256.532 628.556 255.429 629.637 254.05 629.637Z" fill="#212D47"/>
<path d="M221.889 599.719C226.101 599.719 229.515 598.589 229.515 597.196C229.515 595.802 226.101 594.672 221.889 594.672C217.676 594.672 214.262 595.802 214.262 597.196C214.262 598.589 217.676 599.719 221.889 599.719Z" fill="white"/>
<path d="M177.046 599.629C177.046 599.178 177.138 598.728 177.321 598.277C178.057 596.835 179.711 596.295 181.181 597.015" stroke="#D32A3B" stroke-width="3" stroke-miterlimit="10" stroke-linecap="round" stroke-linejoin="round"/>
<path d="M182.375 599.629C182.375 599.178 182.467 598.728 182.651 598.277C183.386 596.835 185.04 596.295 186.511 597.015" stroke="#D32A3B" stroke-width="3" stroke-miterlimit="10" stroke-linecap="round" stroke-linejoin="round"/>
<path d="M187.429 599.629C187.429 599.178 187.521 598.728 187.705 598.277C188.44 596.835 190.094 596.295 191.565 597.015" stroke="#D32A3B" stroke-width="3" stroke-miterlimit="10" stroke-linecap="round" stroke-linejoin="round"/>
<path d="M284.191 265.751V304.32C284.191 321.622 270.223 336.221 252.58 336.672C234.386 337.122 219.408 322.704 219.408 304.951V252.324C219.408 242.591 211.413 234.751 201.489 234.751C191.565 234.751 183.57 242.591 183.57 252.324V304.951C183.57 341.898 214.078 371.817 251.753 371.817C289.428 371.817 319.936 341.898 319.936 304.951V265.751H284.191V265.751Z" fill="#DD3142"/>
<path d="M284.191 265.751V304.32C284.191 321.622 270.223 336.221 252.58 336.672C234.386 337.122 219.408 322.704 219.408 304.951V252.324C219.408 242.591 211.413 234.751 201.489 234.751C191.565 234.751 183.57 242.591 183.57 252.324V304.951C183.57 341.898 214.078 371.817 251.753 371.817C289.428 371.817 319.936 341.898 319.936 304.951V265.751H284.191V265.751Z" fill="#DD3142"/>
<path d="M201.489 243.763C206.267 243.763 210.218 247.637 210.218 252.324V304.951C210.218 315.855 214.537 326.038 222.44 333.788C230.343 341.538 240.726 345.773 251.845 345.773C252.213 345.773 252.488 345.773 252.856 345.773C275.185 345.233 293.472 326.669 293.472 304.41V274.852L300.18 265.841H284.283V304.41C284.283 321.712 270.315 336.311 252.672 336.762C234.478 337.212 219.499 322.794 219.499 305.041V252.414C219.499 242.681 211.505 234.841 201.581 234.841C199.008 234.841 196.527 235.382 194.229 236.373C197.813 240.789 200.478 243.763 201.489 243.763Z" fill="#D82B45"/>
<path d="M194.965 395.157H146.17V584.039H194.965V395.157Z" fill="#212D47"/>
<path d="M194.965 573.495H146.17V584.039H194.965V573.495Z" fill="#2D3854"/>
<path d="M163.078 395.157H114.284V584.039H163.078V395.157Z" fill="#2D3854"/>
<path d="M150.489 573.495H126.781V608.19H150.489V573.495Z" fill="#FBC3AA"/>
<path d="M163.078 573.495H114.284V584.039H163.078V573.495Z" fill="#394663"/>
<path d="M191.748 424.354H113.457C104.084 424.354 96.4573 416.874 96.4573 407.683V393.264H208.748V407.683C208.748 416.874 201.121 424.354 191.748 424.354Z" fill="#2D3854"/>
<path d="M128.252 382.36H52.4415C34.2471 382.36 20.7391 360.012 24.6904 336.401L34.7066 276.114C38.7498 251.963 54.8307 234.661 73.4846 234.661H103.809L128.252 382.36Z" fill="#22314C"/>
<path d="M66.3171 364.427C52.901 364.427 42.3335 353.253 43.2524 340.186L44.9064 317.928H87.7277L89.3817 340.186C90.3006 353.253 79.7332 364.427 66.3171 364.427Z" fill="#2D3854"/>
<path d="M208.748 373.799H96.4573V398.761H208.748V373.799Z" fill="#DD3142"/>
<path d="M206.083 390.2H94.4357C92.9655 390.2 91.7709 389.029 91.7709 387.587V258.001C91.7709 245.114 102.43 234.751 115.479 234.751H192.575C201.489 234.751 208.656 241.87 208.656 250.521V387.587C208.748 389.029 207.554 390.2 206.083 390.2Z" fill="#E53E46"/>
<path d="M166.203 259.172H145.987C141.3 259.172 137.533 255.478 137.533 250.882V234.841H180.17V245.475C180.17 253.044 173.921 259.172 166.203 259.172Z" fill="#DD3142"/>
<path d="M178.332 219.521L157.197 221.864L157.749 234.841H178.332C195.056 234.841 208.656 248.178 208.656 264.579V376.142C217.294 376.142 224.278 369.293 224.278 360.823V264.579C224.278 239.707 203.786 219.521 178.332 219.521Z" fill="#2D3854"/>
<path d="M215.732 262.056C215.732 243.042 200.019 227.632 180.63 227.632H164.824V219.521H157.749V234.841H178.332C195.056 234.841 208.656 248.178 208.656 264.579V376.142C211.229 376.142 213.618 375.511 215.732 374.52V262.056Z" fill="#25314C"/>
<path d="M164.824 251.422H147.365C142.035 251.422 137.716 247.187 137.716 241.96V192.307H174.473V241.96C174.473 247.187 170.154 251.422 164.824 251.422Z" fill="#FBC3AA"/>
<path opacity="0.76" d="M150.122 194.289H174.473V192.307H137.716V241.96C137.716 247.187 142.035 251.422 147.365 251.422H150.214V194.289H150.122Z" fill="#F2AD91"/>
<path d="M137.716 218.35C144.608 219.521 156.462 220.062 169.051 214.655C171.073 213.754 172.819 212.853 174.473 211.772V192.307H137.716V218.35Z" fill="#ED9C80"/>
<path d="M111.803 221.144H96.9167C89.1979 221.144 83.0412 227.271 83.0412 234.751V238.446L91.3114 235.382C104.452 235.382 115.203 244.123 115.203 257.009V361.994C115.203 369.834 121.635 376.142 129.63 376.142C137.624 376.142 144.057 369.834 144.057 361.994V252.594C143.873 235.202 129.538 221.144 111.803 221.144Z" fill="#2D3854"/>
<path d="M124.3 257.01V375.151C118.879 373.078 115.111 368.032 115.111 361.994V272.87C120.165 267.913 123.381 261.065 123.381 253.585C123.381 251.062 123.014 248.629 122.371 246.286C123.565 249.53 124.3 253.225 124.3 257.01Z" fill="#25314C"/>
<path d="M301.558 281.251C315.768 281.251 327.288 269.954 327.288 256.018C327.288 242.083 315.768 230.786 301.558 230.786C287.348 230.786 275.829 242.083 275.829 256.018C275.829 269.954 287.348 281.251 301.558 281.251Z" fill="#FBC3AA"/>
<path opacity="0.76" d="M312.401 272.87C296.228 272.87 283.088 259.983 283.088 244.123C283.088 241.87 283.364 239.707 283.823 237.635C278.861 242.231 275.737 248.809 275.737 256.018C275.737 269.986 287.223 281.251 301.466 281.251C309.828 281.251 317.18 277.376 321.958 271.338C319.017 272.329 315.801 272.87 312.401 272.87Z" fill="#F2AD91"/>
<path d="M175.484 624.861H106.106C106.106 609.632 118.695 597.196 134.316 597.196H175.484V624.861Z" fill="#DD3142"/>
<path d="M152.695 624.861C152.695 606.478 167.949 591.518 186.694 591.518C205.44 591.518 220.694 606.478 220.694 624.861H152.695Z" fill="#E53E46"/>
<path d="M220.694 629.637H106.106C104.728 629.637 103.625 628.556 103.625 627.204C103.625 625.852 104.728 624.771 106.106 624.771H220.694C222.072 624.771 223.175 625.852 223.175 627.204C223.083 628.556 221.981 629.637 220.694 629.637Z" fill="#212D47"/>
<path d="M196.802 599.719C201.015 599.719 204.429 598.589 204.429 597.196C204.429 595.802 201.015 594.672 196.802 594.672C192.59 594.672 189.175 595.802 189.175 597.196C189.175 598.589 192.59 599.719 196.802 599.719Z" fill="white"/>
<path d="M143.689 599.629C143.689 599.178 143.781 598.728 143.965 598.277C144.7 596.835 146.354 596.295 147.824 597.015" stroke="#D32A3B" stroke-width="3" stroke-miterlimit="10" stroke-linecap="round" stroke-linejoin="round"/>
<path d="M149.019 599.629C149.019 599.178 149.111 598.728 149.295 598.277C150.03 596.835 151.684 596.295 153.154 597.015" stroke="#D32A3B" stroke-width="3" stroke-miterlimit="10" stroke-linecap="round" stroke-linejoin="round"/>
<path d="M153.981 599.629C153.981 599.178 154.073 598.728 154.257 598.277C154.992 596.835 156.646 596.295 158.116 597.015" stroke="#D32A3B" stroke-width="3" stroke-miterlimit="10" stroke-linecap="round" stroke-linejoin="round"/>
<path d="M167.213 204.472C135.787 210.33 105.463 189.964 99.5816 159.144L80.8359 61.8193L219.867 36.1363L233.834 108.769C242.472 153.196 212.608 196.091 167.213 204.472Z" fill="#FBC3AA"/>
<path opacity="0.76" d="M137.716 159.144L118.971 61.8193L221.153 42.895L219.867 36.0462L80.8359 61.7291L99.5816 159.054C105.555 189.873 135.787 210.149 167.213 204.382C170.154 203.841 173.094 203.12 175.851 202.309C156.83 196.001 141.76 179.961 137.716 159.144Z" fill="#F2AD91"/>
<path d="M222.348 43.3456L217.294 14.8691L79.4575 48.4821C75.1386 49.5635 72.4738 53.6187 73.3008 57.9443L90.6682 148.42L113.457 144.185L102.798 74.886L222.348 43.3456Z" fill="#C65132"/>
<path d="M173.003 155.269C162.986 155.269 153.614 153.467 145.711 150.313C149.203 164.641 160.046 175.094 173.003 175.094C185.959 175.094 196.71 164.641 200.294 150.313C192.3 153.377 183.019 155.269 173.003 155.269Z" fill="white"/>
<path d="M143.781 116.519C143.046 112.735 145.619 109.04 149.478 108.409C153.338 107.688 157.105 110.211 157.749 113.996" stroke="#3F2E21" stroke-width="4" stroke-miterlimit="10" stroke-linecap="round" stroke-linejoin="round"/>
<path d="M131.56 104.083L155.727 92.2783" stroke="#DD6944" stroke-width="8" stroke-miterlimit="10" stroke-linecap="round" stroke-linejoin="round"/>
<path d="M201.121 103.272C200.386 99.4876 196.71 96.9643 192.851 97.6852C188.992 98.4062 186.419 102.011 187.154 105.796" stroke="#3F2E21" stroke-width="4" stroke-miterlimit="10" stroke-linecap="round" stroke-linejoin="round"/>
<path d="M207.462 90.5661L180.538 88.2231" stroke="#DD6944" stroke-width="8" stroke-miterlimit="10" stroke-linecap="round" stroke-linejoin="round"/>
<path d="M214.078 48.8426C215.456 54.4298 226.024 92.3684 226.024 92.3684H230.618L220.786 41.1828L214.078 48.8426Z" fill="#C65132"/>
<path d="M92.5979 156.35C104.981 156.35 115.019 146.506 115.019 134.362C115.019 122.219 104.981 112.374 92.5979 112.374C80.2149 112.374 70.1765 122.219 70.1765 134.362C70.1765 146.506 80.2149 156.35 92.5979 156.35Z" fill="#FBC3AA"/>
<path d="M95.7222 145.897C102.218 145.897 107.484 140.733 107.484 134.362C107.484 127.992 102.218 122.827 95.7222 122.827C89.2261 122.827 83.9601 127.992 83.9601 134.362C83.9601 140.733 89.2261 145.897 95.7222 145.897Z" fill="#F2AD91"/>
<path d="M231.905 0C242.748 27.6655 228.689 58.6652 200.478 69.2087C172.267 79.8424 140.657 66.0547 129.906 38.3892L231.905 0Z" fill="#DD6944"/>
<path d="M168.316 11.8051C178.792 31.4503 170.981 55.6914 150.949 65.9646C130.916 76.2377 106.198 68.5779 95.7222 48.9327L168.316 11.8051Z" fill="#DD6944"/>
<path d="M115.111 272.87V257.009C115.111 244.123 104.452 235.382 91.2195 235.382L82.9493 238.446V234.751C82.9493 232.588 83.5007 230.516 84.4196 228.623C87.8196 227.091 91.5871 226.28 95.6303 226.28C100.776 226.28 105.555 227.632 109.69 230.065C115.754 233.579 120.349 239.347 122.279 246.106C122.922 248.449 123.29 250.882 123.29 253.405C123.381 261.065 120.165 267.913 115.111 272.87Z" fill="#25314C"/>
<path d="M126.689 427.508C141.153 427.508 152.878 416.009 152.878 401.825C152.878 387.641 141.153 376.142 126.689 376.142C112.226 376.142 100.5 387.641 100.5 401.825C100.5 416.009 112.226 427.508 126.689 427.508Z" fill="#FBC3AA"/>
<path d="M157.932 409.665L144.792 403.357C141.3 401.645 139.83 397.5 141.576 394.075L144.7 387.857L164.181 397.229C167.673 398.942 169.143 403.087 167.397 406.511C165.743 410.026 161.516 411.377 157.932 409.665Z" fill="#F2AD91"/>
<path d="M130.549 429.581L134.133 413.63C135.052 409.305 139.37 406.601 143.781 407.593L150.673 409.125C151.224 409.215 151.592 409.755 151.408 410.296L146.354 433.005C145.435 437.331 141.116 440.034 136.706 439.043C132.387 438.052 129.538 433.816 130.549 429.581Z" fill="#F2AD91"/>
<path d="M137.165 406.151C145.251 397.68 144.057 384.253 134.592 377.224C115.846 363.256 102.706 341.988 100.041 317.567C97.8357 298.012 102.522 279.268 111.987 263.588C115.938 257.1 115.846 248.719 111.436 242.501C103.257 230.786 85.5223 231.236 78.0791 243.222C64.3873 265.48 57.5874 292.064 60.2522 319.91C63.7441 356.227 82.9493 387.767 110.7 408.404C118.879 414.441 130.273 413.36 137.165 406.151Z" fill="#DD3142"/>
<path d="M112.079 263.588C114.56 259.533 115.387 254.847 114.652 250.341C110.792 254.306 106.841 258.091 105.738 259.893C94.9871 277.556 90.4844 297.832 92.7817 318.378C95.6303 343.791 109.23 367.401 130.181 382.991C132.387 384.613 139.003 391.822 142.127 396.689C143.597 389.66 140.933 382 134.592 377.224C115.846 363.256 102.706 341.988 100.041 317.567C97.9276 297.922 102.522 279.268 112.079 263.588Z" fill="#D82B45"/>
<path d="M167.122 300.445C171.689 300.445 175.392 296.814 175.392 292.335C175.392 287.856 171.689 284.224 167.122 284.224C162.554 284.224 158.851 287.856 158.851 292.335C158.851 296.814 162.554 300.445 167.122 300.445Z" fill="#DD3142"/>
<path d="M151.959 320.541C154.243 320.541 156.095 318.725 156.095 316.486C156.095 314.246 154.243 312.431 151.959 312.431C149.676 312.431 147.824 314.246 147.824 316.486C147.824 318.725 149.676 320.541 151.959 320.541Z" fill="#DD3142"/>
<path d="M187.705 307.384C189.989 307.384 191.84 305.569 191.84 303.329C191.84 301.089 189.989 299.274 187.705 299.274C185.421 299.274 183.57 301.089 183.57 303.329C183.57 305.569 185.421 307.384 187.705 307.384Z" fill="#DD3142"/>
<path d="M178.608 324.596C180.892 324.596 182.743 322.781 182.743 320.541C182.743 318.301 180.892 316.486 178.608 316.486C176.324 316.486 174.473 318.301 174.473 320.541C174.473 322.781 176.324 324.596 178.608 324.596Z" fill="#DD3142"/>
<path opacity="0.69" d="M156.962 129.784C162.706 128.124 166.804 124.92 166.116 122.629C165.427 120.337 160.212 119.826 154.468 121.486C148.724 123.146 144.626 126.35 145.314 128.641C146.003 130.933 151.218 131.444 156.962 129.784Z" fill="#F2AD91"/>
<path opacity="0.69" d="M199.418 118.857C205.355 118.087 209.909 115.542 209.59 113.174C209.27 110.806 204.198 109.51 198.261 110.281C192.324 111.051 187.77 113.596 188.09 115.964C188.409 118.333 193.481 119.628 199.418 118.857Z" fill="#F2AD91"/>
<path d="M454.076 153.232H452.005C450.839 153.232 449.739 153.753 449.091 154.665C445.855 159.358 445.401 164.898 445.401 170.828C445.401 176.759 445.855 182.299 449.091 186.991C449.739 187.903 450.839 188.425 452.005 188.425H454.076C455.306 188.425 456.471 187.512 456.73 186.404C458.672 176.107 458.154 165.484 456.73 155.252C456.536 154.144 455.306 153.232 454.076 153.232Z" fill="#8E9091"/>
<path opacity="0.91" d="M454.076 153.232H452.005C450.839 153.232 449.739 153.753 449.091 154.665C445.855 159.358 445.401 164.898 445.401 170.828C445.401 176.759 445.855 182.299 449.091 186.991C449.739 187.903 450.839 188.425 452.005 188.425H454.076C455.306 188.425 456.471 187.512 456.73 186.404C458.672 176.107 458.154 165.484 456.73 155.252C456.536 154.144 455.306 153.232 454.076 153.232Z" fill="#95A0C6"/>
<path d="M454.076 153.232H452.005C450.839 153.232 449.739 153.753 449.091 154.665C445.855 159.358 445.401 164.898 445.401 170.828C445.401 176.759 445.855 182.299 449.091 186.991C449.739 187.903 450.839 188.425 452.005 188.425H454.076C455.306 188.425 456.471 187.512 456.73 186.404C458.672 176.107 458.154 165.484 456.73 155.252C456.536 154.144 455.306 153.232 454.076 153.232Z" stroke="#192244" stroke-width="6" stroke-miterlimit="10" stroke-linecap="round" stroke-linejoin="round"/>
<path d="M420.672 300H317.484C301.753 300 289 287.161 289 271.324V139.676C289 123.839 301.753 111 317.484 111H420.672C436.403 111 449.156 123.839 449.156 139.676V271.324C449.156 287.161 436.403 300 420.672 300Z" fill="#404A6E"/>
<path d="M420.672 288.269H317.484C301.753 288.269 289 275.43 289 259.593V271.324C289 287.161 301.753 300 317.484 300H420.672C436.403 300 449.156 287.161 449.156 271.324V259.593C449.156 275.43 436.403 288.269 420.672 288.269Z" fill="#273052"/>
<path d="M299.099 271.324V139.676C299.099 129.574 307.191 121.427 317.225 121.427H420.931C430.966 121.427 439.058 129.574 439.058 139.676V271.324C439.058 281.426 430.966 289.572 420.931 289.572H317.225C307.191 289.572 299.099 281.426 299.099 271.324Z" fill="#404A6E"/>
<path d="M299.099 271.324V139.676C299.099 129.574 307.191 121.427 317.225 121.427H420.931C430.966 121.427 439.058 129.574 439.058 139.676V271.324C439.058 281.426 430.966 289.572 420.931 289.572H317.225C307.191 289.572 299.099 281.426 299.099 271.324Z" stroke="#192244" stroke-width="4" stroke-miterlimit="10" stroke-linecap="round" stroke-linejoin="round"/>
<path opacity="0.91" d="M436.533 115.367C432.001 112.629 426.563 111 420.673 111H317.484C311.269 111 305.508 112.825 300.847 115.888C304.731 122.34 312.305 126.641 320.98 126.641H416.076C425.01 126.641 432.713 122.079 436.533 115.367Z" fill="#6D7493"/>
<path opacity="0.91" d="M454.853 210.649C454.853 209.541 453.817 208.693 452.652 208.693C451.487 208.693 450.386 208.693 449.221 208.693V262.982C450.386 262.982 451.487 262.982 452.652 262.982C453.882 262.982 454.853 262.135 454.853 261.027C455.177 244.277 455.177 227.463 454.853 210.649Z" fill="#6D7493"/>
<path d="M454.853 210.649C454.853 209.541 453.817 208.693 452.652 208.693C451.487 208.693 450.386 208.693 449.221 208.693V262.982C450.386 262.982 451.487 262.982 452.652 262.982C453.882 262.982 454.853 262.135 454.853 261.027C455.177 244.277 455.177 227.463 454.853 210.649Z" stroke="#192244" stroke-width="6" stroke-miterlimit="10" stroke-linecap="round" stroke-linejoin="round"/>
<path d="M420.672 300H317.484C301.753 300 289 287.161 289 271.324V139.676C289 123.839 301.753 111 317.484 111H420.672C436.403 111 449.156 123.839 449.156 139.676V271.324C449.156 287.161 436.403 300 420.672 300Z" stroke="#192244" stroke-width="7" stroke-miterlimit="10" stroke-linecap="round" stroke-linejoin="round"/>
<path d="M330.884 163.529V168.221C330.884 169.655 329.719 170.828 328.295 170.828H318.39C316.966 170.828 315.801 169.655 315.801 168.221V158.25C315.801 156.816 316.966 155.643 318.39 155.643H325.381" stroke="#F6537F" stroke-width="4" stroke-miterlimit="10" stroke-linecap="round" stroke-linejoin="round"/>
<path d="M320.138 161.313L323.957 165.093L330.884 156.425" stroke="#F6537F" stroke-width="5" stroke-miterlimit="10" stroke-linecap="round" stroke-linejoin="round"/>
<path d="M314.441 183.797H356.908" stroke="#F6537F" stroke-width="2" stroke-miterlimit="10" stroke-linejoin="round"/>
<path d="M333.668 188.686V210.779C333.668 211.692 333.603 212.539 333.538 213.321C333.409 214.103 333.279 214.755 333.085 215.341C332.697 216.254 332.243 217.036 331.596 217.818C330.949 218.6 330.237 219.186 329.395 219.708C328.554 220.229 327.647 220.62 326.611 220.946C325.576 221.272 324.54 221.402 323.375 221.402C320.008 221.402 317.225 219.838 315.089 216.71L320.462 211.17C320.591 212.148 320.915 212.865 321.368 213.451C321.821 214.038 322.404 214.298 323.116 214.298C324.669 214.298 325.446 213.06 325.446 210.649V188.686H333.668V188.686Z" fill="#2EC2F1"/>
<path d="M346.162 198.853V211.04C346.162 213.712 347.456 215.015 350.046 215.015C352.635 215.015 353.93 213.712 353.93 211.04V198.853H361.504V212.539C361.504 215.472 360.533 217.688 358.656 219.121C356.714 220.555 353.865 221.337 350.111 221.337C346.291 221.337 343.443 220.62 341.565 219.121C339.623 217.688 338.717 215.472 338.717 212.539V198.853H346.162Z" fill="#2EC2F1"/>
<path d="M379.889 204.457C378.465 203.74 377.105 203.349 375.811 203.349C375.099 203.349 374.516 203.48 374.128 203.74C373.674 204.001 373.48 204.392 373.48 204.848C373.48 205.109 373.545 205.305 373.61 205.435C373.674 205.565 373.804 205.761 374.063 205.891C374.322 206.021 374.645 206.152 375.099 206.282C375.552 206.413 376.199 206.543 376.911 206.673C378.983 207.064 380.601 207.846 381.572 208.954C382.608 210.062 383.126 211.431 383.126 213.125C383.126 214.364 382.867 215.537 382.349 216.514C381.831 217.492 381.119 218.404 380.277 219.056C379.371 219.773 378.335 220.294 377.041 220.685C375.811 221.076 374.386 221.272 372.898 221.272C369.984 221.272 367.136 220.425 364.288 218.795L367.071 213.386C369.208 214.82 371.214 215.602 373.092 215.602C373.804 215.602 374.386 215.471 374.84 215.146C375.293 214.82 375.487 214.429 375.487 213.973C375.487 213.712 375.422 213.451 375.358 213.256C375.293 213.06 375.163 212.93 374.904 212.734C374.71 212.604 374.322 212.408 373.933 212.343C373.48 212.213 372.962 212.083 372.25 211.952C369.92 211.496 368.237 210.779 367.33 209.801C366.424 208.889 365.906 207.586 365.906 205.891C365.906 204.653 366.1 203.61 366.553 202.633C367.007 201.655 367.654 200.808 368.496 200.156C369.337 199.504 370.373 198.983 371.538 198.592C372.703 198.201 374.063 198.07 375.487 198.07C377.882 198.07 380.148 198.527 382.414 199.439L379.889 204.457Z" fill="#2EC2F1"/>
<path d="M394.972 205.239V220.49H387.398V205.239H384.874V198.853H387.398V192.335H394.972V198.853H399.31V205.239H394.972Z" fill="#2EC2F1"/>
<path d="M317.419 231.245H329.589C331.726 231.245 333.732 231.701 335.674 232.548C337.552 233.395 339.235 234.568 340.594 236.002C342.019 237.436 343.119 239.13 343.896 241.086C344.737 243.041 345.126 245.061 345.126 247.147C345.126 249.232 344.737 251.253 343.961 253.143C343.184 255.033 342.083 256.792 340.659 258.226C339.235 259.66 337.617 260.833 335.739 261.745C333.862 262.592 331.79 263.049 329.654 263.049H317.484V231.245H317.419ZM325.64 256.01H327.518C328.942 256.01 330.237 255.815 331.337 255.358C332.438 254.902 333.409 254.316 334.186 253.534C334.962 252.751 335.545 251.839 335.933 250.731C336.322 249.623 336.516 248.45 336.516 247.147C336.516 245.908 336.322 244.67 335.869 243.627C335.48 242.519 334.833 241.607 334.056 240.825C333.279 240.043 332.373 239.391 331.208 239C330.107 238.544 328.812 238.348 327.453 238.348H325.576V256.01H325.64Z" fill="white"/>
<path d="M347.78 252.033C347.78 250.404 348.104 248.905 348.751 247.536C349.398 246.167 350.305 244.929 351.405 243.886C352.571 242.844 353.93 242.061 355.484 241.475C357.037 240.888 358.785 240.562 360.662 240.562C362.475 240.562 364.223 240.823 365.777 241.41C367.33 241.996 368.754 242.778 369.855 243.821C371.02 244.864 371.927 246.102 372.574 247.471C373.221 248.905 373.545 250.469 373.545 252.163C373.545 253.858 373.221 255.422 372.574 256.856C371.927 258.289 371.02 259.528 369.855 260.505C368.69 261.548 367.33 262.33 365.712 262.917C364.094 263.503 362.346 263.764 360.468 263.764C358.656 263.764 356.908 263.503 355.354 262.917C353.801 262.33 352.441 261.548 351.341 260.505C350.24 259.463 349.334 258.224 348.686 256.79C348.104 255.422 347.78 253.793 347.78 252.033ZM355.807 252.098C355.807 252.815 355.937 253.467 356.196 254.118C356.455 254.705 356.778 255.226 357.232 255.683C357.685 256.139 358.203 256.465 358.785 256.725C359.368 256.986 360.015 257.116 360.662 257.116C361.31 257.116 361.957 256.986 362.54 256.725C363.122 256.465 363.64 256.139 364.094 255.683C364.547 255.226 364.87 254.705 365.129 254.118C365.388 253.532 365.518 252.88 365.518 252.163C365.518 251.511 365.388 250.86 365.129 250.273C364.87 249.687 364.547 249.165 364.094 248.709C363.64 248.253 363.122 247.927 362.54 247.666C361.957 247.406 361.31 247.275 360.662 247.275C360.015 247.275 359.368 247.406 358.785 247.666C358.203 247.927 357.685 248.253 357.232 248.709C356.778 249.165 356.455 249.687 356.196 250.273C355.937 250.795 355.807 251.446 355.807 252.098Z" fill="white"/>
<path d="M399.115 231.243V263.047H390.894V231.243H399.115Z" fill="white"/>
<path d="M412.516 247.732V262.982H404.942V247.732H402.417V241.345H404.942V234.828H412.516V241.345H416.853V247.732H412.516Z" fill="white"/>
<path d="M418.277 258.941C418.277 258.29 418.407 257.638 418.666 257.051C418.925 256.465 419.248 255.943 419.701 255.487C420.155 255.031 420.672 254.705 421.255 254.444C421.838 254.184 422.485 254.053 423.132 254.053C423.78 254.053 424.427 254.184 425.01 254.444C425.592 254.705 426.11 255.031 426.563 255.487C427.017 255.943 427.34 256.465 427.599 257.051C427.858 257.638 427.988 258.29 427.988 258.941C427.988 259.593 427.858 260.245 427.599 260.831C427.34 261.418 427.017 261.939 426.563 262.395C426.11 262.852 425.592 263.178 425.01 263.438C424.427 263.699 423.78 263.829 423.132 263.829C422.485 263.829 421.838 263.699 421.255 263.438C420.672 263.178 420.155 262.852 419.701 262.395C419.248 261.939 418.925 261.418 418.666 260.831C418.407 260.31 418.277 259.658 418.277 258.941Z" fill="white"/>
<path d="M400.54 136.68C400.54 138.961 399.698 140.264 398.209 140.264C396.915 140.264 396.008 139.026 396.008 136.81C396.008 134.529 396.979 133.291 398.339 133.291C399.763 133.226 400.54 134.529 400.54 136.68ZM396.915 136.81C396.915 138.57 397.432 139.547 398.274 139.547C399.18 139.547 399.633 138.439 399.633 136.745C399.633 135.05 399.18 134.008 398.274 134.008C397.497 133.943 396.915 134.92 396.915 136.81Z" fill="white"/>
<path d="M405.395 134.136H402.806L402.547 135.896C402.676 135.896 402.87 135.831 403.065 135.831C403.582 135.831 404.1 135.961 404.489 136.222C405.007 136.548 405.46 137.134 405.46 137.981C405.46 139.285 404.424 140.328 402.935 140.328C402.223 140.328 401.576 140.132 401.252 139.937L401.511 139.22C401.77 139.415 402.352 139.611 402.935 139.611C403.777 139.611 404.553 139.024 404.553 138.112C404.553 137.265 403.971 136.613 402.611 136.613C402.223 136.613 401.899 136.678 401.705 136.678L402.158 133.419H405.395V134.136V134.136Z" fill="white"/>
<path d="M406.819 135.961C406.819 135.57 407.078 135.31 407.466 135.31C407.855 135.31 408.049 135.57 408.049 135.961C408.049 136.352 407.79 136.613 407.402 136.613C407.013 136.613 406.819 136.287 406.819 135.961ZM406.819 139.611C406.819 139.22 407.078 138.959 407.466 138.959C407.855 138.959 408.049 139.22 408.049 139.611C408.049 140.002 407.79 140.263 407.402 140.263C407.013 140.263 406.819 140.002 406.819 139.611Z" fill="white"/>
<path d="M412.904 134.136H410.315L410.056 135.896C410.185 135.896 410.38 135.831 410.574 135.831C411.092 135.831 411.61 135.961 411.998 136.222C412.516 136.548 412.969 137.134 412.969 137.981C412.969 139.285 411.933 140.328 410.444 140.328C409.732 140.328 409.085 140.132 408.761 139.937L409.02 139.22C409.279 139.415 409.862 139.611 410.444 139.611C411.286 139.611 412.063 139.024 412.063 138.112C412.063 137.265 411.48 136.613 410.121 136.613C409.732 136.613 409.409 136.678 409.214 136.678L409.667 133.419H412.904V134.136V134.136Z" fill="white"/>
<path d="M414.199 140.132V139.546L414.911 138.829C416.659 137.199 417.436 136.287 417.436 135.309C417.436 134.593 417.112 134.006 416.076 134.006C415.494 134.006 414.976 134.332 414.652 134.593L414.393 133.941C414.846 133.55 415.494 133.224 416.271 133.224C417.695 133.224 418.342 134.202 418.342 135.179C418.342 136.417 417.436 137.46 416.012 138.829L415.494 139.35H418.536V140.132H414.199Z" fill="white"/>
<path d="M320.979 133.875H318.843V133.093H324.022V133.875H321.886V140.132H320.979V133.875Z" fill="white"/>
<path d="M328.554 137.591C328.554 139.481 327.259 140.263 326.029 140.263C324.669 140.263 323.634 139.285 323.634 137.656C323.634 135.961 324.734 134.984 326.094 134.984C327.583 134.984 328.554 136.026 328.554 137.591ZM324.54 137.656C324.54 138.764 325.187 139.611 326.094 139.611C326.935 139.611 327.647 138.764 327.647 137.656C327.647 136.808 327.194 135.701 326.158 135.701C325.058 135.701 324.54 136.678 324.54 137.656Z" fill="white"/>
<path d="M333.991 132.767V138.894C333.991 139.35 333.991 139.871 334.056 140.197H333.215L333.15 139.35C332.891 139.936 332.243 140.327 331.467 140.327C330.237 140.327 329.33 139.285 329.33 137.786C329.33 136.091 330.366 135.048 331.596 135.048C332.373 135.048 332.891 135.439 333.085 135.831V132.833H333.991V132.767ZM333.085 137.134C333.085 137.004 333.085 136.873 333.02 136.743C332.891 136.156 332.373 135.7 331.726 135.7C330.755 135.7 330.237 136.547 330.237 137.655C330.237 138.698 330.755 139.545 331.726 139.545C332.308 139.545 332.891 139.154 333.085 138.437C333.085 138.307 333.15 138.177 333.15 138.046V137.134H333.085Z" fill="white"/>
<path d="M338.329 140.132L338.264 139.481C338.005 139.872 337.422 140.263 336.71 140.263C335.675 140.263 335.157 139.546 335.157 138.829C335.157 137.591 336.257 136.939 338.199 136.939V136.808C338.199 136.417 338.07 135.635 337.034 135.635C336.581 135.635 336.063 135.766 335.739 136.026L335.545 135.44C335.934 135.179 336.581 134.984 337.163 134.984C338.717 134.984 339.041 136.026 339.041 137.069V138.959C339.041 139.415 339.041 139.806 339.106 140.197H338.329V140.132ZM338.199 137.591C337.228 137.591 336.063 137.721 336.063 138.698C336.063 139.285 336.451 139.546 336.905 139.546C337.552 139.546 337.94 139.155 338.135 138.698C338.135 138.633 338.199 138.503 338.199 138.438V137.591Z" fill="white"/>
<path d="M340.789 135.114L341.889 138.112C342.019 138.438 342.148 138.829 342.213 139.154C342.278 138.829 342.407 138.438 342.537 138.112L343.508 135.179H344.479L343.119 138.763C342.472 140.523 342.019 141.37 341.371 141.957C340.918 142.348 340.465 142.478 340.271 142.543L340.012 141.761C340.271 141.696 340.53 141.566 340.789 141.305C341.048 141.11 341.371 140.784 341.566 140.262C341.63 140.197 341.63 140.067 341.63 140.067C341.63 140.067 341.63 139.937 341.566 139.806L339.688 135.179H340.789V135.114Z" fill="white"/>
<path d="M315.024 140.002L311.852 136.808L315.024 133.615" stroke="#F6537F" stroke-width="2" stroke-miterlimit="10" stroke-linecap="round" stroke-linejoin="round"/>
</svg>
