<svg width="786" height="804" viewBox="0 0 786 804" fill="none" xmlns="http://www.w3.org/2000/svg">
<g opacity="0.28">
<g opacity="0.28">
<path opacity="0.28" d="M101.1 392.4V440.6H4.69995" stroke="#434955" stroke-width="8" stroke-miterlimit="10" stroke-linecap="round" stroke-linejoin="round"/>
<path opacity="0.28" d="M197.5 440.6H101.1V392.4" stroke="#434955" stroke-width="8" stroke-miterlimit="10" stroke-linecap="round" stroke-linejoin="round"/>
<path opacity="0.28" d="M149.3 440.6H52.8999V488.8H149.3V440.6Z" stroke="#434955" stroke-width="8" stroke-miterlimit="10" stroke-linecap="round" stroke-linejoin="round"/>
<path opacity="0.28" d="M128.5 537H101.1V488.8H197.5" stroke="#434955" stroke-width="8" stroke-miterlimit="10" stroke-linecap="round" stroke-linejoin="round"/>
<path opacity="0.28" d="M218.9 488.8H149.3V440.6H182.8" stroke="#434955" stroke-width="8" stroke-miterlimit="10" stroke-linecap="round" stroke-linejoin="round"/>
</g>
</g>
<g opacity="0.28">
<g opacity="0.28">
<path opacity="0.28" d="M652.7 93.2V141.4H749.2" stroke="#434955" stroke-width="8" stroke-miterlimit="10" stroke-linecap="round" stroke-linejoin="round"/>
<path opacity="0.28" d="M556.3 141.4H652.7V93.2" stroke="#434955" stroke-width="8" stroke-miterlimit="10" stroke-linecap="round" stroke-linejoin="round"/>
<path opacity="0.28" d="M604.578 189.612L700.979 189.612L700.979 141.412L604.578 141.412L604.578 189.612Z" stroke="#434955" stroke-width="8" stroke-miterlimit="10" stroke-linecap="round" stroke-linejoin="round"/>
<path opacity="0.28" d="M625.3 237.8H652.7V189.6H556.3" stroke="#434955" stroke-width="8" stroke-miterlimit="10" stroke-linecap="round" stroke-linejoin="round"/>
<path opacity="0.28" d="M749.2 189.6H652.7V237.8H730.9" stroke="#434955" stroke-width="8" stroke-miterlimit="10" stroke-linecap="round" stroke-linejoin="round"/>
<path opacity="0.28" d="M782 141.4H700.9V189.6H749.2" stroke="#434955" stroke-width="8" stroke-miterlimit="10" stroke-linecap="round" stroke-linejoin="round"/>
<path opacity="0.28" d="M535 189.6H604.5V141.4H571.1" stroke="#434955" stroke-width="8" stroke-miterlimit="10" stroke-linecap="round" stroke-linejoin="round"/>
</g>
</g>
<path d="M129.1 629.7C104.1 577.4 173.5 539 173.1 447.9C172.6 323.9 43.4999 288.1 51.0999 209.9C65.7999 58.2 574.5 -47.3 611.1 22.5C624.9 48.8 558 73.9 551.1 146.2C539.1 271 727.4 316.2 731.1 432.9C734.9 553.9 537.9 677.4 365.1 693.4C290.9 700.2 159.3 693 129.1 629.7Z" fill="#71777C"/>
<path d="M337.3 248.7L323.3 124.6C321.9 112 323.5 99.3 328 87.3H251.7C256.2 99.3 257.8 112 256.4 124.6L242.4 248.7C238.8 280.7 227.6 311.6 209.6 339.2C184.5 377.8 172.8 422.6 176.1 467.5L187.2 616.8C188.5 634.6 203.7 648.7 223 650.1L255.9 652.5C278.5 654.1 301.1 654.1 323.7 652.5L356.6 650.1C375.8 648.7 391 634.5 392.4 616.8L403.5 467.5C406.8 422.6 395.2 377.8 370 339.2C352.1 311.6 340.9 280.7 337.3 248.7Z" fill="#7D9D6B"/>
<path d="M307 652.6L339.6 650.2C358.6 648.8 373.7 634.6 375 616.9L386 467.6C389.3 422.7 380.7 380.9 355.8 342.3C355.8 342.3 332.1 312.8 328.3 245.8L315.5 121.7C314.2 110.1 318.4 98.4999 322.1 87.3999H328.3C323.8 99.3999 322.2 112.1 323.7 124.7L337.5 248.8C341.1 280.8 352.1 311.7 369.9 339.3C394.8 377.9 406.4 422.7 403.1 467.6L392.1 616.9C390.8 634.7 375.7 648.8 356.7 650.2L324.1 652.6C310.1 653.6 296.1 654 282.1 653.7C290.3 653.6 298.7 653.2 307 652.6Z" fill="#6E8F5D"/>
<path d="M323.1 108.9C323.7 101.5 325.4 94.3 328 87.3H324.2C322.9 94.4 322.5 101.7 323.1 108.9Z" fill="#7D9D6B"/>
<path d="M255.6 87.3H251.8C254.4 94.3 256.1 101.6 256.7 108.9C257.3 101.7 256.9 94.4 255.6 87.3Z" fill="#7D9D6B"/>
<path d="M403.6 454L392.5 603.3C391.2 621.1 376 635.2 356.7 636.6L323.8 639C301.2 640.6 278.6 640.6 256 639L223.1 636.6C203.9 635.2 188.7 621 187.3 603.3L176.2 454C176 451.3 175.8 448.5 175.8 445.8C175.6 453 175.7 460.3 176.2 467.6L187.3 616.9C188.6 634.7 203.8 648.8 223.1 650.2L256 652.6C278.6 654.2 301.2 654.2 323.8 652.6L356.7 650.2C375.9 648.8 391.1 634.6 392.5 616.9L403.6 467.6C404.1 460.3 404.3 453.1 404 445.8C404 448.5 403.8 451.2 403.6 454Z" fill="#6E8F5D"/>
<path opacity="0.5" d="M252.9 357C246.1 372.7 238.5 393.6 236.1 412.4C230.3 456.4 236.1 490.5 236.1 490.5" stroke="white" stroke-width="14" stroke-miterlimit="10" stroke-linecap="round" stroke-linejoin="round"/>
<path opacity="0.5" d="M264.7 332.2C264.7 332.2 265.1 330.7 261.4 338.6" stroke="white" stroke-width="14" stroke-miterlimit="10" stroke-linecap="round" stroke-linejoin="round"/>
<path d="M337.3 248.7L323.3 124.6C321.9 112 323.5 99.3 328 87.3H251.7C256.2 99.3 257.8 112 256.4 124.6L242.4 248.7C238.8 280.7 227.6 311.6 209.6 339.2C184.5 377.8 172.8 422.6 176.1 467.5L187.2 616.8C188.5 634.6 203.7 648.7 223 650.1L255.9 652.5C278.5 654.1 301.1 654.1 323.7 652.5L356.6 650.1C375.8 648.7 391 634.5 392.4 616.8L403.5 467.5C406.8 422.6 395.2 377.8 370 339.2C352.1 311.6 340.9 280.7 337.3 248.7Z" stroke="#246D49" stroke-width="8" stroke-miterlimit="10" stroke-linecap="round" stroke-linejoin="round"/>
<path d="M341.7 277.7C335 278.7 328.4 279.5 321.7 280.2C314.8 289 302.7 295 288.9 295C275 295 262.9 289 256.1 280.2C249.4 279.6 242.7 278.7 236.1 277.7C236.4 276.5 236.7 275.3 237 274.1C238.2 269.3 239.2 264.5 240 259.7V259.6C240.2 258.5 240.4 257.4 240.5 256.3C240.5 256.1 240.6 256 240.6 255.8C240.8 254.6 240.9 253.5 241.1 252.3C241.3 251.1 241.4 249.8 241.6 248.6L243.3 233.4L255.6 124.5C255.9 121.5 256.1 118.6 256.1 115.6C256.1 106 254.3 96.4 250.9 87.2H327C322.5 99.2 320.9 111.9 322.3 124.5L334.6 233.4L336.3 248.6C336.4 249.8 336.6 251.1 336.8 252.3C337.6 258.4 338.7 264.5 340 270.5C340.3 271.7 340.5 272.9 340.8 274.1C341.1 275.4 341.4 276.5 341.7 277.7Z" fill="#F2A356"/>
<path d="M322.1 87.3C318.4 98.4 314.2 110 315.5 121.6L328.3 245.7C329 258.1 330.4 269.2 332.2 279C335.4 278.6 338.6 278.2 341.8 277.7C341.5 276.5 341.2 275.3 340.9 274.1C340.6 272.9 340.3 271.7 340.1 270.5C338.7 264.5 337.7 258.4 336.9 252.3C336.7 251.1 336.6 249.8 336.4 248.6L334.7 233.4L322.4 124.5C321 111.9 322.6 99.2 327.1 87.2H322.1V87.3Z" fill="#D6954B"/>
<path d="M337.3 248.7L335.6 233.5C329.5 234.4 323.4 235.2 317.3 235.7C309.9 229.1 300.3 225.1 289.8 225.1C279.3 225.1 269.7 229.1 262.3 235.7C256.2 235.2 250.1 234.4 244 233.5L242.3 248.7C241.2 258.5 239.4 268.2 236.9 277.7C243.6 278.7 250.2 279.5 256.9 280.2C263.8 289 275.9 295 289.7 295C303.6 295 315.7 289 322.5 280.2C329.2 279.6 335.9 278.7 342.5 277.7C340.3 268.2 338.4 258.5 337.3 248.7Z" fill="#806940"/>
<path opacity="0.3" d="M327.2 234.6L328.3 245.7C329 258.1 330.4 269.2 332.2 279C335.4 278.6 338.6 278.2 341.8 277.7C341.5 276.5 341.2 275.3 340.9 274.1C340.6 272.9 340.3 271.7 340.1 270.5C338.7 264.5 337.7 258.4 336.9 252.3C336.7 251.1 336.6 249.8 336.4 248.6L334.7 233.5C332.1 234 329.6 234.3 327.2 234.6Z" fill="#806940"/>
<path opacity="0.3" d="M288.9 274C299.725 274 308.5 267.105 308.5 258.6C308.5 250.095 299.725 243.2 288.9 243.2C278.075 243.2 269.3 250.095 269.3 258.6C269.3 267.105 278.075 274 288.9 274Z" fill="#806940"/>
<path opacity="0.5" d="M277.6 145.5L275.5 205.6" stroke="white" stroke-width="14" stroke-miterlimit="10" stroke-linecap="round" stroke-linejoin="round"/>
<path d="M272.2 652.6L239.6 650.2C220.6 648.8 205.5 634.6 204.2 616.9L193.2 467.6C189.9 422.7 198.5 380.9 223.4 342.3C223.4 342.3 247.1 312.8 250.9 245.8L263.7 121.7C265 110.1 260.8 98.4999 257.1 87.3999H251C255.5 99.3999 257.1 112.1 255.6 124.7L241.8 248.8C238.2 280.8 227.2 311.7 209.4 339.3C184.5 377.9 172.9 422.7 176.2 467.6L187.2 616.9C188.5 634.7 203.6 648.8 222.6 650.2L255.2 652.6C269.2 653.6 283.2 654 297.2 653.7C288.9 653.6 280.5 653.2 272.2 652.6Z" fill="#FCFFFA"/>
<path d="M255 103.3C255 103.3 274.3 116.9 276.6 116.9C278.9 116.9 288.9 110.1 288.9 110.1L297.2 121.5C297.2 121.5 299.7 117.3 302.1 117.3C304.5 117.3 312.7 118.1 313.9 118.1C315.1 118.1 323.3 118.1 323.3 118.1V106.3V92.3999H254.4L255 103.3Z" fill="#7D9D6B"/>
<path d="M263.3 106.1L262.8 95.1001H323.4V92.3H254.5L255 103.3C255 103.3 274.3 116.9 276.6 116.9C277 116.9 277.7 116.7 278.5 116.3C272.1 112.3 263.3 106.1 263.3 106.1Z" fill="#FCFFFA"/>
<path d="M297.2 112.9C297.2 112.9 295.3 114.2 293 115.6L297.3 121.4C297.3 121.4 298.9 118.7 300.8 117.7L297.2 112.9Z" fill="#FCFFFA"/>
<path d="M255 103.3C255 103.3 274.3 116.9 276.6 116.9C278.9 116.9 288.9 110.1 288.9 110.1L297.2 121.5C297.2 121.5 299.7 117.3 302.1 117.3C304.5 117.3 312.7 118.1 313.9 118.1C315.1 118.1 323.3 118.1 323.3 118.1V106.3V92.3999H254.4L255 103.3Z" stroke="#434955" stroke-width="8" stroke-miterlimit="10" stroke-linecap="round" stroke-linejoin="round"/>
<path d="M350.5 452.6C334.5 446.9 316.6 442.6 297.5 442.6C278.4 442.6 260.5 446.9 244.5 452.6C230.6 457.6 216.1 460.1 201.4 460.1C196.4 460.1 192.5 464.5 192.7 469.7L199.2 595.4C199.4 600 203 603.7 207.4 604C216.7 604.5 233.7 606.3 253.4 612C267 615.9 281.9 619.1 297.5 619.1C313.1 619.1 327.9 615.9 341.6 612C358.5 607.2 375.9 604.4 393.4 604.2L400.7 506.5L403.3 460.2H393.7C379 460.1 364.4 457.5 350.5 452.6Z" fill="#F2A356"/>
<path d="M402.4 475.7L403.3 460.1H393.7C391.3 460.1 388.9 460 386.5 459.9C386.4 462.4 386.2 465 386.1 467.5L375.9 605.2C381.6 604.6 387.3 604.3 393 604.2L402.4 475.7Z" fill="#D6954B"/>
<path d="M396.8 581.8C330.5 586.1 264 586.1 197.7 581.8C198 575.9 198.4 570.1 198.7 564.2C264.3 568.5 330.1 568.5 395.7 564.2C396.1 570.1 396.4 575.9 396.8 581.8Z" fill="#806940"/>
<path d="M396.8 581.8C330.5 586.1 264 586.1 197.7 581.8C198 575.9 198.4 570.1 198.7 564.2C264.3 568.5 330.1 568.5 395.7 564.2C396.1 570.1 396.4 575.9 396.8 581.8Z" fill="#CE7657"/>
<path d="M396.8 581.8C330.5 586.1 264 586.1 197.7 581.8C198 575.9 198.4 570.1 198.7 564.2C264.3 568.5 330.1 568.5 395.7 564.2C396.1 570.1 396.4 575.9 396.8 581.8Z" stroke="#434955" stroke-width="8" stroke-miterlimit="10" stroke-linecap="round" stroke-linejoin="round"/>
<path d="M335.1 576.1C335.3 583.5 318.3 589.7 297.2 589.7C276.1 589.7 259.1 583.5 259.3 576.1C259.5 568.7 276.5 562.8 297.2 562.8C318 562.8 334.9 568.6 335.1 576.1Z" fill="#CE7657"/>
<path d="M335.1 576.1C335.3 583.5 318.3 589.7 297.2 589.7C276.1 589.7 259.1 583.5 259.3 576.1C259.5 568.7 276.5 562.8 297.2 562.8C318 562.8 334.9 568.6 335.1 576.1Z" stroke="#434955" stroke-width="8" stroke-miterlimit="10" stroke-linecap="round" stroke-linejoin="round"/>
<path d="M350.5 452.6C334.5 446.9 316.6 442.6 297.5 442.6C278.4 442.6 260.5 446.9 244.5 452.6C230.6 457.6 216.1 460.1 201.4 460.1C196.4 460.1 192.5 464.5 192.7 469.7L199.2 595.4C199.4 600 203 603.7 207.4 604C216.7 604.5 233.7 606.3 253.4 612C267 615.9 281.9 619.1 297.5 619.1C313.1 619.1 327.9 615.9 341.6 612C358.5 607.2 375.9 604.4 393.4 604.2L400.7 506.5L403.3 460.2H393.7C379 460.1 364.4 457.5 350.5 452.6Z" stroke="#434955" stroke-width="8" stroke-miterlimit="10" stroke-linecap="round" stroke-linejoin="round"/>
<path opacity="0.13" d="M297.5 611C285 611 271.7 608.8 255.6 604.2C235.8 598.5 218.7 596.5 207.9 595.9C207.7 595.9 207.3 595.5 207.2 594.9L200.7 469.2C200.7 468.7 200.9 468.4 201 468.2C201.2 468 201.3 468 201.3 468C216.8 468 232.2 465.3 247.1 460C265 453.6 281.4 450.5 297.4 450.5C313.4 450.5 329.8 453.6 347.7 460C362.6 465.3 378 468 393.5 468H394.7L392.6 505.8L385.9 596.3C370.6 597 355 599.7 339.3 604.2C329.2 607.1 313.8 611 297.5 611Z" stroke="#434955" stroke-width="2" stroke-miterlimit="10" stroke-linecap="round" stroke-linejoin="round"/>
<path d="M337.3 248.7L335.6 233.5C329.5 234.4 323.4 235.2 317.3 235.7C309.9 229.1 300.3 225.1 289.8 225.1C279.3 225.1 269.7 229.1 262.3 235.7C256.2 235.2 250.1 234.4 244 233.5L242.3 248.7C241.2 258.5 239.4 268.2 236.9 277.7C243.6 278.7 250.2 279.5 256.9 280.2C263.8 289 275.9 295 289.7 295C303.6 295 315.7 289 322.5 280.2C329.2 279.6 335.9 278.7 342.5 277.7C340.3 268.2 338.4 258.5 337.3 248.7Z" stroke="#434955" stroke-width="8" stroke-miterlimit="10" stroke-linecap="round" stroke-linejoin="round"/>
<path d="M342.7 277.7C336 278.7 329.4 279.5 322.7 280.2C315.8 289 303.7 295 289.9 295C276 295 263.9 289 257.1 280.2C250.4 279.6 243.7 278.7 237.1 277.7C237.4 276.5 237.7 275.3 238 274.1C239.2 269.3 240.2 264.5 241 259.7V259.6C241.2 258.5 241.4 257.4 241.5 256.3C241.5 256.1 241.6 256 241.6 255.8C241.8 254.6 241.9 253.5 242.1 252.3C242.3 251.1 242.4 249.8 242.6 248.6L244.3 233.4L256.6 124.5C256.9 121.5 257.1 118.6 257.1 115.6C257.1 106 255.3 96.4 251.9 87.2H328C323.5 99.2 321.9 111.9 323.3 124.5L335.6 233.4L337.3 248.6C337.4 249.8 337.6 251.1 337.8 252.3C338.6 258.4 339.7 264.5 341 270.5C341.3 271.7 341.5 272.9 341.8 274.1C342.1 275.4 342.4 276.5 342.7 277.7Z" stroke="#434955" stroke-width="8" stroke-miterlimit="10" stroke-linecap="round" stroke-linejoin="round"/>
<path d="M337.3 248.7L323.3 124.6C321.9 112 323.5 99.3 328 87.3H251.7C256.2 99.3 257.8 112 256.4 124.6L242.4 248.7C238.8 280.7 227.6 311.6 209.6 339.2C184.5 377.8 172.8 422.6 176.1 467.5L187.2 616.8C188.5 634.6 203.7 648.7 223 650.1L255.9 652.5C278.5 654.1 301.1 654.1 323.7 652.5L356.6 650.1C375.8 648.7 391 634.5 392.4 616.8L403.5 467.5C406.8 422.6 395.2 377.8 370 339.2C352.1 311.6 340.9 280.7 337.3 248.7Z" stroke="#434955" stroke-width="8" stroke-miterlimit="10" stroke-linecap="round" stroke-linejoin="round"/>
<path d="M519.6 471.2L490.1 509.4L460.6 471.2C445.1 451.1 437 425.3 437.9 399L444.4 259.7H535.9L542.4 399C543.2 425.3 535.1 451.1 519.6 471.2Z" fill="#97B8A3"/>
<path d="M539.3 333.9H440.9L437.9 399C437 425.3 445.1 451.1 460.6 471.2L490.1 509.4L519.6 471.2C535.1 451.1 543.2 425.3 542.3 399L539.3 333.9Z" fill="#F2A356"/>
<path d="M469.3 471.2C460.6 459.9 454.2 446.8 450.4 432.8C447.9 423.5 446.6 413.8 446.5 403.9C446.5 402.3 446.5 400.6 446.6 399L447.1 388.8L453.1 259.8H444.3L438.3 388.8L437.8 399C437.7 400.6 437.7 402.3 437.7 403.9C437.8 413.7 439.1 423.4 441.6 432.8C445.3 446.8 451.7 459.9 460.5 471.2L490 509.4L492.4 504.7L469.3 471.2Z" fill="#FCFFFA"/>
<path d="M490.1 509.4V646.8" stroke="#434955" stroke-width="8" stroke-miterlimit="10" stroke-linecap="round" stroke-linejoin="round"/>
<path d="M441.1 646.8H539.1" stroke="#434955" stroke-width="8" stroke-miterlimit="10" stroke-linecap="round" stroke-linejoin="round"/>
<path d="M536.9 351.4L536.3 327.1H443.8L443.2 351.4H536.9Z" fill="#FCFFFA"/>
<path d="M459.4 348C468.789 348 476.4 340.389 476.4 331C476.4 321.611 468.789 314 459.4 314C450.011 314 442.4 321.611 442.4 331C442.4 340.389 450.011 348 459.4 348Z" fill="#FCFFFA"/>
<path d="M483.6 352.1C492.989 352.1 500.6 344.489 500.6 335.1C500.6 325.711 492.989 318.1 483.6 318.1C474.211 318.1 466.6 325.711 466.6 335.1C466.6 344.489 474.211 352.1 483.6 352.1Z" fill="#FCFFFA"/>
<path d="M503.6 347.5C511.111 347.5 517.2 341.411 517.2 333.9C517.2 326.389 511.111 320.3 503.6 320.3C496.089 320.3 490 326.389 490 333.9C490 341.411 496.089 347.5 503.6 347.5Z" fill="#FCFFFA"/>
<path d="M518.6 335.1C523.847 335.1 528.1 330.847 528.1 325.6C528.1 320.353 523.847 316.1 518.6 316.1C513.353 316.1 509.1 320.353 509.1 325.6C509.1 330.847 513.353 335.1 518.6 335.1Z" fill="#FCFFFA"/>
<path d="M530.4 335.1C534.321 335.1 537.5 331.921 537.5 328C537.5 324.079 534.321 320.9 530.4 320.9C526.479 320.9 523.3 324.079 523.3 328C523.3 331.921 526.479 335.1 530.4 335.1Z" fill="#FCFFFA"/>
<path d="M510.6 288.5C512.975 288.5 514.9 286.575 514.9 284.2C514.9 281.825 512.975 279.9 510.6 279.9C508.225 279.9 506.3 281.825 506.3 284.2C506.3 286.575 508.225 288.5 510.6 288.5Z" fill="#FCFFFA"/>
<path d="M519.6 471.2L490.1 509.4L460.6 471.2C445.1 451.1 437 425.3 437.9 399L444.4 259.7H535.9L542.4 399C543.2 425.3 535.1 451.1 519.6 471.2Z" stroke="#434955" stroke-width="8" stroke-miterlimit="10" stroke-linecap="round" stroke-linejoin="round"/>
<path opacity="0.5" d="M470.4 277.6V305" stroke="white" stroke-width="14" stroke-miterlimit="10" stroke-linecap="round" stroke-linejoin="round"/>
<path d="M516 384.6C519.148 384.6 521.7 382.048 521.7 378.9C521.7 375.752 519.148 373.2 516 373.2C512.852 373.2 510.3 375.752 510.3 378.9C510.3 382.048 512.852 384.6 516 384.6Z" fill="#FFEEEE"/>
<path d="M518.6 432.3C520.975 432.3 522.9 430.375 522.9 428C522.9 425.625 520.975 423.7 518.6 423.7C516.225 423.7 514.3 425.625 514.3 428C514.3 430.375 516.225 432.3 518.6 432.3Z" fill="#434955"/>
<path d="M485.8 397.3C486.684 397.3 487.4 396.584 487.4 395.7C487.4 394.816 486.684 394.1 485.8 394.1C484.916 394.1 484.2 394.816 484.2 395.7C484.2 396.584 484.916 397.3 485.8 397.3Z" fill="#FFEEEE"/>
<path d="M477.9 418.2C478.783 418.2 479.5 417.484 479.5 416.6C479.5 415.716 478.783 415 477.9 415C477.016 415 476.3 415.716 476.3 416.6C476.3 417.484 477.016 418.2 477.9 418.2Z" fill="#FFEEEE"/>
<path d="M495.3 437.2C496.184 437.2 496.9 436.484 496.9 435.6C496.9 434.716 496.184 434 495.3 434C494.416 434 493.7 434.716 493.7 435.6C493.7 436.484 494.416 437.2 495.3 437.2Z" fill="#FFEEEE"/>
<path opacity="0.5" d="M462.5 403.5C463 419.5 467.4 437 482.5 452.5" stroke="white" stroke-width="14" stroke-miterlimit="10" stroke-linecap="round" stroke-linejoin="round"/>
<path opacity="0.5" d="M463.7 373.5V380.7" stroke="white" stroke-width="14" stroke-miterlimit="10" stroke-linecap="round" stroke-linejoin="round"/>
<path d="M592.1 471.2L562.6 509.4L533 471.2C517.5 451.1 509.4 425.3 510.3 399L516.8 259.7H608.3L614.8 399C615.7 425.3 607.6 451.1 592.1 471.2Z" fill="#97B8A3"/>
<path d="M611.7 333.9H513.3L510.3 399C509.4 425.3 517.5 451.1 533 471.2L562.5 509.4L592 471.2C607.5 451.1 615.6 425.3 614.7 399L611.7 333.9Z" fill="#F2A356"/>
<path d="M541.8 471.2C533.1 459.9 526.7 446.8 522.9 432.8C520.4 423.5 519.1 413.8 519 403.9C519 402.3 519 400.6 519.1 399L519.6 388.8L525.6 259.8H516.8L510.8 388.8L510.3 399C510.2 400.6 510.2 402.3 510.2 403.9C510.3 413.7 511.6 423.4 514.1 432.8C517.8 446.8 524.2 459.9 533 471.2L562.5 509.4L564.9 504.7L541.8 471.2Z" fill="#FCFFFA"/>
<path d="M562.5 509.4V646.8" stroke="#434955" stroke-width="8" stroke-miterlimit="10" stroke-linecap="round" stroke-linejoin="round"/>
<path d="M513.5 646.8H611.6" stroke="#434955" stroke-width="8" stroke-miterlimit="10" stroke-linecap="round" stroke-linejoin="round"/>
<path d="M609.4 351.4L608.8 327.1H516.3L515.7 351.4H609.4Z" fill="#FCFFFA"/>
<path d="M531.8 348C541.189 348 548.8 340.389 548.8 331C548.8 321.611 541.189 314 531.8 314C522.411 314 514.8 321.611 514.8 331C514.8 340.389 522.411 348 531.8 348Z" fill="#FCFFFA"/>
<path d="M556.1 352.1C565.489 352.1 573.1 344.489 573.1 335.1C573.1 325.711 565.489 318.1 556.1 318.1C546.711 318.1 539.1 325.711 539.1 335.1C539.1 344.489 546.711 352.1 556.1 352.1Z" fill="#FCFFFA"/>
<path d="M576.3 359.6C585.689 359.6 593.3 351.989 593.3 342.6C593.3 333.211 585.689 325.6 576.3 325.6C566.911 325.6 559.3 333.211 559.3 342.6C559.3 351.989 566.911 359.6 576.3 359.6Z" fill="#FCFFFA"/>
<path d="M591.1 335.1C596.347 335.1 600.6 330.847 600.6 325.6C600.6 320.353 596.347 316.1 591.1 316.1C585.853 316.1 581.6 320.353 581.6 325.6C581.6 330.847 585.853 335.1 591.1 335.1Z" fill="#FCFFFA"/>
<path d="M602.9 335.1C606.821 335.1 610 331.921 610 328C610 324.079 606.821 320.9 602.9 320.9C598.979 320.9 595.8 324.079 595.8 328C595.8 331.921 598.979 335.1 602.9 335.1Z" fill="#FCFFFA"/>
<path d="M586.9 308.5C589.054 308.5 590.8 306.754 590.8 304.6C590.8 302.446 589.054 300.7 586.9 300.7C584.746 300.7 583 302.446 583 304.6C583 306.754 584.746 308.5 586.9 308.5Z" fill="#FCFFFA"/>
<path d="M592.1 471.2L562.6 509.4L533 471.2C517.5 451.1 509.4 425.3 510.3 399L516.8 259.7H608.3L614.8 399C615.7 425.3 607.6 451.1 592.1 471.2Z" stroke="#434955" stroke-width="8" stroke-miterlimit="10" stroke-linecap="round" stroke-linejoin="round"/>
<path opacity="0.5" d="M542.9 277.6V305" stroke="white" stroke-width="14" stroke-miterlimit="10" stroke-linecap="round" stroke-linejoin="round"/>
<path d="M588.4 384.6C591.548 384.6 594.1 382.048 594.1 378.9C594.1 375.752 591.548 373.2 588.4 373.2C585.252 373.2 582.7 375.752 582.7 378.9C582.7 382.048 585.252 384.6 588.4 384.6Z" fill="#FFEEEE"/>
<path d="M558.3 397.3C559.184 397.3 559.9 396.584 559.9 395.7C559.9 394.816 559.184 394.1 558.3 394.1C557.416 394.1 556.7 394.816 556.7 395.7C556.7 396.584 557.416 397.3 558.3 397.3Z" fill="#FFEEEE"/>
<path d="M591.1 423.3C591.984 423.3 592.7 422.584 592.7 421.7C592.7 420.816 591.984 420.1 591.1 420.1C590.216 420.1 589.5 420.816 589.5 421.7C589.5 422.584 590.216 423.3 591.1 423.3Z" fill="#FFEEEE"/>
<path d="M567.8 437.2C568.684 437.2 569.4 436.484 569.4 435.6C569.4 434.716 568.684 434 567.8 434C566.916 434 566.2 434.716 566.2 435.6C566.2 436.484 566.916 437.2 567.8 437.2Z" fill="#FFEEEE"/>
<path opacity="0.5" d="M535 403.5C535.5 419.5 539.9 437 555 452.5" stroke="white" stroke-width="14" stroke-miterlimit="10" stroke-linecap="round" stroke-linejoin="round"/>
<path opacity="0.5" d="M536.2 373.5V380.7" stroke="white" stroke-width="14" stroke-miterlimit="10" stroke-linecap="round" stroke-linejoin="round"/>
<path d="M764 653.8H22L56 732H122C122 732 175.7 704 175.7 712C175.7 720 257.7 788 257.7 788C257.7 788 283.7 816 319.9 796C356.1 776 389.2 767.6 396.8 760C410.9 745.9 390.7 723.6 396.6 719.8C408.4 712.3 461 789.3 485.9 778.3C496.1 773.8 493.2 758.1 505.8 753.2C519.3 747.9 526.9 764.1 552.5 767.6C577.9 771.1 605.6 760 606.1 759.9C606.1 759.9 601.8 748.7 622.1 728.4C642.4 708.1 651.1 700.9 668.1 717.9C685.1 734.9 683.1 750.9 692.1 759.9C699.3 767.1 702.2 776.8 705.1 775.9C711.4 774 703.2 731.1 707.2 730.2C710.6 729.5 718.2 760.6 727 759.9C728.2 759.8 730.6 757.4 735.9 753C738.1 751.2 740.6 748.9 744.1 745.4C756.9 732.6 764.1 727.8 764.1 711.8C764.1 695.8 764 653.8 764 653.8Z" fill="#FCFFFA"/>
<path d="M764 653.8H22" stroke="#434955" stroke-width="8" stroke-miterlimit="10" stroke-linecap="round" stroke-linejoin="round"/>
<path d="M313.8 66.2H264.1C257.8 66.2 252.6 61.1 252.6 54.7V50.5C252.6 44.2 257.7 39 264.1 39H313.8C320.1 39 325.3 44.1 325.3 50.5V54.7C325.3 61.1 320.1 66.2 313.8 66.2Z" fill="#7D9D6B"/>
<path d="M262.8 54.7V50.5C262.8 44.2 267.9 39 274.3 39H264.2C257.9 39 252.7 44.1 252.7 50.5V54.7C252.7 61 257.8 66.2 264.2 66.2H274.3C267.9 66.2 262.8 61.1 262.8 54.7Z" fill="#FCFFFA"/>
<path d="M313.8 66.2H264.1C257.8 66.2 252.6 61.1 252.6 54.7V50.5C252.6 44.2 257.7 39 264.1 39H313.8C320.1 39 325.3 44.1 325.3 50.5V54.7C325.3 61.1 320.1 66.2 313.8 66.2Z" stroke="#434955" stroke-width="8" stroke-miterlimit="10" stroke-linecap="round" stroke-linejoin="round"/>
<path opacity="0.5" d="M271.7 49.6001V52.3001" stroke="white" stroke-width="14" stroke-miterlimit="10" stroke-linecap="round" stroke-linejoin="round"/>
<path d="M311.2 93.2H259.7C251 93.2 244 86.2 244 77.5C244 68.8 251 61.8 259.7 61.8H311.2C319.9 61.8 326.9 68.8 326.9 77.5C326.9 86.2 319.9 93.2 311.2 93.2Z" fill="#7D9D6B"/>
<path d="M256.2 77.5C256.2 68.8 262.7 61.8 270.7 61.8H258.6C250.6 61.8 244.1 68.8 244.1 77.5C244.1 86.2 250.6 93.2 258.6 93.2H270.7C262.7 93.2 256.2 86.2 256.2 77.5Z" fill="#FCFFFA"/>
<path d="M311.2 93.2H259.7C251 93.2 244 86.2 244 77.5C244 68.8 251 61.8 259.7 61.8H311.2C319.9 61.8 326.9 68.8 326.9 77.5C326.9 86.2 319.9 93.2 311.2 93.2Z" stroke="#434955" stroke-width="8" stroke-miterlimit="10" stroke-linecap="round" stroke-linejoin="round"/>
<path d="M338.2 26.7001C338.3 25.9001 338.4 25.2001 338.4 24.4001C338.4 14.0001 330 5.6001 319.6 5.6001C315.2 5.6001 311.2 7.1001 308 9.6001C305.8 8.7001 303.4 8.20009 300.8 8.20009C293.9 8.20009 287.9 11.9001 284.6 17.5001C282.4 16.5001 279.9 16.2001 277.3 16.5001C271.3 17.3001 266.5 22.3001 265.8 28.4001C265 36.5001 271.3 43.3001 279.2 43.3001C282.3 43.3001 285.2 42.2001 287.5 40.4001C290.9 43.8001 295.6 45.9001 300.8 45.9001C301.5 45.9001 302.1 45.9001 302.8 45.8001V45.9001C307.9 45.9001 312.1 50.1001 312.1 55.2001V118.5C312.1 125.8 318 131.7 325.3 131.7C332.6 131.7 338.5 125.8 338.5 118.5V29.1001C338.5 28.3001 338.4 27.5001 338.2 26.7001Z" fill="#FCFFFA"/>
<path d="M338.2 26.7001C338.3 25.9001 338.4 25.2001 338.4 24.4001C338.4 14.0001 330 5.6001 319.6 5.6001C315.2 5.6001 311.2 7.1001 308 9.6001C305.8 8.7001 303.4 8.20009 300.8 8.20009C293.9 8.20009 287.9 11.9001 284.6 17.5001C282.4 16.5001 279.9 16.2001 277.3 16.5001C271.3 17.3001 266.5 22.3001 265.8 28.4001C265 36.5001 271.3 43.3001 279.2 43.3001C282.3 43.3001 285.2 42.2001 287.5 40.4001C290.9 43.8001 295.6 45.9001 300.8 45.9001C301.5 45.9001 302.1 45.9001 302.8 45.8001V45.9001C307.9 45.9001 312.1 50.1001 312.1 55.2001V118.5C312.1 125.8 318 131.7 325.3 131.7C332.6 131.7 338.5 125.8 338.5 118.5V29.1001C338.5 28.3001 338.4 27.5001 338.2 26.7001Z" stroke="#434955" stroke-width="8" stroke-miterlimit="10" stroke-linecap="round" stroke-linejoin="round"/>
<path opacity="0.5" d="M268.7 74.6001V80.0001" stroke="white" stroke-width="14" stroke-miterlimit="10" stroke-linecap="round" stroke-linejoin="round"/>
<path d="M297.2 530.8C318.684 530.8 336.1 520.01 336.1 506.7C336.1 493.39 318.684 482.6 297.2 482.6C275.716 482.6 258.3 493.39 258.3 506.7C258.3 520.01 275.716 530.8 297.2 530.8Z" fill="#FCFFFA"/>
</svg>
