<svg width="686" height="627" viewBox="0 0 686 627" fill="none" xmlns="http://www.w3.org/2000/svg">
<path opacity="0.5" d="M664.09 339.191L207.19 618.19C193.09 626.79 174.59 622.39 165.99 608.19L8.39044 350.091C-0.209564 335.991 4.19044 317.491 18.3904 308.891L475.29 29.9905C489.39 21.3905 507.89 25.7905 516.49 39.9905L674.09 298.091C682.69 312.091 678.19 330.591 664.09 339.191Z" fill="#232323" stroke="#232323" stroke-width="8" stroke-miterlimit="10" stroke-linecap="round" stroke-linejoin="round"/>
<path d="M666.79 317.59L209.89 596.49C195.79 605.09 177.29 600.69 168.69 586.49L11.0901 328.49C2.49014 314.39 6.89014 295.89 21.0901 287.29L477.99 8.39044C492.09 -0.209564 510.59 4.19044 519.19 18.3904L676.79 276.49C685.39 290.49 680.99 308.99 666.79 317.59Z" fill="#43597A"/>
<path opacity="0.7" d="M470.49 12.8901L460.59 18.9901C478.89 7.79013 502.79 13.5901 513.99 31.8901L662.39 274.89C673.59 293.19 667.79 317.09 649.49 328.29L659.39 322.19C677.69 310.99 683.49 287.09 672.29 268.79L523.89 25.7901C512.69 7.49013 488.79 1.79014 470.49 12.8901Z" fill="#6A87AD"/>
<path d="M176.79 571.29L28.3902 328.29C17.1902 309.99 22.9902 286.09 41.2902 274.89L26.3902 283.99C8.09021 295.19 2.2902 319.09 13.4902 337.39L161.89 580.39C173.09 598.69 196.99 604.49 215.29 593.29L230.19 584.19C211.89 595.39 187.99 589.59 176.79 571.29Z" fill="#394E6B"/>
<path d="M666.79 317.59L209.89 596.49C195.79 605.09 177.29 600.69 168.69 586.49L11.0901 328.49C2.49014 314.39 6.89014 295.89 21.0901 287.29L477.99 8.39044C492.09 -0.209564 510.59 4.19044 519.19 18.3904L676.79 276.49C685.39 290.49 680.99 308.99 666.79 317.59Z" stroke="#202454" stroke-width="8" stroke-miterlimit="10" stroke-linecap="round" stroke-linejoin="round"/>
<path d="M645.19 303.49L287.09 522.09C278.59 527.29 267.49 524.59 262.39 516.09L116.59 277.39C111.39 268.89 114.09 257.79 122.59 252.69L480.69 34.0902C489.19 28.8902 500.29 31.5902 505.39 40.0902L651.19 278.89C656.39 287.29 653.69 298.29 645.19 303.49Z" fill="#2F3F56"/>
<path d="M169.09 224.19L333.59 493.69" stroke="#283356" stroke-miterlimit="10" stroke-linecap="round" stroke-linejoin="round"/>
<path d="M222.09 191.89L386.59 461.39" stroke="#283356" stroke-miterlimit="10" stroke-linecap="round" stroke-linejoin="round"/>
<path d="M275.09 159.49L439.69 428.99" stroke="#283356" stroke-miterlimit="10" stroke-linecap="round" stroke-linejoin="round"/>
<path d="M328.09 127.09L492.69 396.59" stroke="#283356" stroke-miterlimit="10" stroke-linecap="round" stroke-linejoin="round"/>
<path d="M381.19 94.79L545.69 364.29" stroke="#283356" stroke-miterlimit="10" stroke-linecap="round" stroke-linejoin="round"/>
<path d="M434.19 62.3901L598.69 331.89" stroke="#283356" stroke-miterlimit="10" stroke-linecap="round" stroke-linejoin="round"/>
<path d="M140.89 317.19L529.79 79.79" stroke="#283356" stroke-miterlimit="10" stroke-linecap="round" stroke-linejoin="round"/>
<path d="M173.29 370.19L562.09 132.89" stroke="#283356" stroke-miterlimit="10" stroke-linecap="round" stroke-linejoin="round"/>
<path d="M205.69 423.29L594.49 185.89" stroke="#283356" stroke-miterlimit="10" stroke-linecap="round" stroke-linejoin="round"/>
<path d="M237.99 476.29L626.89 238.89" stroke="#283356" stroke-miterlimit="10" stroke-linecap="round" stroke-linejoin="round"/>
<path d="M645.19 303.49L287.09 522.09C278.59 527.29 267.49 524.59 262.39 516.09L116.59 277.39C111.39 268.89 114.09 257.79 122.59 252.69L480.69 34.0902C489.19 28.8902 500.29 31.5902 505.39 40.0902L651.19 278.89C656.39 287.29 653.69 298.29 645.19 303.49Z" stroke="#202454" stroke-width="8" stroke-miterlimit="10" stroke-linecap="round" stroke-linejoin="round"/>
<g opacity="0.8">
<path opacity="0.8" d="M227.491 537.291L202.391 552.591C199.591 554.291 195.891 553.391 194.191 550.591L184.291 534.291C182.591 531.491 183.491 527.791 186.291 526.091L211.391 510.791C214.191 509.091 217.891 509.991 219.591 512.791L229.491 529.091C231.191 531.891 230.291 535.591 227.491 537.291Z" fill="#43597A"/>
<path opacity="0.8" d="M200.491 493.09L175.391 508.39C172.591 510.09 168.891 509.19 167.191 506.39L157.291 490.09C155.591 487.29 156.491 483.59 159.291 481.89L184.391 466.59C187.191 464.89 190.891 465.79 192.591 468.59L202.491 484.89C204.291 487.69 203.391 491.39 200.491 493.09Z" fill="#43597A"/>
</g>
<path d="M227.491 537.291L202.391 552.591C199.591 554.291 195.891 553.391 194.191 550.591L184.291 534.291C182.591 531.491 183.491 527.791 186.291 526.091L211.391 510.791C214.191 509.091 217.891 509.991 219.591 512.791L229.491 529.091C231.191 531.891 230.291 535.591 227.491 537.291Z" stroke="#202454" stroke-width="8" stroke-miterlimit="10" stroke-linecap="round" stroke-linejoin="round"/>
<path d="M200.491 493.09L175.391 508.39C172.591 510.09 168.891 509.19 167.191 506.39L157.291 490.09C155.591 487.29 156.491 483.59 159.291 481.89L184.391 466.59C187.191 464.89 190.891 465.79 192.591 468.59L202.491 484.89C204.291 487.69 203.391 491.39 200.491 493.09Z" stroke="#202454" stroke-width="8" stroke-miterlimit="10" stroke-linecap="round" stroke-linejoin="round"/>
<g opacity="0.8">
<path opacity="0.8" d="M129.491 376.791L104.391 392.091C101.591 393.791 97.8906 392.891 96.1906 390.091L86.2905 373.791C84.5905 370.991 85.4906 367.291 88.2905 365.591L113.391 350.291C116.191 348.591 119.891 349.491 121.591 352.291L131.491 368.591C133.191 371.291 132.291 374.991 129.491 376.791Z" fill="#43597A"/>
<path opacity="0.8" d="M102.491 332.59L77.3906 347.89C74.5906 349.59 70.8906 348.69 69.1906 345.89L59.2905 329.59C57.5905 326.79 58.4906 323.09 61.2905 321.39L86.3906 306.09C89.1906 304.39 92.8906 305.29 94.5906 308.09L104.491 324.39C106.291 327.19 105.391 330.89 102.491 332.59Z" fill="#43597A"/>
</g>
<path d="M129.491 376.791L104.391 392.091C101.591 393.791 97.8906 392.891 96.1906 390.091L86.2905 373.791C84.5905 370.991 85.4906 367.291 88.2905 365.591L113.391 350.291C116.191 348.591 119.891 349.491 121.591 352.291L131.491 368.591C133.191 371.291 132.291 374.991 129.491 376.791Z" stroke="#202454" stroke-width="8" stroke-miterlimit="10" stroke-linecap="round" stroke-linejoin="round"/>
<path d="M102.491 332.59L77.3906 347.89C74.5906 349.59 70.8906 348.69 69.1906 345.89L59.2905 329.59C57.5905 326.79 58.4906 323.09 61.2905 321.39L86.3906 306.09C89.1906 304.39 92.8906 305.29 94.5906 308.09L104.491 324.39C106.291 327.19 105.391 330.89 102.491 332.59Z" stroke="#202454" stroke-width="8" stroke-miterlimit="10" stroke-linecap="round" stroke-linejoin="round"/>
<path opacity="0.8" d="M147.447 460.218C164.539 458.526 177.022 443.298 175.33 426.206C173.637 409.114 158.41 396.631 141.318 398.323C124.226 400.016 111.742 415.243 113.435 432.335C115.127 449.427 130.355 461.911 147.447 460.218Z" fill="#B4C7E7"/>
<path d="M147.447 460.218C164.539 458.526 177.022 443.298 175.33 426.206C173.637 409.114 158.41 396.631 141.318 398.323C124.226 400.016 111.742 415.243 113.435 432.335C115.127 449.427 130.355 461.911 147.447 460.218Z" stroke="#22293F" stroke-width="6" stroke-miterlimit="10" stroke-linecap="round" stroke-linejoin="round"/>
<path d="M147.447 460.218C164.539 458.526 177.022 443.298 175.33 426.206C173.637 409.114 158.41 396.631 141.318 398.323C124.226 400.016 111.742 415.243 113.435 432.335C115.127 449.427 130.355 461.911 147.447 460.218Z" stroke="#202454" stroke-width="8" stroke-miterlimit="10" stroke-linecap="round" stroke-linejoin="round"/>
<path d="M131.09 437.39C126.59 430.09 128.99 420.49 136.29 416.09" stroke="#202454" stroke-width="5" stroke-miterlimit="10" stroke-linecap="round" stroke-linejoin="round"/>
<path d="M562.99 273.391L566.99 279.991" stroke="#707A99" stroke-width="3" stroke-miterlimit="10" stroke-linecap="round" stroke-linejoin="round"/>
<path d="M568.29 274.591L561.69 278.691" stroke="#707A99" stroke-width="3" stroke-miterlimit="10" stroke-linecap="round" stroke-linejoin="round"/>
<path d="M509.99 305.69L513.99 312.39" stroke="#707A99" stroke-width="3" stroke-miterlimit="10" stroke-linecap="round" stroke-linejoin="round"/>
<path d="M515.29 306.99L508.69 311.09" stroke="#707A99" stroke-width="3" stroke-miterlimit="10" stroke-linecap="round" stroke-linejoin="round"/>
<path d="M456.89 338.091L460.99 344.691" stroke="#707A99" stroke-width="3" stroke-miterlimit="10" stroke-linecap="round" stroke-linejoin="round"/>
<path d="M462.29 339.391L455.59 343.391" stroke="#707A99" stroke-width="3" stroke-miterlimit="10" stroke-linecap="round" stroke-linejoin="round"/>
<path d="M403.89 370.491L407.99 377.091" stroke="#707A99" stroke-width="3" stroke-miterlimit="10" stroke-linecap="round" stroke-linejoin="round"/>
<path d="M409.29 371.791L402.59 375.791" stroke="#707A99" stroke-width="3" stroke-miterlimit="10" stroke-linecap="round" stroke-linejoin="round"/>
<path d="M350.89 402.791L354.89 409.491" stroke="#707A99" stroke-width="3" stroke-miterlimit="10" stroke-linecap="round" stroke-linejoin="round"/>
<path d="M356.19 404.09L349.59 408.19" stroke="#707A99" stroke-width="3" stroke-miterlimit="10" stroke-linecap="round" stroke-linejoin="round"/>
<path d="M297.89 435.19L301.89 441.79" stroke="#707A99" stroke-width="3" stroke-miterlimit="10" stroke-linecap="round" stroke-linejoin="round"/>
<path d="M303.19 436.49L296.59 440.49" stroke="#707A99" stroke-width="3" stroke-miterlimit="10" stroke-linecap="round" stroke-linejoin="round"/>
<path d="M530.59 220.291L534.69 226.991" stroke="#707A99" stroke-width="3" stroke-miterlimit="10" stroke-linecap="round" stroke-linejoin="round"/>
<path d="M535.89 221.59L529.29 225.69" stroke="#707A99" stroke-width="3" stroke-miterlimit="10" stroke-linecap="round" stroke-linejoin="round"/>
<path d="M477.59 252.69L481.59 259.29" stroke="#707A99" stroke-width="3" stroke-miterlimit="10" stroke-linecap="round" stroke-linejoin="round"/>
<path d="M482.89 253.99L476.29 257.99" stroke="#707A99" stroke-width="3" stroke-miterlimit="10" stroke-linecap="round" stroke-linejoin="round"/>
<path d="M424.59 285.09L428.59 291.69" stroke="#707A99" stroke-width="3" stroke-miterlimit="10" stroke-linecap="round" stroke-linejoin="round"/>
<path d="M429.89 286.39L423.29 290.39" stroke="#707A99" stroke-width="3" stroke-miterlimit="10" stroke-linecap="round" stroke-linejoin="round"/>
<path d="M371.59 317.391L375.59 324.091" stroke="#707A99" stroke-width="3" stroke-miterlimit="10" stroke-linecap="round" stroke-linejoin="round"/>
<path d="M376.89 318.69L370.29 322.79" stroke="#707A99" stroke-width="3" stroke-miterlimit="10" stroke-linecap="round" stroke-linejoin="round"/>
<path d="M318.49 349.791L322.59 356.391" stroke="#707A99" stroke-width="3" stroke-miterlimit="10" stroke-linecap="round" stroke-linejoin="round"/>
<path d="M323.89 351.09L317.19 355.09" stroke="#707A99" stroke-width="3" stroke-miterlimit="10" stroke-linecap="round" stroke-linejoin="round"/>
<path d="M265.49 382.19L269.59 388.79" stroke="#707A99" stroke-width="3" stroke-miterlimit="10" stroke-linecap="round" stroke-linejoin="round"/>
<path d="M270.79 383.49L264.19 387.49" stroke="#707A99" stroke-width="3" stroke-miterlimit="10" stroke-linecap="round" stroke-linejoin="round"/>
<path d="M498.19 167.291L502.29 173.891" stroke="#707A99" stroke-width="3" stroke-miterlimit="10" stroke-linecap="round" stroke-linejoin="round"/>
<path d="M503.59 168.59L496.99 172.69" stroke="#707A99" stroke-width="3" stroke-miterlimit="10" stroke-linecap="round" stroke-linejoin="round"/>
<path d="M445.19 199.69L449.29 206.29" stroke="#707A99" stroke-width="3" stroke-miterlimit="10" stroke-linecap="round" stroke-linejoin="round"/>
<path d="M450.59 200.99L443.89 204.99" stroke="#707A99" stroke-width="3" stroke-miterlimit="10" stroke-linecap="round" stroke-linejoin="round"/>
<path d="M392.19 232.09L396.19 238.69" stroke="#707A99" stroke-width="3" stroke-miterlimit="10" stroke-linecap="round" stroke-linejoin="round"/>
<path d="M397.49 233.291L390.89 237.391" stroke="#707A99" stroke-width="3" stroke-miterlimit="10" stroke-linecap="round" stroke-linejoin="round"/>
<path d="M339.19 264.391L343.19 271.091" stroke="#707A99" stroke-width="3" stroke-miterlimit="10" stroke-linecap="round" stroke-linejoin="round"/>
<path d="M344.49 265.69L337.89 269.79" stroke="#707A99" stroke-width="3" stroke-miterlimit="10" stroke-linecap="round" stroke-linejoin="round"/>
<path d="M286.19 296.791L290.19 303.391" stroke="#707A99" stroke-width="3" stroke-miterlimit="10" stroke-linecap="round" stroke-linejoin="round"/>
<path d="M291.49 298.09L284.89 302.09" stroke="#707A99" stroke-width="3" stroke-miterlimit="10" stroke-linecap="round" stroke-linejoin="round"/>
<path d="M233.09 329.19L237.19 335.79" stroke="#707A99" stroke-width="3" stroke-miterlimit="10" stroke-linecap="round" stroke-linejoin="round"/>
<path d="M238.49 330.49L231.89 334.49" stroke="#707A99" stroke-width="3" stroke-miterlimit="10" stroke-linecap="round" stroke-linejoin="round"/>
<path d="M465.89 114.291L469.89 120.891" stroke="#707A99" stroke-width="3" stroke-miterlimit="10" stroke-linecap="round" stroke-linejoin="round"/>
<path d="M471.19 115.59L464.59 119.59" stroke="#707A99" stroke-width="3" stroke-miterlimit="10" stroke-linecap="round" stroke-linejoin="round"/>
<path d="M412.89 146.69L416.89 153.29" stroke="#707A99" stroke-width="3" stroke-miterlimit="10" stroke-linecap="round" stroke-linejoin="round"/>
<path d="M418.19 147.99L411.59 151.99" stroke="#707A99" stroke-width="3" stroke-miterlimit="10" stroke-linecap="round" stroke-linejoin="round"/>
<path d="M359.79 178.991L363.89 185.691" stroke="#707A99" stroke-width="3" stroke-miterlimit="10" stroke-linecap="round" stroke-linejoin="round"/>
<path d="M365.19 180.291L358.49 184.391" stroke="#707A99" stroke-width="3" stroke-miterlimit="10" stroke-linecap="round" stroke-linejoin="round"/>
<path d="M306.79 211.391L310.89 217.991" stroke="#707A99" stroke-width="3" stroke-miterlimit="10" stroke-linecap="round" stroke-linejoin="round"/>
<path d="M312.19 212.69L305.49 216.69" stroke="#707A99" stroke-width="3" stroke-miterlimit="10" stroke-linecap="round" stroke-linejoin="round"/>
<path d="M253.79 243.791L257.79 250.391" stroke="#707A99" stroke-width="3" stroke-miterlimit="10" stroke-linecap="round" stroke-linejoin="round"/>
<path d="M259.09 245.09L252.49 249.09" stroke="#707A99" stroke-width="3" stroke-miterlimit="10" stroke-linecap="round" stroke-linejoin="round"/>
<path d="M200.79 276.09L204.79 282.79" stroke="#707A99" stroke-width="3" stroke-miterlimit="10" stroke-linecap="round" stroke-linejoin="round"/>
<path d="M206.09 277.39L199.49 281.49" stroke="#707A99" stroke-width="3" stroke-miterlimit="10" stroke-linecap="round" stroke-linejoin="round"/>
<g opacity="0.4">
<path opacity="0.4" d="M261.092 243.135L247.057 276.504L484.052 376.182L498.087 342.812L261.092 243.135Z" fill="#232323" stroke="#232323" stroke-width="8.0001" stroke-miterlimit="10.0001" stroke-linecap="round" stroke-linejoin="round"/>
<path opacity="0.4" d="M496.69 346.29L485.59 372.79L496.59 376.49C498.49 377.09 500.49 376.19 501.29 374.39L508.79 356.49C509.59 354.69 508.79 352.59 506.99 351.69L496.69 346.29Z" fill="#232323" stroke="#232323" stroke-width="8" stroke-miterlimit="10" stroke-linecap="round" stroke-linejoin="round"/>
<path opacity="0.4" d="M444.84 317.665L428.867 355.643L470.256 373.051L486.229 335.073L444.84 317.665Z" fill="#232323" stroke="#232323" stroke-width="8.0001" stroke-miterlimit="10.0001" stroke-linecap="round" stroke-linejoin="round"/>
<path opacity="0.4" d="M369.59 290.99L368.99 292.29C367.79 295.09 364.59 296.39 361.79 295.19L294.29 266.79C291.49 265.59 290.19 262.39 291.39 259.59L291.99 258.29C293.19 255.49 296.39 254.19 299.19 255.39L366.69 283.79C369.49 284.99 370.79 288.19 369.59 290.99Z" fill="#232323" stroke="#232323" stroke-width="8" stroke-miterlimit="10" stroke-linecap="round" stroke-linejoin="round"/>
<path opacity="0.4" d="M219.49 239.79L215.59 249.09L247.09 276.49L261.09 243.09L219.49 239.79Z" fill="#232323" stroke="#232323" stroke-width="8" stroke-miterlimit="10" stroke-linecap="round" stroke-linejoin="round"/>
<path opacity="0.4" d="M216.29 247.49L208.39 240.59L218.79 241.49L216.29 247.49Z" fill="#232323" stroke="#232323" stroke-width="8" stroke-miterlimit="10" stroke-linecap="round" stroke-linejoin="round"/>
<path opacity="0.4" d="M200.89 237.39L208.19 240.49" stroke="#232323" stroke-width="8" stroke-miterlimit="10" stroke-linecap="round" stroke-linejoin="round"/>
</g>
<path d="M254.645 228.707L240.61 262.076L477.605 361.754L491.64 328.385L254.645 228.707Z" fill="#43597A"/>
<path d="M244.975 251.712L240.594 262.128L477.589 361.806L481.97 351.389L244.975 251.712Z" fill="#394E6B"/>
<path opacity="0.5" d="M254.661 228.655L250.28 239.071L487.275 338.749L491.656 328.333L254.661 228.655Z" fill="#6A87AD"/>
<path d="M254.645 228.707L240.61 262.076L477.605 361.754L491.64 328.385L254.645 228.707Z" stroke="#202454" stroke-width="8.0001" stroke-miterlimit="10.0001" stroke-linecap="round" stroke-linejoin="round"/>
<path d="M490.191 331.89L479.091 358.39L490.091 362.09C491.991 362.69 493.991 361.79 494.791 359.99L502.291 342.09C503.091 340.29 502.291 338.19 500.491 337.29L490.191 331.89Z" fill="#6A87AD"/>
<path d="M490.191 331.89L479.091 358.39L490.091 362.09C491.991 362.69 493.991 361.79 494.791 359.99L502.291 342.09C503.091 340.29 502.291 338.19 500.491 337.29L490.191 331.89Z" stroke="#202454" stroke-width="8" stroke-miterlimit="10" stroke-linecap="round" stroke-linejoin="round"/>
<path d="M438.285 303.258L422.312 341.236L463.7 358.644L479.674 320.665L438.285 303.258Z" fill="#334665"/>
<path d="M426.987 330.086L422.296 341.24L463.684 358.647L468.376 347.494L426.987 330.086Z" fill="#2F3F56"/>
<path opacity="0.4" d="M438.472 302.837L433.625 314.36L475.014 331.768L479.861 320.245L438.472 302.837Z" fill="#43597A"/>
<path d="M438.285 303.258L422.312 341.236L463.7 358.644L479.674 320.665L438.285 303.258Z" stroke="#202454" stroke-width="8.0001" stroke-miterlimit="10.0001" stroke-linecap="round" stroke-linejoin="round"/>
<path d="M363.091 276.59L362.491 277.89C361.291 280.69 358.091 281.99 355.291 280.79L287.791 252.39C284.991 251.19 283.691 247.99 284.891 245.19L285.491 243.89C286.691 241.09 289.891 239.79 292.691 240.99L360.191 269.39C362.891 270.59 364.291 273.79 363.091 276.59Z" fill="#81A0C1"/>
<path d="M363.091 276.59L362.491 277.89C361.291 280.69 358.091 281.99 355.291 280.79L287.791 252.39C284.991 251.19 283.691 247.99 284.891 245.19L285.491 243.89C286.691 241.09 289.891 239.79 292.691 240.99L360.191 269.39C362.891 270.59 364.291 273.79 363.091 276.59Z" stroke="#202454" stroke-width="8" stroke-miterlimit="10" stroke-linecap="round" stroke-linejoin="round"/>
<path d="M212.991 225.39L209.091 234.69L240.491 262.09L254.591 228.69L212.991 225.39Z" fill="#334665"/>
<path opacity="0.4" d="M209.091 234.69L240.491 262.09L244.891 251.69L210.991 229.99L209.091 234.69Z" fill="#43597A"/>
<path opacity="0.4" d="M212.99 225.39L254.59 228.69L250.19 239.09L210.99 229.99L212.99 225.39Z" fill="#43597A"/>
<path d="M212.991 225.39L209.091 234.69L240.491 262.09L254.591 228.69L212.991 225.39Z" stroke="#202454" stroke-width="8" stroke-miterlimit="10" stroke-linecap="round" stroke-linejoin="round"/>
<path d="M209.791 232.99L201.891 226.19L212.291 226.99L209.791 232.99Z" stroke="#202454" stroke-width="8" stroke-miterlimit="10" stroke-linecap="round" stroke-linejoin="round"/>
<path d="M194.291 222.99L201.591 226.09" stroke="#202454" stroke-width="8" stroke-miterlimit="10" stroke-linecap="round" stroke-linejoin="round"/>
</svg>
