<svg width="6918" height="6250" viewBox="0 0 6918 6250" fill="none" xmlns="http://www.w3.org/2000/svg">
<path d="M3429.31 5981.75H3815.57C3827.49 5981.75 3838.91 5986.46 3847.34 5994.85C3855.76 6003.24 3860.49 6014.62 3860.49 6026.49V6235.2H3384.4V6026.48C3384.4 6014.62 3389.13 6003.24 3397.55 5994.85C3405.97 5986.46 3417.4 5981.75 3429.31 5981.75Z" fill="#1E223B"/>
<path d="M3429.31 5981.75H3815.57C3827.49 5981.75 3838.91 5986.46 3847.34 5994.85C3855.76 6003.24 3860.49 6014.62 3860.49 6026.49V6235.2H3384.4V6026.48C3384.4 6014.62 3389.13 6003.24 3397.55 5994.85C3405.97 5986.46 3417.4 5981.75 3429.31 5981.75V5981.75Z" stroke="#1E223B" stroke-width="2" stroke-linecap="round" stroke-linejoin="round"/>
<g opacity="0.39">
<path opacity="0.39" d="M369.849 2509.32C459.435 2509.32 532.058 2443.85 532.058 2363.09C532.058 2282.33 459.435 2216.86 369.849 2216.86C280.264 2216.86 207.641 2282.33 207.641 2363.09C207.641 2443.85 280.264 2509.32 369.849 2509.32Z" fill="white"/>
<path opacity="0.39" d="M369.85 2425.76C408.245 2425.76 439.371 2397.7 439.371 2363.09C439.371 2328.48 408.245 2300.42 369.85 2300.42C331.455 2300.42 300.33 2328.48 300.33 2363.09C300.33 2397.7 331.455 2425.76 369.85 2425.76Z" fill="white"/>
<path opacity="0.39" d="M622.416 2153.31L522.073 2205.54L522.225 2205.77C514.897 2200 507.172 2194.65 499.096 2189.76L499.367 2189.83L529.353 2088.93C531.737 2080.9 530.488 2072.35 525.879 2065.15C521.27 2057.95 513.68 2052.7 504.777 2050.55L426.433 2031.62C417.53 2029.48 408.044 2030.6 400.062 2034.76C392.08 2038.91 386.255 2045.75 383.868 2053.78L353.882 2154.68H354.049C344.432 2155.27 334.866 2156.41 325.407 2158.08L325.534 2158L267.606 2067.55C265.325 2063.99 262.287 2060.86 258.666 2058.36C255.045 2055.85 250.911 2054.01 246.502 2052.95C242.093 2051.88 237.494 2051.61 232.968 2052.14C228.441 2052.68 224.077 2054.02 220.124 2056.08L149.887 2092.66C145.933 2094.71 142.467 2097.45 139.687 2100.71C136.907 2103.98 134.868 2107.7 133.686 2111.68C132.504 2115.65 132.202 2119.8 132.798 2123.88C133.393 2127.96 134.875 2131.89 137.158 2135.45L195.086 2225.91L195.213 2225.85C188.875 2232.41 182.997 2239.32 177.614 2246.54L177.662 2246.39L65.7438 2219.35C56.8392 2217.2 47.3525 2218.33 39.3702 2222.49C31.3878 2226.64 25.5636 2233.49 23.1786 2241.51L2.18256 2312.14C-0.201317 2320.16 1.04936 2328.72 5.65959 2335.91C10.2698 2343.11 17.8621 2348.36 26.7669 2350.52L138.677 2377.55L138.749 2377.3C139.408 2386.05 140.681 2394.76 142.56 2403.36L142.417 2403.13L42.0743 2455.36C34.0913 2459.51 28.2658 2466.36 25.8787 2474.38C23.4916 2482.41 24.7383 2490.96 29.3447 2498.16L69.9207 2561.48C72.2017 2565.05 75.2396 2568.17 78.8606 2570.68C82.4816 2573.18 86.615 2575.02 91.0244 2576.09C95.4338 2577.15 100.033 2577.43 104.559 2576.89C109.085 2576.35 113.449 2575.02 117.403 2572.96L217.737 2520.73L217.514 2520.39C224.932 2526.23 232.755 2531.63 240.937 2536.56L240.452 2536.45L210.465 2637.34C208.079 2645.37 209.327 2653.92 213.936 2661.12C218.545 2668.31 226.137 2673.57 235.041 2675.72L313.385 2694.64C322.288 2696.79 331.774 2695.66 339.756 2691.51C347.739 2687.35 353.563 2680.51 355.95 2672.48L385.937 2571.59L385.348 2571.44C395.25 2570.86 405.1 2569.69 414.833 2567.95L414.316 2568.22L472.252 2658.68C474.533 2662.24 477.571 2665.37 481.192 2667.87C484.813 2670.38 488.947 2672.22 493.356 2673.28C497.765 2674.35 502.365 2674.62 506.891 2674.08C511.417 2673.55 515.781 2672.21 519.734 2670.15L589.971 2633.57C597.953 2629.42 603.779 2622.58 606.166 2614.55C608.553 2606.52 607.306 2597.97 602.7 2590.77L544.772 2500.31L544.255 2500.58C550.792 2493.85 556.838 2486.74 562.355 2479.31L562.196 2479.84L674.106 2506.88C678.516 2507.94 683.115 2508.21 687.641 2507.68C692.167 2507.14 696.532 2505.8 700.485 2503.74C704.438 2501.69 707.903 2498.95 710.682 2495.68C713.461 2492.42 715.498 2488.69 716.679 2484.71L737.668 2414.09C738.85 2410.12 739.153 2405.97 738.558 2401.89C737.962 2397.81 736.482 2393.88 734.199 2390.31C731.917 2386.75 728.878 2383.62 725.256 2381.12C721.635 2378.61 717.501 2376.78 713.091 2375.71L601.109 2348.72L600.974 2349.15C600.325 2340.3 599.047 2331.49 597.147 2322.78L597.37 2323.13L697.712 2270.91C705.695 2266.75 711.521 2259.91 713.908 2251.88C716.295 2243.85 715.048 2235.3 710.442 2228.1L669.866 2164.78C665.257 2157.59 657.672 2152.34 648.775 2150.19C639.878 2148.04 630.397 2149.16 622.416 2153.31Z" fill="white"/>
</g>
<g style="mix-blend-mode:multiply" opacity="0.11">
<path d="M4215.56 3532.31H1971.94C1892.85 3532.31 1828.73 3590.11 1828.73 3661.41V5110.27C1828.73 5181.57 1892.85 5239.37 1971.94 5239.37H4215.56C4294.65 5239.37 4358.77 5181.57 4358.77 5110.27V3661.41C4358.77 3590.11 4294.65 3532.31 4215.56 3532.31Z" fill="#161616"/>
<path d="M4215.56 3532.31H1971.94C1892.85 3532.31 1828.73 3590.11 1828.73 3661.41V5110.27C1828.73 5181.57 1892.85 5239.37 1971.94 5239.37H4215.56C4294.65 5239.37 4358.77 5181.57 4358.77 5110.27V3661.41C4358.77 3590.11 4294.65 3532.31 4215.56 3532.31Z" stroke="#1E223B" stroke-miterlimit="10"/>
</g>
<g style="mix-blend-mode:multiply" opacity="0.11">
<path d="M4303.08 3431.89H1884.43C1853.67 3431.89 1828.73 3454.37 1828.73 3482.1C1828.73 3509.83 1853.67 3532.31 1884.43 3532.31H4303.08C4333.84 3532.31 4358.77 3509.83 4358.77 3482.1C4358.77 3454.37 4333.84 3431.89 4303.08 3431.89Z" fill="#161616"/>
<path d="M4303.08 3431.89H1884.43C1853.67 3431.89 1828.73 3454.37 1828.73 3482.1C1828.73 3509.83 1853.67 3532.31 1884.43 3532.31H4303.08C4333.84 3532.31 4358.77 3509.83 4358.77 3482.1C4358.77 3454.37 4333.84 3431.89 4303.08 3431.89Z" stroke="#1E223B" stroke-miterlimit="10"/>
</g>
<path d="M4136 3474.93H1892.38C1813.29 3474.93 1749.17 3532.73 1749.17 3604.03V5052.89C1749.17 5124.19 1813.29 5181.99 1892.38 5181.99H4136C4215.09 5181.99 4279.21 5124.19 4279.21 5052.89V3604.03C4279.21 3532.73 4215.09 3474.93 4136 3474.93Z" fill="#2F4584"/>
<path d="M4136 3474.93H1892.38C1813.29 3474.93 1749.17 3532.73 1749.17 3604.03V5009.85C1749.17 5081.15 1813.29 5138.96 1892.38 5138.96H4136C4215.09 5138.96 4279.21 5081.15 4279.21 5009.85V3604.03C4279.21 3532.73 4215.09 3474.93 4136 3474.93Z" fill="white"/>
<g style="mix-blend-mode:multiply" opacity="0.11">
<path d="M3392.11 5037.31H3380.17C3367.51 5037.31 3355.37 5041.85 3346.42 5049.92C3337.46 5057.99 3332.44 5068.94 3332.44 5080.35V5131.79C3332.44 5137.5 3329.92 5142.97 3325.44 5147.01C3320.97 5151.04 3314.9 5153.31 3308.57 5153.31C3302.24 5153.31 3296.17 5151.04 3291.69 5147.01C3287.21 5142.97 3284.7 5137.5 3284.7 5131.79V5080.35C3284.7 5068.94 3279.67 5057.99 3270.72 5049.92C3261.76 5041.85 3249.62 5037.31 3236.96 5037.31H3225.03C3212.37 5037.31 3200.23 5041.85 3191.27 5049.92C3182.32 5057.99 3177.29 5068.94 3177.29 5080.35V5131.79C3177.29 5137.5 3174.78 5142.97 3170.3 5147.01C3165.82 5151.04 3159.75 5153.31 3153.42 5153.31C3147.09 5153.31 3141.02 5151.04 3136.55 5147.01C3132.07 5142.97 3129.55 5137.5 3129.55 5131.79V5080.35C3129.55 5068.94 3124.53 5057.99 3115.57 5049.92C3106.62 5041.85 3094.48 5037.31 3081.82 5037.31H3069.88C3057.22 5037.31 3045.08 5041.85 3036.13 5049.92C3027.18 5057.99 3022.15 5068.94 3022.15 5080.35V5131.79C3022.15 5137.5 3019.63 5142.97 3015.16 5147.01C3010.68 5151.04 3004.61 5153.31 2998.28 5153.31C2991.95 5153.31 2985.88 5151.04 2981.4 5147.01C2976.93 5142.97 2974.41 5137.5 2974.41 5131.79V4809.03C2974.41 4797.61 2969.38 4786.67 2960.43 4778.6C2951.48 4770.53 2939.34 4765.99 2926.67 4765.99H2914.74C2902.08 4765.99 2889.94 4770.53 2880.99 4778.6C2872.03 4786.67 2867 4797.61 2867 4809.03V5371.59L2775.45 5228.62C2772.31 5223.72 2768.14 5219.42 2763.17 5215.98C2758.19 5212.53 2752.51 5210.01 2746.45 5208.54C2740.39 5207.07 2734.07 5206.7 2727.85 5207.44C2721.63 5208.18 2715.64 5210.01 2710.21 5212.84L2699.86 5218.22C2694.43 5221.04 2689.66 5224.81 2685.84 5229.29C2682.02 5233.77 2679.21 5238.89 2677.59 5244.36C2675.96 5249.82 2675.55 5255.52 2676.37 5261.12C2677.18 5266.73 2679.22 5272.14 2682.36 5277.03L2873.66 5575.74C2880.68 5591.8 2892.9 5605.59 2908.73 5615.31C2924.55 5625.03 2943.26 5630.23 2962.41 5630.25H2978.33V5807.07H2946.91V5985.42H2931.53C2917.84 5985.42 2904.72 5990.33 2895.04 5999.05C2885.36 6007.77 2879.92 6019.61 2879.92 6031.94V6249H3426.96V6031.94C3426.96 6019.61 3421.53 6007.77 3411.85 5999.05C3402.17 5990.33 3389.04 5985.42 3375.36 5985.42H3359.9V5807.07H3328.46V5630.25H3344.37C3369.69 5630.25 3393.97 5621.18 3411.88 5605.04C3429.78 5588.9 3439.84 5567 3439.84 5544.18V5080.35C3439.84 5068.94 3434.81 5057.99 3425.86 5049.92C3416.91 5041.85 3404.77 5037.31 3392.11 5037.31Z" fill="#161616"/>
<path d="M3392.11 5037.31H3380.17C3367.51 5037.31 3355.37 5041.85 3346.42 5049.92C3337.46 5057.99 3332.44 5068.94 3332.44 5080.35V5131.79C3332.44 5137.5 3329.92 5142.97 3325.44 5147.01C3320.97 5151.04 3314.9 5153.31 3308.57 5153.31C3302.24 5153.31 3296.17 5151.04 3291.69 5147.01C3287.21 5142.97 3284.7 5137.5 3284.7 5131.79V5080.35C3284.7 5068.94 3279.67 5057.99 3270.72 5049.92C3261.76 5041.85 3249.62 5037.31 3236.96 5037.31H3225.03C3212.37 5037.31 3200.23 5041.85 3191.27 5049.92C3182.32 5057.99 3177.29 5068.94 3177.29 5080.35V5131.79C3177.29 5137.5 3174.78 5142.97 3170.3 5147.01C3165.82 5151.04 3159.75 5153.31 3153.42 5153.31C3147.09 5153.31 3141.02 5151.04 3136.55 5147.01C3132.07 5142.97 3129.55 5137.5 3129.55 5131.79V5080.35C3129.55 5068.94 3124.53 5057.99 3115.57 5049.92C3106.62 5041.85 3094.48 5037.31 3081.82 5037.31H3069.88C3057.22 5037.31 3045.08 5041.85 3036.13 5049.92C3027.18 5057.99 3022.15 5068.94 3022.15 5080.35V5131.79C3022.15 5137.5 3019.63 5142.97 3015.16 5147.01C3010.68 5151.04 3004.61 5153.31 2998.28 5153.31C2991.95 5153.31 2985.88 5151.04 2981.4 5147.01C2976.93 5142.97 2974.41 5137.5 2974.41 5131.79V4809.03C2974.41 4797.61 2969.38 4786.67 2960.43 4778.6C2951.48 4770.53 2939.34 4765.99 2926.67 4765.99H2914.74C2902.08 4765.99 2889.94 4770.53 2880.99 4778.6C2872.03 4786.67 2867 4797.61 2867 4809.03V5371.59L2775.45 5228.62C2772.31 5223.72 2768.14 5219.42 2763.17 5215.98C2758.19 5212.53 2752.51 5210.01 2746.45 5208.54C2740.39 5207.07 2734.07 5206.7 2727.85 5207.44C2721.63 5208.18 2715.64 5210.01 2710.21 5212.84L2699.86 5218.22C2694.43 5221.04 2689.66 5224.81 2685.84 5229.29C2682.02 5233.77 2679.21 5238.89 2677.59 5244.36C2675.96 5249.82 2675.55 5255.52 2676.37 5261.12C2677.18 5266.73 2679.22 5272.14 2682.36 5277.03L2873.66 5575.74C2880.68 5591.8 2892.9 5605.59 2908.73 5615.31C2924.55 5625.03 2943.26 5630.23 2962.41 5630.25H2978.33V5807.07H2946.91V5985.42H2931.53C2917.84 5985.42 2904.72 5990.33 2895.04 5999.05C2885.36 6007.77 2879.92 6019.61 2879.92 6031.94V6249H3426.96V6031.94C3426.96 6019.61 3421.53 6007.77 3411.85 5999.05C3402.17 5990.33 3389.04 5985.42 3375.36 5985.42H3359.9V5807.07H3328.46V5630.25H3344.37C3369.69 5630.25 3393.97 5621.18 3411.88 5605.04C3429.78 5588.9 3439.84 5567 3439.84 5544.18V5080.35C3439.84 5068.94 3434.81 5057.99 3425.86 5049.92C3416.91 5041.85 3404.77 5037.31 3392.11 5037.31Z" stroke="#1E223B" stroke-miterlimit="10"/>
</g>
<g style="mix-blend-mode:multiply" opacity="0.11">
<path d="M2477.67 5009.85C2501.51 5009.84 2524.48 5001.79 2542.07 4987.28C2559.66 4972.78 2570.59 4952.86 2572.72 4931.45L2748.71 4656.64C2751.85 4651.74 2753.89 4646.33 2754.71 4640.73C2755.52 4635.12 2755.11 4629.42 2753.48 4623.96C2751.86 4618.5 2749.05 4613.38 2745.23 4608.89C2741.41 4604.41 2736.65 4600.65 2731.21 4597.82L2720.87 4592.44C2715.43 4589.61 2709.44 4587.78 2703.22 4587.04C2697 4586.3 2690.68 4586.68 2684.62 4588.14C2678.56 4589.61 2672.88 4592.14 2667.91 4595.58C2662.93 4599.03 2658.76 4603.32 2655.63 4608.22L2573.08 4737.12V4188.62C2573.08 4177.21 2568.05 4166.26 2559.1 4158.19C2550.15 4150.12 2538.01 4145.59 2525.35 4145.59H2513.41C2500.75 4145.59 2488.61 4150.12 2479.66 4158.19C2470.7 4166.26 2465.68 4177.21 2465.68 4188.62V4511.39C2465.68 4517.09 2463.16 4522.57 2458.68 4526.6C2454.21 4530.64 2448.14 4532.9 2441.81 4532.9C2435.48 4532.9 2429.41 4530.64 2424.93 4526.6C2420.45 4522.57 2417.94 4517.09 2417.94 4511.39V4126.26C2417.94 4114.85 2412.91 4103.9 2403.96 4095.83C2395 4087.76 2382.86 4083.23 2370.2 4083.23H2358.27C2345.61 4083.23 2333.47 4087.76 2324.51 4095.83C2315.56 4103.9 2310.53 4114.85 2310.53 4126.26V4511.39C2310.53 4517.1 2308.02 4522.57 2303.54 4526.61C2299.06 4530.64 2292.99 4532.91 2286.66 4532.91C2280.33 4532.91 2274.26 4530.64 2269.79 4526.61C2265.31 4522.57 2262.8 4517.1 2262.8 4511.39V4188.63C2262.8 4177.22 2257.77 4166.27 2248.81 4158.2C2239.86 4150.13 2227.72 4145.59 2215.06 4145.59H2203.12C2190.46 4145.59 2178.32 4150.13 2169.37 4158.2C2160.42 4166.27 2155.39 4177.22 2155.39 4188.63V4511.39C2155.39 4517.1 2152.87 4522.57 2148.4 4526.61C2143.92 4530.64 2137.85 4532.91 2131.52 4532.91C2125.19 4532.91 2119.12 4530.64 2114.64 4526.61C2110.17 4522.57 2107.65 4517.1 2107.65 4511.39V4290.84C2107.65 4279.42 2102.62 4268.48 2093.67 4260.41C2084.72 4252.34 2072.58 4247.8 2059.91 4247.8H2047.98C2035.32 4247.8 2023.18 4252.34 2014.23 4260.41C2005.27 4268.48 2000.24 4279.42 2000.24 4290.84V4923.78C2000.24 4946.61 2010.3 4968.5 2028.21 4984.64C2046.11 5000.78 2070.4 5009.85 2095.72 5009.85H2116.24V5186.67H2080.21V5365.02H2064.75C2051.06 5365.02 2037.94 5369.92 2028.26 5378.65C2018.58 5387.37 2013.14 5399.21 2013.14 5411.55V6249H2560.19V5411.55C2560.19 5399.21 2554.75 5387.37 2545.07 5378.65C2535.39 5369.92 2522.26 5365.02 2508.57 5365.02H2493.12V5186.67H2466.31V5009.85H2477.67Z" fill="#161616"/>
<path d="M2477.67 5009.85C2501.51 5009.84 2524.48 5001.79 2542.07 4987.28C2559.66 4972.78 2570.59 4952.86 2572.72 4931.45L2748.71 4656.64C2751.85 4651.74 2753.89 4646.33 2754.71 4640.73C2755.52 4635.12 2755.11 4629.42 2753.48 4623.96C2751.86 4618.5 2749.05 4613.38 2745.23 4608.89C2741.41 4604.41 2736.65 4600.65 2731.21 4597.82L2720.87 4592.44C2715.43 4589.61 2709.44 4587.78 2703.22 4587.04C2697 4586.3 2690.68 4586.68 2684.62 4588.14C2678.56 4589.61 2672.88 4592.14 2667.91 4595.58C2662.93 4599.03 2658.76 4603.32 2655.63 4608.22L2573.08 4737.12V4188.62C2573.08 4177.21 2568.05 4166.26 2559.1 4158.19C2550.15 4150.12 2538.01 4145.59 2525.35 4145.59H2513.41C2500.75 4145.59 2488.61 4150.12 2479.66 4158.19C2470.7 4166.26 2465.68 4177.21 2465.68 4188.62V4511.39C2465.68 4517.09 2463.16 4522.57 2458.68 4526.6C2454.21 4530.64 2448.14 4532.9 2441.81 4532.9C2435.48 4532.9 2429.41 4530.64 2424.93 4526.6C2420.45 4522.57 2417.94 4517.09 2417.94 4511.39V4126.26C2417.94 4114.85 2412.91 4103.9 2403.96 4095.83C2395 4087.76 2382.86 4083.23 2370.2 4083.23H2358.27C2345.61 4083.23 2333.47 4087.76 2324.51 4095.83C2315.56 4103.9 2310.53 4114.85 2310.53 4126.26V4511.39C2310.53 4517.1 2308.02 4522.57 2303.54 4526.61C2299.06 4530.64 2292.99 4532.91 2286.66 4532.91C2280.33 4532.91 2274.26 4530.64 2269.79 4526.61C2265.31 4522.57 2262.8 4517.1 2262.8 4511.39V4188.63C2262.8 4177.22 2257.77 4166.27 2248.81 4158.2C2239.86 4150.13 2227.72 4145.59 2215.06 4145.59H2203.12C2190.46 4145.59 2178.32 4150.13 2169.37 4158.2C2160.42 4166.27 2155.39 4177.22 2155.39 4188.63V4511.39C2155.39 4517.1 2152.87 4522.57 2148.4 4526.61C2143.92 4530.64 2137.85 4532.91 2131.52 4532.91C2125.19 4532.91 2119.12 4530.64 2114.64 4526.61C2110.17 4522.57 2107.65 4517.1 2107.65 4511.39V4290.84C2107.65 4279.42 2102.62 4268.48 2093.67 4260.41C2084.72 4252.34 2072.58 4247.8 2059.91 4247.8H2047.98C2035.32 4247.8 2023.18 4252.34 2014.23 4260.41C2005.27 4268.48 2000.24 4279.42 2000.24 4290.84V4923.78C2000.24 4946.61 2010.3 4968.5 2028.21 4984.64C2046.11 5000.78 2070.4 5009.85 2095.72 5009.85H2116.24V5186.67H2080.21V5365.02H2064.75C2051.06 5365.02 2037.94 5369.92 2028.26 5378.65C2018.58 5387.37 2013.14 5399.21 2013.14 5411.55V6249H2560.19V5411.55C2560.19 5399.21 2554.75 5387.37 2545.07 5378.65C2535.39 5369.92 2522.26 5365.02 2508.57 5365.02H2493.12V5186.67H2466.31V5009.85H2477.67Z" stroke="#1E223B" stroke-miterlimit="10"/>
</g>
<path opacity="0.15" d="M4132.02 3600.45H1896.36C1878.78 3600.45 1864.54 3613.29 1864.54 3629.14V4439.63C1864.54 4455.48 1878.78 4468.32 1896.36 4468.32H4132.02C4149.6 4468.32 4163.85 4455.48 4163.85 4439.63V3629.14C4163.85 3613.29 4149.6 3600.45 4132.02 3600.45Z" fill="#1E223B" stroke="#1E223B" stroke-width="2" stroke-miterlimit="11"/>
<path d="M4136 3474.93H1892.38C1813.29 3474.93 1749.17 3532.73 1749.17 3604.03V5009.85C1749.17 5081.15 1813.29 5138.96 1892.38 5138.96H4136C4215.09 5138.96 4279.21 5081.15 4279.21 5009.85V3604.03C4279.21 3532.73 4215.09 3474.93 4136 3474.93Z" stroke="#1E223B" stroke-width="2" stroke-linecap="round" stroke-linejoin="round"/>
<path d="M4136 3474.93H1892.38C1813.29 3474.93 1749.17 3532.73 1749.17 3604.03V5052.89C1749.17 5124.19 1813.29 5181.99 1892.38 5181.99H4136C4215.09 5181.99 4279.21 5124.19 4279.21 5052.89V3604.03C4279.21 3532.73 4215.09 3474.93 4136 3474.93Z" stroke="#1E223B" stroke-width="2" stroke-linecap="round" stroke-linejoin="round"/>
<path d="M4136 1810.9H1892.38C1813.29 1810.9 1749.17 1868.7 1749.17 1940V3345.82C1749.17 3417.12 1813.29 3474.93 1892.38 3474.93H4136C4215.09 3474.93 4279.21 3417.12 4279.21 3345.82V1940C4279.21 1868.7 4215.09 1810.9 4136 1810.9Z" fill="#2F4584"/>
<path d="M4136 1810.9H1892.38C1813.29 1810.9 1749.17 1868.7 1749.17 1940V3345.82C1749.17 3417.12 1813.29 3474.93 1892.38 3474.93H4136C4215.09 3474.93 4279.21 3417.12 4279.21 3345.82V1940C4279.21 1868.7 4215.09 1810.9 4136 1810.9Z" stroke="#1E223B" stroke-width="2" stroke-linecap="round" stroke-linejoin="round"/>
<path d="M4231.48 3345.82V1940C4231.48 1892.47 4188.74 1853.93 4136.01 1853.93L1892.39 1853.93C1839.66 1853.93 1796.92 1892.47 1796.92 1940V3345.82C1796.92 3393.36 1839.66 3431.89 1892.39 3431.89H4136.01C4188.74 3431.89 4231.48 3393.36 4231.48 3345.82Z" fill="white"/>
<path d="M4040.54 3259.75V2026.07H1987.86V3259.75H4040.54Z" fill="#B8C1EC" stroke="#1E223B" stroke-miterlimit="10"/>
<path d="M4231.48 3345.82V1940C4231.48 1892.47 4188.74 1853.93 4136.01 1853.93L1892.39 1853.93C1839.66 1853.93 1796.92 1892.47 1796.92 1940V3345.82C1796.92 3393.36 1839.66 3431.89 1892.39 3431.89H4136.01C4188.74 3431.89 4231.48 3393.36 4231.48 3345.82Z" stroke="#1E223B" stroke-width="2" stroke-linecap="round" stroke-linejoin="round"/>
<path d="M4040.54 3259.75V2026.07H1987.86V3259.75H4040.54Z" stroke="#1E223B" stroke-width="2" stroke-linecap="round" stroke-linejoin="round"/>
<g opacity="0.1">
<path opacity="0.1" d="M3322.49 4536.46H2705.89C2687.22 4536.46 2672.08 4550.11 2672.08 4566.95V4936.33C2672.08 4953.17 2687.22 4966.82 2705.89 4966.82H3322.49C3341.16 4966.82 3356.3 4953.17 3356.3 4936.33V4566.95C3356.3 4550.11 3341.16 4536.46 3322.49 4536.46Z" fill="#1E223B"/>
</g>
<path d="M3322.49 4536.46H2705.89C2687.22 4536.46 2672.08 4550.11 2672.08 4566.95V4936.33C2672.08 4953.17 2687.22 4966.82 2705.89 4966.82H3322.49C3341.16 4966.82 3356.3 4953.17 3356.3 4936.33V4566.95C3356.3 4550.11 3341.16 4536.46 3322.49 4536.46Z" stroke="#1E223B" stroke-width="2" stroke-linecap="round" stroke-linejoin="round"/>
<path d="M3320.5 5124.61H2715.84V5181.99H3320.5V5124.61Z" fill="#263C72"/>
<path d="M3320.5 5124.61H2715.84V5181.99H3320.5V5124.61Z" stroke="#1E223B" stroke-width="2" stroke-linecap="round" stroke-linejoin="round"/>
<g style="mix-blend-mode:multiply" opacity="0.11">
<path d="M3817.76 1638.76H2322.01C2295.65 1638.76 2274.27 1658.02 2274.27 1681.79V3202.37C2274.27 3226.14 2295.65 3245.4 2322.01 3245.4H3817.76C3844.12 3245.4 3865.49 3226.14 3865.49 3202.37V1681.79C3865.49 1658.02 3844.12 1638.76 3817.76 1638.76Z" fill="#161616"/>
<path d="M3817.76 1638.76H2322.01C2295.65 1638.76 2274.27 1658.02 2274.27 1681.79V3202.37C2274.27 3226.14 2295.65 3245.4 2322.01 3245.4H3817.76C3844.12 3245.4 3865.49 3226.14 3865.49 3202.37V1681.79C3865.49 1658.02 3844.12 1638.76 3817.76 1638.76Z" stroke="#1E223B" stroke-miterlimit="10"/>
</g>
<path d="M3774 1610.07H2278.25C2251.89 1610.07 2230.52 1629.33 2230.52 1653.1V3173.68C2230.52 3197.45 2251.89 3216.72 2278.25 3216.72H3774C3800.36 3216.72 3821.73 3197.45 3821.73 3173.68V1653.1C3821.73 1629.33 3800.36 1610.07 3774 1610.07Z" fill="white"/>
<path d="M2230.52 2972.85H3821.73V3173.68C3821.73 3185.09 3816.71 3196.04 3807.75 3204.11C3798.8 3212.18 3786.66 3216.71 3774 3216.71H2278.25C2265.59 3216.71 2253.45 3212.18 2244.5 3204.11C2235.55 3196.04 2230.52 3185.09 2230.52 3173.68V2972.85Z" fill="#EFEFEF"/>
<path d="M3774 1610.07H2278.25C2251.89 1610.07 2230.52 1629.33 2230.52 1653.1V3173.68C2230.52 3197.45 2251.89 3216.72 2278.25 3216.72H3774C3800.36 3216.72 3821.73 3197.45 3821.73 3173.68V1653.1C3821.73 1629.33 3800.36 1610.07 3774 1610.07Z" stroke="#1E223B" stroke-width="2" stroke-linecap="round" stroke-linejoin="round"/>
<path d="M2273.69 1610.07H3778.56C3784.23 1610.07 3789.84 1611.07 3795.08 1613.03C3800.32 1614.99 3805.08 1617.85 3809.09 1621.47C3813.1 1625.08 3816.28 1629.38 3818.45 1634.1C3820.62 1638.82 3821.74 1643.89 3821.73 1649V1739.18H2230.52V1649C2230.52 1643.89 2231.63 1638.82 2233.8 1634.1C2235.97 1629.38 2239.15 1625.08 2243.16 1621.47C2247.17 1617.85 2251.93 1614.99 2257.17 1613.03C2262.41 1611.07 2268.02 1610.07 2273.69 1610.07Z" fill="#363D56"/>
<path d="M2273.69 1610.07H3778.56C3784.23 1610.07 3789.84 1611.07 3795.08 1613.03C3800.32 1614.99 3805.08 1617.85 3809.09 1621.47C3813.1 1625.08 3816.28 1629.38 3818.45 1634.1C3820.62 1638.82 3821.74 1643.89 3821.73 1649V1739.18H2230.52V1649C2230.52 1643.89 2231.63 1638.82 2233.8 1634.1C2235.97 1629.38 2239.15 1625.08 2243.16 1621.47C2247.17 1617.85 2251.93 1614.99 2257.17 1613.03C2262.41 1611.07 2268.02 1610.07 2273.69 1610.07V1610.07Z" stroke="#1E223B" stroke-width="2" stroke-linecap="round" stroke-linejoin="round"/>
<path d="M3821.73 1739.17H2230.52V1796.55H3821.73V1739.17Z" fill="#424960"/>
<path d="M3821.73 1739.17H2230.52V1796.55H3821.73V1739.17Z" stroke="#1E223B" stroke-width="2" stroke-linecap="round" stroke-linejoin="round"/>
<path d="M2319.36 1696.14C2332.54 1696.14 2343.23 1686.5 2343.23 1674.62C2343.23 1662.74 2332.54 1653.1 2319.36 1653.1C2306.18 1653.1 2295.49 1662.74 2295.49 1674.62C2295.49 1686.5 2306.18 1696.14 2319.36 1696.14Z" fill="#F73E39"/>
<path d="M2319.36 1696.14C2332.54 1696.14 2343.23 1686.5 2343.23 1674.62C2343.23 1662.74 2332.54 1653.1 2319.36 1653.1C2306.18 1653.1 2295.49 1662.74 2295.49 1674.62C2295.49 1686.5 2306.18 1696.14 2319.36 1696.14Z" stroke="#1E223B" stroke-width="2" stroke-linecap="round" stroke-linejoin="round"/>
<path d="M2416.97 1696.14C2430.15 1696.14 2440.84 1686.5 2440.84 1674.62C2440.84 1662.74 2430.15 1653.1 2416.97 1653.1C2403.79 1653.1 2393.1 1662.74 2393.1 1674.62C2393.1 1686.5 2403.79 1696.14 2416.97 1696.14Z" fill="#383838"/>
<path d="M2416.97 1696.14C2430.15 1696.14 2440.84 1686.5 2440.84 1674.62C2440.84 1662.74 2430.15 1653.1 2416.97 1653.1C2403.79 1653.1 2393.1 1662.74 2393.1 1674.62C2393.1 1686.5 2403.79 1696.14 2416.97 1696.14Z" stroke="#1E223B" stroke-width="2" stroke-linecap="round" stroke-linejoin="round"/>
<path d="M2506.29 1696.14C2519.47 1696.14 2530.16 1686.5 2530.16 1674.62C2530.16 1662.74 2519.47 1653.1 2506.29 1653.1C2493.11 1653.1 2482.42 1662.74 2482.42 1674.62C2482.42 1686.5 2493.11 1696.14 2506.29 1696.14Z" fill="#C6C6C6"/>
<path d="M2506.29 1696.14C2519.47 1696.14 2530.16 1686.5 2530.16 1674.62C2530.16 1662.74 2519.47 1653.1 2506.29 1653.1C2493.11 1653.1 2482.42 1662.74 2482.42 1674.62C2482.42 1686.5 2493.11 1696.14 2506.29 1696.14Z" stroke="#1E223B" stroke-width="2" stroke-linecap="round" stroke-linejoin="round"/>
<path opacity="0.28" d="M3133.53 1653.1H2640.25C2627.07 1653.1 2616.39 1662.74 2616.39 1674.62C2616.39 1686.5 2627.07 1696.14 2640.25 1696.14H3133.53C3146.71 1696.14 3157.4 1686.5 3157.4 1674.62C3157.4 1662.74 3146.71 1653.1 3133.53 1653.1Z" fill="#8289A3"/>
<path d="M369.849 2509.32C459.435 2509.32 532.058 2443.85 532.058 2363.09C532.058 2282.33 459.435 2216.86 369.849 2216.86C280.264 2216.86 207.641 2282.33 207.641 2363.09C207.641 2443.85 280.264 2509.32 369.849 2509.32Z" stroke="#1E223B" stroke-width="2" stroke-linecap="round" stroke-linejoin="round"/>
<path d="M369.85 2425.76C408.245 2425.76 439.371 2397.7 439.371 2363.09C439.371 2328.48 408.245 2300.42 369.85 2300.42C331.455 2300.42 300.33 2328.48 300.33 2363.09C300.33 2397.7 331.455 2425.76 369.85 2425.76Z" stroke="#1E223B" stroke-width="2" stroke-linecap="round" stroke-linejoin="round"/>
<path d="M622.416 2153.31L522.073 2205.54L522.225 2205.77C514.897 2200 507.172 2194.65 499.096 2189.76L499.367 2189.83L529.353 2088.93C531.737 2080.9 530.488 2072.35 525.879 2065.15C521.27 2057.95 513.68 2052.7 504.777 2050.55L426.433 2031.62C417.53 2029.48 408.044 2030.6 400.062 2034.76C392.08 2038.91 386.255 2045.75 383.868 2053.78L353.882 2154.68H354.049C344.432 2155.27 334.866 2156.41 325.407 2158.08L325.534 2158L267.606 2067.55C265.325 2063.99 262.287 2060.86 258.666 2058.36C255.045 2055.85 250.911 2054.01 246.502 2052.95C242.093 2051.88 237.494 2051.61 232.968 2052.14C228.441 2052.68 224.077 2054.02 220.124 2056.08L149.887 2092.66C145.933 2094.71 142.467 2097.45 139.687 2100.71C136.907 2103.98 134.868 2107.7 133.686 2111.68C132.504 2115.65 132.202 2119.8 132.798 2123.88C133.393 2127.96 134.875 2131.89 137.158 2135.45L195.086 2225.91L195.213 2225.85C188.875 2232.41 182.997 2239.32 177.614 2246.54L177.662 2246.39L65.7438 2219.35C56.8392 2217.2 47.3525 2218.33 39.3702 2222.49C31.3878 2226.64 25.5636 2233.49 23.1786 2241.51L2.18256 2312.14C-0.201317 2320.16 1.04936 2328.72 5.65959 2335.91C10.2698 2343.11 17.8621 2348.36 26.7669 2350.52L138.677 2377.55L138.749 2377.3C139.408 2386.05 140.681 2394.76 142.56 2403.36L142.417 2403.13L42.0743 2455.36C34.0913 2459.51 28.2658 2466.36 25.8787 2474.38C23.4916 2482.41 24.7383 2490.96 29.3447 2498.16L69.9207 2561.48C72.2017 2565.05 75.2396 2568.17 78.8606 2570.68C82.4816 2573.18 86.615 2575.02 91.0244 2576.09C95.4338 2577.15 100.033 2577.43 104.559 2576.89C109.085 2576.35 113.449 2575.02 117.403 2572.96L217.737 2520.73L217.514 2520.39C224.932 2526.23 232.755 2531.63 240.937 2536.56L240.452 2536.45L210.465 2637.34C208.079 2645.37 209.327 2653.92 213.936 2661.12C218.545 2668.31 226.137 2673.57 235.041 2675.72L313.385 2694.64C322.288 2696.79 331.774 2695.66 339.756 2691.51C347.739 2687.35 353.563 2680.51 355.95 2672.48L385.937 2571.59L385.348 2571.44C395.25 2570.86 405.1 2569.69 414.833 2567.95L414.316 2568.22L472.252 2658.68C474.533 2662.24 477.571 2665.37 481.192 2667.87C484.813 2670.38 488.947 2672.22 493.356 2673.28C497.765 2674.35 502.365 2674.62 506.891 2674.08C511.417 2673.55 515.781 2672.21 519.734 2670.15L589.971 2633.57C597.953 2629.42 603.779 2622.58 606.166 2614.55C608.553 2606.52 607.306 2597.97 602.7 2590.77L544.772 2500.31L544.255 2500.58C550.792 2493.85 556.838 2486.74 562.355 2479.31L562.196 2479.84L674.106 2506.88C678.516 2507.94 683.115 2508.21 687.641 2507.68C692.167 2507.14 696.532 2505.8 700.485 2503.74C704.438 2501.69 707.903 2498.95 710.682 2495.68C713.461 2492.42 715.498 2488.69 716.679 2484.71L737.668 2414.09C738.85 2410.12 739.153 2405.97 738.558 2401.89C737.962 2397.81 736.482 2393.88 734.199 2390.31C731.917 2386.75 728.878 2383.62 725.256 2381.12C721.635 2378.61 717.501 2376.78 713.091 2375.71L601.109 2348.72L600.974 2349.15C600.325 2340.3 599.047 2331.49 597.147 2322.78L597.37 2323.13L697.712 2270.91C705.695 2266.75 711.521 2259.91 713.908 2251.88C716.295 2243.85 715.048 2235.3 710.442 2228.1L669.866 2164.78C665.257 2157.59 657.672 2152.34 648.775 2150.19C639.878 2148.04 630.397 2149.16 622.416 2153.31Z" stroke="#1E223B" stroke-width="2" stroke-linecap="round" stroke-linejoin="round"/>
<g opacity="0.32">
<path opacity="0.32" d="M2548.3 2092.61C2582.22 2092.61 2609.72 2067.81 2609.72 2037.23C2609.72 2006.65 2582.22 1981.86 2548.3 1981.86C2514.38 1981.86 2486.88 2006.65 2486.88 2037.23C2486.88 2067.81 2514.38 2092.61 2548.3 2092.61Z" stroke="#1E223B" stroke-linecap="round" stroke-linejoin="round"/>
<path opacity="0.32" d="M2548.3 2060.97C2562.84 2060.97 2574.63 2050.34 2574.63 2037.23C2574.63 2024.13 2562.84 2013.5 2548.3 2013.5C2533.76 2013.5 2521.97 2024.13 2521.97 2037.23C2521.97 2050.34 2533.76 2060.97 2548.3 2060.97Z" stroke="#1E223B" stroke-linecap="round" stroke-linejoin="round"/>
<path opacity="0.32" d="M2678.24 2042.02L2635.86 2031.79V2031.89C2635.61 2028.58 2635.13 2025.28 2634.42 2022.02L2634.47 2022.1L2672.47 2002.32C2675.49 2000.75 2677.68 1998.15 2678.58 1995.11C2679.47 1992.07 2678.99 1988.84 2677.24 1986.11L2661.89 1962.14C2661.03 1960.79 2659.88 1959.61 2658.51 1958.66C2657.13 1957.71 2655.57 1957.02 2653.9 1956.61C2652.23 1956.21 2650.49 1956.11 2648.78 1956.31C2647.06 1956.51 2645.41 1957.02 2643.92 1957.8L2605.92 1977.57V1977.62C2603.16 1975.46 2600.26 1973.45 2597.23 1971.61H2597.28L2608.64 1933.4C2609.54 1930.36 2609.07 1927.13 2607.33 1924.4C2605.58 1921.68 2602.71 1919.69 2599.34 1918.87L2569.67 1911.7C2566.3 1910.89 2562.71 1911.31 2559.68 1912.89C2556.66 1914.46 2554.45 1917.05 2553.55 1920.09L2542.2 1958.29H2542.25C2538.61 1958.52 2534.98 1958.95 2531.39 1959.58H2531.45L2509.51 1925.33C2507.77 1922.61 2504.89 1920.62 2501.52 1919.81C2498.15 1918.99 2494.56 1919.42 2491.53 1920.99L2464.94 1934.83C2461.91 1936.41 2459.71 1939 2458.81 1942.04C2457.9 1945.08 2458.38 1948.32 2460.12 1951.04L2482.06 1985.3L2482.14 1985.25C2479.73 1987.75 2477.48 1990.38 2475.43 1993.14V1993.04L2433.06 1982.8C2431.39 1982.4 2429.64 1982.29 2427.93 1982.5C2426.22 1982.7 2424.56 1983.21 2423.07 1983.99C2421.57 1984.77 2420.26 1985.8 2419.21 1987.04C2418.15 1988.28 2417.38 1989.69 2416.94 1991.19L2408.98 2017.93C2408.08 2020.97 2408.55 2024.21 2410.29 2026.94C2412.04 2029.67 2414.92 2031.66 2418.29 2032.47L2460.66 2042.71L2460.71 2042.56C2460.96 2045.91 2461.45 2049.24 2462.17 2052.54L2462.08 2052.4L2424.08 2072.17C2422.58 2072.95 2421.27 2073.99 2420.22 2075.22C2419.17 2076.46 2418.4 2077.87 2417.95 2079.38C2417.5 2080.88 2417.39 2082.45 2417.61 2084C2417.84 2085.54 2418.4 2087.03 2419.27 2088.38L2434.62 2112.35C2435.49 2113.7 2436.64 2114.89 2438.01 2115.83C2439.38 2116.78 2440.94 2117.48 2442.61 2117.88C2444.28 2118.29 2446.03 2118.39 2447.74 2118.19C2449.45 2117.98 2451.11 2117.48 2452.6 2116.7L2490.59 2096.92L2490.48 2096.74C2493.31 2098.98 2496.29 2101.04 2499.41 2102.92L2499.19 2102.87L2487.84 2141.08C2487.39 2142.58 2487.28 2144.15 2487.5 2145.7C2487.73 2147.24 2488.29 2148.73 2489.16 2150.08C2490.02 2151.43 2491.17 2152.61 2492.54 2153.56C2493.91 2154.51 2495.48 2155.21 2497.15 2155.61L2526.81 2162.78C2530.18 2163.59 2533.77 2163.17 2536.8 2161.59C2539.82 2160.02 2542.02 2157.43 2542.93 2154.39L2554.33 2116.18L2554.12 2116.13C2557.86 2115.91 2561.58 2115.46 2565.25 2114.8L2565.05 2114.91L2586.99 2149.16C2588.74 2151.89 2591.61 2153.87 2594.98 2154.69C2598.35 2155.5 2601.95 2155.08 2604.97 2153.51L2631.57 2139.66C2634.59 2138.09 2636.79 2135.5 2637.7 2132.46C2638.6 2129.42 2638.13 2126.18 2636.38 2123.45L2614.45 2089.2L2614.29 2089.28C2616.74 2086.76 2619.01 2084.09 2621.09 2081.3V2081.44L2663.46 2091.69C2666.84 2092.5 2670.43 2092.07 2673.45 2090.5C2676.47 2088.93 2678.68 2086.33 2679.58 2083.3L2687.54 2056.55C2688.44 2053.51 2687.97 2050.27 2686.22 2047.55C2684.48 2044.83 2681.61 2042.84 2678.24 2042.02V2042.02Z" stroke="#1E223B" stroke-linecap="round" stroke-linejoin="round"/>
</g>
<path d="M3626.57 875.247H3418.12L3200.6 1005.98V875.247H3046.53C3027.3 875.247 3008.85 868.36 2995.26 856.102C2981.66 843.844 2974.02 827.219 2974.02 809.883V450.374C2974.02 433.039 2981.66 416.413 2995.26 404.155C3008.85 391.897 3027.3 385.011 3046.53 385.011H3626.57C3636.09 385.01 3645.52 386.7 3654.32 389.984C3663.12 393.269 3671.11 398.083 3677.84 404.153C3684.58 410.223 3689.92 417.428 3693.56 425.359C3697.21 433.29 3699.08 441.79 3699.08 450.374V809.883C3699.08 818.468 3697.21 826.968 3693.56 834.899C3689.92 842.829 3684.58 850.035 3677.84 856.105C3671.11 862.174 3663.12 866.989 3654.32 870.273C3645.52 873.558 3636.09 875.248 3626.57 875.247Z" fill="white"/>
<path d="M3626.57 875.247H3418.12L3200.6 1005.98V875.247H3046.53C3027.3 875.247 3008.85 868.36 2995.26 856.102C2981.66 843.844 2974.02 827.219 2974.02 809.883V450.374C2974.02 433.039 2981.66 416.413 2995.26 404.155C3008.85 391.897 3027.3 385.011 3046.53 385.011H3626.57C3636.09 385.01 3645.52 386.7 3654.32 389.984C3663.12 393.269 3671.11 398.083 3677.84 404.153C3684.58 410.223 3689.92 417.428 3693.56 425.359C3697.21 433.29 3699.08 441.79 3699.08 450.374V809.883C3699.08 818.468 3697.21 826.968 3693.56 834.899C3689.92 842.829 3684.58 850.035 3677.84 856.105C3671.11 862.174 3663.12 866.989 3654.32 870.273C3645.52 873.558 3636.09 875.248 3626.57 875.247V875.247Z" stroke="#1E223B" stroke-width="2" stroke-linecap="round" stroke-linejoin="round"/>
<path opacity="0.5" d="M3633.97 318.435H3768.95L3909.78 403.071V318.435H4009.5C4021.95 318.435 4033.89 313.977 4042.69 306.04C4051.49 298.104 4056.44 287.341 4056.44 276.117V43.3181C4056.44 32.0946 4051.49 21.3308 4042.69 13.3947C4033.89 5.45851 4021.95 1 4009.5 1H3633.97C3621.52 1 3609.58 5.45851 3600.78 13.3947C3591.98 21.3308 3587.03 32.0946 3587.03 43.3181V276.103C3587.03 281.661 3588.24 287.166 3590.6 292.302C3592.96 297.437 3596.41 302.104 3600.77 306.035C3605.13 309.967 3610.31 313.085 3616 315.213C3621.7 317.34 3627.81 318.435 3633.97 318.435Z" fill="white"/>
<path d="M3633.97 318.435H3768.95L3909.78 403.071V318.435H4009.5C4021.95 318.435 4033.89 313.977 4042.69 306.04C4051.49 298.104 4056.44 287.341 4056.44 276.117V43.318C4056.44 32.0946 4051.49 21.3308 4042.69 13.3947C4033.89 5.45851 4021.95 1 4009.5 1H3633.97C3621.52 1 3609.58 5.45851 3600.78 13.3947C3591.98 21.3308 3587.03 32.0946 3587.03 43.318V276.103C3587.03 281.661 3588.24 287.166 3590.6 292.302C3592.96 297.437 3596.41 302.104 3600.77 306.035C3605.13 309.967 3610.31 313.085 3616 315.213C3621.7 317.34 3627.81 318.435 3633.97 318.435V318.435Z" stroke="#1E223B" stroke-width="2" stroke-linecap="round" stroke-linejoin="round"/>
<path d="M3946.92 4869.72C3944.14 4869.72 3941.42 4870.46 3939.11 4871.85C3936.79 4873.24 3934.99 4875.22 3933.92 4877.53C3932.86 4879.85 3932.58 4882.4 3933.12 4884.85C3933.66 4887.31 3934.99 4889.57 3936.96 4891.35C3938.92 4893.12 3941.42 4894.33 3944.15 4894.82C3946.87 4895.31 3949.7 4895.07 3952.27 4894.11C3954.84 4893.15 3957.04 4891.53 3958.58 4889.45C3960.13 4887.37 3960.96 4884.92 3960.97 4882.42C3960.97 4880.75 3960.61 4879.1 3959.9 4877.56C3959.2 4876.02 3958.17 4874.62 3956.86 4873.44C3955.56 4872.26 3954.01 4871.33 3952.3 4870.69C3950.59 4870.05 3948.76 4869.72 3946.92 4869.72ZM4047.27 4927.31C4044.87 4928.56 4042.93 4930.43 4041.7 4932.67C4040.47 4934.92 4040 4937.45 4040.36 4939.93C4040.73 4942.41 4041.9 4944.75 4043.73 4946.63C4045.56 4948.51 4047.97 4949.87 4050.65 4950.51C4053.34 4951.16 4056.18 4951.08 4058.81 4950.28C4061.44 4949.47 4063.75 4947.98 4065.44 4945.99C4067.13 4944.01 4068.13 4941.61 4068.31 4939.11C4068.5 4936.61 4067.85 4934.12 4066.46 4931.95C4064.6 4929.04 4061.53 4926.93 4057.93 4926.06C4054.33 4925.2 4050.5 4925.65 4047.27 4927.33V4927.31ZM3977.45 4882.39C3977.45 4876.45 3979.03 4870.59 3982.07 4865.32C3985.11 4860.05 3989.51 4855.52 3994.91 4852.11L3984.63 4836.59C3972.14 4844.1 3963.15 4855.49 3959.38 4868.59C3961.66 4870.26 3963.49 4872.37 3964.74 4874.75C3966 4877.14 3966.65 4879.75 3966.65 4882.39C3966.65 4885.03 3966 4887.64 3964.74 4890.03C3963.49 4892.41 3961.66 4894.52 3959.38 4896.19C3963.15 4909.29 3972.14 4920.68 3984.63 4928.19L3994.91 4912.67C3989.51 4909.26 3985.11 4904.73 3982.07 4899.46C3979.03 4894.2 3977.45 4888.35 3977.45 4882.41V4882.39ZM4018.5 4845.38C4028.76 4845.38 4038.64 4848.84 4046.21 4855.08C4053.77 4861.31 4058.48 4869.88 4059.39 4879.09L4079.42 4878.82C4078.47 4865.31 4072.01 4852.6 4061.28 4843.12C4058.55 4844.05 4055.62 4844.42 4052.7 4844.21C4049.78 4843.99 4046.96 4843.2 4044.42 4841.88C4041.89 4840.56 4039.71 4838.75 4038.05 4836.58C4036.39 4834.4 4035.28 4831.93 4034.81 4829.32C4020.35 4825.71 4004.91 4827.02 3991.45 4833.03L4001.21 4848.81C4006.63 4846.55 4012.53 4845.38 4018.5 4845.4V4845.38ZM4018.5 4919.4C4012.53 4919.41 4006.63 4918.23 4001.21 4915.96L3991.45 4931.74C4004.91 4937.74 4020.35 4939.05 4034.81 4935.43C4035.28 4932.83 4036.39 4930.35 4038.05 4928.18C4039.71 4926.01 4041.89 4924.2 4044.42 4922.88C4046.96 4921.56 4049.78 4920.77 4052.7 4920.55C4055.62 4920.34 4058.55 4920.71 4061.28 4921.64C4072.01 4912.16 4078.47 4899.45 4079.42 4885.94L4059.39 4885.67C4058.49 4894.89 4053.79 4903.46 4046.22 4909.71C4038.66 4915.96 4028.77 4919.43 4018.5 4919.43V4919.4ZM4047.27 4837.47C4049.68 4838.72 4052.45 4839.3 4055.22 4839.14C4057.99 4838.97 4060.65 4838.07 4062.85 4836.55C4065.05 4835.02 4066.71 4832.94 4067.6 4830.57C4068.49 4828.2 4068.58 4825.64 4067.86 4823.22C4067.15 4820.8 4065.65 4818.63 4063.56 4816.98C4061.47 4815.32 4058.88 4814.27 4056.13 4813.94C4053.37 4813.61 4050.57 4814.03 4048.08 4815.14C4045.59 4816.25 4043.52 4818 4042.13 4820.17C4041.2 4821.61 4040.6 4823.2 4040.35 4824.85C4040.11 4826.5 4040.23 4828.18 4040.71 4829.79C4041.19 4831.4 4042.01 4832.91 4043.14 4834.23C4044.27 4835.56 4045.67 4836.66 4047.27 4837.49V4837.47Z" fill="white"/>
<path d="M489.183 4027.37L712.407 3910.41L711.723 4129.2L488.491 4246.15L489.183 4027.37Z" fill="#B8C1EC"/>
<path d="M489.183 4027.37L712.407 3910.41L711.723 4129.2L488.491 4246.15L489.183 4027.37Z" stroke="#1E223B" stroke-width="2" stroke-linecap="round" stroke-linejoin="round"/>
<path opacity="0.88" d="M277.988 3917.44L501.212 3800.49L712.407 3910.41L489.183 4027.37L277.988 3917.44Z" fill="#EEBBC3" stroke="#1E223B" stroke-miterlimit="10"/>
<path d="M489.183 4027.37L488.49 4246.15L277.296 4136.22L277.988 3917.44L489.183 4027.37Z" fill="#121629"/>
<path d="M277.988 3917.44L501.212 3800.49L712.407 3910.41L489.183 4027.37L277.988 3917.44Z" stroke="#1E223B" stroke-width="2" stroke-linecap="round" stroke-linejoin="round"/>
<path d="M489.183 4027.37L488.49 4246.15L277.296 4136.22L277.988 3917.44L489.183 4027.37Z" stroke="#1E223B" stroke-width="2" stroke-linecap="round" stroke-linejoin="round"/>
<path opacity="0.59" d="M325.391 3718.79C351.755 3718.79 373.127 3699.53 373.127 3675.76C373.127 3651.99 351.755 3632.72 325.391 3632.72C299.027 3632.72 277.654 3651.99 277.654 3675.76C277.654 3699.53 299.027 3718.79 325.391 3718.79Z" fill="white"/>
<path d="M325.391 3718.79C351.755 3718.79 373.127 3699.53 373.127 3675.76C373.127 3651.99 351.755 3632.72 325.391 3632.72C299.027 3632.72 277.654 3651.99 277.654 3675.76C277.654 3699.53 299.027 3718.79 325.391 3718.79Z" stroke="#1E223B" stroke-width="2" stroke-linecap="round" stroke-linejoin="round"/>
<path opacity="0.59" d="M488.491 3718.79C514.856 3718.79 536.228 3699.53 536.228 3675.76C536.228 3651.99 514.856 3632.72 488.491 3632.72C462.127 3632.72 440.755 3651.99 440.755 3675.76C440.755 3699.53 462.127 3718.79 488.491 3718.79Z" fill="white"/>
<path d="M488.491 3718.79C514.856 3718.79 536.228 3699.53 536.228 3675.76C536.228 3651.99 514.856 3632.72 488.491 3632.72C462.127 3632.72 440.755 3651.99 440.755 3675.76C440.755 3699.53 462.127 3718.79 488.491 3718.79Z" stroke="#1E223B" stroke-width="2" stroke-linecap="round" stroke-linejoin="round"/>
<path opacity="0.59" d="M651.59 3718.79C677.954 3718.79 699.327 3699.53 699.327 3675.76C699.327 3651.99 677.954 3632.72 651.59 3632.72C625.226 3632.72 603.854 3651.99 603.854 3675.76C603.854 3699.53 625.226 3718.79 651.59 3718.79Z" fill="white"/>
<path d="M651.59 3718.79C677.954 3718.79 699.327 3699.53 699.327 3675.76C699.327 3651.99 677.954 3632.72 651.59 3632.72C625.226 3632.72 603.854 3651.99 603.854 3675.76C603.854 3699.53 625.226 3718.79 651.59 3718.79Z" stroke="#1E223B" stroke-width="2" stroke-linecap="round" stroke-linejoin="round"/>
<path d="M3559.69 3039.19C3561.92 3042.11 3563.29 3041.88 3565.02 3041.22C3566.76 3040.55 3656.27 3013.31 3659.01 3012.41C3661.75 3011.52 3660.87 3010.73 3660 3009.5C3659.14 3008.27 3629.3 2971.73 3627.81 2969.6C3626.31 2967.47 3625.57 2967.92 3623.21 2968.6L3528.32 2990.83C3528.32 2990.83 3557.44 3036.26 3559.69 3039.17V3039.19Z" fill="#232946"/>
<path d="M3666.59 3001.99V2959.22L3637.08 2966.31C3645.13 2976 3657.7 2991.18 3666.59 3001.99Z" fill="#232946"/>
<path d="M3637 2913.65C3635.53 2913.94 3603.15 2919.22 3601.19 2919.46C3599.24 2919.69 3599.86 2920.72 3600.66 2921.74L3629.15 2956.98C3629.15 2956.98 3663.99 2949.19 3666.12 2948.77L3666.62 2948.66V2943.99C3660.26 2936.76 3643.04 2917.05 3641.55 2915.2C3639.76 2912.99 3638.49 2913.34 3637.03 2913.65H3637Z" fill="#232946"/>
<path d="M3433.27 2858.28C3440.28 2857.99 3440.92 2859.44 3444 2863.55L3521.39 2980.19L3618.7 2959.18C3613.31 2952.29 3588.83 2921.01 3586.47 2918.02C3583.81 2914.67 3586.53 2913.1 3590.85 2912.45C3595.17 2911.8 3632.4 2906.15 3635.59 2905.74C3638.78 2905.32 3641.31 2904.3 3646.5 2909.93C3649.15 2912.8 3658.15 2922.91 3666.59 2932.37V2877.81C3666.57 2864.98 3660.9 2852.68 3650.83 2843.6C3640.77 2834.53 3627.12 2829.42 3612.89 2829.4H3433.88C3426.81 2829.3 3419.8 2830.52 3413.27 2832.96C3406.75 2835.4 3400.84 2839.03 3395.93 2843.61C3390.14 2848.7 3385.73 2854.93 3383.04 2861.81C3400.59 2860.51 3428.39 2858.48 3433.27 2858.28Z" fill="#232946"/>
<path d="M3568.46 3054.9C3560.25 3057.14 3556.57 3058.25 3551.23 3051.52C3547.25 3046.5 3525.58 3011.36 3514.96 2994.01C3494.87 2998.76 3458.11 3007.41 3447.51 3009.7C3444.32 3010.71 3440.83 3010.56 3437.76 3009.29C3434.69 3008.02 3432.28 3005.73 3431.04 3002.9C3429.85 3000.48 3399.51 2941.52 3380.17 2903.69V3039.19C3380.2 3052.03 3385.86 3064.33 3395.93 3073.4C3406 3082.48 3419.64 3087.59 3433.88 3087.61H3612.89C3627.12 3087.59 3640.77 3082.48 3650.84 3073.41C3660.91 3064.33 3666.57 3052.03 3666.59 3039.19V3023.28C3644.62 3030.52 3573.99 3053.4 3568.46 3054.9Z" fill="#232946"/>
<path d="M3447.8 2996.12C3450.7 2995.51 3505.2 2983.76 3506.37 2983.54C3507.54 2983.31 3508.28 2982.71 3507.03 2980.76L3434.38 2867.71C3433.72 2866.69 3433.92 2866.34 3432.12 2866.43C3430.53 2866.51 3390.12 2869.76 3380.77 2870.46C3380.49 2872.24 3380.32 2874.04 3380.25 2875.84C3389.75 2893.36 3444.25 2994.69 3444.55 2995.51C3444.85 2996.34 3444.89 2996.72 3447.8 2996.12Z" fill="#232946"/>
<path opacity="0.32" d="M2727.77 2011.73H3475.65" stroke="#1E223B" stroke-width="2" stroke-linecap="round" stroke-linejoin="round"/>
<path opacity="0.32" d="M2727.77 2069.11H3205.14" stroke="#1E223B" stroke-width="2" stroke-linecap="round" stroke-linejoin="round"/>
<path opacity="0.15" d="M2505 2348.84H3252.87" stroke="#1E223B" stroke-width="2" stroke-linecap="round" stroke-linejoin="round"/>
<path opacity="0.32" d="M2505 2411H2982.37" stroke="#1E223B" stroke-width="2" stroke-linecap="round" stroke-linejoin="round"/>
<path opacity="0.32" d="M2886.89 2473.17H3165.36" stroke="#1E223B" stroke-width="2" stroke-linecap="round" stroke-linejoin="round"/>
<path opacity="0.26" d="M2505 2473.17H2839.16" stroke="#1E223B" stroke-width="2" stroke-linecap="round" stroke-linejoin="round"/>
<path opacity="0.15" d="M2505 2535.32H2791.42" stroke="#1E223B" stroke-width="2" stroke-linecap="round" stroke-linejoin="round"/>
<path d="M2536.83 2652.48C2528.39 2652.48 2520.29 2655.5 2514.32 2660.88C2508.35 2666.26 2505 2673.56 2505 2681.17C2505 2688.78 2508.35 2696.08 2514.32 2701.46C2520.29 2706.84 2528.39 2709.86 2536.83 2709.86H3178.62V2652.48H2536.83Z" fill="#4AD3A5" stroke="#1E223B" stroke-miterlimit="10"/>
<path d="M3539.29 2652.48H2536.83C2519.25 2652.48 2505 2665.33 2505 2681.17C2505 2697.02 2519.25 2709.86 2536.83 2709.86H3539.29C3556.87 2709.86 3571.12 2697.02 3571.12 2681.17C3571.12 2665.33 3556.87 2652.48 3539.29 2652.48Z" stroke="#1E223B" stroke-linecap="round" stroke-linejoin="round"/>
<path d="M4102.19 3403.2H1926.2C1916.31 3403.2 1908.3 3410.43 1908.3 3419.34V3480.31C1908.3 3489.22 1916.31 3496.44 1926.2 3496.44H4102.19C4112.07 3496.44 4120.09 3489.22 4120.09 3480.31V3419.34C4120.09 3410.43 4112.07 3403.2 4102.19 3403.2Z" fill="#263C72"/>
<path d="M4120.09 3403.2H1908.3V3496.44H4120.09V3403.2Z" stroke="#1E223B" stroke-width="2" stroke-linecap="round" stroke-linejoin="round"/>
<path d="M4096.22 3632.72H3968.92C3955.74 3632.72 3945.06 3642.36 3945.06 3654.24V3697.28C3945.06 3709.16 3955.74 3718.79 3968.92 3718.79H4096.22C4109.4 3718.79 4120.09 3709.16 4120.09 3697.28V3654.24C4120.09 3642.36 4109.4 3632.72 4096.22 3632.72Z" fill="#363D56"/>
<path d="M3841.62 3632.72H3714.33C3701.15 3632.72 3690.46 3642.36 3690.46 3654.24V3697.28C3690.46 3709.16 3701.15 3718.79 3714.33 3718.79H3841.62C3854.81 3718.79 3865.49 3709.16 3865.49 3697.28V3654.24C3865.49 3642.36 3854.81 3632.72 3841.62 3632.72Z" fill="#363D56"/>
<path d="M3587.03 3632.72H3459.73C3446.55 3632.72 3435.86 3642.36 3435.86 3654.24V3697.28C3435.86 3709.16 3446.55 3718.79 3459.73 3718.79H3587.03C3600.21 3718.79 3610.9 3709.16 3610.9 3697.28V3654.24C3610.9 3642.36 3600.21 3632.72 3587.03 3632.72Z" fill="#363D56"/>
<path d="M3332.44 3632.72H3205.14C3191.96 3632.72 3181.27 3642.36 3181.27 3654.24V3697.28C3181.27 3709.16 3191.96 3718.79 3205.14 3718.79H3332.44C3345.62 3718.79 3356.3 3709.16 3356.3 3697.28V3654.24C3356.3 3642.36 3345.62 3632.72 3332.44 3632.72Z" fill="#363D56"/>
<path d="M3077.84 3632.72H2950.54C2937.36 3632.72 2926.67 3642.36 2926.67 3654.24V3697.28C2926.67 3709.16 2937.36 3718.79 2950.54 3718.79H3077.84C3091.02 3718.79 3101.71 3709.16 3101.71 3697.28V3654.24C3101.71 3642.36 3091.02 3632.72 3077.84 3632.72Z" fill="#363D56"/>
<path d="M2823.25 3632.72H2695.95C2682.77 3632.72 2672.08 3642.36 2672.08 3654.24V3697.28C2672.08 3709.16 2682.77 3718.79 2695.95 3718.79H2823.25C2836.43 3718.79 2847.11 3709.16 2847.11 3697.28V3654.24C2847.11 3642.36 2836.43 3632.72 2823.25 3632.72Z" fill="#363D56"/>
<path d="M2568.65 3632.72H2441.35C2428.17 3632.72 2417.48 3642.36 2417.48 3654.24V3697.28C2417.48 3709.16 2428.17 3718.79 2441.35 3718.79H2568.65C2581.83 3718.79 2592.52 3709.16 2592.52 3697.28V3654.24C2592.52 3642.36 2581.83 3632.72 2568.65 3632.72Z" fill="#363D56"/>
<path d="M2314.06 3632.72H2186.76C2173.58 3632.72 2162.89 3642.36 2162.89 3654.24V3697.28C2162.89 3709.16 2173.58 3718.79 2186.76 3718.79H2314.06C2327.24 3718.79 2337.92 3709.16 2337.92 3697.28V3654.24C2337.92 3642.36 2327.24 3632.72 2314.06 3632.72Z" fill="#363D56"/>
<path d="M2059.46 3632.72H1932.16C1918.98 3632.72 1908.3 3642.36 1908.3 3654.24V3697.28C1908.3 3709.16 1918.98 3718.79 1932.16 3718.79H2059.46C2072.64 3718.79 2083.33 3709.16 2083.33 3697.28V3654.24C2083.33 3642.36 2072.64 3632.72 2059.46 3632.72Z" fill="#363D56"/>
<path d="M3587.03 3815.46H3459.73C3446.55 3815.46 3435.86 3825.09 3435.86 3836.97V3951.74C3435.86 3963.62 3446.55 3973.25 3459.73 3973.25H3587.03C3600.21 3973.25 3610.9 3963.62 3610.9 3951.74V3836.97C3610.9 3825.09 3600.21 3815.46 3587.03 3815.46Z" fill="#363D56"/>
<path d="M3332.44 3815.46H3205.14C3191.96 3815.46 3181.27 3825.09 3181.27 3836.97V3951.74C3181.27 3963.62 3191.96 3973.25 3205.14 3973.25H3332.44C3345.62 3973.25 3356.3 3963.62 3356.3 3951.74V3836.97C3356.3 3825.09 3345.62 3815.46 3332.44 3815.46Z" fill="#363D56"/>
<path d="M3077.84 3815.46H2950.54C2937.36 3815.46 2926.67 3825.09 2926.67 3836.97V3951.74C2926.67 3963.62 2937.36 3973.25 2950.54 3973.25H3077.84C3091.02 3973.25 3101.71 3963.62 3101.71 3951.74V3836.97C3101.71 3825.09 3091.02 3815.46 3077.84 3815.46Z" fill="#363D56"/>
<path d="M2823.25 3815.46H2695.95C2682.77 3815.46 2672.08 3825.09 2672.08 3836.97V3951.74C2672.08 3963.62 2682.77 3973.25 2695.95 3973.25H2823.25C2836.43 3973.25 2847.11 3963.62 2847.11 3951.74V3836.97C2847.11 3825.09 2836.43 3815.46 2823.25 3815.46Z" fill="#363D56"/>
<path d="M2568.65 3815.46H2441.35C2428.17 3815.46 2417.48 3825.09 2417.48 3836.97V3951.74C2417.48 3963.62 2428.17 3973.25 2441.35 3973.25H2568.65C2581.83 3973.25 2592.52 3963.62 2592.52 3951.74V3836.97C2592.52 3825.09 2581.83 3815.46 2568.65 3815.46Z" fill="#363D56"/>
<path d="M2314.06 3815.46H2186.76C2173.58 3815.46 2162.89 3825.09 2162.89 3836.97V3951.74C2162.89 3963.62 2173.58 3973.25 2186.76 3973.25H2314.06C2327.24 3973.25 2337.92 3963.62 2337.92 3951.74V3836.97C2337.92 3825.09 2327.24 3815.46 2314.06 3815.46Z" fill="#363D56"/>
<path d="M2059.46 3815.46H1932.16C1918.98 3815.46 1908.3 3825.09 1908.3 3836.97V3951.74C1908.3 3963.62 1918.98 3973.25 1932.16 3973.25H2059.46C2072.64 3973.25 2083.33 3963.62 2083.33 3951.74V3836.97C2083.33 3825.09 2072.64 3815.46 2059.46 3815.46Z" fill="#363D56"/>
<path d="M4096.22 3815.46H3968.92C3955.74 3815.46 3945.06 3825.09 3945.06 3836.97V4177.76C3945.06 4189.64 3955.74 4199.27 3968.92 4199.27H4096.22C4109.4 4199.27 4120.09 4189.64 4120.09 4177.76V3836.97C4120.09 3825.09 4109.4 3815.46 4096.22 3815.46Z" fill="#363D56"/>
<path d="M3841.62 3815.46H3714.33C3708 3815.46 3701.93 3817.72 3697.45 3821.76C3692.97 3825.79 3690.46 3831.27 3690.46 3836.97V4019.96C3690.46 4025.67 3687.94 4031.14 3683.47 4035.18C3678.99 4039.21 3672.92 4041.48 3666.59 4041.48H3459.73C3453.4 4041.48 3447.33 4043.75 3442.85 4047.78C3438.38 4051.82 3435.86 4057.29 3435.86 4063V4177.76C3435.86 4183.46 3438.38 4188.94 3442.85 4192.97C3447.33 4197.01 3453.4 4199.27 3459.73 4199.27H3841.62C3847.95 4199.27 3854.03 4197.01 3858.5 4192.97C3862.98 4188.94 3865.49 4183.46 3865.49 4177.76V3836.97C3865.49 3831.27 3862.98 3825.79 3858.5 3821.76C3854.03 3817.72 3847.95 3815.46 3841.62 3815.46Z" fill="#363D56"/>
<path d="M3332.44 4041.48H3205.14C3191.96 4041.48 3181.27 4051.11 3181.27 4063V4177.76C3181.27 4189.64 3191.96 4199.27 3205.14 4199.27H3332.44C3345.62 4199.27 3356.3 4189.64 3356.3 4177.76V4063C3356.3 4051.11 3345.62 4041.48 3332.44 4041.48Z" fill="#363D56"/>
<path d="M3077.84 4041.48H2950.54C2937.36 4041.48 2926.67 4051.11 2926.67 4063V4177.76C2926.67 4189.64 2937.36 4199.27 2950.54 4199.27H3077.84C3091.02 4199.27 3101.71 4189.64 3101.71 4177.76V4063C3101.71 4051.11 3091.02 4041.48 3077.84 4041.48Z" fill="#363D56"/>
<path d="M2823.25 4041.48H2695.95C2682.77 4041.48 2672.08 4051.11 2672.08 4063V4177.76C2672.08 4189.64 2682.77 4199.27 2695.95 4199.27H2823.25C2836.43 4199.27 2847.11 4189.64 2847.11 4177.76V4063C2847.11 4051.11 2836.43 4041.48 2823.25 4041.48Z" fill="#363D56"/>
<path d="M2568.65 4041.48H2441.35C2428.17 4041.48 2417.48 4051.11 2417.48 4063V4177.76C2417.48 4189.64 2428.17 4199.27 2441.35 4199.27H2568.65C2581.83 4199.27 2592.52 4189.64 2592.52 4177.76V4063C2592.52 4051.11 2581.83 4041.48 2568.65 4041.48Z" fill="#363D56"/>
<path d="M2314.06 4041.48H1932.16C1918.98 4041.48 1908.3 4051.11 1908.3 4063V4177.76C1908.3 4189.64 1918.98 4199.27 1932.16 4199.27H2314.06C2327.24 4199.27 2337.93 4189.64 2337.93 4177.76V4063C2337.93 4051.11 2327.24 4041.48 2314.06 4041.48Z" fill="#363D56"/>
<path d="M4096.22 4267.49H3968.92C3955.74 4267.49 3945.06 4277.13 3945.06 4289.01V4403.77C3945.06 4415.65 3955.74 4425.29 3968.92 4425.29H4096.22C4109.4 4425.29 4120.09 4415.65 4120.09 4403.77V4289.01C4120.09 4277.13 4109.4 4267.49 4096.22 4267.49Z" fill="#363D56"/>
<path d="M3841.62 4267.49H3714.33C3701.15 4267.49 3690.46 4277.13 3690.46 4289.01V4403.77C3690.46 4415.65 3701.15 4425.29 3714.33 4425.29H3841.62C3854.81 4425.29 3865.49 4415.65 3865.49 4403.77V4289.01C3865.49 4277.13 3854.81 4267.49 3841.62 4267.49Z" fill="#363D56"/>
<path d="M3587.03 4267.49H3459.73C3446.55 4267.49 3435.86 4277.13 3435.86 4289.01V4403.77C3435.86 4415.65 3446.55 4425.29 3459.73 4425.29H3587.03C3600.21 4425.29 3610.9 4415.65 3610.9 4403.77V4289.01C3610.9 4277.13 3600.21 4267.49 3587.03 4267.49Z" fill="#363D56"/>
<path d="M3332.44 4267.49H2695.95C2682.77 4267.49 2672.08 4277.13 2672.08 4289.01V4403.77C2672.08 4415.65 2682.77 4425.29 2695.95 4425.29H3332.44C3345.62 4425.29 3356.3 4415.65 3356.3 4403.77V4289.01C3356.3 4277.13 3345.62 4267.49 3332.44 4267.49Z" fill="#363D56"/>
<path d="M2568.65 4267.49H2441.35C2428.17 4267.49 2417.48 4277.13 2417.48 4289.01V4403.77C2417.48 4415.65 2428.17 4425.29 2441.35 4425.29H2568.65C2581.83 4425.29 2592.52 4415.65 2592.52 4403.77V4289.01C2592.52 4277.13 2581.83 4267.49 2568.65 4267.49Z" fill="#363D56"/>
<path d="M2314.06 4267.49H2186.76C2173.58 4267.49 2162.89 4277.13 2162.89 4289.01V4403.77C2162.89 4415.65 2173.58 4425.29 2186.76 4425.29H2314.06C2327.24 4425.29 2337.92 4415.65 2337.92 4403.77V4289.01C2337.92 4277.13 2327.24 4267.49 2314.06 4267.49Z" fill="#363D56"/>
<path d="M2059.46 4267.49H1932.16C1918.98 4267.49 1908.3 4277.13 1908.3 4289.01V4403.77C1908.3 4415.65 1918.98 4425.29 1932.16 4425.29H2059.46C2072.64 4425.29 2083.33 4415.65 2083.33 4403.77V4289.01C2083.33 4277.13 2072.64 4267.49 2059.46 4267.49Z" fill="#363D56"/>
<path d="M4096.22 3632.72H3968.92C3955.74 3632.72 3945.06 3642.36 3945.06 3654.24V3697.28C3945.06 3709.16 3955.74 3718.79 3968.92 3718.79H4096.22C4109.4 3718.79 4120.09 3709.16 4120.09 3697.28V3654.24C4120.09 3642.36 4109.4 3632.72 4096.22 3632.72Z" stroke="#1E223B" stroke-width="2" stroke-linecap="round" stroke-linejoin="round"/>
<path d="M3841.62 3632.72H3714.33C3701.15 3632.72 3690.46 3642.36 3690.46 3654.24V3697.28C3690.46 3709.16 3701.15 3718.79 3714.33 3718.79H3841.62C3854.81 3718.79 3865.49 3709.16 3865.49 3697.28V3654.24C3865.49 3642.36 3854.81 3632.72 3841.62 3632.72Z" stroke="#1E223B" stroke-width="2" stroke-linecap="round" stroke-linejoin="round"/>
<path d="M3587.03 3632.72H3459.73C3446.55 3632.72 3435.86 3642.36 3435.86 3654.24V3697.28C3435.86 3709.16 3446.55 3718.79 3459.73 3718.79H3587.03C3600.21 3718.79 3610.9 3709.16 3610.9 3697.28V3654.24C3610.9 3642.36 3600.21 3632.72 3587.03 3632.72Z" stroke="#1E223B" stroke-width="2" stroke-linecap="round" stroke-linejoin="round"/>
<path d="M3332.44 3632.72H3205.14C3191.96 3632.72 3181.27 3642.36 3181.27 3654.24V3697.28C3181.27 3709.16 3191.96 3718.79 3205.14 3718.79H3332.44C3345.62 3718.79 3356.3 3709.16 3356.3 3697.28V3654.24C3356.3 3642.36 3345.62 3632.72 3332.44 3632.72Z" stroke="#1E223B" stroke-width="2" stroke-linecap="round" stroke-linejoin="round"/>
<path d="M3077.84 3632.72H2950.54C2937.36 3632.72 2926.67 3642.36 2926.67 3654.24V3697.28C2926.67 3709.16 2937.36 3718.79 2950.54 3718.79H3077.84C3091.02 3718.79 3101.71 3709.16 3101.71 3697.28V3654.24C3101.71 3642.36 3091.02 3632.72 3077.84 3632.72Z" stroke="#1E223B" stroke-width="2" stroke-linecap="round" stroke-linejoin="round"/>
<path d="M2823.25 3632.72H2695.95C2682.77 3632.72 2672.08 3642.36 2672.08 3654.24V3697.28C2672.08 3709.16 2682.77 3718.79 2695.95 3718.79H2823.25C2836.43 3718.79 2847.11 3709.16 2847.11 3697.28V3654.24C2847.11 3642.36 2836.43 3632.72 2823.25 3632.72Z" stroke="#1E223B" stroke-width="2" stroke-linecap="round" stroke-linejoin="round"/>
<path d="M2568.65 3632.72H2441.35C2428.17 3632.72 2417.48 3642.36 2417.48 3654.24V3697.28C2417.48 3709.16 2428.17 3718.79 2441.35 3718.79H2568.65C2581.83 3718.79 2592.52 3709.16 2592.52 3697.28V3654.24C2592.52 3642.36 2581.83 3632.72 2568.65 3632.72Z" stroke="#1E223B" stroke-width="2" stroke-linecap="round" stroke-linejoin="round"/>
<path d="M2314.06 3632.72H2186.76C2173.58 3632.72 2162.89 3642.36 2162.89 3654.24V3697.28C2162.89 3709.16 2173.58 3718.79 2186.76 3718.79H2314.06C2327.24 3718.79 2337.92 3709.16 2337.92 3697.28V3654.24C2337.92 3642.36 2327.24 3632.72 2314.06 3632.72Z" stroke="#1E223B" stroke-width="2" stroke-linecap="round" stroke-linejoin="round"/>
<path d="M2059.46 3632.72H1932.16C1918.98 3632.72 1908.3 3642.36 1908.3 3654.24V3697.28C1908.3 3709.16 1918.98 3718.79 1932.16 3718.79H2059.46C2072.64 3718.79 2083.33 3709.16 2083.33 3697.28V3654.24C2083.33 3642.36 2072.64 3632.72 2059.46 3632.72Z" stroke="#1E223B" stroke-width="2" stroke-linecap="round" stroke-linejoin="round"/>
<path d="M3587.03 3815.46H3459.73C3446.55 3815.46 3435.86 3825.09 3435.86 3836.97V3951.74C3435.86 3963.62 3446.55 3973.25 3459.73 3973.25H3587.03C3600.21 3973.25 3610.9 3963.62 3610.9 3951.74V3836.97C3610.9 3825.09 3600.21 3815.46 3587.03 3815.46Z" stroke="#1E223B" stroke-width="2" stroke-linecap="round" stroke-linejoin="round"/>
<path d="M3332.44 3815.46H3205.14C3191.96 3815.46 3181.27 3825.09 3181.27 3836.97V3951.74C3181.27 3963.62 3191.96 3973.25 3205.14 3973.25H3332.44C3345.62 3973.25 3356.3 3963.62 3356.3 3951.74V3836.97C3356.3 3825.09 3345.62 3815.46 3332.44 3815.46Z" stroke="#1E223B" stroke-width="2" stroke-linecap="round" stroke-linejoin="round"/>
<path d="M3077.84 3815.46H2950.54C2937.36 3815.46 2926.67 3825.09 2926.67 3836.97V3951.74C2926.67 3963.62 2937.36 3973.25 2950.54 3973.25H3077.84C3091.02 3973.25 3101.71 3963.62 3101.71 3951.74V3836.97C3101.71 3825.09 3091.02 3815.46 3077.84 3815.46Z" stroke="#1E223B" stroke-width="2" stroke-linecap="round" stroke-linejoin="round"/>
<path d="M2823.25 3815.46H2695.95C2682.77 3815.46 2672.08 3825.09 2672.08 3836.97V3951.74C2672.08 3963.62 2682.77 3973.25 2695.95 3973.25H2823.25C2836.43 3973.25 2847.11 3963.62 2847.11 3951.74V3836.97C2847.11 3825.09 2836.43 3815.46 2823.25 3815.46Z" stroke="#1E223B" stroke-width="2" stroke-linecap="round" stroke-linejoin="round"/>
<path d="M2568.65 3815.46H2441.35C2428.17 3815.46 2417.48 3825.09 2417.48 3836.97V3951.74C2417.48 3963.62 2428.17 3973.25 2441.35 3973.25H2568.65C2581.83 3973.25 2592.52 3963.62 2592.52 3951.74V3836.97C2592.52 3825.09 2581.83 3815.46 2568.65 3815.46Z" stroke="#1E223B" stroke-width="2" stroke-linecap="round" stroke-linejoin="round"/>
<path d="M2314.06 3815.46H2186.76C2173.58 3815.46 2162.89 3825.09 2162.89 3836.97V3951.74C2162.89 3963.62 2173.58 3973.25 2186.76 3973.25H2314.06C2327.24 3973.25 2337.92 3963.62 2337.92 3951.74V3836.97C2337.92 3825.09 2327.24 3815.46 2314.06 3815.46Z" stroke="#1E223B" stroke-width="2" stroke-linecap="round" stroke-linejoin="round"/>
<path d="M2059.46 3815.46H1932.16C1918.98 3815.46 1908.3 3825.09 1908.3 3836.97V3951.74C1908.3 3963.62 1918.98 3973.25 1932.16 3973.25H2059.46C2072.64 3973.25 2083.33 3963.62 2083.33 3951.74V3836.97C2083.33 3825.09 2072.64 3815.46 2059.46 3815.46Z" stroke="#1E223B" stroke-width="2" stroke-linecap="round" stroke-linejoin="round"/>
<path d="M4096.22 3815.46H3968.92C3955.74 3815.46 3945.06 3825.09 3945.06 3836.97V4177.76C3945.06 4189.64 3955.74 4199.27 3968.92 4199.27H4096.22C4109.4 4199.27 4120.09 4189.64 4120.09 4177.76V3836.97C4120.09 3825.09 4109.4 3815.46 4096.22 3815.46Z" stroke="#1E223B" stroke-width="2" stroke-linecap="round" stroke-linejoin="round"/>
<path d="M3841.62 3815.46H3714.33C3708 3815.46 3701.93 3817.72 3697.45 3821.76C3692.97 3825.79 3690.46 3831.27 3690.46 3836.97V4019.96C3690.46 4025.67 3687.94 4031.14 3683.47 4035.18C3678.99 4039.21 3672.92 4041.48 3666.59 4041.48H3459.73C3453.4 4041.48 3447.33 4043.75 3442.85 4047.78C3438.38 4051.82 3435.86 4057.29 3435.86 4063V4177.76C3435.86 4183.46 3438.38 4188.94 3442.85 4192.97C3447.33 4197.01 3453.4 4199.27 3459.73 4199.27H3841.62C3847.95 4199.27 3854.03 4197.01 3858.5 4192.97C3862.98 4188.94 3865.49 4183.46 3865.49 4177.76V3836.97C3865.49 3831.27 3862.98 3825.79 3858.5 3821.76C3854.03 3817.72 3847.95 3815.46 3841.62 3815.46Z" stroke="#1E223B" stroke-width="2" stroke-linecap="round" stroke-linejoin="round"/>
<path d="M3332.44 4041.48H3205.14C3191.96 4041.48 3181.27 4051.11 3181.27 4063V4177.76C3181.27 4189.64 3191.96 4199.27 3205.14 4199.27H3332.44C3345.62 4199.27 3356.3 4189.64 3356.3 4177.76V4063C3356.3 4051.11 3345.62 4041.48 3332.44 4041.48Z" stroke="#1E223B" stroke-width="2" stroke-linecap="round" stroke-linejoin="round"/>
<path d="M3077.84 4041.48H2950.54C2937.36 4041.48 2926.67 4051.11 2926.67 4063V4177.76C2926.67 4189.64 2937.36 4199.27 2950.54 4199.27H3077.84C3091.02 4199.27 3101.71 4189.64 3101.71 4177.76V4063C3101.71 4051.11 3091.02 4041.48 3077.84 4041.48Z" stroke="#1E223B" stroke-width="2" stroke-linecap="round" stroke-linejoin="round"/>
<path d="M2823.25 4041.48H2695.95C2682.77 4041.48 2672.08 4051.11 2672.08 4063V4177.76C2672.08 4189.64 2682.77 4199.27 2695.95 4199.27H2823.25C2836.43 4199.27 2847.11 4189.64 2847.11 4177.76V4063C2847.11 4051.11 2836.43 4041.48 2823.25 4041.48Z" stroke="#1E223B" stroke-width="2" stroke-linecap="round" stroke-linejoin="round"/>
<path d="M2568.65 4041.48H2441.35C2428.17 4041.48 2417.48 4051.11 2417.48 4063V4177.76C2417.48 4189.64 2428.17 4199.27 2441.35 4199.27H2568.65C2581.83 4199.27 2592.52 4189.64 2592.52 4177.76V4063C2592.52 4051.11 2581.83 4041.48 2568.65 4041.48Z" stroke="#1E223B" stroke-width="2" stroke-linecap="round" stroke-linejoin="round"/>
<path d="M2314.06 4041.48H1932.16C1918.98 4041.48 1908.3 4051.11 1908.3 4063V4177.76C1908.3 4189.64 1918.98 4199.27 1932.16 4199.27H2314.06C2327.24 4199.27 2337.93 4189.64 2337.93 4177.76V4063C2337.93 4051.11 2327.24 4041.48 2314.06 4041.48Z" stroke="#1E223B" stroke-width="2" stroke-linecap="round" stroke-linejoin="round"/>
<path d="M4096.22 4267.49H3968.92C3955.74 4267.49 3945.06 4277.13 3945.06 4289.01V4403.77C3945.06 4415.65 3955.74 4425.29 3968.92 4425.29H4096.22C4109.4 4425.29 4120.09 4415.65 4120.09 4403.77V4289.01C4120.09 4277.13 4109.4 4267.49 4096.22 4267.49Z" stroke="#1E223B" stroke-width="2" stroke-linecap="round" stroke-linejoin="round"/>
<path d="M3841.62 4267.49H3714.33C3701.15 4267.49 3690.46 4277.13 3690.46 4289.01V4403.77C3690.46 4415.65 3701.15 4425.29 3714.33 4425.29H3841.62C3854.81 4425.29 3865.49 4415.65 3865.49 4403.77V4289.01C3865.49 4277.13 3854.81 4267.49 3841.62 4267.49Z" stroke="#1E223B" stroke-width="2" stroke-linecap="round" stroke-linejoin="round"/>
<path d="M3587.03 4267.49H3459.73C3446.55 4267.49 3435.86 4277.13 3435.86 4289.01V4403.77C3435.86 4415.65 3446.55 4425.29 3459.73 4425.29H3587.03C3600.21 4425.29 3610.9 4415.65 3610.9 4403.77V4289.01C3610.9 4277.13 3600.21 4267.49 3587.03 4267.49Z" stroke="#1E223B" stroke-width="2" stroke-linecap="round" stroke-linejoin="round"/>
<path d="M3332.44 4267.49H2695.95C2682.77 4267.49 2672.08 4277.13 2672.08 4289.01V4403.77C2672.08 4415.65 2682.77 4425.29 2695.95 4425.29H3332.44C3345.62 4425.29 3356.3 4415.65 3356.3 4403.77V4289.01C3356.3 4277.13 3345.62 4267.49 3332.44 4267.49Z" stroke="#1E223B" stroke-width="2" stroke-linecap="round" stroke-linejoin="round"/>
<path d="M2568.65 4267.49H2441.35C2428.17 4267.49 2417.48 4277.13 2417.48 4289.01V4403.77C2417.48 4415.65 2428.17 4425.29 2441.35 4425.29H2568.65C2581.83 4425.29 2592.52 4415.65 2592.52 4403.77V4289.01C2592.52 4277.13 2581.83 4267.49 2568.65 4267.49Z" stroke="#1E223B" stroke-width="2" stroke-linecap="round" stroke-linejoin="round"/>
<path d="M2314.06 4267.49H2186.76C2173.58 4267.49 2162.89 4277.13 2162.89 4289.01V4403.77C2162.89 4415.65 2173.58 4425.29 2186.76 4425.29H2314.06C2327.24 4425.29 2337.92 4415.65 2337.92 4403.77V4289.01C2337.92 4277.13 2327.24 4267.49 2314.06 4267.49Z" stroke="#1E223B" stroke-width="2" stroke-linecap="round" stroke-linejoin="round"/>
<path d="M2059.46 4267.49H1932.16C1918.98 4267.49 1908.3 4277.13 1908.3 4289.01V4403.77C1908.3 4415.65 1918.98 4425.29 1932.16 4425.29H2059.46C2072.64 4425.29 2083.33 4415.65 2083.33 4403.77V4289.01C2083.33 4277.13 2072.64 4267.49 2059.46 4267.49Z" stroke="#1E223B" stroke-width="2" stroke-linecap="round" stroke-linejoin="round"/>
<path d="M2426.59 4937.17H2076.52V5224.07H2426.59V4937.17Z" fill="#F2A197"/>
<path d="M2426.59 4937.17H2076.52V5224.07H2426.59V4937.17Z" stroke="#1E223B" stroke-width="2" stroke-linecap="round" stroke-linejoin="round"/>
<path d="M2453.39 5159.52H2040.48V5342.52H2453.39V5159.52Z" fill="white"/>
<path d="M2453.39 5159.52H2040.48V5342.52H2453.39V5159.52Z" stroke="#1E223B" stroke-width="2" stroke-linecap="round" stroke-linejoin="round"/>
<path d="M2025.03 5337.87H2468.85C2482.54 5337.87 2495.66 5342.77 2505.34 5351.5C2515.02 5360.23 2520.46 5372.06 2520.46 5384.4V6221.84H1973.42V5384.39C1973.42 5372.05 1978.86 5360.22 1988.53 5351.5C1998.21 5342.77 2011.34 5337.87 2025.03 5337.87Z" fill="#1E223B"/>
<path d="M2025.03 5337.87H2468.85C2482.54 5337.87 2495.66 5342.77 2505.34 5351.5C2515.02 5360.23 2520.46 5372.06 2520.46 5384.4V6221.84H1973.42V5384.39C1973.42 5372.05 1978.86 5360.22 1988.53 5351.5C1998.21 5342.77 2011.34 5337.87 2025.03 5337.87V5337.87Z" stroke="#1E223B" stroke-width="2" stroke-linecap="round" stroke-linejoin="round"/>
<path opacity="0.2" d="M2379.65 5286.69C2401.5 5286.69 2419.21 5270.72 2419.21 5251.02C2419.21 5231.32 2401.5 5215.35 2379.65 5215.35C2357.79 5215.35 2340.08 5231.32 2340.08 5251.02C2340.08 5270.72 2357.79 5286.69 2379.65 5286.69Z" fill="#1E223B"/>
<path d="M2379.65 5286.69C2401.5 5286.69 2419.21 5270.72 2419.21 5251.02C2419.21 5231.32 2401.5 5215.35 2379.65 5215.35C2357.79 5215.35 2340.08 5231.32 2340.08 5251.02C2340.08 5270.72 2357.79 5286.69 2379.65 5286.69Z" stroke="#1E223B" stroke-width="2" stroke-linecap="round" stroke-linejoin="round"/>
<path d="M2681.13 4565.31L2691.46 4570.69C2702.43 4576.4 2710.43 4585.8 2713.7 4596.82C2716.98 4607.85 2715.27 4619.59 2708.94 4629.48L2506.06 4946.27L2413.04 4897.85L2615.92 4581.06C2622.25 4571.18 2632.67 4563.97 2644.9 4561.01C2657.13 4558.06 2670.16 4559.6 2681.13 4565.31Z" fill="#F2A197"/>
<path d="M2681.13 4565.31L2691.46 4570.69C2702.43 4576.4 2710.43 4585.8 2713.7 4596.82C2716.98 4607.85 2715.27 4619.59 2708.94 4629.48L2506.06 4946.27L2413.04 4897.85L2615.92 4581.06C2622.25 4571.18 2632.67 4563.97 2644.9 4561.01C2657.13 4558.06 2670.16 4559.6 2681.13 4565.31V4565.31Z" stroke="#1E223B" stroke-width="2" stroke-linecap="round" stroke-linejoin="round"/>
<path d="M2485.63 4118.43H2473.7C2461.03 4118.43 2448.89 4122.97 2439.94 4131.04C2430.99 4139.11 2425.96 4150.05 2425.96 4161.47V4484.23C2425.96 4489.94 2423.44 4495.41 2418.97 4499.45C2414.49 4503.48 2408.42 4505.75 2402.09 4505.75C2395.76 4505.75 2389.69 4503.48 2385.21 4499.45C2380.74 4495.41 2378.22 4489.94 2378.22 4484.23V4099.07C2378.22 4087.65 2373.19 4076.71 2364.24 4068.64C2355.29 4060.56 2343.15 4056.03 2330.49 4056.03H2318.55C2305.89 4056.03 2293.75 4060.56 2284.8 4068.64C2275.84 4076.71 2270.81 4087.65 2270.81 4099.07V4484.23C2270.81 4489.94 2268.3 4495.41 2263.82 4499.45C2259.35 4503.48 2253.28 4505.75 2246.95 4505.75C2240.62 4505.75 2234.55 4503.48 2230.07 4499.45C2225.59 4495.41 2223.08 4489.94 2223.08 4484.23V4161.47C2223.08 4150.05 2218.05 4139.11 2209.1 4131.04C2200.14 4122.97 2188 4118.43 2175.34 4118.43H2163.41C2150.75 4118.43 2138.61 4122.97 2129.65 4131.04C2120.7 4139.11 2115.67 4150.05 2115.67 4161.47V4484.23C2115.67 4489.94 2113.16 4495.41 2108.68 4499.45C2104.2 4503.48 2098.13 4505.75 2091.8 4505.75C2085.47 4505.75 2079.4 4503.48 2074.93 4499.45C2070.45 4495.41 2067.93 4489.94 2067.93 4484.23V4263.68C2067.93 4252.26 2062.91 4241.32 2053.95 4233.25C2045 4225.17 2032.86 4220.64 2020.2 4220.64H2008.26C1995.6 4220.64 1983.46 4225.17 1974.51 4233.25C1965.56 4241.32 1960.53 4252.26 1960.53 4263.68V4896.62C1960.53 4919.44 1970.59 4941.34 1988.49 4957.48C2006.4 4973.62 2030.68 4982.69 2056 4982.69H2437.89C2463.21 4982.69 2487.5 4973.62 2505.4 4957.48C2523.31 4941.34 2533.37 4919.44 2533.37 4896.62V4161.47C2533.37 4155.82 2532.13 4150.23 2529.73 4145C2527.34 4139.78 2523.82 4135.04 2519.39 4131.04C2514.95 4127.04 2509.69 4123.87 2503.9 4121.71C2498.11 4119.55 2491.9 4118.43 2485.63 4118.43Z" fill="#FDB3A6"/>
<path d="M2485.63 4118.43H2473.7C2461.03 4118.43 2448.89 4122.97 2439.94 4131.04C2430.99 4139.11 2425.96 4150.05 2425.96 4161.47V4484.23C2425.96 4489.94 2423.44 4495.41 2418.97 4499.45C2414.49 4503.48 2408.42 4505.75 2402.09 4505.75V4505.75C2395.76 4505.75 2389.69 4503.48 2385.21 4499.45C2380.74 4495.41 2378.22 4489.94 2378.22 4484.23V4099.07C2378.22 4087.65 2373.19 4076.71 2364.24 4068.64C2355.29 4060.56 2343.15 4056.03 2330.49 4056.03H2318.55C2305.89 4056.03 2293.75 4060.56 2284.8 4068.64C2275.84 4076.71 2270.81 4087.65 2270.81 4099.07V4484.23C2270.81 4489.94 2268.3 4495.41 2263.82 4499.45C2259.35 4503.48 2253.28 4505.75 2246.95 4505.75V4505.75C2240.62 4505.75 2234.55 4503.48 2230.07 4499.45C2225.59 4495.41 2223.08 4489.94 2223.08 4484.23V4161.47C2223.08 4150.05 2218.05 4139.11 2209.1 4131.04C2200.14 4122.97 2188 4118.43 2175.34 4118.43H2163.41C2150.75 4118.43 2138.61 4122.97 2129.65 4131.04C2120.7 4139.11 2115.67 4150.05 2115.67 4161.47V4484.23C2115.67 4489.94 2113.16 4495.41 2108.68 4499.45C2104.2 4503.48 2098.13 4505.75 2091.8 4505.75V4505.75C2085.47 4505.75 2079.4 4503.48 2074.93 4499.45C2070.45 4495.41 2067.93 4489.94 2067.93 4484.23V4263.68C2067.93 4252.26 2062.91 4241.32 2053.95 4233.25C2045 4225.17 2032.86 4220.64 2020.2 4220.64H2008.26C1995.6 4220.64 1983.46 4225.17 1974.51 4233.25C1965.56 4241.32 1960.53 4252.26 1960.53 4263.68V4896.62C1960.53 4919.44 1970.59 4941.34 1988.49 4957.48C2006.4 4973.62 2030.68 4982.69 2056 4982.69H2437.89C2463.21 4982.69 2487.5 4973.62 2505.4 4957.48C2523.31 4941.34 2533.37 4919.44 2533.37 4896.62V4161.47C2533.37 4155.82 2532.13 4150.23 2529.73 4145C2527.34 4139.78 2523.82 4135.04 2519.39 4131.04C2514.95 4127.04 2509.69 4123.87 2503.9 4121.71C2498.11 4119.55 2491.9 4118.43 2485.63 4118.43V4118.43Z" stroke="#1E223B" stroke-width="2" stroke-linecap="round" stroke-linejoin="round"/>
<path d="M3288.69 5570.38H2938.62V5857.28H3288.69V5570.38Z" fill="#F2A197"/>
<path d="M3288.69 5570.38H2938.62V5857.28H3288.69V5570.38Z" stroke="#1E223B" stroke-width="2" stroke-linecap="round" stroke-linejoin="round"/>
<path d="M2938.55 5531.06L2845.53 5579.48L2642.65 5262.69C2636.32 5252.8 2634.61 5241.05 2637.88 5230.03C2641.16 5219 2649.16 5209.6 2660.13 5203.9L2670.46 5198.52C2681.43 5192.81 2694.46 5191.26 2706.69 5194.22C2718.91 5197.17 2729.34 5204.39 2735.67 5214.27L2938.55 5531.06Z" fill="#F2A197"/>
<path d="M2938.55 5531.06L2845.53 5579.48L2642.65 5262.69C2636.32 5252.8 2634.61 5241.05 2637.88 5230.03C2641.16 5219 2649.16 5209.6 2660.13 5203.9L2670.46 5198.52C2681.43 5192.81 2694.46 5191.26 2706.69 5194.22C2718.91 5197.17 2729.34 5204.39 2735.67 5214.27L2938.55 5531.06Z" stroke="#1E223B" stroke-width="2" stroke-linecap="round" stroke-linejoin="round"/>
<path d="M2874.96 4751.64H2886.89C2899.55 4751.64 2911.7 4756.17 2920.65 4764.24C2929.6 4772.31 2934.63 4783.26 2934.63 4794.67V5117.44C2934.63 5123.15 2937.14 5128.62 2941.62 5132.65C2946.1 5136.69 2952.17 5138.96 2958.5 5138.96C2964.83 5138.96 2970.9 5136.69 2975.38 5132.65C2979.85 5128.62 2982.37 5123.15 2982.37 5117.44V5066C2982.37 5054.58 2987.4 5043.64 2996.35 5035.57C3005.3 5027.5 3017.44 5022.96 3030.1 5022.96H3042.04C3054.7 5022.96 3066.84 5027.5 3075.79 5035.57C3084.74 5043.64 3089.77 5054.58 3089.77 5066V5117.44C3089.77 5123.15 3092.29 5128.62 3096.76 5132.65C3101.24 5136.69 3107.31 5138.96 3113.64 5138.96C3119.97 5138.96 3126.04 5136.69 3130.52 5132.65C3135 5128.62 3137.51 5123.15 3137.51 5117.44V5066C3137.51 5054.58 3142.54 5043.64 3151.49 5035.57C3160.44 5027.5 3172.59 5022.96 3185.25 5022.96H3197.18C3209.84 5022.96 3221.98 5027.5 3230.94 5035.57C3239.89 5043.64 3244.92 5054.58 3244.92 5066V5117.44C3244.92 5123.15 3247.43 5128.62 3251.91 5132.65C3256.38 5136.69 3262.46 5138.96 3268.79 5138.96C3275.12 5138.96 3281.19 5136.69 3285.66 5132.65C3290.14 5128.62 3292.65 5123.15 3292.65 5117.44V5066C3292.65 5054.58 3297.68 5043.64 3306.64 5035.57C3315.59 5027.5 3327.73 5022.96 3340.39 5022.96H3352.32C3364.99 5022.96 3377.13 5027.5 3386.08 5035.57C3395.03 5043.64 3400.06 5054.58 3400.06 5066V5529.82C3400.06 5552.65 3390 5574.54 3372.1 5590.68C3354.19 5606.83 3329.91 5615.89 3304.59 5615.89H2922.7C2897.37 5615.89 2873.09 5606.83 2855.19 5590.68C2837.28 5574.54 2827.22 5552.65 2827.22 5529.82V4794.68C2827.22 4789.03 2828.46 4783.43 2830.85 4778.21C2833.25 4772.99 2836.77 4768.24 2841.2 4764.25C2845.63 4760.25 2850.9 4757.08 2856.69 4754.92C2862.48 4752.75 2868.69 4751.64 2874.96 4751.64Z" fill="#FDB3A6"/>
<path d="M2874.96 4751.64H2886.89C2899.55 4751.64 2911.7 4756.17 2920.65 4764.24C2929.6 4772.31 2934.63 4783.26 2934.63 4794.67V5117.44C2934.63 5123.15 2937.14 5128.62 2941.62 5132.65C2946.1 5136.69 2952.17 5138.96 2958.5 5138.96C2964.83 5138.96 2970.9 5136.69 2975.38 5132.65C2979.85 5128.62 2982.37 5123.15 2982.37 5117.44V5066C2982.37 5054.58 2987.4 5043.64 2996.35 5035.57C3005.3 5027.5 3017.44 5022.96 3030.1 5022.96H3042.04C3054.7 5022.96 3066.84 5027.5 3075.79 5035.57C3084.74 5043.64 3089.77 5054.58 3089.77 5066V5117.44C3089.77 5123.15 3092.29 5128.62 3096.76 5132.65C3101.24 5136.69 3107.31 5138.96 3113.64 5138.96C3119.97 5138.96 3126.04 5136.69 3130.52 5132.65C3135 5128.62 3137.51 5123.15 3137.51 5117.44V5066C3137.51 5054.58 3142.54 5043.64 3151.49 5035.57C3160.44 5027.5 3172.59 5022.96 3185.25 5022.96H3197.18C3209.84 5022.96 3221.98 5027.5 3230.94 5035.57C3239.89 5043.64 3244.92 5054.58 3244.92 5066V5117.44C3244.92 5123.15 3247.43 5128.62 3251.91 5132.65C3256.38 5136.69 3262.46 5138.96 3268.79 5138.96C3275.12 5138.96 3281.19 5136.69 3285.66 5132.65C3290.14 5128.62 3292.65 5123.15 3292.65 5117.44V5066C3292.65 5054.58 3297.68 5043.64 3306.64 5035.57C3315.59 5027.5 3327.73 5022.96 3340.39 5022.96H3352.32C3364.99 5022.96 3377.13 5027.5 3386.08 5035.57C3395.03 5043.64 3400.06 5054.58 3400.06 5066V5529.82C3400.06 5552.65 3390 5574.54 3372.1 5590.68C3354.19 5606.83 3329.91 5615.89 3304.59 5615.89H2922.7C2897.37 5615.89 2873.09 5606.83 2855.19 5590.68C2837.28 5574.54 2827.22 5552.65 2827.22 5529.82V4794.68C2827.22 4789.03 2828.46 4783.43 2830.85 4778.21C2833.25 4772.99 2836.77 4768.24 2841.2 4764.25C2845.63 4760.25 2850.9 4757.08 2856.69 4754.92C2862.48 4752.75 2868.69 4751.64 2874.96 4751.64Z" stroke="#1E223B" stroke-width="2" stroke-linecap="round" stroke-linejoin="round"/>
<path d="M3320.11 5792.73H2907.21V5975.72H3320.11V5792.73Z" fill="white"/>
<path d="M3320.11 5792.73H2907.21V5975.72H3320.11V5792.73Z" stroke="#1E223B" stroke-width="2" stroke-linecap="round" stroke-linejoin="round"/>
<path d="M2994.53 5919.89C3016.38 5919.89 3034.1 5903.92 3034.1 5884.23C3034.1 5864.53 3016.38 5848.56 2994.53 5848.56C2972.68 5848.56 2954.97 5864.53 2954.97 5884.23C2954.97 5903.92 2972.68 5919.89 2994.53 5919.89Z" stroke="#1E223B" stroke-width="2" stroke-linecap="round" stroke-linejoin="round"/>
<path opacity="0.2" d="M2994.53 5919.89C3016.38 5919.89 3034.1 5903.92 3034.1 5884.23C3034.1 5864.53 3016.38 5848.56 2994.53 5848.56C2972.68 5848.56 2954.97 5864.53 2954.97 5884.23C2954.97 5903.92 2972.68 5919.89 2994.53 5919.89Z" fill="#1E223B"/>
<path d="M3129.55 528.899H3559.18" stroke="#1E223B" stroke-width="3" stroke-linecap="round" stroke-linejoin="round"/>
<path d="M3129.55 625.728H3463.71" stroke="#1E223B" stroke-width="3" stroke-linecap="round" stroke-linejoin="round"/>
<path d="M3129.55 722.557H3320.5" stroke="#1E223B" stroke-width="3" stroke-linecap="round" stroke-linejoin="round"/>
<path d="M3704.09 123.651H3918.9" stroke="#1E223B" stroke-width="3" stroke-linecap="round" stroke-linejoin="round"/>
<path d="M3704.09 173.858H3839.34" stroke="#1E223B" stroke-width="3" stroke-linecap="round" stroke-linejoin="round"/>
<path d="M3699.08 633.826H3722.95" stroke="#1E223B" stroke-width="2" stroke-linecap="round" stroke-linejoin="round"/>
<path d="M3786.11 633.826H3962.84C4046.75 633.826 4127.22 663.875 4186.55 717.362C4245.88 770.849 4279.21 843.393 4279.21 919.035V919.035C4279.21 956.489 4271.03 993.577 4255.13 1028.18C4239.23 1062.78 4215.93 1094.22 4186.55 1120.71C4157.17 1147.19 4122.29 1168.2 4083.91 1182.53C4045.53 1196.87 4004.39 1204.24 3962.84 1204.24H3441.21C3394.54 1204.24 3348.32 1212.53 3305.2 1228.63C3262.08 1244.73 3222.9 1268.33 3189.89 1298.09C3156.89 1327.84 3130.71 1363.16 3112.85 1402.03C3094.99 1440.91 3085.8 1482.57 3085.8 1524.65V1560.08" stroke="white" stroke-width="3" stroke-linecap="round" stroke-linejoin="round" stroke-dasharray="5.95 7.94"/>
<path d="M3085.8 1588.55V1610.07" stroke="#1E223B" stroke-width="2" stroke-linecap="round" stroke-linejoin="round"/>
<path d="M737.611 2414.13H1736.43" stroke="white" stroke-width="3" stroke-linecap="round" stroke-linejoin="round" stroke-dasharray="6 8"/>
<path d="M711.993 4041.48H920.841C1016.03 4041.48 1107.33 4007.39 1174.64 3946.71C1241.95 3886.02 1279.76 3803.72 1279.76 3717.9V3581.67C1279.76 3496.29 1317.38 3414.41 1384.35 3354.04C1451.31 3293.67 1542.14 3259.75 1636.84 3259.75H1749.17" stroke="white" stroke-width="3" stroke-linecap="round" stroke-linejoin="round"/>
<path d="M1771.39 656.986H1879.24C1954.47 656.988 2026.62 683.931 2079.81 731.888C2133.01 779.845 2162.89 844.888 2162.89 912.709C2162.89 946.29 2170.23 979.543 2184.48 1010.57C2198.74 1041.59 2219.63 1069.78 2245.97 1093.53C2272.31 1117.27 2303.58 1136.11 2338 1148.96C2372.41 1161.81 2409.3 1168.42 2446.55 1168.42H2603.24C2678.47 1168.43 2750.62 1195.37 2803.82 1243.33C2857.01 1291.28 2886.9 1356.33 2886.9 1424.15V1610.07" stroke="white" stroke-width="3" stroke-linecap="round" stroke-linejoin="round" stroke-dasharray="6 8"/>
<path d="M4278.93 2826.7H5260.17" stroke="white" stroke-width="3" stroke-linecap="round" stroke-linejoin="round" stroke-dasharray="6 8"/>
<path d="M4279.21 2363.15H4697.16C4733.48 2363.15 4769.45 2356.7 4803.01 2344.17C4836.57 2331.65 4867.07 2313.28 4892.76 2290.12C4918.44 2266.97 4938.82 2239.48 4952.72 2209.23C4966.62 2178.97 4973.78 2146.55 4973.78 2113.8V1453.6" stroke="white" stroke-width="3" stroke-linecap="round" stroke-linejoin="round"/>
<path d="M5508.32 4453.09H4279.21" stroke="white" stroke-width="3" stroke-linecap="round" stroke-linejoin="round" stroke-dasharray="6 8"/>
<path opacity="0.39" d="M4338.88 137.995C4371.84 137.995 4398.55 113.911 4398.55 84.2012C4398.55 54.4915 4371.84 30.4071 4338.88 30.4071C4305.93 30.4071 4279.21 54.4915 4279.21 84.2012C4279.21 113.911 4305.93 137.995 4338.88 137.995Z" fill="white"/>
<path d="M4338.88 137.995C4371.84 137.995 4398.55 113.911 4398.55 84.2012C4398.55 54.4915 4371.84 30.4071 4338.88 30.4071C4305.93 30.4071 4279.21 54.4915 4279.21 84.2012C4279.21 113.911 4305.93 137.995 4338.88 137.995Z" stroke="white" stroke-width="2" stroke-linecap="round" stroke-linejoin="round"/>
<path d="M1648.99 450.001H697.825C644.69 450.001 601.616 484.517 601.616 527.094V745.879C601.616 788.457 644.69 822.973 697.825 822.973H1648.99C1702.12 822.973 1745.19 788.457 1745.19 745.879V527.094C1745.19 484.517 1702.12 450.001 1648.99 450.001Z" fill="#B8C1EC" stroke="#1E223B" stroke-width="2" stroke-miterlimit="10"/>
<path d="M1648.99 450.001H697.825C644.69 450.001 601.616 484.517 601.616 527.094V745.879C601.616 788.457 644.69 822.973 697.825 822.973H1648.99C1702.12 822.973 1745.19 788.457 1745.19 745.879V527.094C1745.19 484.517 1702.12 450.001 1648.99 450.001Z" stroke="#1E223B" stroke-width="2" stroke-linecap="round" stroke-linejoin="round"/>
<path d="M914.112 648.999V710.229H891.358V559.448H917.14C929.77 559.448 939.308 560.327 945.753 562.085C952.263 563.843 957.993 567.163 962.94 572.046C971.599 580.509 975.929 591.186 975.929 604.077C975.929 617.879 971.306 628.816 962.062 636.889C952.817 644.962 940.349 648.999 924.659 648.999H914.112ZM914.112 627.905H922.608C943.507 627.905 953.956 619.865 953.956 603.784C953.956 588.224 943.181 580.444 921.632 580.444H914.112V627.905ZM1022.12 559.448V688.843H1066.46V710.229H999.366V559.448H1022.12ZM1185.01 673.608H1120.46L1103.66 710.229H1079.15L1153.76 549.975L1225.73 710.229H1200.83L1185.01 673.608ZM1175.73 652.221L1153.37 600.952L1129.93 652.221H1175.73ZM1244.68 710.229V549.194L1354.64 664.233V559.448H1377.39V719.409L1267.43 604.663V710.229H1244.68Z" fill="#FFFFFE"/>
<path d="M5757.9 1099.3H4755.99C4682.54 1099.3 4623.01 1137.48 4623.01 1184.58V1440.39C4623.01 1487.48 4682.54 1525.66 4755.99 1525.66H5757.9C5831.34 1525.66 5890.88 1487.48 5890.88 1440.39V1184.58C5890.88 1137.48 5831.34 1099.3 5757.9 1099.3Z" fill="#EEBBC3"/>
<path d="M5757.9 1099.3H4755.99C4682.54 1099.3 4623.01 1137.48 4623.01 1184.58V1440.39C4623.01 1487.48 4682.54 1525.66 4755.99 1525.66H5757.9C5831.34 1525.66 5890.88 1487.48 5890.88 1440.39V1184.58C5890.88 1137.48 5831.34 1099.3 5757.9 1099.3Z" stroke="#1E223B" stroke-width="2" stroke-linecap="round" stroke-linejoin="round"/>
<path d="M4962.43 1314.97L5009.11 1379.23H4981.28L4938.21 1317.51H4934.11V1379.23H4911.36V1228.45H4938.02C4957.94 1228.45 4972.33 1232.19 4981.18 1239.68C4990.95 1248.01 4995.83 1259.01 4995.83 1272.69C4995.83 1283.36 4992.77 1292.54 4986.65 1300.23C4980.53 1307.91 4972.46 1312.82 4962.43 1314.97ZM4934.11 1297.69H4941.34C4962.89 1297.69 4973.66 1289.45 4973.66 1272.98C4973.66 1257.55 4963.18 1249.83 4942.22 1249.83H4934.11V1297.69ZM5115.07 1249.83H5054.62V1286.07H5113.31V1307.45H5054.62V1357.84H5115.07V1379.23H5031.87V1228.45H5115.07V1249.83ZM5137.43 1303.16C5137.43 1281.93 5145.21 1263.7 5160.77 1248.47C5176.27 1233.23 5194.89 1225.62 5216.63 1225.62C5238.12 1225.62 5256.54 1233.3 5271.91 1248.66C5287.34 1264.03 5295.05 1282.48 5295.05 1304.03C5295.05 1325.71 5287.3 1344.11 5271.81 1359.21C5256.25 1374.38 5237.47 1381.96 5215.46 1381.96C5195.99 1381.96 5178.51 1375.23 5163.02 1361.75C5145.96 1346.84 5137.43 1327.31 5137.43 1303.16ZM5160.38 1303.45C5160.38 1320.11 5165.98 1333.82 5177.18 1344.56C5188.31 1355.3 5201.17 1360.67 5215.75 1360.67C5231.57 1360.67 5244.92 1355.21 5255.79 1344.27C5266.66 1333.2 5272.1 1319.72 5272.1 1303.84C5272.1 1287.76 5266.73 1274.28 5255.99 1263.41C5245.31 1252.47 5232.09 1247 5216.34 1247C5200.65 1247 5187.4 1252.47 5176.59 1263.41C5165.79 1274.22 5160.38 1287.56 5160.38 1303.45ZM5374.74 1314.97L5421.42 1379.23H5393.59L5350.52 1317.51H5346.42V1379.23H5323.66V1228.45H5350.32C5370.25 1228.45 5384.63 1232.19 5393.49 1239.68C5403.25 1248.01 5408.14 1259.01 5408.14 1272.69C5408.14 1283.36 5405.08 1292.54 5398.96 1300.23C5392.84 1307.91 5384.76 1312.82 5374.74 1314.97ZM5346.42 1297.69H5353.64C5375.19 1297.69 5385.97 1289.45 5385.97 1272.98C5385.97 1257.55 5375.49 1249.83 5354.52 1249.83H5346.42V1297.69ZM5518.19 1300.71H5580.5V1305.69C5580.5 1317.02 5579.16 1327.05 5576.5 1335.77C5573.89 1343.85 5569.5 1351.4 5563.31 1358.43C5549.31 1374.18 5531.51 1382.06 5509.89 1382.06C5488.8 1382.06 5470.73 1374.44 5455.69 1359.21C5440.66 1343.91 5433.14 1325.55 5433.14 1304.13C5433.14 1282.26 5440.79 1263.7 5456.09 1248.47C5471.38 1233.17 5490 1225.52 5511.94 1225.52C5523.73 1225.52 5534.73 1227.93 5544.95 1232.74C5554.72 1237.56 5564.32 1245.38 5573.76 1256.18L5557.55 1271.71C5545.18 1255.24 5530.11 1247 5512.34 1247C5496.38 1247 5483.01 1252.5 5472.2 1263.51C5461.39 1274.31 5455.99 1287.86 5455.99 1304.13C5455.99 1320.93 5462.01 1334.76 5474.05 1345.64C5485.32 1355.73 5497.52 1360.77 5510.68 1360.77C5521.87 1360.77 5531.93 1357 5540.85 1349.44C5549.77 1341.83 5554.75 1332.71 5555.79 1322.1H5518.19V1300.71Z" fill="#FFFFFE"/>
<path d="M6603.97 2657.93H5413.87C5328.96 2657.93 5260.13 2686.78 5260.13 2722.37V2915.69C5260.13 2951.28 5328.96 2980.13 5413.87 2980.13H6603.97C6688.88 2980.13 6757.71 2951.28 6757.71 2915.69V2722.37C6757.71 2686.78 6688.88 2657.93 6603.97 2657.93Z" fill="#FFFFFE" fill-opacity="0.61"/>
<path d="M6603.97 2657.93H5413.87C5328.96 2657.93 5260.13 2686.78 5260.13 2722.37V2915.69C5260.13 2951.28 5328.96 2980.13 5413.87 2980.13H6603.97C6688.88 2980.13 6757.71 2951.28 6757.71 2915.69V2722.37C6757.71 2686.78 6688.88 2657.93 6603.97 2657.93Z" stroke="#1E223B" stroke-width="2" stroke-linecap="round" stroke-linejoin="round"/>
<path d="M5573.08 2883.23L5604.82 2721.12L5656.58 2838.31L5710.19 2721.12L5738.71 2883.23H5715.37L5700.82 2792.21L5656.19 2890.16L5612.83 2792.12L5596.62 2883.23H5573.08ZM5859.32 2846.61H5794.76L5777.97 2883.23H5753.46L5828.07 2722.98L5900.04 2883.23H5875.14L5859.32 2846.61ZM5850.04 2825.22L5827.67 2773.95L5804.24 2825.22H5850.04ZM5918.98 2883.23V2722.19L6028.94 2837.23V2732.45H6051.7V2892.41L5941.74 2777.66V2883.23H5918.98ZM6177.67 2846.61H6113.12L6096.33 2883.23H6071.82L6146.42 2722.98L6218.4 2883.23H6193.5L6177.67 2846.61ZM6168.4 2825.22L6146.03 2773.95L6122.6 2825.22H6168.4ZM6308.05 2804.71H6370.35V2809.69C6370.35 2821.02 6369.02 2831.05 6366.35 2839.77C6363.74 2847.85 6359.35 2855.4 6353.16 2862.43C6339.17 2878.18 6321.36 2886.06 6299.75 2886.06C6278.65 2886.06 6260.58 2878.44 6245.55 2863.21C6230.51 2847.91 6222.99 2829.55 6222.99 2808.13C6222.99 2786.26 6230.64 2767.7 6245.94 2752.47C6261.24 2737.17 6279.86 2729.52 6301.8 2729.52C6313.58 2729.52 6324.58 2731.93 6334.8 2736.74C6344.57 2741.56 6354.17 2749.38 6363.61 2760.18L6347.4 2775.71C6335.03 2759.24 6319.96 2751 6302.19 2751C6286.24 2751 6272.86 2756.5 6262.05 2767.51C6251.24 2778.31 6245.84 2791.86 6245.84 2808.13C6245.84 2824.93 6251.86 2838.76 6263.91 2849.64C6275.17 2859.73 6287.38 2864.77 6300.53 2864.77C6311.72 2864.77 6321.78 2861 6330.7 2853.44C6339.62 2845.83 6344.6 2836.71 6345.64 2826.1H6308.05V2804.71ZM6482.26 2753.83H6421.82V2790.07H6480.51V2811.45H6421.82V2861.84H6482.26V2883.23H6399.06V2732.45H6482.26V2753.83Z" fill="#121629" fill-opacity="0.7"/>
<path d="M6772.33 4301.88H5655.13C5575.42 4301.88 5510.81 4330.92 5510.81 4366.73V4561.29C5510.81 4597.11 5575.42 4626.14 5655.13 4626.14H6772.33C6852.04 4626.14 6916.65 4597.11 6916.65 4561.29V4366.73C6916.65 4330.92 6852.04 4301.88 6772.33 4301.88Z" fill="#121629" fill-opacity="0.77"/>
<path d="M6772.33 4301.88H5655.13C5575.42 4301.88 5510.81 4330.92 5510.81 4366.73V4561.29C5510.81 4597.11 5575.42 4626.14 5655.13 4626.14H6772.33C6852.04 4626.14 6916.65 4597.11 6916.65 4561.29V4366.73C6916.65 4330.92 6852.04 4301.88 6772.33 4301.88Z" stroke="#1E223B" stroke-opacity="0.83" stroke-width="2" stroke-linecap="round" stroke-linejoin="round"/>
<path d="M5938.78 4403.55V4430.51C5925.63 4419.5 5912.03 4414 5897.96 4414C5882.47 4414 5869.42 4419.57 5858.8 4430.7C5848.13 4441.77 5842.79 4455.31 5842.79 4471.33C5842.79 4487.15 5848.13 4500.49 5858.8 4511.37C5869.48 4522.24 5882.57 4527.67 5898.06 4527.67C5906.07 4527.67 5912.87 4526.37 5918.47 4523.77C5921.6 4522.47 5924.82 4520.71 5928.14 4518.5C5931.53 4516.28 5935.07 4513.61 5938.78 4510.49V4537.93C5925.76 4545.29 5912.09 4548.96 5897.77 4548.96C5876.22 4548.96 5857.83 4541.44 5842.59 4526.41C5827.42 4511.24 5819.84 4492.94 5819.84 4471.52C5819.84 4452.32 5826.19 4435.19 5838.88 4420.16C5854.51 4401.73 5874.72 4392.52 5899.53 4392.52C5913.07 4392.52 5926.15 4396.2 5938.78 4403.55ZM5994.64 4454.43H6059.68V4395.45H6082.44V4546.23H6059.68V4475.82H5994.64V4546.23H5971.89V4395.45H5994.64V4454.43ZM6207.14 4509.61H6142.59L6125.8 4546.23H6101.28L6175.89 4385.98L6247.87 4546.23H6222.96L6207.14 4509.61ZM6197.87 4488.22L6175.5 4436.95L6152.07 4488.22H6197.87ZM6317.89 4481.97L6364.57 4546.23H6336.73L6293.67 4484.51H6289.57V4546.23H6266.81V4395.45H6293.47C6313.39 4395.45 6327.78 4399.19 6336.64 4406.68C6346.4 4415.01 6351.28 4426.01 6351.28 4439.69C6351.28 4450.36 6348.22 4459.54 6342.1 4467.23C6335.98 4474.91 6327.91 4479.82 6317.89 4481.97ZM6289.57 4464.69H6296.79C6318.34 4464.69 6329.12 4456.45 6329.12 4439.98C6329.12 4424.55 6318.63 4416.83 6297.67 4416.83H6289.57V4464.69ZM6427.16 4416.83V4546.23H6404.41V4416.83H6369.74V4395.45H6461.73V4416.83H6427.16ZM6567.1 4417.91L6548.65 4428.85C6545.2 4422.86 6541.91 4418.95 6538.78 4417.13C6535.53 4415.04 6531.33 4414 6526.19 4414C6519.87 4414 6514.63 4415.79 6510.46 4419.37C6506.3 4422.89 6504.21 4427.32 6504.21 4432.66C6504.21 4440.01 6509.68 4445.94 6520.62 4450.43L6535.66 4456.58C6547.9 4461.53 6556.85 4467.58 6562.51 4474.75C6568.18 4481.84 6571.01 4490.57 6571.01 4500.92C6571.01 4514.78 6566.39 4526.24 6557.14 4535.29C6547.83 4544.41 6536.28 4548.96 6522.48 4548.96C6509.39 4548.96 6498.58 4545.09 6490.05 4537.34C6481.66 4529.6 6476.41 4518.69 6474.33 4504.63L6497.38 4499.55C6498.42 4508.4 6500.24 4514.52 6502.85 4517.91C6507.53 4524.42 6514.37 4527.67 6523.35 4527.67C6530.45 4527.67 6536.34 4525.3 6541.03 4520.55C6545.72 4515.79 6548.06 4509.77 6548.06 4502.48C6548.06 4499.55 6547.64 4496.88 6546.79 4494.47C6546.01 4492 6544.74 4489.75 6542.98 4487.73C6541.29 4485.65 6539.08 4483.73 6536.34 4481.97C6533.61 4480.15 6530.35 4478.42 6526.58 4476.8L6512.03 4470.74C6491.39 4462.02 6481.07 4449.26 6481.07 4432.46C6481.07 4421.13 6485.4 4411.66 6494.06 4404.04C6502.72 4396.36 6513.49 4392.52 6526.38 4392.52C6543.76 4392.52 6557.34 4400.98 6567.1 4417.91Z" fill="#FFFFFE"/>
<g opacity="0.49">
<path opacity="0.49" d="M5890.94 1037.29C5933.58 1037.29 5968.14 1002.66 5968.14 959.954C5968.14 917.246 5933.58 882.623 5890.94 882.623C5848.31 882.623 5813.74 917.246 5813.74 959.954C5813.74 1002.66 5848.31 1037.29 5890.94 1037.29Z" fill="white"/>
<path opacity="0.49" d="M5890.94 993.096C5909.22 993.096 5924.03 978.258 5924.03 959.954C5924.03 941.651 5909.22 926.812 5890.94 926.812C5872.67 926.812 5857.86 941.651 5857.86 959.954C5857.86 978.258 5872.67 993.096 5890.94 993.096Z" fill="white"/>
<path opacity="0.49" d="M6011.15 849.017L5963.39 876.636L5963.46 876.757C5959.98 873.706 5956.3 870.879 5952.46 868.293L5952.59 868.33L5966.86 814.972C5967.99 810.728 5967.4 806.206 5965.2 802.4C5963.01 798.595 5959.4 795.818 5955.16 794.68L5917.87 784.674C5915.78 784.11 5913.59 783.966 5911.43 784.25C5909.28 784.534 5907.2 785.24 5905.32 786.328C5903.44 787.416 5901.79 788.864 5900.47 790.59C5899.15 792.317 5898.17 794.287 5897.61 796.389L5883.34 849.742L5883.42 849.767C5878.84 850.078 5874.28 850.677 5869.77 851.561L5869.84 851.524L5842.26 803.69C5840.07 799.883 5836.46 797.105 5832.22 795.966C5827.98 794.826 5823.47 795.42 5819.67 797.616L5786.24 816.949C5784.35 818.036 5782.7 819.484 5781.38 821.21C5780.06 822.936 5779.09 824.907 5778.52 827.009C5777.96 829.111 5777.82 831.304 5778.1 833.462C5778.38 835.62 5779.09 837.701 5780.17 839.586L5807.74 887.42L5807.8 887.383C5804.79 890.848 5801.99 894.5 5799.43 898.317V898.24L5746.17 883.941C5741.93 882.804 5737.41 883.4 5733.61 885.598C5729.81 887.796 5727.04 891.415 5725.9 895.661L5715.91 933.01C5714.78 937.255 5715.37 941.778 5717.57 945.583C5719.76 949.389 5723.38 952.165 5727.61 953.302L5780.88 967.597L5780.91 967.472C5781.22 972.095 5781.83 976.694 5782.72 981.24L5782.65 981.119L5734.9 1008.74C5733.02 1009.82 5731.37 1011.27 5730.04 1013C5728.72 1014.72 5727.75 1016.69 5727.19 1018.8C5726.62 1020.9 5726.48 1023.09 5726.76 1025.25C5727.04 1027.4 5727.75 1029.49 5728.83 1031.37L5748.13 1064.86C5750.33 1068.66 5753.94 1071.44 5758.18 1072.58C5762.42 1073.72 5766.93 1073.13 5770.73 1070.93L5818.48 1043.31L5818.38 1043.13C5821.91 1046.21 5825.63 1049.07 5829.53 1051.68L5829.29 1051.62L5815.02 1104.98C5814.46 1107.08 5814.32 1109.27 5814.6 1111.43C5814.88 1113.58 5815.59 1115.66 5816.68 1117.55C5817.76 1119.43 5819.21 1121.08 5820.93 1122.41C5822.65 1123.73 5824.62 1124.71 5826.72 1125.27L5864.01 1135.27C5866.1 1135.84 5868.29 1135.98 5870.45 1135.7C5872.6 1135.41 5874.68 1134.71 5876.56 1133.62C5878.44 1132.53 5880.09 1131.08 5881.41 1129.36C5882.73 1127.63 5883.71 1125.66 5884.27 1123.56L5898.54 1070.21L5898.26 1070.13C5902.97 1069.82 5907.66 1069.2 5912.29 1068.28L5912.04 1068.42L5939.62 1116.26C5940.7 1118.14 5942.15 1119.8 5943.87 1121.12C5945.59 1122.45 5947.56 1123.42 5949.66 1123.98C5951.76 1124.55 5953.95 1124.69 5956.1 1124.41C5958.26 1124.13 5960.33 1123.42 5962.21 1122.33L5995.64 1103C5997.52 1101.91 5999.17 1100.46 6000.5 1098.74C6001.82 1097.01 6002.79 1095.04 6003.35 1092.94C6003.92 1090.84 6004.06 1088.64 6003.78 1086.49C6003.5 1084.33 6002.79 1082.25 6001.7 1080.36L5974.13 1032.53L5973.89 1032.67C5977 1029.11 5979.88 1025.35 5982.5 1021.42L5982.43 1021.7L6035.69 1036C6039.93 1037.14 6044.44 1036.54 6048.24 1034.34C6052.04 1032.14 6054.82 1028.52 6055.95 1024.28L6065.94 986.934C6067.08 982.689 6066.48 978.165 6064.29 974.359C6062.09 970.553 6058.48 967.776 6054.24 966.638L6000.98 952.343L6000.92 952.573C6000.61 947.89 6000 943.232 5999.1 938.627L5999.2 938.809L6046.96 911.191C6048.84 910.104 6050.49 908.656 6051.81 906.93C6053.14 905.204 6054.11 903.234 6054.67 901.133C6055.23 899.031 6055.38 896.838 6055.1 894.681C6054.81 892.523 6054.11 890.442 6053.02 888.558L6033.77 855.084C6032.68 853.197 6031.23 851.543 6029.51 850.216C6027.78 848.89 6025.81 847.917 6023.71 847.354C6021.61 846.79 6019.42 846.647 6017.26 846.933C6015.11 847.218 6013.03 847.927 6011.15 849.017Z" fill="white"/>
</g>
<path d="M5890.97 1037.28C5933.61 1037.28 5968.17 1002.66 5968.17 959.95C5968.17 917.241 5933.61 882.619 5890.97 882.619C5848.33 882.619 5813.77 917.241 5813.77 959.95C5813.77 1002.66 5848.33 1037.28 5890.97 1037.28Z" stroke="#1E223B" stroke-width="2" stroke-linecap="round" stroke-linejoin="round"/>
<path d="M5890.97 993.092C5909.24 993.092 5924.06 978.254 5924.06 959.95C5924.06 941.647 5909.24 926.809 5890.97 926.809C5872.7 926.809 5857.89 941.647 5857.89 959.95C5857.89 978.254 5872.7 993.092 5890.97 993.092Z" stroke="#1E223B" stroke-width="2" stroke-linecap="round" stroke-linejoin="round"/>
<path d="M6054.27 966.652L6001 952.357L6000.97 952.491C6000.66 947.868 6000.05 943.269 5999.16 938.722L5999.23 938.835L6046.98 911.217C6048.86 910.13 6050.51 908.683 6051.84 906.957C6053.16 905.231 6054.13 903.261 6054.69 901.159C6055.26 899.057 6055.4 896.865 6055.12 894.707C6054.84 892.55 6054.13 890.469 6053.05 888.584L6033.76 855.086C6031.57 851.279 6027.95 848.5 6023.71 847.361C6019.48 846.222 6014.96 846.816 6011.16 849.012L5963.4 876.63L5963.44 876.703C5959.99 873.675 5956.34 870.869 5952.53 868.304H5952.6L5966.87 814.946C5968 810.701 5967.41 806.179 5965.21 802.373C5963.02 798.568 5959.41 795.791 5955.17 794.654L5917.89 784.647C5915.79 784.084 5913.6 783.94 5911.45 784.224C5909.29 784.508 5907.21 785.214 5905.33 786.301C5903.45 787.389 5901.8 788.838 5900.48 790.564C5899.16 792.291 5898.19 794.261 5897.62 796.363L5883.35 849.716H5883.42C5878.84 850.03 5874.28 850.631 5869.77 851.518L5869.85 851.478L5842.28 803.644C5840.08 799.837 5836.47 797.058 5832.23 795.919C5827.99 794.78 5823.48 795.374 5819.68 797.57L5786.25 816.902C5784.37 817.99 5782.72 819.438 5781.39 821.164C5780.07 822.89 5779.1 824.861 5778.53 826.963C5777.97 829.065 5777.83 831.257 5778.11 833.415C5778.39 835.573 5779.1 837.654 5780.18 839.54L5807.76 887.373L5807.87 887.308C5804.82 890.802 5802 894.485 5799.42 898.335L5799.46 898.202L5746.2 883.903C5741.96 882.766 5737.44 883.362 5733.64 885.56C5729.84 887.758 5727.07 891.377 5725.94 895.622L5715.95 932.968C5714.81 937.213 5715.41 941.735 5717.6 945.541C5719.79 949.347 5723.4 952.125 5727.64 953.264L5780.91 967.559L5780.96 967.357C5781.28 972.039 5781.89 976.696 5782.8 981.299L5782.69 981.093L5734.93 1008.71C5733.05 1009.8 5731.4 1011.25 5730.07 1012.97C5728.75 1014.7 5727.78 1016.67 5727.22 1018.77C5726.65 1020.87 5726.51 1023.06 5726.79 1025.22C5727.08 1027.38 5727.78 1029.46 5728.87 1031.34L5748.17 1064.83C5750.36 1068.64 5753.97 1071.42 5758.21 1072.55C5762.45 1073.69 5766.96 1073.1 5770.76 1070.9L5818.52 1043.29L5818.38 1043.04C5821.93 1046.15 5825.68 1049.03 5829.6 1051.67L5829.33 1051.59L5815.06 1104.95C5814.49 1107.05 5814.35 1109.24 5814.63 1111.4C5814.92 1113.55 5815.62 1115.64 5816.71 1117.52C5817.79 1119.4 5819.24 1121.06 5820.96 1122.38C5822.69 1123.71 5824.65 1124.68 5826.75 1125.24L5864.04 1135.25C5866.14 1135.81 5868.32 1135.96 5870.48 1135.67C5872.63 1135.39 5874.71 1134.68 5876.59 1133.6C5878.47 1132.51 5880.12 1131.06 5881.44 1129.33C5882.76 1127.61 5883.73 1125.64 5884.3 1123.53L5898.57 1070.18L5898.3 1070.11C5903.01 1069.79 5907.7 1069.17 5912.33 1068.25L5912.08 1068.4L5939.65 1116.23C5940.73 1118.12 5942.18 1119.77 5943.9 1121.1C5945.63 1122.42 5947.59 1123.4 5949.69 1123.96C5951.79 1124.52 5953.98 1124.67 5956.13 1124.38C5958.29 1124.1 5960.36 1123.39 5962.25 1122.31L5995.67 1102.97C5997.55 1101.89 5999.2 1100.44 6000.53 1098.71C6001.85 1096.99 6002.82 1095.02 6003.39 1092.91C6003.95 1090.81 6004.09 1088.62 6003.81 1086.46C6003.53 1084.3 6002.82 1082.22 6001.74 1080.34L5974.16 1032.5L5973.96 1032.62C5977.05 1029.09 5979.9 1025.37 5982.51 1021.47L5982.46 1021.67L6035.72 1035.97C6039.96 1037.11 6044.48 1036.51 6048.28 1034.32C6052.08 1032.12 6054.85 1028.5 6055.98 1024.25L6065.97 986.908C6067.1 982.667 6066.49 978.153 6064.3 974.356C6062.11 970.559 6058.5 967.789 6054.27 966.652V966.652Z" stroke="#1E223B" stroke-width="2" stroke-linecap="round" stroke-linejoin="round"/>
<path opacity="0.32" d="M6518.08 3459.8C6652.49 3459.8 6761.45 3350.66 6761.45 3216.03C6761.45 3081.41 6652.49 2972.27 6518.08 2972.27C6383.68 2972.27 6274.72 3081.41 6274.72 3216.03C6274.72 3350.66 6383.68 3459.8 6518.08 3459.8Z" fill="white"/>
<path opacity="0.12" d="M6521.43 3218.68L6389.96 3142.16L6390.36 3285.32L6521.83 3361.84L6521.43 3218.68Z" fill="#1197F2"/>
<path d="M6521.43 3218.68L6389.96 3142.16L6390.36 3285.32L6521.83 3361.84L6521.43 3218.68Z" stroke="#1E223B" stroke-width="2" stroke-linecap="round" stroke-linejoin="round"/>
<path opacity="0.47" d="M6645.81 3146.76L6514.34 3070.23L6389.96 3142.16L6521.43 3218.68L6645.81 3146.76Z" fill="#0270BB"/>
<path d="M6645.81 3146.76L6514.34 3070.23L6389.96 3142.16L6521.43 3218.68L6645.81 3146.76Z" stroke="#1E223B" stroke-width="2" stroke-linecap="round" stroke-linejoin="round"/>
<path d="M6521.42 3218.68L6521.83 3361.84L6646.21 3289.92L6645.8 3146.76L6521.42 3218.68Z" fill="white" stroke="#1E223B" stroke-width="2" stroke-linecap="round" stroke-linejoin="round"/>
<path d="M6521.42 3218.68L6521.83 3361.84L6646.21 3289.92L6645.8 3146.76L6521.42 3218.68Z" stroke="#1E223B" stroke-width="2" stroke-linecap="round" stroke-linejoin="round"/>
<path d="M6518.08 3459.8C6652.49 3459.8 6761.45 3350.66 6761.45 3216.03C6761.45 3081.41 6652.49 2972.27 6518.08 2972.27C6383.68 2972.27 6274.72 3081.41 6274.72 3216.03C6274.72 3350.66 6383.68 3459.8 6518.08 3459.8Z" stroke="#1E223B" stroke-width="2" stroke-linecap="round" stroke-linejoin="round"/>
<path d="M5701.08 4253.1C5804.9 4253.1 5889.06 4168.8 5889.06 4064.81C5889.06 3960.82 5804.9 3876.53 5701.08 3876.53C5597.27 3876.53 5513.11 3960.82 5513.11 4064.81C5513.11 4168.8 5597.27 4253.1 5701.08 4253.1Z" stroke="#1E223B" stroke-width="2" stroke-linecap="round" stroke-linejoin="round"/>
<path d="M5529.91 4390.42C5650.32 4390.42 5747.93 4292.65 5747.93 4172.04C5747.93 4051.43 5650.32 3953.66 5529.91 3953.66C5409.5 3953.66 5311.89 4051.43 5311.89 4172.04C5311.89 4292.65 5409.5 4390.42 5529.91 4390.42Z" fill="white"/>
<path d="M5529.91 4390.42C5650.32 4390.42 5747.93 4292.65 5747.93 4172.04C5747.93 4051.43 5650.32 3953.66 5529.91 3953.66C5409.5 3953.66 5311.89 4051.43 5311.89 4172.04C5311.89 4292.65 5409.5 4390.42 5529.91 4390.42Z" stroke="#1E223B" stroke-width="2" stroke-linecap="round" stroke-linejoin="round"/>
<path d="M5436.77 4369.53L5529.91 4172.04L5745.44 4205.18" stroke="#1E223B" stroke-width="2" stroke-linecap="round" stroke-linejoin="round"/>
<path d="M640.697 537.358H439.658C418.557 537.358 401.292 519.677 401.292 498.067V241.497C401.292 219.886 418.557 202.205 439.658 202.205H640.697C661.799 202.205 679.063 219.886 679.063 241.497V498.067C679.063 519.677 661.799 537.358 640.697 537.358Z" fill="white"/>
<path d="M640.697 537.358H439.658C418.557 537.358 401.292 519.677 401.292 498.067V241.497C401.292 219.886 418.557 202.205 439.658 202.205H640.697C661.799 202.205 679.063 219.886 679.063 241.497V498.067C679.063 519.677 661.799 537.358 640.697 537.358Z" stroke="#4E5A7D" stroke-width="3" stroke-miterlimit="10" stroke-linecap="round" stroke-linejoin="round"/>
<path d="M660.263 608.474C702.853 608.474 737.379 573.115 737.379 529.499C737.379 485.882 702.853 450.523 660.263 450.523C617.673 450.523 583.147 485.882 583.147 529.499C583.147 573.115 617.673 608.474 660.263 608.474Z" fill="white"/>
<path d="M660.263 608.474C702.853 608.474 737.379 573.115 737.379 529.499C737.379 485.882 702.853 450.523 660.263 450.523C617.673 450.523 583.147 485.882 583.147 529.499C583.147 573.115 617.673 608.474 660.263 608.474Z" stroke="#4E5A7D" stroke-width="3" stroke-miterlimit="10" stroke-linecap="round" stroke-linejoin="round"/>
<path d="M624.967 528.713L649.137 553.467L695.561 505.531" stroke="#4E5A7D" stroke-width="4" stroke-miterlimit="10" stroke-linecap="round" stroke-linejoin="round"/>
<path d="M564.732 181.38V148.768C564.732 134.624 553.606 123.229 539.794 123.229C525.982 123.229 514.856 134.624 514.856 148.768V181.38H487.616V191.596V225.779H591.972V191.596V181.38H564.732Z" fill="white"/>
<path d="M564.732 184.523V154.268C564.732 141.302 553.606 130.694 539.794 130.694C525.982 130.694 514.856 141.302 514.856 154.268V184.523H487.616V193.952V225.778H591.972V193.952V184.523H564.732Z" stroke="#4E5A7D" stroke-width="3" stroke-miterlimit="10" stroke-linecap="round" stroke-linejoin="round"/>
<path d="M475.34 320.863H618.062" stroke="#4E5A7D" stroke-width="3" stroke-miterlimit="10" stroke-linecap="round" stroke-linejoin="round"/>
<path d="M475.34 369.585H618.062" stroke="#4E5A7D" stroke-width="3" stroke-miterlimit="10" stroke-linecap="round" stroke-linejoin="round"/>
<path d="M501.428 416.734H591.972" stroke="#4E5A7D" stroke-width="3" stroke-miterlimit="10" stroke-linecap="round" stroke-linejoin="round"/>
</svg>
