<svg width="471" height="591" viewBox="0 0 471 591" fill="none" xmlns="http://www.w3.org/2000/svg">
<path opacity="0.64" d="M235.1 590.6C364.942 590.6 470.2 569.423 470.2 543.3C470.2 517.177 364.942 496 235.1 496C105.258 496 0 517.177 0 543.3C0 569.423 105.258 590.6 235.1 590.6Z" fill="#68CCE9"/>
<path d="M119.5 510.2C122.8 499.5 132.9 493.8 149.3 489C159.7 486 172.9 484.6 193.6 480.4C203.7 478.4 210.8 474.4 210.8 474.4V485.9C210.8 485.9 142.3 499.4 131.6 517.1C126.4 525.8 128 547.1 152.5 549.3C145 550.4 132.7 548.5 126.1 541.8C117.9 533.5 115.7 522.4 119.5 510.2Z" fill="#282323" stroke="black" stroke-width="4" stroke-miterlimit="10" stroke-linecap="round" stroke-linejoin="round"/>
<path d="M210.8 485.9C210.8 485.9 169.8 493.5 147.9 502.9C128.7 511.2 129.3 519.8 128.8 528.6C128.5 533.7 132.1 546.3 146.7 548.5C164.1 551.1 184.6 548.3 210.8 531.6C210.8 490.7 210.8 485.9 210.8 485.9Z" fill="#442C2A"/>
<path opacity="0.37" d="M128.8 528.6C129.2 521.5 128.9 514.5 138.9 507.7C138.5 510.2 138.4 512.6 138.3 515.1C138 520.2 150.3 513.6 164.9 515.7C180.1 518 189.1 535.4 210.8 523.7C210.8 526.2 210.8 528.8 210.8 531.5C184.6 548.2 164.1 550.9 146.7 548.4C132.1 546.3 128.5 533.6 128.8 528.6Z" fill="#442C2A"/>
<path d="M210.8 485.9C210.8 485.9 169.8 493.5 147.9 502.9C128.7 511.2 129.3 519.8 128.8 528.6C128.5 533.7 132.1 546.3 146.7 548.5C164.1 551.1 184.6 548.3 210.8 531.6C210.8 490.7 210.8 485.9 210.8 485.9Z" stroke="black" stroke-width="4" stroke-miterlimit="10" stroke-linecap="round" stroke-linejoin="round"/>
<path d="M172.8 509.4C169.5 511.2 170.3 528.7 178.3 531.1" stroke="black" stroke-width="4" stroke-miterlimit="10" stroke-linecap="round" stroke-linejoin="round"/>
<path d="M185.3 508.1C181.9 512.9 184.3 524.2 190.4 527" stroke="black" stroke-width="4" stroke-miterlimit="10" stroke-linecap="round" stroke-linejoin="round"/>
<path d="M196.8 504.1C193.4 508.9 195.8 520.2 201.9 523" stroke="black" stroke-width="4" stroke-miterlimit="10" stroke-linecap="round" stroke-linejoin="round"/>
<path d="M314.8 452.3C293.2 467.3 262.5 475.9 230.4 475.9C198.4 475.9 167.6 467.3 146 452.3C136.1 445.4 119.5 431 119.5 411.8C119.5 392.6 136.1 378.2 146 371.3C167.6 356.3 198.3 347.7 230.4 347.7C262.4 347.7 293.2 356.3 314.8 371.3C324.7 378.2 341.3 392.6 341.3 411.8C341.3 431 324.7 445.4 314.8 452.3Z" fill="#151E28"/>
<path d="M413.7 427.8C413.3 429.8 412.9 431.7 412.3 433.7C396.7 490.6 321.5 533.8 231 533.8C140.3 533.8 64.8998 490.4 49.5998 433.3C49.1998 431.7 48.7998 430.1 48.4998 428.5C48.0998 425.5 48.1998 422.5 48.7998 419.5C52.4998 402.7 72.8998 393 94.3998 397.8C108.5 400.9 119.5 409.6 124.4 419.9C124.9 422.1 125.7 424.3 126.6 426.4C131.8 438.4 142.2 447.4 149.2 452.4C170.1 467.4 200 476 231 476C262.1 476 291.9 467.4 312.8 452.4C319.9 447.3 330.4 438.2 335.5 426.2C336.3 424.3 337 422.2 337.5 420.2C342.3 409.8 353.4 401.1 367.6 397.9C389.1 393.1 409.5 402.9 413.2 419.6C413.9 422.2 414 425 413.7 427.8Z" fill="#2A3749"/>
<path opacity="0.67" d="M413.2 419.4C413.1 418.9 413 418.5 412.8 418C412.5 419.6 412.1 421.3 411.6 422.9C396.2 479.8 320.9 523 230.5 523C139.8 523 64.3998 479.6 49.0998 422.5C48.8998 421.9 48.7998 421.3 48.5998 420.6C48.1998 423.2 48.0998 425.8 48.4998 428.3C48.7998 429.9 49.1998 431.5 49.5998 433.1C64.8998 490.2 140.3 533.6 231 533.6C321.5 533.6 396.7 490.4 412.3 433.5C412.8 431.6 413.3 429.6 413.7 427.6C414 425 413.9 422.2 413.2 419.4Z" fill="#151E28"/>
<path d="M413.7 427.8C413.3 429.8 412.9 431.7 412.3 433.7C396.7 490.6 321.5 533.8 231 533.8C140.3 533.8 64.8998 490.4 49.5998 433.3C49.1998 431.7 48.7998 430.1 48.4998 428.5C48.0998 425.5 48.1998 422.5 48.7998 419.5C52.4998 402.7 72.8998 393 94.3998 397.8C108.5 400.9 119.5 409.6 124.4 419.9C124.9 422.1 125.7 424.3 126.6 426.4C131.8 438.4 142.2 447.4 149.2 452.4C170.1 467.4 200 476 231 476C262.1 476 291.9 467.4 312.8 452.4C319.9 447.3 330.4 438.2 335.5 426.2C336.3 424.3 337 422.2 337.5 420.2C342.3 409.8 353.4 401.1 367.6 397.9C389.1 393.1 409.5 402.9 413.2 419.6C413.9 422.2 414 425 413.7 427.8Z" stroke="black" stroke-width="4" stroke-miterlimit="10" stroke-linecap="round" stroke-linejoin="round"/>
<path d="M232.2 445.4C281.961 445.4 322.3 431.7 322.3 414.8C322.3 397.9 281.961 384.2 232.2 384.2C182.439 384.2 142.1 397.9 142.1 414.8C142.1 431.7 182.439 445.4 232.2 445.4Z" fill="#9B2121"/>
<path d="M232.2 445.4C281.961 445.4 322.3 431.7 322.3 414.8C322.3 397.9 281.961 384.2 232.2 384.2C182.439 384.2 142.1 397.9 142.1 414.8C142.1 431.7 182.439 445.4 232.2 445.4Z" stroke="black" stroke-width="4" stroke-miterlimit="10" stroke-linecap="round" stroke-linejoin="round"/>
<path d="M334.8 348H127.2C111.3 348 99.0002 334.1 101 318.3L110.2 244.8C112.8 223.8 130.6 208.1 151.8 208.1H310.4C331.5 208.1 349.3 223.8 352 244.8L361.2 318.3C363 334.1 350.7 348 334.8 348Z" fill="#F1534D"/>
<path d="M334.8 348H127.2C111.3 348 99.0002 334.1 101 318.3L110.2 244.8C112.8 223.8 130.6 208.1 151.8 208.1H310.4C331.5 208.1 349.3 223.8 352 244.8L361.2 318.3C363 334.1 350.7 348 334.8 348Z" stroke="black" stroke-width="4" stroke-miterlimit="10" stroke-linecap="round" stroke-linejoin="round"/>
<path d="M149.7 270.2L147.7 295.3" stroke="black" stroke-width="4" stroke-miterlimit="10" stroke-linecap="round" stroke-linejoin="round"/>
<path d="M313.8 270.2L315.8 295.3" stroke="black" stroke-width="4" stroke-miterlimit="10" stroke-linecap="round" stroke-linejoin="round"/>
<path d="M334.8 348H127.2C111.3 348 98.9997 334.1 101 318.3L110.2 244.8C112.8 223.8 130.6 208.1 151.8 208.1H310.4C331.5 208.1 349.3 223.8 352 244.8L361.2 318.3C363 334.1 350.7 348 334.8 348Z" fill="#F1534D"/>
<g opacity="0.24">
<path opacity="0.24" d="M110.1 252.6C112.7 231.6 130.5 215.9 151.7 215.9H310.3C331.4 215.9 349.2 231.6 351.9 252.6L361 325.5C361.3 323.2 361.4 320.8 361.1 318.3L351.9 244.8C349.3 223.8 331.5 208.1 310.3 208.1H151.7C130.6 208.1 112.8 223.8 110.1 244.8L100.9 318.3C100.6 320.7 100.6 323.1 101 325.5L110.1 252.6Z" fill="#9B2121"/>
<path opacity="0.24" d="M160.9 215.9C160.9 215.9 173.2 218.1 174.2 224.9C175 230.4 174.9 234 177 236.2C179.1 238.4 184 242.9 193.9 242.9C188.4 237.4 188.3 218.1 186.8 218.1C185.4 218.1 181.8 208.5 181.8 208.5L177 206.3C177.1 206.3 159.4 208.5 160.9 215.9Z" fill="#9B2121"/>
<path opacity="0.24" d="M292.3 215.9C292.3 215.9 280 218.1 279 224.9C278.2 230.4 278.3 234 276.2 236.2C274.1 238.3 269.2 242.9 259.3 242.9C264.8 237.4 264.9 218.1 266.4 218.1C267.8 218.1 271.4 208.5 271.4 208.5L276.2 206.3C276.1 206.3 293.8 208.5 292.3 215.9Z" fill="#9B2121"/>
</g>
<path d="M334.8 348H127.2C111.3 348 98.9997 334.1 101 318.3L110.2 244.8C112.8 223.8 130.6 208.1 151.8 208.1H310.4C331.5 208.1 349.3 223.8 352 244.8L361.2 318.3C363 334.1 350.7 348 334.8 348Z" stroke="black" stroke-width="4" stroke-miterlimit="10" stroke-linecap="round" stroke-linejoin="round"/>
<path d="M149.7 270.2L147.7 295.3" stroke="black" stroke-width="4" stroke-miterlimit="10" stroke-linecap="round" stroke-linejoin="round"/>
<path d="M313.8 270.2L315.8 295.3" stroke="black" stroke-width="4" stroke-miterlimit="10" stroke-linecap="round" stroke-linejoin="round"/>
<path d="M204.3 166.3L171.4 164.6L156 166.3C156 166.3 145.7 174 145.7 176.1C145.7 178.2 146.7 195.3 146.7 195.3C146.7 195.3 171 198.6 173.6 201.1C176.2 203.6 191.6 218 191.6 218L206.5 212.2L214.3 191.4L204.3 166.3Z" fill="#9B2121"/>
<path d="M198.5 153.6H160.5C145.2 153.6 132.7 166 132.7 181.4C132.7 196.7 145.1 209.2 160.5 209.2H165.5C173.6 209.2 180.1 215.7 180.1 223.8V225.3C180.1 235 188 242.9 197.7 242.9V224.9C197.9 224.9 198.1 225.1 198.1 225.3V223.8C198.1 205.8 183.5 191.2 165.5 191.2H160.5C155.1 191.2 150.7 186.8 150.7 181.4C150.7 176 155.1 171.6 160.5 171.6H198.5V153.6Z" fill="#F1534D"/>
<path d="M196.2 212.5C191.6 200.1 179.6 191.1 165.6 191.1H160.6C155.2 191.1 150.8 186.7 150.8 181.3C150.8 175.9 155.2 171.5 160.6 171.5H198.6V153.5H160.6C145.3 153.5 132.8 165.9 132.8 181.3C132.8 196.6 145.2 209.1 160.6 209.1H165.6C173.7 209.1 180.2 215.6 180.2 223.7V225.2C180.2 234.9 188.1 242.8 197.8 242.8" stroke="black" stroke-width="4" stroke-miterlimit="10" stroke-linecap="round" stroke-linejoin="round"/>
<path d="M247.8 166.3L280.7 164.6L296.1 166.3C296.1 166.3 306.4 174 306.4 176.1C306.4 178.2 305.4 195.3 305.4 195.3C305.4 195.3 281.1 198.6 278.5 201.1C275.9 203.7 260.5 218 260.5 218L245.6 212.2L237.8 191.4L247.8 166.3Z" fill="#9B2121"/>
<path d="M253.6 153.6H291.6C306.9 153.6 319.4 166 319.4 181.4C319.4 196.7 307 209.2 291.6 209.2H286.6C278.5 209.2 272 215.7 272 223.8V225.3C272 235 264.1 242.9 254.4 242.9V224.9C254.2 224.9 254 225.1 254 225.3V223.8C254 205.8 268.6 191.2 286.6 191.2H291.6C297 191.2 301.4 186.8 301.4 181.4C301.4 176 297 171.6 291.6 171.6H253.6V153.6Z" fill="#F1534D"/>
<path d="M256 212.5C260.6 200.1 272.6 191.1 286.6 191.1H291.6C297 191.1 301.4 186.7 301.4 181.3C301.4 175.9 297 171.5 291.6 171.5H253.6V153.5H291.6C306.9 153.5 319.4 165.9 319.4 181.3C319.4 196.6 307 209.1 291.6 209.1H286.6C278.5 209.1 272 215.6 272 223.7V225.2C272 234.9 264.1 242.8 254.4 242.8" stroke="black" stroke-width="4" stroke-miterlimit="10" stroke-linecap="round" stroke-linejoin="round"/>
<path d="M227.9 228.7C249.439 228.7 266.9 211.239 266.9 189.7C266.9 168.161 249.439 150.7 227.9 150.7C206.361 150.7 188.9 168.161 188.9 189.7C188.9 211.239 206.361 228.7 227.9 228.7Z" fill="#F46262"/>
<path d="M190.6 178.2C201.4 185.1 214.2 189.2 227.9 189.2C241.6 189.2 254.4 185.2 265.2 178.2C260.3 162.2 245.5 150.6 227.9 150.6C210.4 150.7 195.5 162.3 190.6 178.2Z" fill="#F1534D"/>
<path d="M227.9 228.7C249.439 228.7 266.9 211.239 266.9 189.7C266.9 168.161 249.439 150.7 227.9 150.7C206.361 150.7 188.9 168.161 188.9 189.7C188.9 211.239 206.361 228.7 227.9 228.7Z" stroke="black" stroke-width="4" stroke-miterlimit="10" stroke-linecap="round" stroke-linejoin="round"/>
<path d="M227.9 212.3C215.2 212.3 204.9 202 204.9 189.3V172.1C204.9 168.9 207.5 166.3 210.7 166.3H245.2C248.4 166.3 251 168.9 251 172.1V189.3C250.9 202 240.6 212.3 227.9 212.3Z" fill="#FFC897"/>
<path d="M245.2 166.3H210.7C207.5 166.3 204.9 169.1 204.9 172.5V186.6C212.1 189.3 219.8 190.8 227.9 190.8C236 190.8 243.7 189.3 250.9 186.6V172.5C250.9 169.1 248.3 166.3 245.2 166.3Z" fill="#E5A973"/>
<path d="M227.9 212.3C215.2 212.3 204.9 202 204.9 189.3V172.1C204.9 168.9 207.5 166.3 210.7 166.3H245.2C248.4 166.3 251 168.9 251 172.1V189.3C250.9 202 240.6 212.3 227.9 212.3Z" stroke="black" stroke-width="4" stroke-miterlimit="10" stroke-linecap="round" stroke-linejoin="round"/>
<path d="M252.8 471.4H231.4V539.7H252.8V471.4Z" fill="#607691"/>
<path d="M252.8 471.4H231.4V539.7H252.8V471.4Z" stroke="black" stroke-width="4" stroke-miterlimit="10" stroke-linecap="round" stroke-linejoin="round"/>
<path d="M126.5 426.2C125.6 424.1 124.9 422 124.3 419.7C125.4 421.9 126.1 424 126.5 426.2Z" stroke="black" stroke-width="4" stroke-miterlimit="10" stroke-linecap="round" stroke-linejoin="round"/>
<path d="M335.6 426C336 423.9 336.7 421.9 337.6 420C337.1 422.1 336.4 424.1 335.6 426Z" stroke="black" stroke-width="4" stroke-miterlimit="10" stroke-linecap="round" stroke-linejoin="round"/>
<path d="M335.3 421.2H126.8C119.4 421.2 113.1 415.7 112.1 408.3L99.0998 306.5C97.9998 297.7 104.9 289.8 113.8 289.8H348.3C357.2 289.8 364.1 297.6 363 306.5L350 408.3C349 415.6 342.7 421.2 335.3 421.2Z" fill="#B5B5B5"/>
<path opacity="0.21" d="M349.9 401.9C349 409.3 342.7 414.8 335.2 414.8H126.8C119.4 414.8 113.1 409.3 112.1 401.9L99.2996 301.6C98.9996 303.2 98.8997 304.8 99.0997 306.5L112.1 408.3C113 415.7 119.3 421.2 126.8 421.2H335.3C342.7 421.2 349 415.7 350 408.3L363 306.5C363.2 304.8 363.1 303.2 362.8 301.6L349.9 401.9Z" fill="#7E7E7E"/>
<path opacity="0.21" d="M99.1998 307.4C100.4 300.6 106.4 295.2 113.7 295.2H348.2C355.6 295.2 361.5 300.5 362.7 307.4L362.8 306.4C363.9 297.6 357 289.7 348.1 289.7H113.8C104.9 289.7 97.9998 297.5 99.0998 306.4L99.1998 307.4Z" fill="#7E7E7E"/>
<path d="M335.3 421.2H126.8C119.4 421.2 113.1 415.7 112.1 408.3L99.0998 306.5C97.9998 297.7 104.9 289.8 113.8 289.8H348.3C357.2 289.8 364.1 297.6 363 306.5L350 408.3C349 415.6 342.7 421.2 335.3 421.2Z" stroke="black" stroke-width="4" stroke-miterlimit="10" stroke-linecap="round" stroke-linejoin="round"/>
<path opacity="0.66" d="M240.9 349.3C236.4 349.3 232.8 345.7 232.8 341.2C232.8 340.9 232.8 340.6 232.9 340.3C232.1 340.2 231.3 340.1 230.5 340.1C223.2 340.1 217.2 346.1 217.2 353.4C217.2 360.7 223.2 366.7 230.5 366.7C237.8 366.7 243.8 360.7 243.8 353.4C243.8 351.9 243.5 350.4 243.1 349C242.4 349.1 241.7 349.3 240.9 349.3Z" fill="#B5B5B5"/>
<path d="M344.1 510.2C340.8 499.5 330.7 493.8 314.3 489C303.9 486 290.7 484.6 270 480.4C259.9 478.4 252.8 474.4 252.8 474.4V485.9C252.8 485.9 321.3 499.4 332 517.1C337.2 525.8 335.6 547.1 311.1 549.3C318.6 550.4 330.9 548.5 337.5 541.8C345.7 533.5 347.9 522.4 344.1 510.2Z" fill="#282323" stroke="black" stroke-width="4" stroke-miterlimit="10" stroke-linecap="round" stroke-linejoin="round"/>
<path d="M252.8 485.9C252.8 485.9 293.8 493.5 315.7 502.9C334.9 511.2 334.3 519.8 334.8 528.6C335.1 533.7 331.5 546.3 316.9 548.5C299.5 551.1 279 548.3 252.8 531.6C252.8 490.7 252.8 485.9 252.8 485.9Z" fill="#442C2A"/>
<path opacity="0.37" d="M334.8 528.6C334.4 521.5 334.7 514.5 324.7 507.7C325.1 510.2 325.2 512.6 325.3 515.1C325.6 520.2 322 532.8 307.4 535C292.2 537.3 274.5 535.4 252.8 523.7C252.8 526.2 252.8 528.8 252.8 531.5C279 548.2 299.5 550.9 316.9 548.4C331.6 546.3 335.1 533.6 334.8 528.6Z" fill="#442C2A"/>
<path d="M252.8 485.9C252.8 485.9 293.8 493.5 315.7 502.9C334.9 511.2 334.3 519.8 334.8 528.6C335.1 533.7 331.5 546.3 316.9 548.5C299.5 551.1 279 548.3 252.8 531.6C252.8 490.7 252.8 485.9 252.8 485.9Z" stroke="black" stroke-width="4" stroke-miterlimit="10" stroke-linecap="round" stroke-linejoin="round"/>
<path d="M290.8 509.4C294.1 511.2 293.3 528.7 285.3 531.1" stroke="black" stroke-width="4" stroke-miterlimit="10" stroke-linecap="round" stroke-linejoin="round"/>
<path d="M278.3 508.1C281.7 512.9 279.3 524.2 273.2 527" stroke="black" stroke-width="4" stroke-miterlimit="10" stroke-linecap="round" stroke-linejoin="round"/>
<path d="M266.8 504.1C270.2 508.9 267.8 520.2 261.7 523" stroke="black" stroke-width="4" stroke-miterlimit="10" stroke-linecap="round" stroke-linejoin="round"/>
<path d="M192.8 232.7V285.9" stroke="black" stroke-width="6" stroke-miterlimit="10" stroke-linecap="round" stroke-linejoin="round"/>
<path d="M260.3 232.7V270.2" stroke="black" stroke-width="6" stroke-miterlimit="10" stroke-linecap="round" stroke-linejoin="round"/>
<path d="M260.3 281.5C264.884 281.5 268.6 277.784 268.6 273.2C268.6 268.616 264.884 264.9 260.3 264.9C255.716 264.9 252 268.616 252 273.2C252 277.784 255.716 281.5 260.3 281.5Z" fill="black"/>
<path d="M260.3 275.6C262.178 275.6 263.7 274.078 263.7 272.2C263.7 270.322 262.178 268.8 260.3 268.8C258.422 268.8 256.9 270.322 256.9 272.2C256.9 274.078 258.422 275.6 260.3 275.6Z" fill="#7E7E7E"/>
<path d="M227.9 183.2C193.1 183.2 164.8 155 164.8 120.1V46.8999H291V120.1C291 154.9 262.8 183.2 227.9 183.2Z" fill="#FFC897"/>
<path d="M227.9 174.5C193.1 174.5 164.8 146.3 164.8 111.4V120.1C164.8 154.9 193 183.2 227.9 183.2C262.7 183.2 291 155 291 120.1V111.4C291 146.2 262.8 174.5 227.9 174.5Z" fill="#E5A973"/>
<path d="M227.9 183.2C193.1 183.2 164.8 155 164.8 120.1V46.8999H291V120.1C291 154.9 262.8 183.2 227.9 183.2Z" stroke="black" stroke-width="4" stroke-miterlimit="10" stroke-linecap="round" stroke-linejoin="round"/>
<path d="M291.5 54.1999C291.3 50.7999 291.1 47.2999 291 43.8999C249 45.8999 206.8 45.5999 164.9 41.8999C164.6 45.7999 164.4 49.6999 164.1 53.5999C166 55.2999 168 57.0999 169.9 58.7999C171.5 59.5999 173.6 60.6999 175.5 61.6999C183.9 66.0999 195.6 71.6999 206.8 73.8999C210.9 74.6999 215.2 75.0999 219.6 74.9999C238.5 74.7999 254.4 67.2999 261.1 64.1999C262.1 63.6999 262.9 63.2999 263.4 63.1999C263.8 62.9999 264.2 62.8999 264.8 62.8999C266 62.8999 267.4 63.1999 269.1 63.4999C271.3 63.9999 273.9 64.4999 276.8 64.2999C280.1 64.0999 283.1 63.0999 286 61.1999C287.7 58.7999 289.6 56.4999 291.5 54.1999Z" fill="#E5A973"/>
<path d="M261.1 16.2C261.1 16.2 210.6 -17.1 168.8 20.1C161 27 157.9 36.9 157.9 46V94.2H164.9V59.2C164.9 56.6 166.7 54.6 168.9 54.6C172.5 54.6 192 65 208.5 67.9C233.4 72.2 256.1 60.7 261 59C269.4 56 276.2 66.4 286.8 54.7H287.2C289.4 54.7 291.2 56.7999 291.2 59.2999V94.2999H298.2V46.3C298 34.5 284.4 4.89996 261.1 16.2Z" fill="#231A17"/>
<g opacity="0.34">
<path opacity="0.34" d="M164.8 87.6001H157.8V94.2001H164.8V87.6001Z" fill="#231A17"/>
<path opacity="0.34" d="M298 87.6001H291V94.2001H298V87.6001Z" fill="#231A17"/>
</g>
<path d="M261.1 16.2C261.1 16.2 210.6 -17.1 168.8 20.1C161 27 157.9 36.9 157.9 46V94.2H164.9V59.2C164.9 56.6 166.7 54.6 168.9 54.6C172.5 54.6 192 65 208.5 67.9C233.4 72.2 256.1 60.7 261 59C269.4 56 276.2 66.4 286.8 54.7H287.2C289.4 54.7 291.2 56.7999 291.2 59.2999V94.2999H298.2V46.3C298 34.5 284.4 4.89996 261.1 16.2Z" stroke="black" stroke-width="4" stroke-miterlimit="10" stroke-linecap="round" stroke-linejoin="round"/>
<path d="M218.4 48.6999C218.4 48.6999 164.2 52.1999 152.7 23.3999" stroke="black" stroke-width="4" stroke-miterlimit="10" stroke-linecap="round" stroke-linejoin="round"/>
<path d="M226.1 41.8C226.1 41.8 173.9 38.5 160.3 9.69995" stroke="black" stroke-width="4" stroke-miterlimit="10" stroke-linecap="round" stroke-linejoin="round"/>
<path d="M291 86.3999V119.2C298 119.2 303.6 111.9 303.6 102.8C303.6 93.6999 298 86.3999 291 86.3999Z" fill="#FFC897"/>
<path d="M291 88.2V117.3C295.1 114.6 297.9 109.1 297.9 102.7C297.9 96.4 295.1 90.9 291 88.2Z" fill="#E5A973"/>
<path d="M291 86.3999V119.2C298 119.2 303.6 111.9 303.6 102.8C303.6 93.6999 298 86.3999 291 86.3999Z" stroke="black" stroke-width="4" stroke-miterlimit="10" stroke-linecap="round" stroke-linejoin="round"/>
<path d="M164.9 86.3999V119.2C157.9 119.2 152.3 111.9 152.3 102.8C152.2 93.6999 157.9 86.3999 164.9 86.3999Z" fill="#FFC897"/>
<path d="M164.9 88.8C161.3 91.7 158.8 96.9 158.8 102.8C158.8 108.7 161.2 113.9 164.9 116.8V88.8Z" fill="#E5A973"/>
<path d="M164.9 86.3999V119.2C157.9 119.2 152.3 111.9 152.3 102.8C152.2 93.6999 157.9 86.3999 164.9 86.3999Z" stroke="black" stroke-width="4" stroke-miterlimit="10" stroke-linecap="round" stroke-linejoin="round"/>
<path d="M225.3 113.1L221.1 126.8C221.1 128.3 226 127.1 231 128.3" stroke="black" stroke-width="4" stroke-miterlimit="10" stroke-linecap="round" stroke-linejoin="round"/>
<path d="M248.9 138.7C250.4 149.1 237 158.3 226.5 156.4" stroke="black" stroke-width="3" stroke-miterlimit="10" stroke-linecap="round" stroke-linejoin="round"/>
<path d="M205.2 101.5C207.52 101.5 209.4 99.4853 209.4 97C209.4 94.5147 207.52 92.5 205.2 92.5C202.88 92.5 201 94.5147 201 97C201 99.4853 202.88 101.5 205.2 101.5Z" stroke="black" stroke-width="2" stroke-miterlimit="10" stroke-linecap="round" stroke-linejoin="round"/>
<path d="M205.2 101.5C207.52 101.5 209.4 99.4853 209.4 97C209.4 94.5147 207.52 92.5 205.2 92.5C202.88 92.5 201 94.5147 201 97C201 99.4853 202.88 101.5 205.2 101.5Z" fill="black"/>
<path d="M190.7 87.5001C192.8 85.0001 197.7 83.3 203.5 83.3C208.1 83.3 212.1 84.4001 214.6 86.1001" stroke="black" stroke-width="3" stroke-miterlimit="10" stroke-linecap="round" stroke-linejoin="round"/>
<path d="M251.201 101.5C253.52 101.5 255.401 99.4853 255.401 97C255.401 94.5147 253.52 92.5 251.201 92.5C248.881 92.5 247 94.5147 247 97C247 99.4853 248.881 101.5 251.201 101.5Z" stroke="black" stroke-width="2" stroke-miterlimit="10" stroke-linecap="round" stroke-linejoin="round"/>
<path d="M251.201 101.5C253.52 101.5 255.401 99.4853 255.401 97C255.401 94.5147 253.52 92.5 251.201 92.5C248.881 92.5 247 94.5147 247 97C247 99.4853 248.881 101.5 251.201 101.5Z" fill="black"/>
<path d="M265.7 87.5001C263.6 85.0001 258.7 83.3 252.9 83.3C248.3 83.3 244.3 84.4001 241.8 86.1001" stroke="black" stroke-width="3" stroke-miterlimit="10" stroke-linecap="round" stroke-linejoin="round"/>
</svg>
