<svg width="100%" height="100%" viewBox="0 0 733 322" fill="none" xmlns="http://www.w3.org/2000/svg">
<path d="M724.985 322H7.92718C3.52319 322 0 318 0 313C0 308 3.52319 304 7.92718 304H725.073C729.477 304 733 308 733 313C732.912 318 729.389 322 724.985 322Z" fill="#444E59"/>
<path d="M362.2 303.8H221.4V312.2H362.2V303.8Z" fill="#444E59"/>
<path d="M460 248.9H127.8C121.2 248.9 115.8 243.5 115.8 236.9V14.4C115.8 7.79999 121.2 2.39999 127.8 2.39999H460C466.6 2.39999 472 7.79999 472 14.4V236.8C472 243.5 466.7 248.9 460 248.9Z" fill="#BBBFC2"/>
<path d="M450.887 206.679L450.887 24.9794L138.287 24.9794L138.287 206.679L450.887 206.679Z" fill="#28A8E0"/>
<path opacity="0.4" d="M460.8 248.9H408.7V154.1C408.7 146.5 414.8 140.4 422.4 140.4H460.8V248.9Z" fill="#848484"/>
<path opacity="0.4" d="M141.1 157.3H115.8V232C115.8 241.3 123.8 248.9 133.2 248.9H162.3V178.9C162.2 167.2 152.7 157.3 141.1 157.3Z" fill="#848484"/>
<path d="M461 248.9H128.2C121.6 248.9 116.2 243.5 116.2 236.9V14.4C116.2 7.79999 121.6 2.39999 128.2 2.39999H461C467.6 2.39999 473 7.79999 473 14.4V236.8C473 243.5 467.6 248.9 461 248.9Z" stroke="#444E59" stroke-width="4" stroke-miterlimit="10" stroke-linecap="round" stroke-linejoin="round"/>
<path d="M450.485 206.677L450.485 24.9767L138.785 24.9767L138.785 206.677L450.485 206.677Z" stroke="#444E59" stroke-width="4" stroke-miterlimit="10" stroke-linecap="round" stroke-linejoin="round"/>
<path opacity="0.32" d="M389.9 197.9H218.1C214.2 197.9 211.1 194.7 211.1 190.9V68.3C211.1 64.4 214.3 61.3 218.1 61.3H389.9C393.8 61.3 396.9 64.5 396.9 68.3V190.8C396.9 194.7 393.8 197.9 389.9 197.9Z" fill="#848484"/>
<path d="M381.9 191.1H210.1C206.2 191.1 203.1 187.9 203.1 184.1V61.6C203.1 57.7 206.3 54.6 210.1 54.6H381.9C385.8 54.6 388.9 57.8 388.9 61.6V184.1C389 188 385.8 191.1 381.9 191.1Z" fill="#AFB1B2"/>
<path d="M381.9 191.1H210.1C206.2 191.1 203.1 187.9 203.1 184.1V61.6C203.1 57.7 206.3 54.6 210.1 54.6H381.9C385.8 54.6 388.9 57.8 388.9 61.6V184.1C389 188 385.8 191.1 381.9 191.1Z" stroke="#444E59" stroke-width="4" stroke-miterlimit="10" stroke-linecap="round" stroke-linejoin="round"/>
<path d="M336.5 303.8H252.7L263.1 248.9H326.1L336.5 303.8Z" fill="#AEAEAF"/>
<path opacity="0.32" d="M328.9 264.4L326.1 248.9H263.1L260.3 264.4H328.9Z" fill="#848484"/>
<path d="M336.5 303.8H252.7L263.1 248.9H326.1L336.5 303.8Z" stroke="#444E59" stroke-width="4" stroke-miterlimit="10" stroke-linecap="round" stroke-linejoin="round"/>
<path d="M362.2 303.8H221.4V312.2H362.2V303.8Z" stroke="#444E59" stroke-width="4" stroke-miterlimit="10" stroke-linecap="round" stroke-linejoin="round"/>
<path d="M294.1 229.9C297.524 229.9 300.3 227.124 300.3 223.7C300.3 220.276 297.524 217.5 294.1 217.5C290.676 217.5 287.9 220.276 287.9 223.7C287.9 227.124 290.676 229.9 294.1 229.9Z" fill="#444E59"/>
<path d="M367.8 178.5H196C192.1 178.5 189 175.3 189 171.5V48.9C189 45 192.2 41.9 196 41.9H367.8C371.7 41.9 374.8 45.1 374.8 48.9V171.4C374.9 175.3 371.7 178.5 367.8 178.5Z" fill="white"/>
<path d="M367.8 178.5H196C192.1 178.5 189 175.3 189 171.5V48.9C189 45 192.2 41.9 196 41.9H367.8C371.7 41.9 374.8 45.1 374.8 48.9V171.4C374.9 175.3 371.7 178.5 367.8 178.5Z" stroke="#444E59" stroke-width="4" stroke-miterlimit="10" stroke-linecap="round" stroke-linejoin="round"/>
<path d="M374.9 63H189V49.2C189 45.2 192.3 41.8 196.4 41.8H368C371.8 41.8 374.9 44.9 374.9 48.7V63Z" fill="#BBBFC2"/>
<path d="M374.9 63H189V49.2C189 45.2 192.3 41.8 196.4 41.8H368C371.8 41.8 374.9 44.9 374.9 48.7V63Z" stroke="#444E59" stroke-width="4" stroke-miterlimit="10" stroke-linecap="round" stroke-linejoin="round"/>
<path d="M206.9 55.8C208.723 55.8 210.2 54.3225 210.2 52.5C210.2 50.6775 208.723 49.2 206.9 49.2C205.078 49.2 203.6 50.6775 203.6 52.5C203.6 54.3225 205.078 55.8 206.9 55.8Z" fill="#444E59"/>
<path d="M217.8 55.8C219.623 55.8 221.1 54.3225 221.1 52.5C221.1 50.6775 219.623 49.2 217.8 49.2C215.977 49.2 214.5 50.6775 214.5 52.5C214.5 54.3225 215.977 55.8 217.8 55.8Z" fill="#444E59"/>
<path d="M228.6 55.8C230.423 55.8 231.9 54.3225 231.9 52.5C231.9 50.6775 230.423 49.2 228.6 49.2C226.778 49.2 225.3 50.6775 225.3 52.5C225.3 54.3225 226.778 55.8 228.6 55.8Z" fill="#444E59"/>
<path d="M357.4 99.6H205.1C204 99.6 203.1 98.7 203.1 97.6V76.3C203.1 75.2 204 74.3 205.1 74.3H357.4C358.5 74.3 359.4 75.2 359.4 76.3V97.6C359.4 98.7 358.5 99.6 357.4 99.6Z" fill="#6567C3"/>
<path opacity="0.2" d="M248.9 126.3H205C203.9 126.3 203 125.4 203 124.3V112.8C203 111.7 203.9 110.8 205 110.8H248.9C250 110.8 250.9 111.7 250.9 112.8V124.3C250.9 125.4 250.1 126.3 248.9 126.3Z" fill="#444E59"/>
<path opacity="0.2" d="M210.1 137.6H245.3" stroke="#444E59" stroke-width="4" stroke-miterlimit="10" stroke-linecap="round" stroke-linejoin="round"/>
<path opacity="0.2" d="M210.1 148.9H245.3" stroke="#444E59" stroke-width="4" stroke-miterlimit="10" stroke-linecap="round" stroke-linejoin="round"/>
<path opacity="0.2" d="M303.9 126.3H260C258.9 126.3 258 125.4 258 124.3V112.8C258 111.7 258.9 110.8 260 110.8H303.9C305 110.8 305.9 111.7 305.9 112.8V124.3C305.9 125.4 305 126.3 303.9 126.3Z" fill="#444E59"/>
<path opacity="0.2" d="M265 137.6H298.8" stroke="#444E59" stroke-width="4" stroke-miterlimit="10" stroke-linecap="round" stroke-linejoin="round"/>
<path opacity="0.2" d="M265 148.9H298.8" stroke="#444E59" stroke-width="4" stroke-miterlimit="10" stroke-linecap="round" stroke-linejoin="round"/>
<g opacity="0.2">
<path opacity="0.2" d="M358.8 150.3H314.9C313.8 150.3 312.9 149.4 312.9 148.3V112.9C312.9 111.8 313.8 110.9 314.9 110.9H358.8C359.9 110.9 360.8 111.8 360.8 112.9V148.3C360.8 149.4 359.9 150.3 358.8 150.3Z" fill="#444E59"/>
</g>
<g opacity="0.09">
<path opacity="0.09" d="M357.4 161.6H315.6C314 161.6 312.8 160.3 312.8 158.8C312.8 157.3 314.1 156 315.6 156H357.4C359 156 360.2 157.3 360.2 158.8C360.2 160.3 358.9 161.6 357.4 161.6Z" fill="#444E59"/>
</g>
<path d="M141 312.2H73.7C68.2 312.2 63.7 307.7 63.7 302.2V167.3C63.7 161.8 68.2 157.3 73.7 157.3H141C146.5 157.3 151 161.8 151 167.3V302.2C151 307.8 146.5 312.2 141 312.2Z" fill="white"/>
<path d="M152.4 203.8H63.7V167.1C63.7 161.7 68.1 157.3 73.5 157.3H142C147.7 157.3 152.3 162 152.3 167.6V203.8H152.4Z" fill="#6567C3"/>
<path d="M141 312.2H73.7C68.2 312.2 63.7 307.7 63.7 302.2V167.3C63.7 161.8 68.2 157.3 73.7 157.3H141C146.5 157.3 151 161.8 151 167.3V302.2C151 307.8 146.5 312.2 141 312.2Z" stroke="#444E59" stroke-width="4" stroke-miterlimit="10" stroke-linecap="round" stroke-linejoin="round"/>
<path d="M141.1 312.2H74.0001C68.3001 312.2 63.6001 307.5 63.6001 301.8V282.6H151V302.3C151 307.8 146.5 312.2 141.1 312.2Z" fill="#BBBFC2"/>
<path d="M141.3 312.2H74.0001C68.3001 312.2 63.6001 307.5 63.6001 301.8V282.6H151V302.5C151 307.9 146.6 312.2 141.3 312.2Z" stroke="#444E59" stroke-width="4" stroke-miterlimit="10" stroke-linecap="round" stroke-linejoin="round"/>
<path d="M108 301.8C110.761 301.8 113 299.561 113 296.8C113 294.039 110.761 291.8 108 291.8C105.239 291.8 103 294.039 103 296.8C103 299.561 105.239 301.8 108 301.8Z" fill="#444E59"/>
<path opacity="0.3" d="M83.3999 219.3H132.7" stroke="#444E59" stroke-width="4" stroke-miterlimit="10" stroke-linecap="round" stroke-linejoin="round"/>
<path opacity="0.3" d="M93.2 234.8H124.2" stroke="#444E59" stroke-width="4" stroke-miterlimit="10" stroke-linecap="round" stroke-linejoin="round"/>
<path opacity="0.3" d="M83.3999 248.9H132.7" stroke="#444E59" stroke-width="4" stroke-miterlimit="10" stroke-linecap="round" stroke-linejoin="round"/>
<path opacity="0.62" d="M108 195.3C114.186 195.3 119.2 190.286 119.2 184.1C119.2 177.914 114.186 172.9 108 172.9C101.814 172.9 96.8 177.914 96.8 184.1C96.8 190.286 101.814 195.3 108 195.3Z" fill="white"/>
<path d="M124.2 264.4C124.2 267.5 121.7 270 118.6 270H97.4999C94.3999 270 91.8999 267.5 91.8999 264.4C91.8999 261.3 94.3999 258.8 97.4999 258.8H118.6C121.7 258.7 124.2 261.2 124.2 264.4Z" fill="#ED8B3B"/>
<path d="M662.2 293.9H419.9V148.3C419.9 144 423.4 140.5 427.7 140.5H654.5C658.7 140.5 662.1 143.9 662.1 148.1V293.9H662.2Z" fill="#BBBFC2"/>
<path d="M662.8 294.2H420.6V148.2C420.6 143.8 424.2 140.2 428.6 140.2H654.8C659.2 140.2 662.8 143.8 662.8 148.2V294.2Z" stroke="#444E59" stroke-width="4" stroke-miterlimit="10" stroke-linecap="round" stroke-linejoin="round"/>
<path opacity="0.71" d="M649.527 281.326V153.126L434.027 153.126V281.326H649.527Z" fill="#5D5D5D"/>
<path opacity="0.32" d="M486.7 256.9H468.1C467 256.9 466.1 256 466.1 254.9V191.2C466.1 190.1 467 189.2 468.1 189.2H486.7C487.8 189.2 488.7 190.1 488.7 191.2V255C488.7 256 487.8 256.9 486.7 256.9Z" fill="#848484"/>
<path opacity="0.32" d="M621 269.8H513.6C511.4 269.8 509.6 268 509.6 265.8V183.7C509.6 181.5 511.4 179.7 513.6 179.7H621C623.2 179.7 625 181.5 625 183.7V265.8C625 268 623.3 269.8 621 269.8Z" fill="#848484"/>
<path d="M649.337 280.72V153.62L434.037 153.62V280.72L649.337 280.72Z" stroke="#444E59" stroke-width="4" stroke-miterlimit="10" stroke-linecap="round" stroke-linejoin="round"/>
<path d="M689.2 294.2H394.1V303.6C394.1 308 397.7 311.6 402.1 311.6H681.2C685.6 311.6 689.2 308 689.2 303.6V294.2Z" fill="white"/>
<path opacity="0.8" d="M405.4 312.2H678C683.5 312.2 688 308 689 302.3H394.3C395.3 308 399.9 312.2 405.4 312.2Z" fill="#BBBFC2"/>
<path d="M689.2 294.2H394.1V303.6C394.1 308 397.7 311.6 402.1 311.6H681.2C685.6 311.6 689.2 308 689.2 303.6V294.2Z" stroke="#444E59" stroke-width="4" stroke-miterlimit="10" stroke-linecap="round" stroke-linejoin="round"/>
<path d="M483.3 184.1H460.8V206.6H483.3V184.1Z" fill="#F09F54"/>
<path d="M483.7 184.3H461.2V206.8H483.7V184.3Z" stroke="#444E59" stroke-width="4" stroke-miterlimit="10" stroke-linecap="round" stroke-linejoin="round"/>
<path d="M483.7 184.3H461.2V206.8H483.7V184.3Z" stroke="#444E59" stroke-width="4" stroke-miterlimit="10" stroke-linecap="round" stroke-linejoin="round"/>
<path d="M483.3 206.6H460.8V229.1H483.3V206.6Z" fill="#8D91DB"/>
<path d="M483.7 206.9H461.2V229.4H483.7V206.9Z" stroke="#444E59" stroke-width="4" stroke-miterlimit="10" stroke-linecap="round" stroke-linejoin="round"/>
<path d="M483.3 229.1H460.8V251.6H483.3V229.1Z" fill="#6567C3"/>
<path d="M483.7 229.4H461.2V251.9H483.7V229.4Z" stroke="#444E59" stroke-width="4" stroke-miterlimit="10" stroke-linecap="round" stroke-linejoin="round"/>
<path d="M614.5 262.9H507C504.8 262.9 503 261.1 503 258.9V176.8C503 174.6 504.8 172.8 507 172.8H614.5C616.7 172.8 618.5 174.6 618.5 176.8V258.9C618.5 261.2 616.7 262.9 614.5 262.9Z" fill="white"/>
<path d="M614.5 262.9H507C504.8 262.9 503 261.1 503 258.9V176.8C503 174.6 504.8 172.8 507 172.8H614.5C616.7 172.8 618.5 174.6 618.5 176.8V258.9C618.5 261.2 616.7 262.9 614.5 262.9Z" stroke="#444E59" stroke-width="4" stroke-miterlimit="10" stroke-linecap="round" stroke-linejoin="round"/>
<g opacity="0.3">
<g opacity="0.3">
<path opacity="0.3" d="M584.7 239.2V240.7H583.2" stroke="#444E59" stroke-width="2" stroke-linejoin="round"/>
<path opacity="0.3" d="M581.3 240.7H539.4" stroke="#444E59" stroke-width="2" stroke-linejoin="round" stroke-dasharray="2.86 2.86"/>
<path opacity="0.3" d="M538.4 240.7H536.9V239.2" stroke="#444E59" stroke-width="2" stroke-linejoin="round"/>
<path opacity="0.3" d="M536.9 237.1V198.1" stroke="#444E59" stroke-width="2" stroke-linejoin="round" stroke-dasharray="3 3"/>
<path opacity="0.3" d="M536.9 197.1V195.6H538.4" stroke="#444E59" stroke-width="2" stroke-linejoin="round"/>
<path opacity="0.3" d="M540.3 195.6H582.2" stroke="#444E59" stroke-width="2" stroke-linejoin="round" stroke-dasharray="2.86 2.86"/>
<path opacity="0.3" d="M583.2 195.6H584.7V197.1" stroke="#444E59" stroke-width="2" stroke-linejoin="round"/>
<path opacity="0.3" d="M584.7 199.1V238.2" stroke="#444E59" stroke-width="2" stroke-linejoin="round" stroke-dasharray="3 3"/>
</g>
</g>
<path d="M540.7 192.1H533.6V199.2H540.7V192.1Z" fill="white"/>
<path d="M540.3 191.8H533.3V198.8H540.3V191.8Z" stroke="#444E59" stroke-miterlimit="10" stroke-linejoin="round"/>
<path d="M540.7 237.1H533.6V244.2H540.7V237.1Z" fill="white"/>
<path d="M540.3 236.9H533.3V243.9H540.3V236.9Z" stroke="#444E59" stroke-miterlimit="10" stroke-linejoin="round"/>
<path d="M588.3 192.1H581.2V199.2H588.3V192.1Z" fill="white"/>
<path d="M588.2 191.8H581.2V198.8H588.2V191.8Z" stroke="#444E59" stroke-miterlimit="10" stroke-linejoin="round"/>
<path d="M588.3 237.1H581.2V244.2H588.3V237.1Z" fill="white"/>
<path d="M588.2 236.9H581.2V243.9H588.2V236.9Z" stroke="#444E59" stroke-miterlimit="10" stroke-linejoin="round"/>
<path d="M472.5 218.5L479.6 233.7L486.5 237.3L491.3 232.5L487.8 225.5L472.5 218.5Z" fill="white"/>
<path d="M472.5 218.5L479.6 233.7L486.5 237.3L491.3 232.5L487.8 225.5L472.5 218.5Z" stroke="#444E59" stroke-miterlimit="10" stroke-linejoin="round"/>
<path d="M481.5 229C482.549 229 483.4 228.149 483.4 227.1C483.4 226.051 482.549 225.2 481.5 225.2C480.451 225.2 479.6 226.051 479.6 227.1C479.6 228.149 480.451 229 481.5 229Z" fill="#444E59"/>
<path d="M472.5 218.5L480.4 226.4" stroke="#444E59" stroke-miterlimit="10" stroke-linecap="round" stroke-linejoin="round"/>
<path d="M491.33 232.421L486.521 237.229L489.986 240.694L494.795 235.886L491.33 232.421Z" fill="white"/>
<path d="M491.33 232.421L486.521 237.229L489.986 240.694L494.795 235.886L491.33 232.421Z" stroke="#444E59" stroke-miterlimit="10" stroke-linejoin="round"/>
</svg>
