<svg width="384" height="416" viewBox="0 0 384 416" fill="none" xmlns="http://www.w3.org/2000/svg">
<path d="M182.6 415.9C283.447 415.9 365.2 405.692 365.2 393.1C365.2 380.508 283.447 370.3 182.6 370.3C81.7528 370.3 0 380.508 0 393.1C0 405.692 81.7528 415.9 182.6 415.9Z" fill="#212552"/>
<path d="M142.1 377V369.6C142.1 366.3 139.4 363.6 136.1 363.6H70.1C66.8 363.6 64.1 366.3 64.1 369.6V391.6C64.1 394.9 66.8 397.6 70.1 397.6H114C118.8 397.6 123.4 395.7 126.8 392.3L142.1 377Z" fill="#92D6E9"/>
<path opacity="0.3" d="M136.1 363.6H70.1C66.8 363.6 64.1 366.3 64.1 369.6V390H129.1L142.1 377V369.6C142.1 366.3 139.4 363.6 136.1 363.6Z" fill="#0A1E2B" stroke="#0A1E2B" stroke-width="6" stroke-miterlimit="10" stroke-linecap="round" stroke-linejoin="round"/>
<path d="M223.1 377V369.6C223.1 366.3 225.8 363.6 229.1 363.6H295.1C298.4 363.6 301.1 366.3 301.1 369.6V391.6C301.1 394.9 298.4 397.6 295.1 397.6H251.2C246.4 397.6 241.8 395.7 238.4 392.3L223.1 377Z" fill="#92D6E9"/>
<path opacity="0.3" d="M295.1 363.6H229.1C225.8 363.6 223.1 366.3 223.1 369.6V377L236.1 390H301.1V369.6C301.1 366.3 298.4 363.6 295.1 363.6Z" fill="#0A1E2B" stroke="#0A1E2B" stroke-width="6" stroke-miterlimit="10" stroke-linecap="round" stroke-linejoin="round"/>
<path d="M142.1 377V369.6C142.1 366.3 139.4 363.6 136.1 363.6H70.1C66.8 363.6 64.1 366.3 64.1 369.6V391.6C64.1 394.9 66.8 397.6 70.1 397.6H114C118.8 397.6 123.4 395.7 126.8 392.3L142.1 377Z" stroke="#212552" stroke-width="6" stroke-miterlimit="10" stroke-linecap="round" stroke-linejoin="round"/>
<path d="M223.1 377V369.6C223.1 366.3 225.8 363.6 229.1 363.6H295.1C298.4 363.6 301.1 366.3 301.1 369.6V391.6C301.1 394.9 298.4 397.6 295.1 397.6H251.2C246.4 397.6 241.8 395.7 238.4 392.3L223.1 377Z" stroke="#212552" stroke-width="6" stroke-miterlimit="10" stroke-linecap="round" stroke-linejoin="round"/>
<path d="M312.6 377.1H52.6C30.5 377.1 12.6 359.2 12.6 337.1V77.1C12.6 55 30.5 37.1 52.6 37.1H312.6C334.7 37.1 352.6 55 352.6 77.1V337.1C352.6 359.2 334.7 377.1 312.6 377.1Z" fill="#CBEDF9"/>
<path d="M312.6 37.1H52.6C30.5 37.1 12.6 55 12.6 77.1V100.1C12.6 78 30.5 60.1 52.6 60.1H312.6C334.7 60.1 352.6 78 352.6 100.1V77.1C352.6 55 334.7 37.1 312.6 37.1Z" fill="#E8F9FF"/>
<path d="M312.6 354.1H52.6C30.5 354.1 12.6 336.2 12.6 314.1V337.1C12.6 359.2 30.5 377.1 52.6 377.1H312.6C334.7 377.1 352.6 359.2 352.6 337.1V314.1C352.6 336.2 334.7 354.1 312.6 354.1Z" fill="#92D6E9"/>
<path opacity="0.23" d="M51.3 336.2L87.7 377.1H155.7L199.6 376.8L190.9 311.7L51.3 336.2Z" fill="#0A1E2B" stroke="#0A1E2B" stroke-width="6" stroke-miterlimit="10" stroke-linecap="round" stroke-linejoin="round"/>
<path d="M64.6 341.1C55.8 341.1 48.6 333.9 48.6 325.1V89.1C48.6 80.3 55.8 73.1 64.6 73.1H300.6C309.4 73.1 316.6 80.3 316.6 89.1V325.1C316.6 333.9 309.4 341.1 300.6 341.1H64.6Z" fill="#92D6E9"/>
<path d="M316.6 89.1V325.1C316.6 333.9 309.4 341.1 300.6 341.1H64.6C55.8 341.1 48.6 333.9 48.6 325.1V89.1C48.6 80.3 55.8 73.1 64.6 73.1H192C196.5 75.2 199.6 79.9 199.6 85V95.3H282.2C284.8 95.3 287.2 96.4 288.9 98.1L309.6 75.9C313.8 78.7 316.6 83.6 316.6 89.1Z" stroke="#212552" stroke-width="6" stroke-miterlimit="10" stroke-linecap="round" stroke-linejoin="round"/>
<path opacity="0.23" d="M273.5 299.5L328.1 330.1L339.1 295.9L309.6 275.7L273.5 299.5Z" fill="#0A1E2B" stroke="#0A1E2B" stroke-width="6" stroke-miterlimit="10" stroke-linecap="round" stroke-linejoin="round"/>
<path d="M309.6 75.9L288.9 98.1C287.2 96.4 284.8 95.3 282.2 95.3H199.6V85C199.6 79.9 196.4 75.2 192 73.1H300.6C303.9 73.1 307.1 74.1 309.6 75.9Z" fill="#53ADBC"/>
<path d="M309.6 75.9L288.9 98.1C287.2 96.4 284.8 95.3 282.2 95.3H199.6V85C199.6 79.9 196.4 75.2 192 73.1H300.6C303.9 73.1 307.1 74.1 309.6 75.9Z" stroke="#212552" stroke-width="6" stroke-miterlimit="10" stroke-linecap="round" stroke-linejoin="round"/>
<path d="M288.9 98C290.6 99.7 291.7 102.1 291.7 104.7V303.6C291.7 309.4 287 314 281.3 314H199.6" stroke="#212552" stroke-width="6" stroke-miterlimit="10" stroke-linecap="round" stroke-linejoin="round"/>
<path d="M344.6 270.3L326.5 223.4C325.5 220.7 322.4 219.4 319.7 220.4L275.4 237.6L231.1 254.7C228.4 255.7 227.1 258.8 228.1 261.5L246.2 308.4C247.2 311.1 250.3 312.4 253 311.4L297.3 294.3L341.6 277.2C344.3 276 345.7 273 344.6 270.3Z" fill="#5F9E71" stroke="#212552" stroke-width="6" stroke-miterlimit="10" stroke-linecap="round" stroke-linejoin="round"/>
<path d="M344.6 270.3L326.5 223.4C325.5 220.7 322.4 219.4 319.7 220.4L275.4 237.6L231.1 254.7C228.4 255.7 227.1 258.8 228.1 261.5L246.2 308.4C247.2 311.1 250.3 312.4 253 311.4L297.3 294.3L341.6 277.2C344.3 276 345.7 273 344.6 270.3Z" stroke="#212552" stroke-width="6" stroke-miterlimit="10" stroke-linecap="round" stroke-linejoin="round"/>
<path d="M331.9 268L327.2 255.9C324.4 257 321.3 255.6 320.2 252.8C319.1 250 320.5 246.9 323.3 245.8L318.6 233.7C318 232.3 316.4 231.5 315 232.1L279.6 245.8L278.8 246.1L243.4 259.8C242 260.4 241.2 262 241.8 263.4L246.5 275.5C249.3 274.4 252.4 275.8 253.5 278.6C254.6 281.4 253.2 284.5 250.4 285.6L255.1 297.7C255.7 299.1 257.3 299.9 258.7 299.3L294.1 285.6L294.9 285.3L330.3 271.6C331.7 271.1 332.4 269.5 331.9 268Z" fill="#90C49E"/>
<path d="M291.074 278.297C297.616 275.768 300.772 268.164 298.123 261.313C295.475 254.462 288.024 250.958 281.482 253.488C274.94 256.017 271.784 263.621 274.433 270.472C277.082 277.323 284.532 280.827 291.074 278.297Z" fill="white"/>
<path opacity="0.23" d="M264.5 275.7L300 228.1L298.6 181.6L264.5 275.7Z" fill="#0A1E2B" stroke="#0A1E2B" stroke-width="6" stroke-miterlimit="10" stroke-linecap="round" stroke-linejoin="round"/>
<path d="M242.4 279.6H226.5L232.7 302L235.6 309.5L242.4 279.6Z" fill="#A78B75"/>
<path d="M221.5 314.1H188.2C182 314.1 178.2 309 179.7 303.2L184.6 283.6C185.4 280.2 189.5 277.7 193.7 277.7H216.2C220.4 277.7 224.4 280.2 225.3 283.6L230.2 303.2C231.5 308.9 227.7 314.1 221.5 314.1Z" fill="#FFE07D"/>
<path d="M230.1 303.2L225.2 283.6C224.4 280.2 220.3 277.7 216.1 277.7H193.6C189.4 277.7 185.4 280.2 184.5 283.6L184.4 284.1C185.3 283.9 186.2 283.8 187.1 283.8H209.6C213.8 283.8 217.8 286.3 218.7 289.7L223.6 309.3C224 310.9 224 312.5 223.6 313.9C228.5 312.9 231.3 308.3 230.1 303.2Z" fill="#FFE8A6"/>
<path d="M221.5 314.1H188.2C182 314.1 178.2 309 179.7 303.2L184.6 283.6C185.4 280.2 189.5 277.7 193.7 277.7H216.2C220.4 277.7 224.4 280.2 225.3 283.6L230.2 303.2C231.5 308.9 227.7 314.1 221.5 314.1Z" stroke="#212552" stroke-width="6" stroke-miterlimit="10" stroke-linecap="round" stroke-linejoin="round"/>
<path d="M196 277.7H162.7C156.5 277.7 152.7 272.6 154.2 266.8L159.1 247.2C159.9 243.8 164 241.3 168.2 241.3H190.6C194.8 241.3 198.8 243.8 199.7 247.2L204.6 266.8C206 272.5 202.2 277.7 196 277.7Z" fill="#FFE07D"/>
<path d="M196 277.7H162.7C156.5 277.7 152.7 272.6 154.2 266.8L159.1 247.2C159.9 243.8 164 241.3 168.2 241.3H190.6C194.8 241.3 198.8 243.8 199.7 247.2L204.6 266.8C206 272.5 202.2 277.7 196 277.7Z" stroke="#212552" stroke-width="6" stroke-miterlimit="10" stroke-linecap="round" stroke-linejoin="round"/>
<path d="M295.5 178.5L248.4 160.9C245.7 159.9 242.7 161.3 241.7 164L225.1 208.5L208.5 253C207.5 255.7 208.9 258.7 211.6 259.7L258.7 277.3C261.4 278.3 264.4 276.9 265.4 274.2L282 229.7L298.6 185.2C299.6 182.5 298.2 179.5 295.5 178.5Z" fill="#5F9E71" stroke="#212552" stroke-width="6" stroke-miterlimit="10" stroke-linecap="round" stroke-linejoin="round"/>
<path d="M285.3 186.5L273.2 182C272.2 184.8 269 186.2 266.2 185.2C263.4 184.2 262 181 263 178.2L250.9 173.7C249.4 173.2 247.8 173.9 247.3 175.3L234 210.9L233.7 211.7L220.4 247.3C219.9 248.8 220.6 250.4 222 250.9L234.1 255.4C235.1 252.6 238.3 251.2 241.1 252.2C243.9 253.2 245.3 256.4 244.3 259.2L256.4 263.7C257.9 264.2 259.5 263.5 260 262.1L273.3 226.5L273.6 225.7L286.9 190.1C287.5 188.7 286.8 187.1 285.3 186.5Z" fill="#90C49E"/>
<path d="M265.909 223.697C268.361 217.125 264.771 209.716 257.889 207.147C251.007 204.578 243.44 207.823 240.987 214.395C238.534 220.966 242.125 228.376 249.007 230.944C255.889 233.513 263.456 230.268 265.909 223.697Z" fill="white"/>
<path d="M295.5 178.5L248.4 160.9C245.7 159.9 242.7 161.3 241.7 164L225.1 208.5L208.5 253C207.5 255.7 208.9 258.7 211.6 259.7L258.7 277.3C261.4 278.3 264.4 276.9 265.4 274.2L282 229.7L298.6 185.2C299.6 182.5 298.2 179.5 295.5 178.5Z" stroke="#212552" stroke-width="6" stroke-miterlimit="10" stroke-linecap="round" stroke-linejoin="round"/>
<path d="M220.4 244.2L200.9 243.3L206.6 263.1L213.6 274.1L220.4 244.2Z" fill="#A78B75"/>
<path d="M250.5 277.7H217.2C211 277.7 207.2 272.6 208.7 266.8L213.6 247.2C214.4 243.8 218.5 241.3 222.7 241.3H245.2C249.4 241.3 253.4 243.8 254.3 247.2L259.2 266.8C260.5 272.5 256.7 277.7 250.5 277.7Z" fill="#FFE07D"/>
<path d="M259 266.8L254.1 247.2C253.3 243.8 249.2 241.3 245 241.3H222.6C218.4 241.3 214.4 243.8 213.5 247.2L213.2 248.4C214.4 248 215.6 247.7 216.9 247.7H239.4C243.6 247.7 247.6 250.2 248.5 253.6L253.4 273.2C253.7 274.6 253.8 275.9 253.6 277.2C257.9 275.8 260.2 271.5 259 266.8Z" fill="#FFE8A6"/>
<path d="M250.5 277.7H217.2C211 277.7 207.2 272.6 208.7 266.8L213.6 247.2C214.4 243.8 218.5 241.3 222.7 241.3H245.2C249.4 241.3 253.4 243.8 254.3 247.2L259.2 266.8C260.5 272.5 256.7 277.7 250.5 277.7Z" stroke="#212552" stroke-width="6" stroke-miterlimit="10" stroke-linecap="round" stroke-linejoin="round"/>
<path d="M224.8 241.3H191.5C185.3 241.3 181.5 236.2 183 230.4L187.9 210.8C188.7 207.4 192.8 204.9 197 204.9H219.5C223.7 204.9 227.7 207.4 228.6 210.8L233.5 230.4C234.7 236.1 231 241.3 224.8 241.3Z" fill="#FFE07D"/>
<path d="M233.3 230.4L228.4 210.8C227.6 207.4 223.5 204.9 219.3 204.9H196.8C192.6 204.9 188.6 207.4 187.7 210.8V211C188.7 210.7 189.8 210.5 190.9 210.5H213.4C217.6 210.5 221.6 213 222.5 216.4L227.4 236C227.8 237.7 227.8 239.4 227.3 240.9C232 239.7 234.5 235.3 233.3 230.4Z" fill="#FFE8A6"/>
<path d="M224.8 241.3H191.5C185.3 241.3 181.5 236.2 183 230.4L187.9 210.8C188.7 207.4 192.8 204.9 197 204.9H219.5C223.7 204.9 227.7 207.4 228.6 210.8L233.5 230.4C234.7 236.1 231 241.3 224.8 241.3Z" stroke="#212552" stroke-width="6" stroke-miterlimit="10" stroke-linecap="round" stroke-linejoin="round"/>
<path opacity="0.23" d="M300.6 73.1H138.4L143.1 218.7H231L298.6 181.6L316.6 114.8V89.1C316.6 80.2 309.4 73.1 300.6 73.1Z" fill="#0A1E2B" stroke="#0A1E2B" stroke-width="6" stroke-miterlimit="10" stroke-linecap="round" stroke-linejoin="round"/>
<path d="M277.5 314.1H244.2C238 314.1 234.2 309 235.7 303.2L240.6 283.6C241.4 280.2 245.5 277.7 249.7 277.7H272.2C276.4 277.7 280.4 280.2 281.3 283.6L286.2 303.2C287.5 308.9 283.7 314.1 277.5 314.1Z" fill="#FFE07D"/>
<path d="M286 303.2L281.1 283.6C280.3 280.2 276.2 277.7 272 277.7H249.6C245.4 277.7 241.4 280.2 240.5 283.6L240.1 285.3C241.2 284.9 242.4 284.7 243.6 284.7H266.1C270.3 284.7 274.3 287.2 275.2 290.6L280.1 310.2C280.4 311.4 280.5 312.6 280.3 313.7C284.8 312.4 287.2 308 286 303.2Z" fill="#FFE8A6"/>
<path d="M277.5 314.1H244.2C238 314.1 234.2 309 235.7 303.2L240.6 283.6C241.4 280.2 245.5 277.7 249.7 277.7H272.2C276.4 277.7 280.4 280.2 281.3 283.6L286.2 303.2C287.5 308.9 283.7 314.1 277.5 314.1Z" stroke="#212552" stroke-width="6" stroke-miterlimit="10" stroke-linecap="round" stroke-linejoin="round"/>
<path d="M61.5 328.1V85.8999C61.5 76.7999 66.6 68.4999 72.9 67.1999L153.8 50.9999C161.9 49.3999 168.5 56.5999 168.5 66.9999V347C168.5 357.5 161.8 364.6 153.8 363L72.9 346.8C66.6 345.6 61.5 337.2 61.5 328.1Z" fill="#92D6E9"/>
<path d="M61.5 328.1V85.8999C61.5 76.7999 66.6 68.4999 72.9 67.1999L153.8 50.9999C161.9 49.3999 168.5 56.5999 168.5 66.9999V347C168.5 357.5 161.8 364.6 153.8 363L72.9 346.8C66.6 345.6 61.5 337.2 61.5 328.1Z" stroke="#212552" stroke-width="6" stroke-miterlimit="10" stroke-linecap="round" stroke-linejoin="round"/>
<path d="M48.6 325.1V89.0999C48.6 80.2999 53.5 71.8999 59.7 70.4999L140.6 51.5999C148.8 49.6999 155.7 56.5999 155.7 67.0999V347.1C155.7 357.6 148.9 364.5 140.6 362.6L59.8 343.7C53.5 342.2 48.6 333.9 48.6 325.1Z" fill="#CBEDF9"/>
<path d="M140.6 346.5L59.8 327.6C53.6 326.1 48.7 317.8 48.7 309V325C48.7 333.8 53.6 342.2 59.8 343.6L140.6 362.5C148.8 364.4 155.7 357.5 155.7 347V331C155.7 341.6 148.8 348.5 140.6 346.5Z" fill="#92D6E9"/>
<path d="M140.6 51.5999L59.8 70.4999C53.6 71.9999 48.7 80.2999 48.7 89.0999V101.1C48.7 92.2999 53.6 83.8999 59.8 82.4999L140.6 63.5999C148.8 61.6999 155.7 68.5999 155.7 79.0999V67.0999C155.7 56.5999 148.8 49.6999 140.6 51.5999Z" fill="#E8F9FF"/>
<path d="M143.1 136C145.696 136 147.8 131.254 147.8 125.4C147.8 119.546 145.696 114.8 143.1 114.8C140.504 114.8 138.4 119.546 138.4 125.4C138.4 131.254 140.504 136 143.1 136Z" fill="#212552"/>
<path d="M48.6 325.1V89.0999C48.6 80.2999 53.5 71.8999 59.7 70.4999L140.6 51.5999C148.8 49.6999 155.7 56.5999 155.7 67.0999V347.1C155.7 357.6 148.9 364.5 140.6 362.6L59.8 343.7C53.5 342.2 48.6 333.9 48.6 325.1Z" stroke="#212552" stroke-width="6" stroke-miterlimit="10" stroke-linecap="round" stroke-linejoin="round"/>
<path d="M98.2 268.8C113.609 268.8 126.1 244.355 126.1 214.2C126.1 184.045 113.609 159.6 98.2 159.6C82.7912 159.6 70.3 184.045 70.3 214.2C70.3 244.355 82.7912 268.8 98.2 268.8Z" fill="#9FBDCA" stroke="#9FBDCA" stroke-width="6" stroke-miterlimit="10" stroke-linecap="round" stroke-linejoin="round"/>
<path d="M97.2 273.7C101.95 273.7 105.8 270.208 105.8 265.9C105.8 261.592 101.95 258.1 97.2 258.1C92.4503 258.1 88.6 261.592 88.6 265.9C88.6 270.208 92.4503 273.7 97.2 273.7Z" fill="#9FBDCA" stroke="#9FBDCA" stroke-width="6" stroke-miterlimit="10" stroke-linecap="round" stroke-linejoin="round"/>
<path d="M99.4 263.1C115.858 263.1 129.2 238.252 129.2 207.6C129.2 176.948 115.858 152.1 99.4 152.1C82.9419 152.1 69.6 176.948 69.6 207.6C69.6 238.252 82.9419 263.1 99.4 263.1Z" fill="#CBEDF9"/>
<path d="M97.2 253.6C110.123 253.6 120.6 233.005 120.6 207.6C120.6 182.195 110.123 161.6 97.2 161.6C84.2765 161.6 73.8 182.195 73.8 207.6C73.8 233.005 84.2765 253.6 97.2 253.6Z" fill="#92D6E9"/>
<g opacity="0.23">
<path d="M71.3 207.6L115.1 209.3L102.1 262.9L87.7 258.7L69.6 207.6" fill="#0A1E2B"/>
<path d="M71.3 207.6L115.1 209.3L102.1 262.9L87.7 258.7L69.6 207.6" stroke="#0A1E2B" stroke-width="6" stroke-miterlimit="10" stroke-linecap="round" stroke-linejoin="round"/>
</g>
<path d="M99.4 263.1C115.858 263.1 129.2 238.252 129.2 207.6C129.2 176.948 115.858 152.1 99.4 152.1C82.9419 152.1 69.6 176.948 69.6 207.6C69.6 238.252 82.9419 263.1 99.4 263.1Z" stroke="#212552" stroke-width="6" stroke-miterlimit="10" stroke-linecap="round" stroke-linejoin="round"/>
<path opacity="0.23" d="M48.6 169.6C44.2 169.6 40.6 166 40.6 161.6V137.6C40.6 133.2 44.2 129.6 48.6 129.6C53 129.6 56.6 133.2 56.6 137.6V161.6C56.6 166 53 169.6 48.6 169.6Z" fill="#0A1E2B" stroke="#0A1E2B" stroke-width="6" stroke-miterlimit="10" stroke-linecap="round" stroke-linejoin="round"/>
<path opacity="0.23" d="M48.6 300.1C44.2 300.1 40.6 296.5 40.6 292.1V268.1C40.6 263.7 44.2 260.1 48.6 260.1C53 260.1 56.6 263.7 56.6 268.1V292.1C56.6 296.5 53 300.1 48.6 300.1Z" fill="#0A1E2B" stroke="#0A1E2B" stroke-width="6" stroke-miterlimit="10" stroke-linecap="round" stroke-linejoin="round"/>
<path d="M48.6 161.6C44.2 161.6 40.6 158 40.6 153.6V129.6C40.6 125.2 44.2 121.6 48.6 121.6C53 121.6 56.6 125.2 56.6 129.6V153.6C56.6 158 53 161.6 48.6 161.6Z" fill="#92D6E9"/>
<path d="M48.6 292.6C44.2 292.6 40.6 289 40.6 284.6V260.6C40.6 256.2 44.2 252.6 48.6 252.6C53 252.6 56.6 256.2 56.6 260.6V284.6C56.6 289 53 292.6 48.6 292.6Z" fill="#92D6E9"/>
<path d="M48.6 161.6C44.2 161.6 40.6 158 40.6 153.6V129.6C40.6 125.2 44.2 121.6 48.6 121.6C53 121.6 56.6 125.2 56.6 129.6V153.6C56.6 158 53 161.6 48.6 161.6Z" stroke="#212552" stroke-width="6" stroke-miterlimit="10" stroke-linecap="round" stroke-linejoin="round"/>
<path d="M48.6 292.6C44.2 292.6 40.6 289 40.6 284.6V260.6C40.6 256.2 44.2 252.6 48.6 252.6C53 252.6 56.6 256.2 56.6 260.6V284.6C56.6 289 53 292.6 48.6 292.6Z" stroke="#212552" stroke-width="6" stroke-miterlimit="10" stroke-linecap="round" stroke-linejoin="round"/>
<path d="M380.6 54.9L360.4 52.1" stroke="#212552" stroke-width="6" stroke-miterlimit="10" stroke-linecap="round" stroke-linejoin="round"/>
<path d="M332.5 23.2L329.5 3" stroke="#212552" stroke-width="6" stroke-miterlimit="10" stroke-linecap="round" stroke-linejoin="round"/>
<path d="M352.5 30.5L367 16" stroke="#212552" stroke-width="6" stroke-miterlimit="10" stroke-linecap="round" stroke-linejoin="round"/>
<path d="M94 187.1H78.3V228.2H94C100.9 228.2 106.4 219 106.4 207.7C106.4 196.4 100.8 187.1 94 187.1Z" fill="#3CA4B5"/>
<path d="M94 187.1H78.3V228.2H94C100.9 228.2 106.4 219 106.4 207.7C106.4 196.4 100.8 187.1 94 187.1Z" stroke="#212552" stroke-width="6" stroke-miterlimit="10" stroke-linecap="round" stroke-linejoin="round"/>
<path d="M94 228.1C100.848 228.1 106.4 218.922 106.4 207.6C106.4 196.278 100.848 187.1 94 187.1C87.1516 187.1 81.6 196.278 81.6 207.6C81.6 218.922 87.1516 228.1 94 228.1Z" stroke="#212552" stroke-width="10" stroke-miterlimit="10" stroke-linecap="round" stroke-linejoin="round"/>
<path d="M113.6 207.6H93.1" stroke="#212552" stroke-width="9" stroke-miterlimit="10" stroke-linecap="round" stroke-linejoin="round"/>
<path d="M81.5 187.1H94V171L81.5 187.1Z" stroke="#212552" stroke-width="6" stroke-miterlimit="10" stroke-linecap="round" stroke-linejoin="round"/>
<path d="M81.5 187.1H94V171L81.5 187.1Z" fill="#212552"/>
<path d="M81.5 228.1H94V244.2L81.5 228.1Z" fill="#212552"/>
<path d="M81.5 228.1H94V244.2L81.5 228.1Z" stroke="#212552" stroke-width="6" stroke-miterlimit="10" stroke-linecap="round" stroke-linejoin="round"/>
<path d="M78.3 228.1C85.1483 228.1 90.7 218.922 90.7 207.6C90.7 196.278 85.1483 187.1 78.3 187.1C71.4517 187.1 65.9 196.278 65.9 207.6C65.9 218.922 71.4517 228.1 78.3 228.1Z" fill="#FFEA9E"/>
<path d="M77.3 217.6C80.6689 217.6 83.3999 213.123 83.3999 207.6C83.3999 202.077 80.6689 197.6 77.3 197.6C73.931 197.6 71.2 202.077 71.2 207.6C71.2 213.123 73.931 217.6 77.3 217.6Z" fill="#FFE07D"/>
<path d="M78.3 228.1C85.1483 228.1 90.7 218.922 90.7 207.6C90.7 196.278 85.1483 187.1 78.3 187.1C71.4517 187.1 65.9 196.278 65.9 207.6C65.9 218.922 71.4517 228.1 78.3 228.1Z" stroke="#212552" stroke-width="6" stroke-miterlimit="10" stroke-linecap="round" stroke-linejoin="round"/>
<path d="M187.9 342.2L167.6 344.2V69.9L187.9 71.9C194.4 72.5 199.6 78.4 199.6 84.9V329.1C199.6 335.7 194.4 341.6 187.9 342.2Z" fill="#CBEDF9"/>
<path opacity="0.23" d="M200.2 174.2V145.6H177.9V175.9H178C178 182.1 183 187.1 189.2 187.1C195.4 187.1 200.4 182.1 200.4 175.9C200.4 175.3 200.3 174.8 200.2 174.2Z" fill="#0A1E2B" stroke="#0A1E2B" stroke-width="6" stroke-miterlimit="10" stroke-linecap="round" stroke-linejoin="round"/>
<path d="M199.6 84.9V329.1C199.6 334.2 196.5 338.9 192.2 341C191 341.6 189.6 342 188.2 342.1L168.6 344.1V69.9L188.2 71.9C189.6 72 190.9 72.4 192.2 73C196.5 75.2 199.6 79.8 199.6 84.9Z" stroke="#212552" stroke-width="6" stroke-miterlimit="10" stroke-linecap="round" stroke-linejoin="round"/>
<path d="M287.9 311.7L312.1 336.2" stroke="#212552" stroke-width="6" stroke-miterlimit="10" stroke-linecap="round" stroke-linejoin="round"/>
<path d="M189.5 132.4C183.3 132.4 178.3 137.4 178.3 143.6C178.3 149.8 183.3 154.8 189.5 154.8H200.4V132.5H189.5V132.4Z" fill="#92D6E9"/>
<path d="M189.5 132.4C183.3 132.4 178.3 137.4 178.3 143.6C178.3 149.8 183.3 154.8 189.5 154.8H200.4V132.5H189.5V132.4Z" stroke="#212552" stroke-width="6" stroke-miterlimit="10" stroke-linecap="round" stroke-linejoin="round"/>
<path d="M200.4 154.8C206.586 154.8 211.6 149.786 211.6 143.6C211.6 137.414 206.586 132.4 200.4 132.4C194.214 132.4 189.2 137.414 189.2 143.6C189.2 149.786 194.214 154.8 200.4 154.8Z" fill="#CBEDF9"/>
<path d="M200.4 154.8C206.586 154.8 211.6 149.786 211.6 143.6C211.6 137.414 206.586 132.4 200.4 132.4C194.214 132.4 189.2 137.414 189.2 143.6C189.2 149.786 194.214 154.8 200.4 154.8Z" stroke="#212552" stroke-width="6" stroke-miterlimit="10" stroke-linecap="round" stroke-linejoin="round"/>
<path d="M200.4 154.8C206.586 154.8 211.6 149.786 211.6 143.6C211.6 137.414 206.586 132.4 200.4 132.4C194.214 132.4 189.2 137.414 189.2 143.6C189.2 149.786 194.214 154.8 200.4 154.8Z" stroke="#212552" stroke-width="6" stroke-miterlimit="10" stroke-linecap="round" stroke-linejoin="round"/>
<path opacity="0.23" d="M200.2 301.9V273.3H177.9V303.6H178C178 309.8 183 314.8 189.2 314.8C195.4 314.8 200.4 309.8 200.4 303.6C200.4 303 200.3 302.4 200.2 301.9Z" fill="#0A1E2B" stroke="#0A1E2B" stroke-width="6" stroke-miterlimit="10" stroke-linecap="round" stroke-linejoin="round"/>
<path d="M189.5 260.1C183.3 260.1 178.3 265.1 178.3 271.3C178.3 277.5 183.3 282.5 189.5 282.5H200.4V260.2H189.5V260.1Z" fill="#92D6E9"/>
<path d="M189.5 260.1C183.3 260.1 178.3 265.1 178.3 271.3C178.3 277.5 183.3 282.5 189.5 282.5H200.4V260.2H189.5V260.1Z" stroke="#212552" stroke-width="6" stroke-miterlimit="10" stroke-linecap="round" stroke-linejoin="round"/>
<path d="M200.4 282.4C206.586 282.4 211.6 277.386 211.6 271.2C211.6 265.014 206.586 260 200.4 260C194.214 260 189.2 265.014 189.2 271.2C189.2 277.386 194.214 282.4 200.4 282.4Z" fill="#CBEDF9"/>
<path d="M200.4 282.4C206.586 282.4 211.6 277.386 211.6 271.2C211.6 265.014 206.586 260 200.4 260C194.214 260 189.2 265.014 189.2 271.2C189.2 277.386 194.214 282.4 200.4 282.4Z" stroke="#212552" stroke-width="6" stroke-miterlimit="10" stroke-linecap="round" stroke-linejoin="round"/>
<path d="M133.6 279.9C131.4 279.9 129.6 278.1 129.6 275.9V133.9C129.6 131.7 131.4 129.9 133.6 129.9H141.8V120.9H132.6C126 120.9 120.6 126.3 120.6 132.9V276.9C120.6 283.5 126 288.9 132.6 288.9H141.8V279.9H133.6Z" fill="#92D6E9"/>
<path d="M143.1 294.3C145.696 294.3 147.8 289.554 147.8 283.7C147.8 277.846 145.696 273.1 143.1 273.1C140.504 273.1 138.4 277.846 138.4 283.7C138.4 289.554 140.504 294.3 143.1 294.3Z" fill="#212552"/>
<path d="M133.6 279.9C131.4 279.9 129.6 278.1 129.6 275.9V133.9C129.6 131.7 131.4 129.9 133.6 129.9H141.8V120.9H132.6C126 120.9 120.6 126.3 120.6 132.9V276.9C120.6 283.5 126 288.9 132.6 288.9H141.8V279.9H133.6Z" stroke="#212552" stroke-width="6" stroke-miterlimit="10" stroke-linecap="round" stroke-linejoin="round"/>
<path d="M312.6 377.1H52.6C30.5 377.1 12.6 359.2 12.6 337.1V77.1C12.6 55 30.5 37.1 52.6 37.1H312.6C334.7 37.1 352.6 55 352.6 77.1V337.1C352.6 359.2 334.7 377.1 312.6 377.1Z" stroke="#212552" stroke-width="6" stroke-miterlimit="10" stroke-linecap="round" stroke-linejoin="round"/>
<path opacity="0.23" d="M142.1 134.1L143.1 311.7" stroke="#0A1E2B" stroke-width="8" stroke-miterlimit="10" stroke-linecap="round" stroke-linejoin="round"/>
<path d="M141.2 51.2999L156.7 50.7999" stroke="#212552" stroke-width="6" stroke-miterlimit="10" stroke-linecap="round" stroke-linejoin="round"/>
<path d="M142.6 362.8L156.9 363.2" stroke="#212552" stroke-width="6" stroke-miterlimit="10" stroke-linecap="round" stroke-linejoin="round"/>
</svg>
